*
G04 Job   : V:\2023\17_KDDI_3.7G_4.0G_32T32R_200W_PWR_PP3235-77A\PCS01B\06_Working\PCB\PP3235-77A.pcb*
G04 User  : JIAXIN-ZHANG01:jiaxin.zhang*
G04 Layer : Height_Over_5mm_T.gdo*
G04 Date  : Tue Jan 09 13:23:10 2024*
G04 Height_Over_5mm_T.gdo*
%ICAS*%
%MOMM*%
%FSLAX34Y34*%
%OFA0.0000B0.0000*%
G90*
G74*
%ADD10C,0.01000*%
%ADD11C,0.05000*%
G01*
G54D10*
X3103662Y76833D02*
G02X3159806Y17900I53662J107333D01*
G03X3187258Y0I27452J12100*
G01X3530000*
G03X3600000Y70000J70000*
G01Y1500000*
G03X3570000Y1530000I30000*
G01X30000*
G03X0Y1500000J30000*
G01Y228500*
G03X30000Y198500I30000*
G01X55000*
G02X105000Y148500J50000*
G01Y120000*
G03X145000Y80000I40000*
G01X860003*
G03X874446Y81625J65000*
G02X900000Y84500I25554J112125*
X925554Y81625J115000*
G03X939997Y80000I14443J63375*
G01X1660003*
G03X1674446Y81625J65000*
G02X1700000Y84500I25554J112125*
X1725554Y81625J115000*
G03X1739997Y80000I14443J63375*
G01X2013798*
G03X2063544Y106455J60000*
G02X2105000Y128500I41456J27955*
X2146455Y106455J50000*
G03X2196202Y80000I49747J33545*
G01X2460003*
G03X2474446Y81625J65000*
G02X2500000Y84500I25554J112125*
X2525554Y81625J115000*
G03X2539997Y80000I14443J63375*
G01X3010003*
G03X3024446Y81625J65000*
G02X3050000Y84500I25554J112125*
X3075555Y81625J115000*
G03X3089998Y80000I14443J63375*
X3090168J65000*
G02X3090246I78J30000*
X3103662Y76833J30000*
G54D11*
G01X47936Y1491954D02*
X31573D01*
X29936Y1476682*
X31573Y1478318*
X36482Y1479955*
X41391*
X46300Y1478318*
X49573Y1475045*
X51209Y1470136*
Y1466318*
X49573Y1461409*
X46300Y1458136*
X41391Y1456500*
X36482*
X31573Y1458136*
X29936Y1459773*
X28300Y1463046*
X62936Y765954D02*
X46573D01*
X44936Y750682*
X46573Y752318*
X51482Y753955*
X56391*
X61300Y752318*
X64573Y749045*
X66209Y744136*
Y740318*
X64573Y735409*
X61300Y732136*
X56391Y730500*
X51482*
X46573Y732136*
X44936Y733773*
X43300Y737046*
X82936Y319954D02*
X66573D01*
X64936Y304682*
X66573Y306318*
X71482Y307955*
X76391*
X81300Y306318*
X84573Y303045*
X86209Y298136*
Y294318*
X84573Y289409*
X81300Y286137*
X76391Y284500*
X71482*
X66573Y286137*
X64936Y287773*
X63300Y291046*
X100000Y1474500D02*
G03X40000Y1534500I60000D01*
X-20000Y1474500J60000*
X40000Y1414500I60000*
X100000Y1474500J60000*
G01X115000Y748500D02*
G03X55000Y808500I60000D01*
X-5000Y748500J60000*
X55000Y688500I60000*
X115000Y748500J60000*
G01X125000Y377500D02*
X255000D01*
Y735000*
X125000*
Y377500*
X135000Y302500D02*
G03X75000Y362500I60000D01*
X15000Y302500J60000*
X75000Y242500I60000*
X135000Y302500J60000*
G01X165280Y566068D02*
X167644Y567841D01*
X170598Y573159*
Y534750*
X198370Y573159D02*
X217870D01*
X207234Y558386*
X212552*
X216097Y556614*
X217870Y554841*
X219643Y549523*
Y545386*
X217870Y540068*
X214325Y536523*
X209007Y534750*
X203688*
X198370Y536523*
X196598Y538296*
X194825Y541841*
X255000Y262500D02*
X385000D01*
Y620000*
X255000*
Y262500*
X292500Y1175000D02*
X650000D01*
Y1305000*
X292500*
Y1175000*
Y1305000D02*
X650000D01*
Y1435000*
X292500*
Y1305000*
X295280Y451068D02*
X297643Y452841D01*
X300598Y458159*
Y419750*
X328370Y458159D02*
X347870D01*
X337234Y443386*
X342552*
X346097Y441614*
X347870Y439841*
X349643Y434523*
Y430386*
X347870Y425068*
X344325Y421523*
X339006Y419750*
X333688*
X328370Y421523*
X326598Y423296*
X324825Y426841*
X385000Y172500D02*
X515000D01*
Y530000*
X385000*
Y172500*
X425280Y361068D02*
X427643Y362841D01*
X430598Y368159*
Y329750*
X450341Y1252370D02*
Y1271870D01*
X465114Y1261234*
Y1266552*
X466886Y1270097*
X468659Y1271870*
X473977Y1273643*
X478113*
X483432Y1271870*
X486977Y1268325*
X488750Y1263006*
Y1257688*
X486977Y1252370*
X485204Y1250598*
X481659Y1248825*
X450341Y1382370D02*
Y1401870D01*
X465114Y1391234*
Y1396552*
X466886Y1400097*
X468659Y1401870*
X473977Y1403643*
X478113*
X483432Y1401870*
X486977Y1398325*
X488750Y1393007*
Y1387688*
X486977Y1382370*
X485204Y1380598*
X481659Y1378825*
X457432Y1219280D02*
X455659Y1221644D01*
X450341Y1224598*
X488750*
X457432Y1349280D02*
X455659Y1351644D01*
X450341Y1354598*
X488750*
X458370Y368159D02*
X477870D01*
X467234Y353386*
X472552*
X476097Y351614*
X477870Y349841*
X479643Y344523*
Y340386*
X477870Y335068*
X474325Y331523*
X469006Y329750*
X463688*
X458370Y331523*
X456598Y333296*
X454825Y336841*
X467936Y619954D02*
X451573D01*
X449936Y604682*
X451573Y606318*
X456482Y607955*
X461391*
X466300Y606318*
X469573Y603045*
X471209Y598136*
Y594318*
X469573Y589409*
X466300Y586137*
X461391Y584500*
X456482*
X451573Y586137*
X449936Y587773*
X448300Y591046*
X520000Y602500D02*
G03X460000Y662500I60000D01*
X400000Y602500J60000*
X460000Y542500I60000*
X520000Y602500J60000*
G01X777000Y1090000D02*
X1133000D01*
Y1420000*
X777000*
Y1090000*
X787500Y520000D02*
X1122500D01*
Y900000*
X787500*
Y520000*
X882546Y156436D02*
Y140073D01*
X897818Y138436*
X896182Y140073*
X894545Y144982*
Y149891*
X896182Y154800*
X899455Y158073*
X904364Y159709*
X908182*
X913091Y158073*
X916363Y154800*
X918000Y149891*
Y144982*
X916364Y140073*
X914727Y138436*
X911454Y136800*
X896451Y737954D02*
X902542Y742523D01*
X910156Y756227*
Y657250*
X909500Y1424075D02*
Y1379075D01*
X951500Y1374575*
X947000Y1379075*
X942500Y1392575*
Y1406075*
X947000Y1419575*
X956000Y1428575*
X969500Y1433075*
X980000*
X993500Y1428575*
X1002500Y1419575*
X1007000Y1406075*
Y1392575*
X1002500Y1379075*
X998000Y1374575*
X989000Y1370075*
X917936Y1491955D02*
X901573D01*
X899936Y1476682*
X901573Y1478318*
X906482Y1479955*
X911391*
X916300Y1478318*
X919573Y1475046*
X921209Y1470137*
Y1466318*
X919573Y1461409*
X916300Y1458137*
X911391Y1456500*
X906482*
X901573Y1458137*
X899936Y1459773*
X898300Y1463046*
X927500Y1097075D02*
X923000Y1103075D01*
X909500Y1110575*
X1007000*
X932000Y1176575D02*
X927500D01*
X918500Y1181075*
X914000Y1185575*
X908000Y1194575*
Y1212575*
X914000Y1221575*
X918500Y1226075*
X927500Y1230575*
X936500*
X945500Y1226075*
X960500Y1217075*
X1007000Y1172075*
Y1235075*
X960000Y148500D02*
G03X900000Y208500I60000D01*
X840000Y148500J60000*
X900000Y88500I60000*
X960000Y148500J60000*
G01X970000Y1474500D02*
G03X910000Y1534500I60000D01*
X850000Y1474500J60000*
X910000Y1414500I60000*
X970000Y1474500J60000*
G01X981724Y756227D02*
X1031974D01*
X1004565Y718159*
X1018269*
X1027405Y713591*
X1031974Y709023*
X1036542Y695318*
Y684659*
X1031974Y670955*
X1022837Y661818*
X1009133Y657250*
X995428*
X981724Y661818*
X977156Y666387*
X972587Y675523*
X998000Y1302575D02*
X1002500Y1299575D01*
X1007000Y1302575*
X1002500Y1304075*
X998000Y1302575*
X1202500Y520000D02*
X1537500D01*
Y900000*
X1202500*
Y520000*
X1207000Y1090000D02*
X1563000D01*
Y1420000*
X1207000*
Y1090000*
X1310202Y737954D02*
X1316292Y742523D01*
X1323906Y756227*
Y657250*
X1334500Y1426575D02*
Y1381575D01*
X1376500Y1377075*
X1372000Y1381575*
X1367500Y1395075*
Y1408575*
X1372000Y1422075*
X1381000Y1431075*
X1394500Y1435575*
X1405000*
X1418500Y1431075*
X1427500Y1422075*
X1432000Y1408575*
Y1395075*
X1427500Y1381575*
X1423000Y1377075*
X1414000Y1372575*
X1352500Y1099575D02*
X1348000Y1105575D01*
X1334500Y1113075*
X1432000*
X1357000Y1179075D02*
X1352500D01*
X1343500Y1183575*
X1339000Y1188075*
X1333000Y1197075*
Y1215075*
X1339000Y1224075*
X1343500Y1228575*
X1352500Y1233075*
X1361500*
X1370500Y1228575*
X1385500Y1219575*
X1432000Y1174575*
Y1237575*
X1375700Y148250D02*
X1534300D01*
Y281750*
X1375700*
Y148250*
X1395474Y756227D02*
X1445724D01*
X1418315Y718159*
X1432019*
X1441155Y713591*
X1445724Y709023*
X1450292Y695318*
Y684659*
X1445724Y670955*
X1436587Y661818*
X1422883Y657250*
X1409178*
X1395474Y661818*
X1390906Y666387*
X1386337Y675523*
X1423000Y1305075D02*
X1427500Y1302075D01*
X1432000Y1305075*
X1427500Y1306575*
X1423000Y1305075*
X1451071Y234491D02*
X1445590Y232664D01*
X1443762Y229009*
Y225355*
X1445590Y221091*
X1449244Y219264*
X1456553Y217436*
X1462035Y215609*
X1465690Y211955*
X1467517Y208300*
Y202209*
X1465690Y198555*
X1463862Y196727*
X1458380Y194900*
X1451071*
X1445590Y196727*
X1443762Y198555*
X1441935Y202209*
Y208300*
X1443762Y211955*
X1447417Y215609*
X1452899Y217436*
X1460208Y219264*
X1463862Y221091*
X1465690Y225355*
Y229009*
X1463862Y232664*
X1458380Y234491*
X1451071*
X1592500Y225000D02*
X1950000D01*
Y355000*
X1592500*
Y225000*
Y355000D02*
X1950000D01*
Y485000*
X1592500*
Y355000*
X1617936Y580955D02*
X1601573D01*
X1599936Y565682*
X1601573Y567318*
X1606482Y568955*
X1611391*
X1616300Y567318*
X1619573Y564046*
X1621209Y559137*
Y555318*
X1619573Y550409*
X1616300Y547137*
X1611391Y545500*
X1606482*
X1601573Y547137*
X1599936Y548773*
X1598300Y552046*
X1670000Y563500D02*
G03X1610000Y623500I60000D01*
X1550000Y563500J60000*
X1610000Y503500I60000*
X1670000Y563500J60000*
G01X1672936Y165954D02*
X1656573D01*
X1654936Y150682*
X1656573Y152318*
X1661482Y153955*
X1666391*
X1671300Y152318*
X1674572Y149045*
X1676209Y144136*
Y140318*
X1674572Y135409*
X1671300Y132137*
X1666391Y130500*
X1661482*
X1656573Y132137*
X1654936Y133773*
X1653300Y137046*
X1679936Y1491908D02*
X1663573D01*
X1661936Y1476635*
X1663573Y1478271*
X1668482Y1479908*
X1673391*
X1678300Y1478271*
X1681573Y1474999*
X1683209Y1470090*
Y1466271*
X1681573Y1461362*
X1678300Y1458090*
X1673391Y1456453*
X1668482*
X1663573Y1458090*
X1661936Y1459726*
X1660300Y1462999*
X1725000Y148500D02*
G03X1665000Y208500I60000D01*
X1605000Y148500J60000*
X1665000Y88500I60000*
X1725000Y148500J60000*
G01X1732000Y1474453D02*
G03X1672000Y1534453I60000D01*
X1612000Y1474453J60000*
X1672000Y1414453I60000*
X1732000Y1474453J60000*
G01X1750341Y302370D02*
Y321870D01*
X1765114Y311234*
Y316552*
X1766886Y320097*
X1768659Y321870*
X1773977Y323643*
X1778113*
X1783432Y321870*
X1786977Y318325*
X1788750Y313006*
Y307688*
X1786977Y302370*
X1785204Y300598*
X1781659Y298825*
X1750341Y432370D02*
Y451870D01*
X1765114Y441234*
Y446552*
X1766886Y450097*
X1768659Y451870*
X1773977Y453643*
X1778113*
X1783432Y451870*
X1786977Y448325*
X1788750Y443006*
Y437688*
X1786977Y432370*
X1785204Y430598*
X1781659Y428825*
X1757432Y269280D02*
X1755659Y271643D01*
X1750341Y274598*
X1788750*
X1757432Y399280D02*
X1755659Y401643D01*
X1750341Y404598*
X1788750*
X1992353Y576909D02*
X2000535Y583045D01*
X2010762Y601454*
Y468500*
X2151898Y601454D02*
X2094625Y513500D01*
X2180534*
X2151898Y601454D02*
Y468500D01*
X2242936Y1491954D02*
X2226573D01*
X2224936Y1476682*
X2226573Y1478318*
X2231482Y1479955*
X2236391*
X2241300Y1478318*
X2244573Y1475045*
X2246209Y1470136*
Y1466318*
X2244573Y1461409*
X2241300Y1458136*
X2236391Y1456500*
X2231482*
X2226573Y1458136*
X2224936Y1459773*
X2223300Y1463046*
X2272579Y480773D02*
X2268488Y474637D01*
X2272579Y468500*
X2274625Y474637*
X2272579Y480773*
X2292500Y1290000D02*
X2650000D01*
Y1420000*
X2292500*
Y1290000*
X2295000Y1474500D02*
G03X2235000Y1534500I60000D01*
X2175000Y1474500J60000*
X2235000Y1414500I60000*
X2295000Y1474500J60000*
G01X2436000Y399787D02*
X2347213Y311000D01*
X2064787*
X1976000Y399787*
Y672213*
X2064787Y761000*
X2347213*
X2436000Y672213*
Y399787*
X2438261Y601454D02*
X2376897D01*
X2370761Y544182*
X2376897Y550318*
X2395306Y556455*
X2413716*
X2432124Y550318*
X2444397Y538045*
X2450534Y519636*
Y505318*
X2444397Y486909*
X2432124Y474637*
X2413716Y468500*
X2395306*
X2376897Y474637*
X2370761Y480773*
X2364625Y493046*
X2450341Y1367370D02*
Y1386870D01*
X2465114Y1376234*
Y1381552*
X2466886Y1385097*
X2468659Y1386870*
X2473977Y1388643*
X2478113*
X2483432Y1386870*
X2486977Y1383325*
X2488750Y1378007*
Y1372688*
X2486977Y1367370*
X2485204Y1365598*
X2481659Y1363825*
X2457432Y1334280D02*
X2455659Y1336644D01*
X2450341Y1339598*
X2488750*
X2497546Y156436D02*
Y140073D01*
X2512818Y138436*
X2511182Y140073*
X2509545Y144982*
Y149891*
X2511182Y154800*
X2514455Y158073*
X2519364Y159709*
X2523182*
X2528091Y158073*
X2531364Y154800*
X2533000Y149891*
Y144982*
X2531364Y140073*
X2529727Y138436*
X2526454Y136800*
X2532936Y519954D02*
X2516573D01*
X2514936Y504682*
X2516573Y506318*
X2521482Y507955*
X2526391*
X2531300Y506318*
X2534573Y503045*
X2536209Y498136*
Y494318*
X2534573Y489409*
X2531300Y486137*
X2526391Y484500*
X2521482*
X2516573Y486137*
X2514936Y487773*
X2513300Y491046*
X2575000Y148500D02*
G03X2515000Y208500I60000D01*
X2455000Y148500J60000*
X2515000Y88500I60000*
X2575000Y148500J60000*
G01X2577750Y887500D02*
X2779400D01*
Y1042500*
X2577750*
Y887500*
X2585000Y502500D02*
G03X2525000Y562500I60000D01*
X2465000Y502500J60000*
X2525000Y442500I60000*
X2585000Y502500J60000*
G01X2599765Y701464D02*
X2590766Y692465D01*
X2598265Y683165*
Y684965*
X2600065Y688565*
X2602765Y691265*
X2606365Y693065*
X2609965*
X2613564Y691265*
X2615664Y689165*
X2617464Y685565*
Y681965*
X2615664Y678366*
X2612964Y675666*
X2609365Y673866*
X2607565*
X2604865Y674766*
X2606353Y476909D02*
X2614535Y483045D01*
X2624762Y501454*
Y368500*
X2656030Y880138D02*
Y909729D01*
X2701825Y888593*
X2656030Y1039364D02*
X2701825D01*
X2656030D02*
X2686325Y1019637D01*
Y1049228*
X2666598Y975251D02*
X2664484D01*
X2660257Y977365*
X2658143Y979478*
X2655325Y983706*
Y992160*
X2658143Y996387*
X2660257Y998501*
X2664484Y1000614*
X2668711*
X2672939Y998501*
X2679984Y994274*
X2701825Y973137*
Y1002728*
X2672000Y1048000D02*
X2808000D01*
Y1152000*
X2672000*
Y1048000*
X2675000Y687500D02*
G03X2605000Y757500I70000D01*
X2535000Y687500J70000*
X2605000Y617500I70000*
X2675000Y687500J70000*
G01X2697597Y941433D02*
X2699711Y940024D01*
X2701825Y941433*
X2699711Y942138*
X2697597Y941433*
X2700000Y1290000D02*
X3057500D01*
Y1420000*
X2700000*
Y1290000*
X2717097Y1110873D02*
X2715678Y1113709D01*
X2710951Y1115127*
X2707642*
X2702915Y1113709*
X2700079Y1109454*
X2698660Y1101891*
Y1094800*
X2700079Y1088655*
X2702915Y1085818*
X2707642Y1084400*
X2709060*
X2713788Y1085818*
X2717097Y1088655*
X2718515Y1092909*
Y1094800*
X2717097Y1099055*
X2713788Y1101891*
X2709060Y1103309*
X2707642*
X2702915Y1101891*
X2700079Y1099055*
X2698660Y1094800*
X2739787Y1087237D02*
X2738842Y1085818D01*
X2739787Y1084400*
X2740260Y1085818*
X2739787Y1087237*
X2765898Y501454D02*
Y368500D01*
Y501454D02*
X2708625Y413500D01*
X2794534*
X2768150Y1115127D02*
X2763896Y1113709D01*
X2762478Y1110873*
Y1108036*
X2763896Y1104727*
X2766732Y1103309*
X2772405Y1101891*
X2776660Y1100473*
X2779496Y1097636*
X2780914Y1094800*
Y1090073*
X2779496Y1087237*
X2778077Y1085818*
X2773823Y1084400*
X2768150*
X2763896Y1085818*
X2762478Y1087237*
X2761060Y1090073*
Y1094800*
X2762478Y1097636*
X2765314Y1100473*
X2769569Y1101891*
X2775241Y1103309*
X2778077Y1104727*
X2779496Y1108036*
Y1110873*
X2778077Y1113709*
X2773823Y1115127*
X2768150*
X2859979Y946364D02*
X2868251Y952568D01*
X2878592Y971182*
Y836750*
X2861841Y1363370D02*
Y1382870D01*
X2876614Y1372234*
Y1377552*
X2878387Y1381097*
X2880159Y1382870*
X2885477Y1384643*
X2889613*
X2894932Y1382870*
X2898477Y1379325*
X2900250Y1374007*
Y1368688*
X2898477Y1363370*
X2896704Y1361598*
X2893159Y1359825*
X2868932Y1330280D02*
X2867159Y1332644D01*
X2861841Y1335598*
X2900250*
X2886580Y380773D02*
X2882489Y374637D01*
X2886580Y368500*
X2888625Y374637*
X2886580Y380773*
X3021297Y971182D02*
Y836750D01*
Y971182D02*
X2963388Y882250D01*
X3050251*
X3050000Y299787D02*
X2961213Y211000D01*
X2678787*
X2590000Y299787*
Y572213*
X2678787Y661000*
X2961213*
X3050000Y572213*
Y299787*
X3052261Y501454D02*
X2990897D01*
X2984761Y444182*
X2990897Y450318*
X3009306Y456455*
X3027716*
X3046124Y450318*
X3058397Y438045*
X3064533Y419636*
Y405318*
X3058397Y386909*
X3046124Y374637*
X3027716Y368500*
X3009306*
X2990897Y374637*
X2984761Y380773*
X2978625Y393046*
X3061936Y150954D02*
X3045573D01*
X3043936Y135682*
X3045573Y137318*
X3050482Y138955*
X3055391*
X3060300Y137318*
X3063573Y134045*
X3065209Y129136*
Y125318*
X3063573Y120409*
X3060300Y117137*
X3055391Y115500*
X3050482*
X3045573Y117137*
X3043936Y118773*
X3042300Y122046*
X3114000Y133500D02*
G03X3054000Y193500I60000D01*
X2994000Y133500J60000*
X3054000Y73500I60000*
X3114000Y133500J60000*
G01X3122936Y1491954D02*
X3106573D01*
X3104936Y1476682*
X3106573Y1478318*
X3111482Y1479955*
X3116391*
X3121300Y1478318*
X3124573Y1475045*
X3126209Y1470136*
Y1466318*
X3124573Y1461409*
X3121300Y1458136*
X3116391Y1456500*
X3111482*
X3106573Y1458136*
X3104936Y1459773*
X3103300Y1463046*
X3143319Y849159D02*
X3139183Y842955D01*
X3143319Y836750*
X3145388Y842955*
X3143319Y849159*
X3168500Y483500D02*
X3351500D01*
Y576500*
X3168500*
Y483500*
Y578500D02*
X3351500D01*
Y671500*
X3168500*
Y578500*
X3175000Y1474500D02*
G03X3115000Y1534500I60000D01*
X3055000Y1474500J60000*
X3115000Y1414500I60000*
X3175000Y1474500J60000*
G01X3215847Y538454D02*
X3217538Y539723D01*
X3219652Y543527*
Y516050*
X3215847Y633454D02*
X3217538Y634723D01*
X3219652Y638527*
Y611050*
X3242592Y940159D02*
Y946364D01*
X3248796Y958773*
X3255001Y964977*
X3267410Y973250*
X3292228*
X3304637Y964977*
X3310842Y958773*
X3317046Y946364*
Y933955*
X3310842Y921545*
X3298433Y900864*
X3236388Y836750*
X3323251*
X3248819Y543527D02*
Y516050D01*
Y543527D02*
X3236983Y525350D01*
X3254737*
X3248819Y638527D02*
X3236983Y620350D01*
X3254737*
X3248819Y638527D02*
Y611050D01*
X3273760Y518587D02*
X3272914Y517318D01*
X3273760Y516050*
X3274182Y517318*
X3273760Y518587*
Y613587D02*
X3272914Y612318D01*
X3273760Y611050*
X3274182Y612318*
X3273760Y613587*
X3303500Y905000D02*
G03X3076000Y1132500I227500D01*
X2848500Y905000J227500*
X3076000Y677500I227500*
X3303500Y905000J227500*
G01X3308000Y543527D02*
X3295318D01*
X3294050Y531691*
X3295318Y532959*
X3299123Y534227*
X3302927*
X3306732Y532959*
X3309268Y530423*
X3310536Y526618*
Y523659*
X3309268Y519855*
X3306732Y517318*
X3302927Y516050*
X3299123*
X3295318Y517318*
X3294050Y518587*
X3292782Y521123*
X3308000Y638527D02*
X3295318D01*
X3294050Y626691*
X3295318Y627959*
X3299123Y629227*
X3302927*
X3306732Y627959*
X3309268Y625423*
X3310536Y621618*
Y618659*
X3309268Y614855*
X3306732Y612318*
X3302927Y611050*
X3299123*
X3295318Y612318*
X3294050Y613587*
X3292782Y616123*
X3527546Y167936D02*
Y151573D01*
X3542818Y149936*
X3541182Y151573*
X3539546Y156482*
Y161391*
X3541182Y166300*
X3544454Y169573*
X3549364Y171209*
X3553182*
X3558091Y169573*
X3561364Y166300*
X3563000Y161391*
Y156482*
X3561364Y151573*
X3559727Y149936*
X3556454Y148300*
X3527546Y267936D02*
Y251573D01*
X3542818Y249936*
X3541182Y251573*
X3539546Y256482*
Y261391*
X3541182Y266300*
X3544454Y269573*
X3549364Y271209*
X3553182*
X3558091Y269573*
X3561364Y266300*
X3563000Y261391*
Y256482*
X3561364Y251573*
X3559727Y249936*
X3556454Y248300*
X3552936Y573954D02*
X3536573D01*
X3534936Y558682*
X3536573Y560318*
X3541482Y561955*
X3546391*
X3551300Y560318*
X3554573Y557045*
X3556209Y552136*
Y548318*
X3554573Y543409*
X3551300Y540137*
X3546391Y538500*
X3541482*
X3536573Y540137*
X3534936Y541773*
X3533300Y545046*
X3567936Y1491955D02*
X3551573D01*
X3549936Y1476682*
X3551573Y1478318*
X3556482Y1479955*
X3561391*
X3566300Y1478318*
X3569573Y1475046*
X3571209Y1470137*
Y1466318*
X3569573Y1461409*
X3566300Y1458137*
X3561391Y1456500*
X3556482*
X3551573Y1458137*
X3549936Y1459773*
X3548300Y1463046*
X3605000Y160000D02*
G03X3545000Y220000I60000D01*
X3485000Y160000J60000*
X3545000Y100000I60000*
X3605000Y160000J60000*
G01Y260000D02*
G03X3545000Y320000I60000D01*
X3485000Y260000J60000*
X3545000Y200000I60000*
X3605000Y260000J60000*
G01Y556500D02*
G03X3545000Y616500I60000D01*
X3485000Y556500J60000*
X3545000Y496500I60000*
X3605000Y556500J60000*
G01X3620000Y1474500D02*
G03X3560000Y1534500I60000D01*
X3500000Y1474500J60000*
X3560000Y1414500I60000*
X3620000Y1474500J60000*
G04 Height_Over_5mm_T.gdo*
M02*
