*
G04 Job   : V:\2023\17_KDDI_3.7G_4.0G_32T32R_200W_PWR_PP3235-77A\PCS01B\06_Working\PCB\PP3235-77A.pcb*
G04 User  : JIAXIN-ZHANG01:jiaxin.zhang*
G04 Layer : L03_INR01.gdo*
G04 Date  : Tue Jan 09 13:22:44 2024*
G04 *
%ICAS*%
%MOMM*%
%FSLAX34Y34*%
%OFA0.0000B0.0000*%
G90*
G74*
%ADD71C,0.15000*%
%ADD14C,0.20000*%
%ADD17C,0.25000*%
%ADD16C,0.30000*%
%ADD15C,0.35000*%
%ADD70C,0.38100*%
%ADD19C,0.40000*%
%ADD18C,0.50000*%
%ADD20C,0.60000*%
%ADD13C,0.70000*%
%ADD12C,0.80000*%
%ADD24C,1.00000*%
%ADD21C,1.10000*%
%ADD25C,1.20000*%
%ADD28C,1.30000*%
%ADD10C,1.50000*%
%ADD26C,1.70000*%
%ADD31C,1.71000*%
%ADD11C,2.00000*%
%ADD27C,2.10000*%
%ADD32C,2.34000*%
%ADD22C,3.80000*%
%ADD73C,4.50000*%
%ADD23C,7.50000*%
%ADD30C,8.50000*%
%ADD29O,1.41000X12.11000*%
%ADD72O,2.61000X13.31000*%
%ADD33O,5.25000X2.25000*%
%ADD34O,6.45000X3.45000*%
G01*
G36*
X5000Y173500D02*
G02X10000Y178500I5000D01*
G01X55000*
G02X85000Y148500J30000*
G01Y120000*
G03X145000Y60000I60000*
G01X1372500*
Y20000*
X1427500*
Y40000*
X1372500*
Y60000*
X3090207*
G03X3090220I1J5000*
G02X3090246I26J10000*
X3094718Y58944J10000*
X3141505Y9833I44718J89444*
G03X3143957Y5000I45753J20167*
X3143947J5000*
G01X30000*
G02X5000Y30000J25000*
G01Y173500*
Y1500000D02*
G02X30000Y1525000I25000D01*
G01Y382500*
G03X60000Y352500I30000*
G01X105000*
G02X135000Y322500J30000*
G01Y180000*
G03X205000Y110000I70000*
G01X820000*
G03X850000Y140000J30000*
G01Y148500*
G02X900000Y198500I50000*
X950000Y148500J50000*
G01Y140000*
G03X980000Y110000I30000*
G01X1585000*
G03X1615000Y140000J30000*
G01Y148500*
G02X1665000Y198500I50000*
X1715000Y148500J50000*
G01Y140000*
G03X1745000Y110000I30000*
G01X2013798*
G03X2038671Y123227J30000*
G02X2105000Y158500I66329J44727*
X2171328Y123227J80000*
G03X2196202Y110000I24874J16773*
G01X2435000*
G03X2465000Y140000J30000*
G01Y148500*
G02X2489883Y191734I50000*
X2490134Y191801I251J433*
G01X2539866*
G02X2540117Y191734J500*
X2565000Y148500I25117J43234*
G01Y140000*
G03X2595000Y110000I30000*
G01X2961729*
G03X2991654Y137892J30000*
G02X3052643Y195985I62346J4392*
X3052654I11J500*
G01X3077293*
G02X3077646Y195839J500*
G01X3101854Y171632*
G02X3102000Y171278I354J354*
G01Y129737*
G03X3118333Y103031I30000*
G02X3179662Y44917I68333J133531*
G03X3205595Y30000I25933J15083*
G01X3530000*
G03X3570000Y70000J40000*
G01Y80156*
G03X3541875Y110098I30000*
G02X3495000Y160000I3125J49902*
G01Y709400*
X3438000*
G02X3408000Y739400J30000*
G01Y919500*
G02X3408500Y920000I500*
G01X3516530*
Y462051*
G03X3537440Y438694I23500*
G01X3547379Y437592*
G03X3549970Y437449I2591J23357*
X3573470Y460949J23500*
X3552560Y484306I23500*
G01X3542621Y485408*
G03X3540030Y485551I2591J23357*
X3516530Y462051J23500*
G01Y920000*
X3560010*
G02X3560000Y920100I490J100*
G01Y1414033*
G03X3543333Y1440907I30000*
G02X3522583Y1472000I16667J33593*
G03X3492650Y1500000I29933J2000*
G01X3182350*
G03X3152417Y1472000J30000*
G02X3115000Y1437000I37417J2500*
X3077583Y1472000J37500*
G03X3047650Y1500000I29933J2000*
G01X2302350*
G03X2272417Y1472000J30000*
G02X2235000Y1437000I37417J2500*
X2197583Y1472000J37500*
G03X2167650Y1500000I29933J2000*
G01X1739350*
G03X1709417Y1472001J30000*
G01Y1472000*
G02X1672000Y1436993I37417J2492*
X1634583Y1472000J37499*
G01Y1472001*
G03X1604650Y1500000I29933J2001*
G01X977350*
G03X947417Y1472001J30000*
G01Y1472000*
G02X910000Y1436956I37417J2453*
X872583Y1472000J37497*
G01Y1472001*
G03X842650Y1500000I29933J2001*
G01X107350*
G03X77417Y1472000J30000*
G02X56667Y1440907I37417J2500*
G03X40000Y1414033I13333J26874*
G01Y963100*
G03X70000Y933100I30000*
G01X104500*
G02X105000Y932600J500*
G01Y748500*
G02X58125Y698598I50000*
G03X30000Y668656I1875J29942*
G01Y1525000*
X31500*
Y848500*
G03X55000Y825000I23500*
X78500Y848500J23500*
X55000Y872000I23500*
X31500Y848500J23500*
G01Y1525000*
X3570000*
G02X3595000Y1500000J25000*
G01Y920100*
G02X3594500Y919600I500*
G01X3572490*
G02X3572500Y919500I490J100*
G01Y901600*
X3594500*
G02X3595000Y901100J500*
G01Y70000*
G02X3530000Y5000I65000*
G01X3187258*
G02X3164382Y19917J25000*
G03X3105897Y81306I114382J50417*
X3090246Y85000I15651J31306*
X3090155J35000*
G02X3089998I157J60000*
X3076666Y86500J60000*
G03X3050000Y89500I26666J117000*
X3023336Y86500J120000*
G01X3023334*
G02X3010003Y85000I13331J58500*
G01X2539997*
G02X2526665Y86500J60000*
G01X2526663*
G03X2500000Y89500I26663J117000*
X2473337Y86500J120000*
G01X2473335*
G02X2460003Y85000I13332J58500*
G01X2196202*
G02X2150603Y109247J55000*
G01X2150600Y109251*
G03X2105000Y133500I45600J30751*
X2059399Y109251J55000*
G01X2059398Y109248*
G02X2013798Y85000I45600J30752*
G01X1739997*
G02X1726665Y86500J60000*
G01X1726663*
G03X1700000Y89500I26663J117000*
X1673337Y86500J120000*
G01X1673335*
G02X1660003Y85000I13332J58500*
G01X939997*
G02X926665Y86500J60000*
G01X926663*
G03X900000Y89500I26663J117000*
X873337Y86500J120000*
G01X873335*
G02X860003Y85000I13332J58500*
G01X145000*
G02X110000Y120000J35000*
G01Y148500*
G03X55000Y203500I55000*
G01X30000*
G02X5000Y228500J25000*
G01Y1500000*
X50000Y1164793D02*
G02X50146Y1165146I500D01*
G01X53354Y1168354*
G02X53707Y1168500I353J354*
G01X93000*
Y1131700*
G03X102000Y1122700I9000*
X111000Y1131700J9000*
X102000Y1140700I9000*
X93000Y1131700J9000*
G01Y1168500*
X110184*
G02X110385Y1168458J500*
G03X114000Y1167700I3615J8242*
X117000Y1168215J9000*
G01Y1131700*
G03X126000Y1122700I9000*
X135000Y1131700J9000*
X126000Y1140700I9000*
X117000Y1131700J9000*
G01Y1168215*
G03X117615Y1168458I3000J8485*
G02X117816Y1168500I201J458*
G01X134184*
G02X134385Y1168458J500*
G03X138000Y1167700I3615J8242*
X141615Y1168458J9000*
G02X141816Y1168500I201J458*
G01X144793*
G02X145146Y1168354J500*
G01X149854Y1163646*
G02X150000Y1163293I354J353*
G01Y1115707*
G02X149854Y1115354I500*
G01X147071Y1112571*
G02X146718Y1112425I353J354*
X146218Y1112925J500*
X146259Y1113123I500*
G03X147000Y1116700I8259J3577*
X138000Y1125700I9000*
X129000Y1116700J9000*
X130800Y1111300I9000*
G02X130900Y1111000I400J300*
X130400Y1110500I500*
G01X121600*
G02X121100Y1111000J500*
X121200Y1111300I500*
G03X123000Y1116700I7200J5400*
X114000Y1125700I9000*
X105000Y1116700J9000*
X106800Y1111300I9000*
G02X106900Y1111000I400J300*
X106400Y1110500I500*
G01X95500*
X88000Y1103000*
Y1058278*
G02X87854Y1057925I500*
G01X84464Y1054536*
G03X83000Y1051000I3536J3536*
G01Y997000*
G03X84464Y993464I5000*
G01X108464Y969464*
G03X112000Y968000I3536J3536*
G01X155000*
Y405000*
G03X165000Y395000I10000*
X175000Y405000J10000*
X165000Y415000I10000*
X155000Y405000J10000*
G01Y968000*
X200500*
Y405000*
G03X215000Y390500I14500*
X229500Y405000J14500*
X215000Y419500I14500*
X200500Y405000J14500*
G01Y968000*
X215722*
G02X216075Y967854J500*
G01X262854Y921075*
G02X263000Y920722I354J353*
G01Y525000*
G03X264464Y521464I5000*
G01X285000Y500929*
Y290000*
G03X295000Y280000I10000*
X305000Y290000J10000*
X295000Y300000I10000*
X285000Y290000J10000*
G01Y500929*
X330500Y455429*
Y290000*
G03X345000Y275500I14500*
X359500Y290000J14500*
X345000Y304500I14500*
X330500Y290000J14500*
G01Y455429*
X415000Y370929*
Y200000*
G03X425000Y190000I10000*
X435000Y200000J10000*
X425000Y210000I10000*
X415000Y200000J10000*
G01Y370929*
X460500Y325429*
Y200000*
G03X475000Y185500I14500*
X489500Y200000J14500*
X475000Y214500I14500*
X460500Y200000J14500*
G01Y325429*
X551464Y234464*
G03X555000Y233000I3536J3536*
G01X683000*
G03X686536Y234464J5000*
G01X699646Y247575*
G02X700000Y247722I354J353*
X700354Y247575J500*
G01X701464Y246464*
G03X705000Y245000I3536J3536*
G01X933722*
G02X934075Y244854J500*
G01X979464Y199464*
G03X983000Y198000I3536J3536*
G01X1407000*
G03X1410536Y199464J5000*
G01X1575536Y364464*
G03X1577000Y368000I3536J3536*
G01Y452793*
G02X1577146Y453146I500*
G01X1605500Y481500*
Y265000*
G03X1620000Y250500I14500*
X1634500Y265000J14500*
X1620000Y279500I14500*
X1605500Y265000J14500*
G01Y395000*
G03X1610000Y384500I14500*
G01Y315000*
G03X1620000Y305000I10000*
X1630000Y315000J10000*
X1620000Y325000I10000*
X1610000Y315000J10000*
G01Y384500*
G03X1620000Y380500I10000J10500*
X1634500Y395000J14500*
X1620000Y409500I14500*
X1605500Y395000J14500*
G01Y481500*
X1610000Y486000*
Y445000*
G03X1620000Y435000I10000*
X1630000Y445000J10000*
X1620000Y455000I10000*
X1610000Y445000J10000*
G01Y486000*
X1780354Y656354*
G02X1780707Y656500I353J354*
G01X1955000*
Y575000*
Y574970*
G02Y574961I500*
G01Y565039*
G02Y565030I500J9*
G01Y565000*
G03X1960000Y560000I5000*
X1960027J5000*
G02X1960030I3J500*
X1960038J500*
G01X1969962*
G02X1969970I8J500*
X1969973J500*
G03X1970000I27J5000*
X1975000Y565000J5000*
G01Y565030*
G02Y565039I500*
G01Y574961*
G02Y574970I500J9*
G01Y575000*
G03X1970000Y580000I5000*
X1969973J5000*
G02X1969970I3J500*
X1969962J500*
G01X1960038*
G02X1960030I8J500*
X1960027J500*
G03X1960000I27J5000*
X1955000Y575000J5000*
G01Y656500*
X2364793*
G02X2365146Y656354J500*
G01X2378854Y642646*
G02X2379000Y642293I354J353*
G01Y456707*
G02X2378854Y456354I500*
G01X2366646Y444146*
G02X2366293Y444000I353J354*
G01X2223207*
G02X2222854Y444146J500*
G01X2215146Y451854*
G02X2215000Y452207I354J353*
G01Y460705*
G02X2215500Y461205I500*
X2215813Y461094J500*
G03X2231000Y455750I15187J18906*
G01X2261000*
G03X2285250Y480000J24250*
X2261000Y504250I24250*
G01X2231000*
G03X2215813Y498906J24250*
G02X2215500Y498795I313J389*
X2215000Y499295J500*
G01Y514000*
X2203000Y526000*
X2102000*
X2030146Y454146*
G02X2029793Y454000I353J354*
G01X1878000*
X1547146Y123146*
G02X1546793Y123000I353J354*
G01X1014707*
G02X1014354Y123146J500*
G01X928500Y209000*
X873500*
X788146Y123646*
G02X787793Y123500I353J354*
G01X371707*
G02X371354Y123646J500*
G01X118146Y376854*
G02X118000Y377207I354J353*
G01Y932500*
X110000Y940500*
X106261*
G02X106182Y940506J500*
G03X105000Y940600I1182J7406*
G01X70000*
G02X69594Y940604J22500*
X69250Y940750I9J500*
G01X50146Y959854*
G02X50000Y960207I354J353*
G01Y1164793*
X82500Y1394793D02*
G02X82646Y1395146I500D01*
G01X93000Y1405500*
Y1311700*
G03X102000Y1302700I9000*
X105000Y1303215J9000*
G01Y1296700*
G03X114000Y1287700I9000*
X123000Y1296700J9000*
X114000Y1305700I9000*
X105000Y1296700J9000*
G01Y1303215*
G03X111000Y1311700I3000J8485*
X102000Y1320700I9000*
X93000Y1311700J9000*
G01Y1341700*
G03X102000Y1332700I9000*
X105000Y1333215J9000*
G01Y1326700*
G03X114000Y1317700I9000*
X117000Y1318215J9000*
G01Y1311700*
G03X126000Y1302700I9000*
X129000Y1303215J9000*
G01Y1296700*
G03X138000Y1287700I9000*
X147000Y1296700J9000*
X138000Y1305700I9000*
X129000Y1296700J9000*
G01Y1303215*
G03X135000Y1311700I3000J8485*
X126000Y1320700I9000*
X117000Y1311700J9000*
G01Y1318215*
G03X123000Y1326700I3000J8485*
X114000Y1335700I9000*
X105000Y1326700J9000*
G01Y1333215*
G03X111000Y1341700I3000J8485*
X102000Y1350700I9000*
X93000Y1341700J9000*
G01Y1405500*
X117000Y1429500*
Y1341700*
G03X126000Y1332700I9000*
X129000Y1333215J9000*
G01Y1326700*
G03X138000Y1317700I9000*
X147000Y1326700J9000*
X138000Y1335700I9000*
X129000Y1326700J9000*
G01Y1333215*
G03X135000Y1341700I3000J8485*
X126000Y1350700I9000*
X117000Y1341700J9000*
G01Y1365200*
G03X130000Y1352200I13000*
X143000Y1365200J13000*
X130000Y1378200I13000*
X117000Y1365200J13000*
G01Y1429500*
X149854Y1462354*
G02X150207Y1462500I353J354*
G01X305500*
Y1215000*
G03X320000Y1200500I14500*
X334500Y1215000J14500*
X320000Y1229500I14500*
X305500Y1215000J14500*
G01Y1345000*
G03X310000Y1334500I14500*
G01Y1265000*
G03X320000Y1255000I10000*
X330000Y1265000J10000*
X320000Y1275000I10000*
X310000Y1265000J10000*
G01Y1334500*
G03X320000Y1330500I10000J10500*
X334500Y1345000J14500*
X320000Y1359500I14500*
X305500Y1345000J14500*
G01Y1462500*
X310000*
Y1395000*
G03X320000Y1385000I10000*
X330000Y1395000J10000*
X320000Y1405000I10000*
X310000Y1395000J10000*
G01Y1462500*
X866241*
G02X866722Y1462137J500*
G03X910000Y1429456I43278J12316*
X953278Y1462137J44997*
G02X953759Y1462500I481J137*
G01X1628249*
G02X1628730Y1462137J500*
G03X1672000Y1429493I43270J12355*
X1715270Y1462137J44999*
G02X1715751Y1462500I481J137*
G01X2191251*
G02X2191731Y1462137J500*
G03X2235000Y1429500I43269J12363*
X2278269Y1462137J45000*
G02X2278749Y1462500I480J137*
G01X2305500*
Y1330000*
G03X2320000Y1315500I14500*
X2334500Y1330000J14500*
X2320000Y1344500I14500*
X2305500Y1330000J14500*
G01Y1462500*
X2310000*
Y1380000*
G03X2320000Y1370000I10000*
X2330000Y1380000J10000*
X2320000Y1390000I10000*
X2310000Y1380000J10000*
G01Y1462500*
X3015500*
Y1380000*
G03X3020000Y1369500I14500*
G01Y1330000*
G03X3030000Y1320000I10000*
X3040000Y1330000J10000*
X3030000Y1340000I10000*
X3020000Y1330000J10000*
G01Y1369500*
G03X3030000Y1365500I10000J10500*
X3044500Y1380000J14500*
X3030000Y1394500I14500*
X3015500Y1380000J14500*
G01Y1462500*
X3071251*
G02X3071731Y1462137J500*
G03X3115000Y1429500I43269J12363*
X3158269Y1462137J45000*
G02X3158749Y1462500I480J137*
G01X3457293*
G02X3457646Y1462354J500*
G01X3463000Y1457000*
Y1311700*
G03X3472000Y1302700I9000*
X3475000Y1303215J9000*
G01Y1296700*
G03X3484000Y1287700I9000*
X3493000Y1296700J9000*
X3484000Y1305700I9000*
X3475000Y1296700J9000*
G01Y1303215*
G03X3481000Y1311700I3000J8485*
X3472000Y1320700I9000*
X3463000Y1311700J9000*
G01Y1341700*
G03X3472000Y1332700I9000*
X3475000Y1333215J9000*
G01Y1326700*
G03X3484000Y1317700I9000*
X3487000Y1318215J9000*
G01Y1311700*
G03X3496000Y1302700I9000*
X3505000Y1311700J9000*
X3496000Y1320700I9000*
X3487000Y1311700J9000*
G01Y1318215*
G03X3493000Y1326700I3000J8485*
X3484000Y1335700I9000*
X3475000Y1326700J9000*
G01Y1333215*
G03X3481000Y1341700I3000J8485*
X3472000Y1350700I9000*
X3463000Y1341700J9000*
G01Y1457000*
X3487000Y1433000*
Y1341700*
G03X3496000Y1332700I9000*
X3505000Y1341700J9000*
X3496000Y1350700I9000*
X3487000Y1341700J9000*
G01Y1365200*
G03X3500000Y1352200I13000*
X3513000Y1365200J13000*
X3500000Y1378200I13000*
X3487000Y1365200J13000*
G01Y1433000*
X3517354Y1402646*
G02X3517500Y1402293I354J353*
G01Y1329742*
G02X3517000Y1329242I500*
X3516526Y1329581J500*
G03X3508000Y1335700I8526J2881*
X3499000Y1326700J9000*
X3508000Y1317700I9000*
X3516526Y1323819J9000*
G02X3517000Y1324159I474J160*
X3517500Y1323659J500*
G01Y1299742*
G02X3517000Y1299242I500*
X3516526Y1299581J500*
G03X3508000Y1305700I8526J2881*
X3499000Y1296700J9000*
X3508000Y1287700I9000*
X3516526Y1293819J9000*
G02X3517000Y1294159I474J160*
X3517500Y1293659J500*
G01Y1235707*
G02X3517354Y1235354I500*
G01X3510146Y1228146*
G02X3509793Y1228000I353J354*
G01X3502634*
G02X3502285Y1228142J500*
G03X3496000Y1230700I6285J6442*
X3489715Y1228142J9000*
G02X3489366Y1228000I349J358*
G01X3478634*
G02X3478285Y1228142J500*
G03X3472000Y1230700I6285J6442*
X3469889Y1230449J9000*
G02X3469772Y1230435I117J486*
X3469418Y1230582J500*
G01X3425000Y1275000*
X2345207*
G02X2344854Y1275146J500*
G01X2292500Y1327500*
X477500*
X347646Y1197646*
G02X347293Y1197500I353J354*
G01X179207*
G02X178854Y1197646J500*
G01X146500Y1230000*
X129579*
G02X129391Y1230037J500*
G03X126000Y1230700I3391J8337*
X122609Y1230037J9000*
G02X122421Y1230000I188J463*
G01X105579*
G02X105391Y1230037J500*
G03X102000Y1230700I3391J8337*
X98609Y1230037J9000*
G02X98421Y1230000I188J463*
G01X90207*
G02X89854Y1230146J500*
G01X82646Y1237354*
G02X82500Y1237707I354J353*
G01Y1394793*
X950000Y994793D02*
G03X949854Y995146I500D01*
G01X940146Y1004854*
G03X939793Y1005000I353J354*
G01X905207*
G03X904854Y1004854J500*
G01X900146Y1000146*
G03X900000Y999793I354J353*
G01Y910000*
X895000Y905000*
X855207*
G03X854854Y904854J500*
G01X845146Y895146*
G03X845000Y894793I354J353*
G01Y830207*
G03X845146Y829854I500*
G01X849854Y825146*
G03X850207Y825000I353J354*
G01X937293*
G03X937646Y825146J500*
G01X949854Y837354*
G03X950000Y837707I354J353*
G01Y994793*
X960000Y410000D02*
G03X955000Y415000I5000D01*
G01X935000*
G03X930000Y410000J5000*
G01Y380000*
G03X935000Y375000I5000*
G01X955000*
G03X960000Y380000J5000*
G01Y410000*
Y490000D02*
G03X955000Y495000I5000D01*
G01X935000*
G03X930000Y490000J5000*
G01Y460000*
G03X935000Y455000I5000*
G01X955000*
G03X960000Y460000J5000*
G01Y490000*
X1055000Y409793D02*
G03X1054854Y410146I500D01*
G01X1050146Y414854*
G03X1049793Y415000I353J354*
G01X975207*
G03X974854Y414854J500*
G01X970146Y410146*
G03X970000Y409793I354J353*
G01Y365207*
G03X970146Y364854I500*
G01X974854Y360146*
G03X975207Y360000I353J354*
G01X1014793*
G03X1015146Y360146J500*
G01X1030000Y375000*
X1049793*
G03X1050146Y375146J500*
G01X1054854Y379854*
G03X1055000Y380207I354J353*
G01Y409793*
Y524793D02*
G03X1054854Y525146I500D01*
G01X975146Y604854*
G03X974793Y605000I353J354*
G01X847707*
G03X847354Y604854J500*
G01X840146Y597646*
G03X840000Y597293I354J353*
G01Y530207*
G03X840146Y529854I500*
G01X844854Y525146*
G03X845207Y525000I353J354*
G01X950000*
X970000Y505000*
Y445207*
G03X970146Y444854I500*
G01X971854Y443146*
G03X972207Y443000I353J354*
G01X1026429*
G03X1026782Y443146J500*
G01X1030198Y446562*
G03X1030313Y446741I354J353*
G02X1035000Y450000I4687J1741*
X1040000Y445000J5000*
X1039810Y443636I5000*
G03X1039792Y443500I482J136*
X1040292Y443000I500*
G01X1051793*
G03X1052146Y443146J500*
G01X1054854Y445854*
G03X1055000Y446207I354J353*
G01Y524793*
X1065000Y499793D02*
G02X1065146Y500146I500D01*
G01X1069854Y504854*
G02X1070207Y505000I353J354*
G01X1144500*
Y375000*
G03X1150000Y369500I5500*
X1150028J5500*
G02X1150031I3J500*
X1150040J500*
G01X1159960*
G02X1159969I9J500*
X1159972J500*
G03X1160000I28J5500*
X1160028J5500*
G02X1160031I3J500*
X1160040J500*
G01X1169960*
G02X1169969I9J500*
X1169972J500*
G03X1170000I28J5500*
X1175500Y375000J5500*
X1170000Y380500I5500*
X1169972J5500*
G02X1169969I3J500*
X1169960J500*
G01X1160040*
G02X1160031I9J500*
X1160028J500*
G03X1160000I28J5500*
X1159972J5500*
G02X1159969I3J500*
X1159960J500*
G01X1150040*
G02X1150031I9J500*
X1150028J500*
G03X1150000I28J5500*
X1144500Y375000J5500*
G01Y475000*
G03X1150000Y469500I5500*
X1150028J5500*
G02X1150031I3J500*
X1150040J500*
G01X1159960*
G02X1159969I9J500*
X1159972J500*
G03X1160000I28J5500*
X1160028J5500*
G02X1160031I3J500*
X1160040J500*
G01X1169960*
G02X1169969I9J500*
X1169972J500*
G03X1170000I28J5500*
X1175500Y475000J5500*
X1170000Y480500I5500*
X1169972J5500*
G02X1169969I3J500*
X1169960J500*
G01X1160040*
G02X1160031I9J500*
X1160028J500*
G03X1160000I28J5500*
X1159972J5500*
G02X1159969I3J500*
X1159960J500*
G01X1150040*
G02X1150031I9J500*
X1150028J500*
G03X1150000I28J5500*
X1144500Y475000J5500*
G01Y505000*
X1249793*
G02X1250146Y504854J500*
G01X1254854Y500146*
G02X1255000Y499793I354J353*
G01Y365207*
G02X1254854Y364854I500*
G01X1250146Y360146*
G02X1249793Y360000I353J354*
G01X1070207*
G02X1069854Y360146J500*
G01X1065146Y364854*
G02X1065000Y365207I354J353*
G01Y499793*
X1080000Y894793D02*
G03X1079854Y895146I500D01*
G01X1070146Y904854*
G03X1069793Y905000I353J354*
G01X1025000*
X1020000Y910000*
Y999793*
G03X1019854Y1000146I500*
G01X1015146Y1004854*
G03X1014793Y1005000I353J354*
G01X980207*
G03X979854Y1004854J500*
G01X970146Y995146*
G03X970000Y994793I354J353*
G01Y840207*
G03X970146Y839854I500*
G01X984854Y825146*
G03X985207Y825000I353J354*
G01X1074793*
G03X1075146Y825146J500*
G01X1079854Y829854*
G03X1080000Y830207I354J353*
G01Y894793*
X1132500Y1204793D02*
G03X1132354Y1205146I500D01*
G01X1127646Y1209854*
G03X1127293Y1210000I353J354*
G01X915207*
G03X914854Y1209854J500*
G01X900146Y1195146*
G03X900000Y1194793I354J353*
G01Y1017707*
G03X900146Y1017354I500*
G01X904854Y1012646*
G03X905207Y1012500I353J354*
G01X1019793*
G03X1020146Y1012646J500*
G01X1040207Y1032707*
G03X1040353Y1033060I354J353*
X1040321Y1033237I500*
G02X1040000Y1035000I4679J1763*
X1045000Y1040000I5000*
X1046763Y1039679J5000*
G03X1046940Y1039647I177J468*
X1047293Y1039793J500*
G01X1132354Y1124854*
G03X1132500Y1125207I354J353*
G01Y1204793*
X1285000Y639793D02*
G03X1284854Y640146I500D01*
G01X1275146Y649854*
G03X1274793Y650000I353J354*
G01X1060207*
G03X1059854Y649854J500*
G01X1050146Y640146*
G03X1050000Y639793I354J353*
G01Y545207*
G03X1050146Y544854I500*
G01X1057354Y537646*
G03X1057707Y537500I353J354*
G01X1282293*
G03X1282646Y537646J500*
G01X1284854Y539854*
G03X1285000Y540207I354J353*
G01Y639793*
X1350000Y404793D02*
G03X1349854Y405146I500D01*
G01X1345146Y409854*
G03X1344793Y410000I353J354*
G01X1310207*
G03X1309854Y409854J500*
G01X1295000Y395000*
X1270207*
G03X1269854Y394854J500*
G01X1265146Y390146*
G03X1265000Y389793I354J353*
G01Y360207*
G03X1265146Y359854I500*
G01X1269854Y355146*
G03X1270207Y355000I353J354*
G01X1344793*
G03X1345146Y355146J500*
G01X1349854Y359854*
G03X1350000Y360207I354J353*
G01Y404793*
X1370000Y999793D02*
G03X1369854Y1000146I500D01*
G01X1365146Y1004854*
G03X1364793Y1005000I353J354*
G01X1320207*
G03X1319854Y1004854J500*
G01X1315146Y1000146*
G03X1315000Y999793I354J353*
G01Y910000*
X1310000Y905000*
X1258207*
G03X1257854Y904854J500*
G01X1255146Y902146*
G03X1255000Y901793I354J353*
G01Y828207*
G03X1255146Y827854I500*
G01X1257854Y825146*
G03X1258207Y825000I353J354*
G01X1354793*
G03X1355146Y825146J500*
G01X1369854Y839854*
G03X1370000Y840207I354J353*
G01Y999793*
X1390000Y390000D02*
G03X1385000Y395000I5000D01*
G01X1365000*
G03X1360000Y390000J5000*
G01Y360000*
G03X1365000Y355000I5000*
G01X1385000*
G03X1390000Y360000J5000*
G01Y390000*
Y470000D02*
G03X1385000Y475000I5000D01*
G01X1365000*
G03X1360000Y470000J5000*
G01Y440000*
G03X1365000Y435000I5000*
G01X1385000*
G03X1390000Y440000J5000*
G01Y470000*
X1440000Y1202293D02*
G03X1439854Y1202646I500D01*
G01X1432646Y1209854*
G03X1432293Y1210000I353J354*
G01X1217707*
G03X1217354Y1209854J500*
G01X1210146Y1202646*
G03X1210000Y1202293I354J353*
G01Y1125207*
G03X1210146Y1124854I500*
G01X1319854Y1015146*
G03X1320207Y1015000I353J354*
G01X1434793*
G03X1435146Y1015146J500*
G01X1439854Y1019854*
G03X1440000Y1020207I354J353*
G01Y1202293*
X1485000Y607293D02*
G03X1484854Y607646I500D01*
G01X1480146Y612354*
G03X1479793Y612500I353J354*
G01X1377707*
G03X1377354Y612354J500*
G01X1265146Y500146*
G03X1265000Y499793I354J353*
G01Y489998*
G03X1265500Y489498I500*
X1265513Y489499J500*
G02X1265628Y489500I115J4499*
G01X1265629*
X1277709*
G03X1277917Y489545J500*
G02X1280000Y490000I2083J4545*
X1285000Y485000J5000*
X1280000Y480000I5000*
X1277917Y480455J5000*
G03X1277709Y480500I208J455*
G01X1267700*
G03X1267346Y480354J500*
G01X1265146Y478154*
G03X1265000Y477800I354J354*
G01Y440571*
G03X1265146Y440218I500*
G01X1270218Y435146*
G03X1270571Y435000I353J354*
G01X1347793*
G03X1348146Y435146J500*
G01X1349854Y436854*
G03X1350000Y437207I354J353*
G01Y502500*
X1372500Y525000*
X1479793*
G03X1480146Y525146J500*
G01X1484854Y529854*
G03X1485000Y530207I354J353*
G01Y607293*
X1495000Y899793D02*
G03X1494854Y900146I500D01*
G01X1490146Y904854*
G03X1489793Y905000I353J354*
G01X1440000*
X1435000Y910000*
Y999793*
G03X1434854Y1000146I500*
G01X1430146Y1004854*
G03X1429793Y1005000I353J354*
G01X1385207*
G03X1384854Y1004854J500*
G01X1380146Y1000146*
G03X1380000Y999793I354J353*
G01Y840207*
G03X1380146Y839854I500*
G01X1394854Y825146*
G03X1395207Y825000I353J354*
G01X1489793*
G03X1490146Y825146J500*
G01X1494854Y829854*
G03X1495000Y830207I354J353*
G01Y899793*
X1795000Y1252793D02*
G03X1794854Y1253146I500D01*
G01X1792646Y1255354*
G03X1792293Y1255500I353J354*
G01X1690707*
G03X1690354Y1255354J500*
G01X1687646Y1252646*
G03X1687500Y1252293I354J353*
G01Y915207*
G03X1687646Y914854I500*
G01X1692354Y910146*
G03X1692707Y910000I353J354*
G01X1789793*
G03X1790146Y910146J500*
G01X1794854Y914854*
G03X1795000Y915207I354J353*
G01Y1252793*
X2082500Y374793D02*
G02X2082646Y375146I500D01*
G01X2086750Y379250*
Y350000*
G03X2111000Y325750I24250*
G01X2141000*
G03X2165250Y350000J24250*
X2141000Y374250I24250*
G01X2111000*
G03X2086750Y350000J24250*
G01Y379250*
X2102354Y394854*
G02X2102707Y395000I353J354*
G01X2167293*
G02X2167646Y394854J500*
G01X2187354Y375146*
G02X2187500Y374793I354J353*
G01Y302500*
X2245000Y245000*
X2623472*
G02X2623826Y244854J500*
G01X2681960Y186719*
X2800822*
X2835000Y220897*
Y283016*
G02X2835146Y283369I500J1*
G01X2839700Y287922*
G02X2840053Y288069I353J353*
G01X2860750*
Y250000*
G03X2885000Y225750I24250*
G01X2915000*
G03X2939250Y250000J24250*
X2915000Y274250I24250*
G01X2885000*
G03X2860750Y250000J24250*
G01Y288069*
X2968293*
G02X2968646Y287922J500*
G01X2972354Y284215*
G02X2972500Y283862I354J353*
G01Y210207*
G02X2972354Y209854I500*
G01X2882646Y120146*
G02X2882293Y120000I353J354*
G01X2628707*
G02X2628354Y120146J500*
G01X2543000Y205500*
X2487000*
X2451646Y170146*
G02X2451293Y170000I353J354*
G01X2140207*
G02X2139854Y170146J500*
G01X2082646Y227354*
G02X2082500Y227707I354J353*
G01Y374793*
X2190000Y1244793D02*
G03X2189854Y1245146I500D01*
G01X2185146Y1249854*
G03X2184793Y1250000I353J354*
G01X2085207*
G03X2084854Y1249854J500*
G01X2080146Y1245146*
G03X2080000Y1244793I354J353*
G01Y915207*
G03X2080146Y914854I500*
G01X2084854Y910146*
G03X2085207Y910000I353J354*
G01X2184793*
G03X2185146Y910146J500*
G01X2189854Y914854*
G03X2190000Y915207I354J353*
G01Y1244793*
X2200000Y507293D02*
G03X2199854Y507646I500D01*
G01X2195146Y512354*
G03X2194793Y512500I353J354*
G01X2127707*
G03X2127354Y512354J500*
G01X2117646Y502646*
G03X2117500Y502293I354J353*
G01Y452707*
G03X2117646Y452354I500*
G01X2122354Y447646*
G03X2122707Y447500I353J354*
G01X2192293*
G03X2192646Y447646J500*
G01X2199854Y454854*
G03X2200000Y455207I354J353*
G01Y463559*
G03X2199500Y464059I500*
X2199126Y463891J500*
G02X2181000Y455750I18126J16109*
G01X2151000*
G02X2126750Y480000J24250*
X2151000Y504250I24250*
G01X2181000*
G02X2199126Y496109J24250*
G03X2199500Y495941I374J332*
X2200000Y496441J500*
G01Y507293*
X2242500Y382293D02*
G02X2242646Y382646I500D01*
G01X2246750Y386750*
Y350000*
G03X2271000Y325750I24250*
G01X2301000*
G03X2325250Y350000J24250*
X2301000Y374250I24250*
G01X2271000*
G03X2246750Y350000J24250*
G01Y386750*
X2257354Y397354*
G02X2257707Y397500I353J354*
G01X2613793*
G02X2614146Y397354J500*
G01X2700750Y310750*
Y250000*
G03X2725000Y225750I24250*
G01X2755000*
G03X2779250Y250000J24250*
X2755000Y274250I24250*
G01X2725000*
G03X2700750Y250000J24250*
G01Y310750*
X2723500Y288000*
X2786293*
G02X2786646Y287854J500*
G01X2795354Y279146*
G02X2795500Y278793I354J353*
G01Y206257*
G02X2795354Y205904I500*
G01X2786646Y197197*
G02X2786293Y197050I353J353*
G01X2690400*
G02X2690047Y197197J500*
G01X2624743Y262500*
X2272707*
G02X2272354Y262646J500*
G01X2242646Y292354*
G02X2242500Y292707I354J353*
G01Y382293*
X2548000Y1101793D02*
G02X2548146Y1102146I500D01*
G01X2560000Y1114000*
Y687500*
G03X2605000Y642500I45000*
X2650000Y687500J45000*
X2605000Y732500I45000*
X2560000Y687500J45000*
G01Y1114000*
X2589854Y1143854*
G02X2590207Y1144000I353J354*
G01X3237500*
Y361500*
G03X3238462Y356692I12500*
G02X3238500Y356500I462J192*
X3238462Y356308I500*
G03X3237500Y351500I11538J4808*
X3250000Y339000I12500*
X3262500Y351500J12500*
X3261538Y356308I12500*
G02X3261500Y356500I462J192*
X3261538Y356692I500*
G03X3262500Y361500I11538J4808*
X3250000Y374000I12500*
X3237500Y361500J12500*
G01Y1144000*
X3251793*
G02X3252146Y1143854J500*
G01X3267500Y1128500*
Y371500*
G03X3268462Y366692I12500*
G02X3268500Y366500I462J192*
X3268462Y366308I500*
G03X3267500Y361500I11538J4808*
X3280000Y349000I12500*
X3292500Y361500J12500*
X3291538Y366308I12500*
G02X3291500Y366500I462J192*
X3291538Y366692I500*
G03X3292500Y371500I11538J4808*
X3280000Y384000I12500*
X3267500Y371500J12500*
G01Y1128500*
X3307354Y1088646*
G02X3307500Y1088293I354J353*
G01Y892500*
X3319500Y880500*
Y530000*
G03X3335000Y514500I15500*
X3350500Y530000J15500*
X3335000Y545500I15500*
X3319500Y530000J15500*
G01Y625000*
G03X3335000Y609500I15500*
X3350500Y625000J15500*
X3335000Y640500I15500*
X3319500Y625000J15500*
G01Y880500*
X3397354Y802646*
G02X3397500Y802293I354J353*
G01Y722500*
X3424854Y695146*
G02X3425000Y694793I354J353*
G01Y180207*
G02X3424854Y179854I500*
G01X3415146Y170146*
G02X3414793Y170000I353J354*
G01X3257707*
G02X3257354Y170146J500*
G01X3235646Y191854*
G02X3235500Y192207I354J353*
G01Y702000*
X3153646Y783854*
G02X3153500Y784207I354J353*
G01Y999500*
X3137500Y1015500*
X2717000*
X2701500Y1000000*
Y564000*
X2811854Y453646*
G02X2812000Y453293I354J353*
G01Y398448*
G02X2811500Y397948I500*
X2811167Y398075J500*
G03X2795000Y404250I16167J18075*
G01X2765000*
G03X2740750Y380000J24250*
X2765000Y355750I24250*
G01X2795000*
G03X2811167Y361925J24250*
G02X2811500Y362052I333J373*
X2812000Y361552J500*
G01Y340070*
G02X2811854Y339717I500*
G01X2808708Y336571*
G02X2808354Y336424I354J353*
G01X2758699*
G02X2758346Y336571I1J500*
G01X2548146Y546770*
G02X2548000Y547124I354J354*
G01Y1101793*
X2852500Y974793D02*
G02X2852646Y975146I500D01*
G01X2859854Y982354*
G02X2860207Y982500I353J354*
G01X2864950*
Y851500*
G03X2885000Y831450I20050*
X2905050Y851500J20050*
G01Y958500*
G03X2885000Y978550I20050*
X2864950Y958500J20050*
G01Y982500*
X2914793*
G02X2915146Y982354J500*
G01X2919854Y977646*
G02X2920000Y977293I354J353*
G01Y835207*
G02X2919854Y834854I500*
G01X2912646Y827646*
G02X2912293Y827500I353J354*
G01X2860207*
G02X2859854Y827646J500*
G01X2852646Y834854*
G02X2852500Y835207I354J353*
G01Y974793*
X2857500Y890000D02*
X2915000D01*
Y917500*
X2857500*
Y890000*
X2977500Y974793D02*
G02X2977646Y975146I500D01*
G01X2992354Y989854*
G02X2992707Y990000I353J354*
G01X3074950*
Y851500*
G03X3095000Y831450I20050*
X3115050Y851500J20050*
G01Y958500*
G03X3095000Y978550I20050*
X3074950Y958500J20050*
G01Y990000*
X3114793*
G02X3115146Y989854J500*
G01X3124854Y980146*
G02X3125000Y979793I354J353*
G01Y762000*
X3169500Y717500*
Y530000*
G03X3185000Y514500I15500*
X3200500Y530000J15500*
X3185000Y545500I15500*
X3169500Y530000J15500*
G01Y625000*
G03X3185000Y609500I15500*
X3200500Y625000J15500*
X3185000Y640500I15500*
X3169500Y625000J15500*
G01Y717500*
X3218854Y668146*
G02X3219000Y667793I354J353*
G01Y374413*
G02X3218558Y373916I500*
G03X3207500Y361500I1442J12416*
X3208462Y356692I12500*
G02X3208500Y356500I462J192*
X3208462Y356308I500*
G03X3207500Y351500I11538J4808*
X3218558Y339083I12500*
G02X3219000Y338587I58J496*
G01Y192000*
X3266500Y144500*
X3414793*
G02X3415146Y144354J500*
G01X3419854Y139646*
G02X3420000Y139293I354J353*
G01Y50207*
G02X3419854Y49854I500*
G01X3415146Y45146*
G02X3414793Y45000I353J354*
G01X3212707*
G02X3212354Y45146J500*
G01X3121646Y135854*
G02X3121500Y136207I354J353*
G01Y179500*
X3083500Y217500*
X3083207*
G02X3082854Y217646J500*
G01X3072646Y227854*
G02X3072500Y228207I354J353*
G01Y594000*
X2977646Y688854*
G02X2977500Y689207I354J353*
G01Y974793*
X2984500Y529793D02*
G03X2984354Y530146I500D01*
G01X2817500Y697000*
Y997293*
G03X2817354Y997647I500*
G01X2810147Y1004854*
G03X2809793Y1005000I354J354*
G01X2730207*
G03X2729854Y1004854J500*
G01X2715146Y990146*
G03X2715000Y989793I354J353*
G01Y572707*
G03X2715146Y572354I500*
G01X2820000Y467500*
Y383509*
G03X2820500Y383009I500*
X2820995Y383438J500*
G02X2845000Y404250I24005J3438*
G01X2875000*
G02X2899250Y380000J24250*
X2875000Y355750I24250*
G01X2845000*
G02X2820995Y376562J24250*
G03X2820500Y376991I495J71*
X2820000Y376491J500*
G01Y342453*
G03X2820146Y342100I500*
G01X2823022Y339225*
G03X2823375Y339078I353J353*
G01X2966616*
G03X2966970Y339225J500*
G01X2984354Y356608*
G03X2984500Y356962I354J354*
G01Y529793*
X3065000Y890000D02*
X3122500D01*
Y917500*
X3065000*
Y890000*
X3595000Y920100D02*
G03X3594500Y920600I500D01*
G01X3438000*
G02X3408000Y950600J30000*
G01Y1168750*
G03X3378000Y1198750I30000*
G01X2592034*
G03X2570821Y1189963J30000*
G01X2513787Y1132929*
G03X2505000Y1111716I21213J21213*
G01Y547846*
G02X2497222Y527692I30000*
G03X2487500Y502500I27778J25192*
X2493248Y482548I37500*
X2493318Y482460I424J266*
G01X2501725Y474054*
G03X2502078Y473907I353J353*
G01X2510000*
X2514854Y469054*
G03X2515207Y468907I353J353*
G01X2541549*
G03X2541773Y468960J500*
X2562500Y502500I16773J33540*
X2541667Y536093I37500*
G02X2525000Y562967I13333J26874*
G01Y1103431*
G02X2533787Y1124645I30000*
G01X2579105Y1169963*
G02X2600319Y1178750I21214J21213*
G01X3358000*
G02X3388000Y1148750J30000*
G01Y901100*
G03X3388500Y900600I500*
G01X3408000*
G03X3408500Y901100J500*
G01Y919500*
X3572000*
Y901100*
G03X3572500Y900600I500*
G01X3594500*
G03X3595000Y901100J500*
G01Y920100*
Y1560000D02*
G02X3585000Y1550000I10000D01*
G01X15012*
G03X15001I11J5000*
G01X15000*
G02X5000Y1560000J10000*
G01Y1575000*
G02X15000Y1585000I10000*
G01X3585000*
G02X3595000Y1575000J10000*
G01Y1560000*
G37*
G54D10*
X215000Y405000D03*
X320000Y1215000D03*
Y1345000D03*
X345000Y290000D03*
X475000Y200000D03*
X1620000Y265000D03*
Y395000D03*
X2111000Y350000D02*
X2093499Y332499D01*
X2111000Y350000D02*
X2093499Y367501D01*
X2141000Y350000D02*
X2158501Y367501D01*
X2141000Y350000D02*
X2158501Y332499D01*
X2151000Y480000D02*
X2133499Y497501D01*
X2151000Y480000D02*
X2133499Y462499D01*
X2181000Y480000D02*
X2188231Y503670D01*
X2181000Y480000D02*
X2186718Y455920D01*
X2231000Y480000D02*
X2225379Y504103D01*
X2231000Y480000D02*
X2225378Y455897D01*
X2261000Y480000D02*
X2278501Y497501D01*
X2261000Y480000D02*
X2278501Y462499D01*
X2271000Y350000D02*
X2253499Y367501D01*
X2271000Y350000D02*
X2253499Y332499D01*
X2301000Y350000D02*
X2318501Y367501D01*
X2301000Y350000D02*
X2318501Y332499D01*
X2320000Y1330000D03*
X2725000Y250000D02*
X2707499Y232499D01*
X2725000Y250000D02*
X2707499Y267501D01*
X2755000Y250000D02*
X2772501Y267501D01*
X2755000Y250000D02*
X2772501Y232499D01*
X2765000Y380000D02*
X2747499Y397501D01*
X2765000Y380000D02*
X2747499Y362499D01*
X2795000Y380000D02*
X2801134Y403978D01*
X2795000Y380000D02*
X2801134Y356022D01*
X2845000Y380000D02*
X2827499Y397501D01*
X2845000Y380000D02*
X2827499Y362499D01*
X2875000Y380000D02*
X2892501Y397501D01*
X2875000Y380000D02*
X2892501Y362499D01*
X2885000Y250000D02*
X2867499Y232499D01*
X2885000Y250000D02*
X2867499Y267501D01*
X2915000Y250000D02*
X2932501Y267501D01*
X2915000Y250000D02*
X2932501Y232499D01*
X3030000Y1380000D03*
G54D11*
X2885000Y851500D02*
X2866236Y843121D01*
X2885000Y851500D02*
X2903890Y843408D01*
X2885000Y958500D02*
X2866236Y966879D01*
X2885000Y958500D02*
X2903764Y966879D01*
X3095000Y851500D02*
X3080469Y836969D01*
X3095000Y851500D02*
X3109531Y836969D01*
X3095000Y958500D02*
X3109531Y973031D01*
X3095000Y958500D02*
X3080469Y973031D01*
G54D12*
X36000Y191000D03*
X51000D03*
X100000Y1012500D03*
Y1037900D03*
Y1063300D03*
Y1088700D03*
X102000Y1131700D03*
Y1161700D03*
Y1191700D03*
Y1221700D03*
Y1251700D03*
Y1281700D03*
Y1311700D03*
Y1341700D03*
X114000Y1116700D03*
Y1146700D03*
Y1176700D03*
Y1206700D03*
Y1236700D03*
Y1266700D03*
Y1296700D03*
Y1326700D03*
X114034Y1537500D03*
X120000Y1012500D03*
Y1037900D03*
Y1063300D03*
Y1088700D03*
X126000Y1131700D03*
Y1161700D03*
Y1191700D03*
Y1221700D03*
Y1251700D03*
Y1281700D03*
Y1311700D03*
Y1341700D03*
X129034Y1537500D03*
X138000Y1116700D03*
Y1146700D03*
Y1176700D03*
Y1206700D03*
Y1236700D03*
Y1266700D03*
Y1296700D03*
Y1326700D03*
X140000Y1012500D03*
Y1037900D03*
Y1063300D03*
Y1088700D03*
X144034Y1537500D03*
X261000Y72500D03*
X276000D03*
X291000D03*
X534032Y1537500D03*
X541003Y72500D03*
X549032Y1537500D03*
X556003Y72500D03*
X564032Y1537500D03*
X571003Y72500D03*
X811003D03*
X826003D03*
X841003D03*
X984030Y1537500D03*
X999030D03*
X1014030D03*
X1091003Y72500D03*
X1106003D03*
X1121003D03*
X1249027Y1537500D03*
X1264027D03*
X1279027D03*
X1361003Y72500D03*
X1376003D03*
X1391003D03*
X1519027Y1537500D03*
X1534027D03*
X1549027D03*
X1911003Y72500D03*
X1926003D03*
X1941003D03*
X2069000Y1537500D03*
X2084000D03*
X2099000D03*
X2339000D03*
X2354000D03*
X2369000D03*
X2414003Y72500D03*
X2429003D03*
X2444003D03*
X2604018Y1537500D03*
X2619018D03*
X2634018D03*
X2714003Y72500D03*
X2729003D03*
X2744003D03*
X2964003D03*
X2979003D03*
X2994003D03*
X3054014Y1537500D03*
X3069014D03*
X3084014D03*
X3185000Y530000D02*
Y514000D01*
Y530000D02*
X3201000D01*
X3185000D02*
Y546000D01*
Y530000D02*
X3169000D01*
X3185000Y625000D02*
Y609000D01*
Y625000D02*
Y641000D01*
Y625000D02*
X3201000D01*
X3185000D02*
X3169000D01*
X3335000Y530000D02*
Y514000D01*
Y530000D02*
Y546000D01*
Y530000D02*
X3351000D01*
X3335000D02*
X3319000D01*
X3335000Y625000D02*
Y609000D01*
Y625000D02*
X3351000D01*
X3335000D02*
Y641000D01*
Y625000D02*
X3319000D01*
X3470000Y1012500D03*
Y1037900D03*
Y1063300D03*
Y1088700D03*
X3472000Y1131700D03*
Y1161700D03*
Y1191700D03*
Y1221700D03*
Y1251700D03*
Y1281700D03*
Y1311700D03*
Y1341700D03*
X3474007Y1537500D03*
X3484000Y1116700D03*
Y1146700D03*
Y1176700D03*
Y1206700D03*
Y1236700D03*
Y1266700D03*
Y1296700D03*
Y1326700D03*
X3489007Y1537500D03*
X3490000Y1012500D03*
Y1037900D03*
Y1063300D03*
Y1088700D03*
X3496000Y1131700D03*
Y1161700D03*
Y1191700D03*
Y1221700D03*
Y1251700D03*
Y1281700D03*
Y1311700D03*
Y1341700D03*
X3504007Y1537500D03*
X3508000Y1116700D03*
Y1146700D03*
Y1176700D03*
Y1206700D03*
Y1236700D03*
Y1266700D03*
Y1296700D03*
Y1326700D03*
X3510000Y1012500D03*
Y1037900D03*
Y1063300D03*
Y1088700D03*
G54D13*
X215000Y405000D02*
X230000D01*
X215000D02*
Y390000D01*
Y405000D02*
Y420000D01*
Y405000D02*
X200000D01*
X320000Y1215000D02*
X330607Y1204393D01*
X320000Y1215000D02*
X309393Y1225607D01*
X320000Y1215000D02*
X330607Y1225607D01*
X320000Y1215000D02*
X309393Y1204393D01*
X320000Y1345000D02*
Y1360000D01*
Y1345000D02*
X305000D01*
X320000D02*
Y1330000D01*
Y1345000D02*
X335000D01*
X345000Y290000D02*
Y305000D01*
Y290000D02*
X330000D01*
X345000D02*
Y275000D01*
Y290000D02*
X360000D01*
X475000Y200000D02*
Y185000D01*
Y200000D02*
Y215000D01*
Y200000D02*
X490000D01*
X475000D02*
X460000D01*
X1620000Y265000D02*
X1605000D01*
X1620000D02*
Y280000D01*
Y265000D02*
Y250000D01*
Y265000D02*
X1635000D01*
X1620000Y395000D02*
X1635000D01*
X1620000D02*
Y380000D01*
Y395000D02*
Y410000D01*
Y395000D02*
X1605000D01*
X2320000Y1330000D02*
Y1315000D01*
Y1330000D02*
Y1345000D01*
Y1330000D02*
X2305000D01*
X2320000D02*
X2335000D01*
X3030000Y1380000D02*
Y1365000D01*
Y1380000D02*
X3045000D01*
X3030000D02*
Y1395000D01*
Y1380000D02*
X3015000D01*
G54D14*
X271959Y1974840D02*
Y1995160D01*
X280271*
X283042Y1993928*
X283966Y1993005*
X284889Y1991157*
Y1988387*
X283966Y1986232*
X283042Y1985308*
X280271Y1984384*
X271959*
X274860Y2045041D02*
X284736D01*
X287723Y2041688*
Y2037868*
X284777Y2035328*
X274860*
Y2045041*
Y2053981D02*
X284756D01*
X287032Y2051441*
Y2047682*
X284777Y2045874*
X274860*
Y2053981*
X287865Y2051767D02*
X285244Y2054672D01*
X285102Y2054774*
X284960Y2054815*
X274413*
X274271Y2054774*
X274149Y2054672*
X274048Y2054550*
X274007Y2054408*
Y2045528*
Y2045467*
Y2045406*
Y2034901*
X274048Y2034759*
X274149Y2034616*
X274271Y2034515*
X274413Y2034495*
X285081*
X288414Y2037400*
X288495Y2037522*
X288536Y2037685*
Y2042033*
X285549Y2045406*
X287682Y2047113*
X287743Y2047195*
X287804Y2047296*
X287845Y2047398*
X287865Y2047459*
Y2051767*
X292278Y1974840D02*
Y1995160D01*
X300591*
X303362Y1993928*
X304285Y1993005*
X305209Y1991157*
Y1988387*
X304285Y1986232*
X303362Y1985308*
X300591Y1984384*
X292278*
X294063Y2051421D02*
Y2037888D01*
X297192Y2035328*
X303756*
X306925Y2037888*
Y2051421*
X303756Y2053981*
X297192*
X294063Y2051421*
X307738Y2051624D02*
Y2037685D01*
X307718Y2037583*
X307677Y2037502*
X307657Y2037421*
X307596Y2037360*
X304182Y2034576*
X304081Y2034535*
X304060Y2034515*
X304020*
X303979Y2034495*
X303959*
X303918*
X297070*
X296989Y2034515*
X296908Y2034535*
X296826Y2034576*
X293413Y2037360*
X293331Y2037421*
X293291Y2037502*
X293250Y2037583*
X293230Y2037685*
Y2051624*
X293250Y2051726*
X293291Y2051807*
X293331Y2051848*
X293372Y2051888*
X293413Y2051949*
X296826Y2054733*
X296908Y2054754*
X296969Y2054774*
X296989Y2054794*
X297070Y2054815*
X303918*
X303999Y2054794*
X304020*
X304040Y2054774*
X304101Y2054754*
X304182Y2054733*
X307596Y2051949*
X307616Y2051888*
X307657Y2051868*
X307677Y2051848*
Y2051807*
X307718Y2051726*
X307738Y2051624*
X313265Y2043131D02*
Y2040916D01*
X326128*
Y2043131*
X319707Y2053920*
X313265Y2043131*
X314445Y1994852D02*
X324605D01*
X319063Y1987155*
X321834*
X323681Y1986232*
X324605Y1985308*
X325528Y1982537*
Y1980382*
X324605Y1977611*
X322757Y1975764*
X319987Y1974840*
X317216*
X314445Y1975764*
X313521Y1976688*
X312598Y1978535*
X319504Y2054794D02*
X319971D01*
X320052Y2054774*
X320113Y2054733*
X320255Y2054632*
X320316Y2054591*
X326880Y2043496*
X326900Y2043415*
X326920Y2043374*
X326941Y2043334*
Y2043313*
Y2043273*
Y2034901*
X326900Y2034759*
X326819Y2034637*
X326676Y2034576*
X326534Y2034556*
X326392Y2034576*
X326250Y2034637*
X326168Y2034759*
X326128Y2034901*
Y2040083*
X313265*
Y2034901*
X313225Y2034759*
X313143Y2034637*
X313001Y2034576*
X312839Y2034556*
X312696Y2034576*
X312554Y2034637*
X312473Y2034759*
X312432Y2034901*
Y2043273*
Y2043313*
Y2043334*
X312452Y2043374*
X312473Y2043415*
X312493Y2043496*
X319138Y2054591*
X319239Y2054693*
X319361Y2054733*
X319443Y2054774*
X319504Y2054794*
X332508Y2053981D02*
X342221D01*
X345391Y2051421*
Y2047642*
X342221Y2045061*
X332508*
Y2053981*
X333841Y1990234D02*
Y1991157D01*
X334764Y1993005*
X335688Y1993928*
X337535Y1995160*
X341230*
X343077Y1993928*
X344000Y1993005*
X344924Y1991157*
Y1989310*
X344000Y1987463*
X342153Y1984384*
X332917Y1974840*
X345848*
X346062Y2047093D02*
X346123Y2047134D01*
X346143Y2047235*
X346204Y2047337*
Y2047438*
Y2051624*
Y2051726*
X346143Y2051787*
Y2051848*
X346123Y2051868*
X346102Y2051888*
X346062Y2051929*
X342607Y2054733*
X342506Y2054774*
X342424Y2054794*
X342343Y2054815*
X332102*
X331919Y2054774*
X331797Y2054672*
X331696Y2054550*
X331655Y2054408*
Y2034901*
X331696Y2034738*
X331797Y2034637*
X331919Y2034576*
X332061Y2034556*
X332224Y2034576*
X332366Y2034637*
X332468Y2034738*
X332508Y2034901*
Y2044248*
X342059*
X345391Y2034779*
X345472Y2034637*
X345615Y2034556*
X345777Y2034535*
X345899Y2034576*
X346021Y2034637*
X346123Y2034738*
X346184Y2034881*
X346143Y2035043*
X342811Y2044512*
X346062Y2047093*
X351711Y2053981D02*
X361403D01*
X364573Y2051421*
Y2037888*
X361403Y2035328*
X351711*
Y2053981*
X355084Y1994852D02*
X365243D01*
X359702Y1987155*
X362473*
X364320Y1986232*
X365243Y1985308*
X366167Y1982537*
Y1980382*
X365243Y1977611*
X363396Y1975764*
X360625Y1974840*
X357855*
X355084Y1975764*
X354160Y1976688*
X353236Y1978535*
X361810Y2054733D02*
X361708Y2054774D01*
X361627Y2054794*
X361546Y2054815*
X351264*
X351121Y2054774*
X351000Y2054672*
X350898Y2054550*
X350857Y2054408*
Y2034901*
X350898Y2034738*
X351000Y2034637*
X351121Y2034515*
X351264Y2034495*
X361546*
X361627*
X361668Y2034515*
X361708Y2034535*
X361810Y2034576*
X365244Y2037360*
X365305Y2037441*
X365325Y2037482*
X365366Y2037583*
X365386Y2037685*
Y2051624*
X365366Y2051726*
X365325Y2051787*
Y2051848*
X365305Y2051868*
X365264Y2051888*
X365244Y2051929*
X361810Y2054733*
X384588Y2034901D02*
X384629Y2034738D01*
X384731Y2034637*
X384853Y2034576*
X384995Y2034556*
X385157Y2034576*
X385300Y2034637*
X385401Y2034738*
X385442Y2034901*
Y2053108*
X398386Y2034657*
X398447Y2034576*
X398548Y2034535*
X398650*
X398772Y2034576*
X398914Y2034616*
X399036Y2034677*
X399097Y2034779*
X399117Y2034901*
Y2054408*
X399077Y2054550*
X398975Y2054672*
X398853Y2054733*
X398711Y2054754*
X398569Y2054733*
X398426Y2054672*
X398325Y2054550*
X398304Y2054408*
Y2036201*
X385340Y2054632*
X385259Y2054713*
X385178Y2054754*
X385076*
X384975Y2054733*
X384812Y2054713*
X384690Y2054652*
X384629Y2054550*
X384588Y2054408*
Y2034901*
X384639Y1994852D02*
X375403D01*
X374480Y1986232*
X375403Y1987155*
X378174Y1988079*
X380945*
X383716Y1987155*
X385563Y1985308*
X386486Y1982537*
Y1980382*
X385563Y1977611*
X383716Y1975764*
X380945Y1974840*
X378174*
X375403Y1975764*
X374480Y1976688*
X373556Y1978535*
X393875Y1983461D02*
X406806D01*
X404644Y2043131D02*
Y2040916D01*
X417507*
Y2043131*
X411086Y2053920*
X404644Y2043131*
X410883Y2054794D02*
X411350D01*
X411431Y2054774*
X411492Y2054733*
X411634Y2054632*
X411695Y2054591*
X418259Y2043496*
X418279Y2043415*
X418299Y2043374*
X418320Y2043334*
Y2043313*
Y2043273*
Y2034901*
X418279Y2034759*
X418198Y2034637*
X418056Y2034576*
X417913Y2034556*
X417771Y2034576*
X417629Y2034637*
X417548Y2034759*
X417507Y2034901*
Y2040083*
X404644*
Y2034901*
X404604Y2034759*
X404522Y2034637*
X404380Y2034576*
X404218Y2034556*
X404075Y2034576*
X403933Y2034637*
X403852Y2034759*
X403811Y2034901*
Y2043273*
Y2043313*
Y2043334*
X403832Y2043374*
X403852Y2043415*
X403872Y2043496*
X410517Y2054591*
X410618Y2054693*
X410740Y2054733*
X410822Y2054774*
X410883Y2054794*
X414195Y1994852D02*
X427125D01*
X417889Y1974840*
X434514Y1994852D02*
X447445D01*
X438209Y1974840*
X436750Y2034901D02*
X436770Y2034738D01*
X436872Y2034637*
X437014Y2034576*
X437156Y2034556*
X437299Y2034576*
X437420Y2034637*
X437522Y2034738*
X437563Y2034901*
Y2054327*
Y2054388*
Y2054408*
X437542Y2054550*
X437481Y2054652*
X437360Y2054713*
X437217Y2054733*
X437075Y2054754*
X436973Y2054733*
X436872Y2054693*
X436811Y2054611*
X430308Y2044065*
X423826Y2054611*
X423725Y2054713*
X423644Y2054754*
X423522*
X423420Y2054733*
X423257Y2054713*
X423136Y2054652*
X423075Y2054550*
X423034Y2054408*
Y2054388*
Y2054327*
Y2034901*
X423075Y2034738*
X423176Y2034637*
X423298Y2034576*
X423440Y2034556*
X423603Y2034576*
X423745Y2034637*
X423847Y2034738*
X423887Y2034901*
Y2052925*
X429943Y2043029*
X430024Y2042948*
X430105Y2042887*
X430207Y2042866*
X430308Y2042887*
X430410Y2042866*
X430512Y2042887*
X430593Y2042948*
X430674Y2043029*
X436750Y2052925*
Y2034901*
X454834Y1974840D02*
X461299Y1995160D01*
X467764Y1974840*
X456359Y2053981D02*
X456501Y2054022D01*
X456623Y2054103*
X456684Y2054246*
X456704Y2054388*
X456684Y2054550*
X456623Y2054672*
X456501Y2054774*
X456359Y2054815*
X442643*
X442500Y2054774*
X442379Y2054672*
X442277Y2054550*
X442236Y2054408*
Y2034901*
X442277Y2034759*
X442379Y2034637*
X442500Y2034535*
X442643Y2034495*
X456359*
X456501Y2034535*
X456623Y2034616*
X456684Y2034759*
X456704Y2034901*
X456684Y2035064*
X456623Y2035206*
X456501Y2035307*
X456359Y2035348*
X443090*
Y2044248*
X452295*
X452437Y2044289*
X452559Y2044390*
X452620Y2044512*
X452640Y2044655*
X452620Y2044797*
X452559Y2044939*
X452437Y2045041*
X452295Y2045061*
X443090*
Y2053981*
X456359*
X456989Y1981613D02*
X465609D01*
X525995Y2034901D02*
X526036Y2034738D01*
X526138Y2034637*
X526260Y2034515*
X526402Y2034495*
X540118*
X540260Y2034515*
X540382Y2034616*
X540443Y2034759*
X540463Y2034901*
X540443Y2035064*
X540382Y2035206*
X540260Y2035287*
X540118Y2035328*
X526849*
Y2054408*
X526808Y2054550*
X526707Y2054672*
X526564Y2054733*
X526402Y2054754*
X526260Y2054733*
X526138Y2054672*
X526036Y2054550*
X525995Y2054408*
Y2034901*
X546051Y2043131D02*
Y2040916D01*
X558914*
Y2043131*
X552493Y2053920*
X546051Y2043131*
X550368Y1932081D02*
X548521Y1933928D01*
X545750Y1935160*
X542056*
X539285Y1933928*
X537438Y1932081*
Y1930234*
X538362Y1928387*
X539285Y1927463*
X541132Y1926232*
X546674Y1924384*
X548521Y1923461*
X549445Y1922537*
X550368Y1920690*
Y1917611*
X548521Y1915764*
X545750Y1914840*
X542056*
X539285Y1915764*
X537438Y1917611*
X552289Y2054794D02*
X552757D01*
X552838Y2054774*
X552899Y2054733*
X553041Y2054632*
X553102Y2054591*
X559666Y2043496*
X559686Y2043415*
X559706Y2043374*
X559727Y2043334*
Y2043313*
Y2043273*
Y2034901*
X559686Y2034759*
X559605Y2034637*
X559462Y2034576*
X559320Y2034556*
X559178Y2034576*
X559036Y2034637*
X558954Y2034759*
X558914Y2034901*
Y2040083*
X546051*
Y2034901*
X546011Y2034759*
X545929Y2034637*
X545787Y2034576*
X545624Y2034556*
X545482Y2034576*
X545340Y2034637*
X545259Y2034759*
X545218Y2034901*
Y2043273*
Y2043313*
Y2043334*
X545238Y2043374*
X545259Y2043415*
X545279Y2043496*
X551924Y2054591*
X552025Y2054693*
X552147Y2054733*
X552228Y2054774*
X552289Y2054794*
X553443Y1992081D02*
X552520Y1993928D01*
X549441Y1994852*
X547286*
X544207Y1993928*
X542360Y1991157*
X541436Y1986232*
Y1981613*
X542360Y1977611*
X544207Y1975764*
X547286Y1974840*
X548210*
X551288Y1975764*
X553443Y1977611*
X554367Y1980382*
Y1981613*
X553443Y1984384*
X551288Y1986232*
X548210Y1987155*
X547286*
X544207Y1986232*
X542360Y1984384*
X541436Y1981613*
X557757Y1914840D02*
X564223Y1935160D01*
X570688Y1914840*
X559912Y1921613D02*
X568533D01*
X561756Y1995160D02*
Y1974840D01*
X574686*
X578077Y1914840D02*
Y1935160D01*
X584542Y1914840*
X591007Y1935160*
Y1914840*
X578909Y2054164D02*
X572122Y2044512D01*
Y2034901*
X572081Y2034759*
X572000Y2034637*
X571858Y2034576*
X571715Y2034556*
X571573Y2034576*
X571431Y2034637*
X571350Y2034759*
X571309Y2034901*
Y2044512*
X564542Y2054164*
X564481Y2054286*
X564502Y2054428*
X564563Y2054571*
X564664Y2054672*
X564807Y2054754*
X564949Y2054774*
X565091Y2054754*
X565213Y2054652*
X571715Y2045386*
X578258Y2054652*
X578360Y2054754*
X578482Y2054774*
X578624Y2054754*
X578766Y2054672*
X578868Y2054571*
X578949Y2054428*
X578970Y2054286*
X578909Y2054164*
X597766Y2053981D02*
X597908Y2054022D01*
X598030Y2054103*
X598091Y2054246*
X598111Y2054388*
X598091Y2054550*
X598030Y2054672*
X597908Y2054774*
X597766Y2054815*
X584050*
X583907Y2054774*
X583785Y2054672*
X583684Y2054550*
X583643Y2054408*
Y2034901*
X583684Y2034759*
X583785Y2034637*
X583907Y2034535*
X584050Y2034495*
X597766*
X597908Y2034535*
X598030Y2034616*
X598091Y2034759*
X598111Y2034901*
X598091Y2035064*
X598030Y2035206*
X597908Y2035307*
X597766Y2035348*
X584497*
Y2044248*
X593702*
X593844Y2044289*
X593966Y2044390*
X594027Y2044512*
X594047Y2044655*
X594027Y2044797*
X593966Y2044939*
X593844Y2045041*
X593702Y2045061*
X584497*
Y2053981*
X597766*
X603699D02*
X613412D01*
X616582Y2051421*
Y2047642*
X613412Y2045061*
X603699*
Y2053981*
X611327Y1932081D02*
X609480Y1933928D01*
X606709Y1935160*
X603014*
X600243Y1933928*
X598396Y1932081*
Y1930234*
X599320Y1928387*
X600243Y1927463*
X602091Y1926232*
X607632Y1924384*
X609480Y1923461*
X610403Y1922537*
X611327Y1920690*
Y1917611*
X609480Y1915764*
X606709Y1914840*
X603014*
X600243Y1915764*
X598396Y1917611*
X617252Y2047093D02*
X617313Y2047134D01*
X617334Y2047235*
X617395Y2047337*
Y2047438*
Y2051624*
Y2051726*
X617334Y2051787*
Y2051848*
X617313Y2051868*
X617293Y2051888*
X617252Y2051929*
X613798Y2054733*
X613696Y2054774*
X613615Y2054794*
X613534Y2054815*
X603293*
X603110Y2054774*
X602988Y2054672*
X602886Y2054550*
X602846Y2054408*
Y2034901*
X602886Y2034738*
X602988Y2034637*
X603110Y2034576*
X603252Y2034556*
X603415Y2034576*
X603557Y2034637*
X603658Y2034738*
X603699Y2034901*
Y2044248*
X613249*
X616582Y2034779*
X616663Y2034637*
X616805Y2034556*
X616968Y2034535*
X617090Y2034576*
X617212Y2034637*
X617313Y2034738*
X617374Y2034881*
X617334Y2035043*
X614001Y2044512*
X617252Y2047093*
X618716Y1935160D02*
Y1920690D01*
X619639Y1917611*
X621486Y1915764*
X624257Y1914840*
X626104*
X628875Y1915764*
X630723Y1917611*
X631646Y1920690*
Y1935160*
X633000Y2045000D02*
X636435Y2042216D01*
X636496Y2042135*
X636516Y2042033*
X636536Y2041972*
X636556Y2041911*
X636577Y2041871*
Y2037685*
X636556Y2037624*
X636516Y2037482*
X636496Y2037441*
X636435Y2037360*
X633021Y2034576*
X632919Y2034535*
X632899Y2034515*
X632858*
X632818Y2034495*
X632797*
X632757*
X625909*
X625828Y2034515*
X625746Y2034535*
X625665Y2034576*
X622251Y2037360*
X622150Y2037461*
X622129Y2037522*
Y2037583*
X622150Y2037725*
X622231Y2037868*
X622312Y2037969*
X622434Y2038051*
X622576Y2038071*
X622719Y2038030*
X626031Y2035328*
X632594*
X635764Y2037888*
Y2041668*
X632594Y2044248*
X625909*
X625828*
X625726Y2044268*
X625665Y2044309*
X622251Y2047093*
X622211Y2047113*
X622170Y2047154*
X622129Y2047215*
X622089Y2047357*
X622068Y2047438*
Y2051624*
X622089Y2051726*
X622129Y2051807*
X622170Y2051848*
X622211Y2051888*
X622251Y2051949*
X625665Y2054733*
X625746Y2054754*
X625807Y2054774*
X625828Y2054794*
X625909Y2054815*
X632757*
X632838Y2054794*
X632879Y2054774*
X632940Y2054754*
X633000Y2054733*
X635561Y2052640*
X635662Y2052539*
X635703Y2052417*
X635683Y2052275*
X635622Y2052132*
X635520Y2052031*
X635378Y2051949*
X635215Y2051929*
X635073Y2051970*
X632635Y2053981*
X626031*
X622901Y2051421*
Y2047642*
X626031Y2045061*
X632757*
X632838Y2045041*
X632919Y2045020*
X633000Y2045000*
X639035Y1914840D02*
Y1935160D01*
X651966Y1914840*
Y1935160*
X672285Y1930234D02*
X671361Y1932081D01*
X669514Y1933928*
X667975Y1935160*
X664280*
X662741Y1933928*
X660894Y1932081*
X659970Y1930234*
X659354Y1927463*
Y1922537*
X659970Y1919766*
X660894Y1917611*
X662741Y1915764*
X664280Y1914840*
X667975*
X669514Y1915764*
X671361Y1917611*
X672285Y1919766*
Y1922537*
X667975*
X700920Y1994000D02*
X704300Y1996740D01*
Y1996520*
Y1996360*
Y1996260*
X704280Y1996240*
X704360Y1996500*
X704460Y1996680*
X704560Y1996800*
X704660Y1996840*
X711260*
X711360*
X711440Y1996820*
X711500Y1996800*
X711520Y1996760*
X711560*
X711660Y1996740*
X715040Y1993980*
X715100Y1993900*
X715160Y1993820*
X715200Y1993780*
Y1993720*
X715240Y1993640*
X715260Y1993480*
Y1980020*
X715240Y1979920*
X715200Y1979780*
Y1979720*
X715160Y1979660*
X715100Y1979600*
X715040Y1979520*
X711660Y1976780*
Y1976980*
Y1977120*
Y1977200*
X711680Y1977240*
X711560Y1976980*
X711460Y1976800*
X711360Y1976700*
X711260Y1976660*
X704660*
X704520*
X704460Y1976680*
X704360Y1976720*
X704240Y1976800*
X700960Y1979480*
X700860Y1979540*
X700820Y1979600*
X700760Y1979680*
X700740Y1979800*
X700700Y1979880*
X700680Y1980020*
Y1993480*
X700700Y1993640*
X700740Y1993740*
X700760Y1993760*
X700780Y1993820*
X700840Y1993900*
X700920Y1994000*
X702080Y1993140D02*
Y1980340D01*
X702860Y1979520*
X712140Y1994640*
X711040Y1995460*
X704920*
X702080Y1993140*
X703860Y1978800D02*
X704900Y1978040D01*
X711020*
X713900Y1980360*
Y1993140*
X713120Y1993920*
X703860Y1978800*
X704507Y2053981D02*
X704649Y2054022D01*
X704771Y2054103*
X704832Y2054246*
X704852Y2054388*
X704832Y2054550*
X704771Y2054672*
X704649Y2054774*
X704507Y2054815*
X690791*
X690648Y2054774*
X690526Y2054672*
X690425Y2054550*
X690384Y2054408*
Y2034901*
X690425Y2034759*
X690526Y2034637*
X690648Y2034576*
X690791Y2034556*
X690953Y2034576*
X691095Y2034637*
X691197Y2034759*
X691238Y2034901*
Y2045163*
X700443*
X700585Y2045183*
X700707Y2045284*
X700768Y2045427*
X700788Y2045569*
X700768Y2045711*
X700707Y2045853*
X700585Y2045955*
X700443Y2045996*
X691238*
Y2053981*
X704507*
X720458D02*
X720600Y2054022D01*
X720722Y2054103*
X720783Y2054246*
X720803Y2054388*
X720783Y2054550*
X720722Y2054693*
X720600Y2054794*
X720458Y2054815*
X712533*
X712370Y2054794*
X712289Y2054693*
X712228Y2054550*
X712208Y2054388*
X712228Y2054246*
X712289Y2054103*
X712370Y2054022*
X712533Y2053981*
X716089*
Y2035348*
X712533*
X712370Y2035307*
X712289Y2035206*
X712228Y2035064*
X712208Y2034901*
X712228Y2034759*
X712289Y2034616*
X712370Y2034535*
X712533Y2034495*
X720458*
X720600Y2034535*
X720722Y2034616*
X720783Y2034759*
X720803Y2034901*
X720783Y2035064*
X720722Y2035206*
X720600Y2035307*
X720458Y2035348*
X716881*
Y2053981*
X720458*
X723160Y1976800D02*
X719860Y1979500D01*
X719760Y1979580*
X719680Y1979680*
X719640Y1979800*
Y1979920*
X719680Y1980160*
X719780Y1980380*
X719940Y1980540*
X720160Y1980640*
X720280Y1980680*
X720420Y1980660*
X720560Y1980640*
X720700Y1980580*
X723820Y1978040*
X729940*
X732820Y1980360*
Y1983720*
X729960Y1986080*
X726820*
X726680Y1986100*
X726540Y1986140*
X726440Y1986200*
X726360Y1986300*
X726240Y1986520*
X726200Y1986740*
X726240Y1986980*
X726360Y1987200*
X726440Y1987300*
X726540Y1987360*
X726680Y1987400*
X726820Y1987420*
X729980*
X732820Y1989760*
Y1993140*
X729940Y1995460*
X723820*
X720700Y1992920*
X720560Y1992860*
X720420Y1992820*
X720280*
X720160Y1992840*
X719940Y1992960*
X719780Y1993120*
X719680Y1993320*
X719640Y1993580*
Y1993700*
X719680Y1993820*
X719760Y1993900*
X719860Y1994000*
X723220Y1996740*
Y1996520*
Y1996360*
Y1996260*
X723200Y1996240*
X723300Y1996500*
X723380Y1996680*
X723480Y1996800*
X723580Y1996840*
X730180*
X730280*
X730360Y1996820*
X730420Y1996800*
X730460Y1996760*
X730480*
X730580Y1996740*
X733960Y1993980*
X734040Y1993900*
X734080Y1993820*
X734120Y1993780*
Y1993720*
X734160Y1993640*
X734180Y1993480*
Y1989440*
X734160Y1989340*
X734120Y1989200*
X734100Y1989080*
X734060Y1988980*
X733980Y1988900*
X733880Y1988860*
X731160Y1986740*
X733980Y1984560*
X734000Y1984540*
X734060Y1984500*
X734100Y1984440*
X734120Y1984300*
X734160Y1984140*
X734180Y1984060*
Y1980020*
Y1979920*
X734160Y1979840*
X734140Y1979780*
X734120Y1979740*
X734100Y1979640*
X734060Y1979580*
X734000Y1979500*
X733900Y1979460*
X730600Y1976780*
X730460Y1976700*
X730420Y1976680*
X730400*
X730360Y1976660*
X730320*
X730180*
X723580*
X723460*
X723400Y1976680*
X723280Y1976720*
X723160Y1976800*
X728078Y2034901D02*
X728118Y2034738D01*
X728220Y2034637*
X728342Y2034515*
X728484Y2034495*
X742200*
X742342Y2034515*
X742464Y2034616*
X742525Y2034759*
X742546Y2034901*
X742525Y2035064*
X742464Y2035206*
X742342Y2035287*
X742200Y2035328*
X728931*
Y2054408*
X728891Y2054550*
X728789Y2054672*
X728647Y2054733*
X728484Y2054754*
X728342Y2054733*
X728220Y2054672*
X728118Y2054550*
X728078Y2054408*
Y2034901*
X737000Y1124500D03*
Y1133500D03*
X739280Y1977900D02*
X752660D01*
X752820Y1977880*
X752940Y1977840*
X753040Y1977780*
X753140Y1977700*
X753240Y1977500*
X753280Y1977300*
X753260Y1977160*
X753240Y1977020*
X753180Y1976920*
X753120Y1976820*
X753040Y1976760*
X752940Y1976700*
X752800Y1976660*
X752660*
X739280*
X739140*
X739020Y1976700*
X738920Y1976760*
X738820Y1976820*
X738760Y1976920*
X738720Y1977020*
X738700Y1977160*
X738680Y1977300*
X738720Y1977500*
X738820Y1977700*
X738900Y1977780*
X739000Y1977840*
X739120Y1977880*
X739280Y1977900*
X743000Y1129000D03*
X749000Y1124500D03*
Y1133500D03*
X760996Y2034901D02*
X761016Y2034738D01*
X761118Y2034637*
X761260Y2034576*
X761403Y2034556*
X761545Y2034576*
X761667Y2034637*
X761768Y2034738*
X761809Y2034901*
Y2054327*
Y2054388*
Y2054408*
X761789Y2054550*
X761728Y2054652*
X761606Y2054713*
X761464Y2054733*
X761321Y2054754*
X761220Y2054733*
X761118Y2054693*
X761057Y2054611*
X754555Y2044065*
X748073Y2054611*
X747971Y2054713*
X747890Y2054754*
X747768*
X747666Y2054733*
X747504Y2054713*
X747382Y2054652*
X747321Y2054550*
X747280Y2054408*
Y2054388*
Y2054327*
Y2034901*
X747321Y2034738*
X747422Y2034637*
X747544Y2034576*
X747687Y2034556*
X747849Y2034576*
X747991Y2034637*
X748093Y2034738*
X748134Y2034901*
Y2052925*
X754189Y2043029*
X754270Y2042948*
X754352Y2042887*
X754453Y2042866*
X754555Y2042887*
X754656Y2042866*
X754758Y2042887*
X754839Y2042948*
X754920Y2043029*
X760996Y2052925*
Y2034901*
X768160Y1995460D02*
X768300Y1995480D01*
X768440Y1995520*
X768560Y1995600*
X768640Y1995700*
X768760Y1995920*
X768780Y1996140*
X768760Y1996380*
X768640Y1996620*
X768560Y1996700*
X768440Y1996780*
X768300Y1996820*
X768160Y1996840*
X760500*
X760360Y1996820*
X760220Y1996780*
X760120Y1996700*
X760040Y1996600*
X759940Y1996380*
X759920Y1996140*
X759940Y1995920*
X760040Y1995700*
X760120Y1995600*
X760220Y1995520*
X760340Y1995480*
X760500Y1995460*
X763680*
Y1978040*
X760500*
X760360Y1978020*
X760220Y1977980*
X760120Y1977900*
X760040Y1977800*
X759940Y1977580*
X759920Y1977340*
X759940Y1977120*
X760040Y1976900*
X760120Y1976800*
X760220Y1976720*
X760340Y1976680*
X760500Y1976660*
X768160*
X768300Y1976680*
X768440Y1976720*
X768560Y1976800*
X768640Y1976900*
X768760Y1977120*
X768780Y1977340*
X768760Y1977580*
X768640Y1977800*
X768560Y1977900*
X768440Y1977980*
X768300Y1978020*
X768160Y1978040*
X765000*
Y1995460*
X768160*
X775620Y1977320D02*
Y1977180D01*
X775660Y1977040*
X775740Y1976940*
X775840Y1976860*
X776060Y1976740*
X776280Y1976720*
X776540Y1976740*
X776780Y1976860*
X776880Y1976940*
X776960Y1977060*
X777000Y1977180*
Y1977320*
Y1994620*
X788960Y1976940*
X789100Y1976820*
X789260Y1976740*
X789440Y1976720*
X789660Y1976740*
X789900Y1976820*
X790060Y1976940*
X790180Y1977100*
X790200Y1977320*
Y1996160*
Y1996300*
X790140Y1996420*
X790080Y1996540*
X789980Y1996620*
X789740Y1996740*
X789520Y1996780*
X789280Y1996740*
X789060Y1996620*
X788960Y1996540*
X788900Y1996440*
X788860Y1996300*
X788840Y1996160*
Y1978880*
X776860Y1996560*
X776700Y1996680*
X776520Y1996740*
X776360Y1996760*
X776200Y1996740*
X775940Y1996700*
X775760Y1996600*
X775660Y1996420*
X775620Y1996160*
Y1977320*
X781011Y2034901D02*
X781052Y2034738D01*
X781154Y2034637*
X781276Y2034576*
X781418Y2034556*
X781580Y2034576*
X781723Y2034637*
X781824Y2034738*
X781865Y2034901*
Y2053108*
X794809Y2034657*
X794870Y2034576*
X794971Y2034535*
X795073*
X795195Y2034576*
X795337Y2034616*
X795459Y2034677*
X795520Y2034779*
X795540Y2034901*
Y2054408*
X795500Y2054550*
X795398Y2054672*
X795276Y2054733*
X795134Y2054754*
X794992Y2054733*
X794849Y2054672*
X794748Y2054550*
X794727Y2054408*
Y2036201*
X781763Y2054632*
X781682Y2054713*
X781601Y2054754*
X781499*
X781397Y2054733*
X781235Y2054713*
X781113Y2054652*
X781052Y2054550*
X781011Y2054408*
Y2034901*
X795920Y1995460D02*
X804900D01*
X807780Y1993140*
Y1989760*
X804920Y1987420*
X795920*
Y1995460*
X801067Y2043131D02*
Y2040916D01*
X813930*
Y2043131*
X807509Y2053920*
X801067Y2043131*
X807305Y2054794D02*
X807773D01*
X807854Y2054774*
X807915Y2054733*
X808057Y2054632*
X808118Y2054591*
X814682Y2043496*
X814702Y2043415*
X814722Y2043374*
X814743Y2043334*
Y2043313*
Y2043273*
Y2034901*
X814702Y2034759*
X814621Y2034637*
X814478Y2034576*
X814336Y2034556*
X814194Y2034576*
X814052Y2034637*
X813970Y2034759*
X813930Y2034901*
Y2040083*
X801067*
Y2034901*
X801027Y2034759*
X800945Y2034637*
X800803Y2034576*
X800640Y2034556*
X800498Y2034576*
X800356Y2034637*
X800275Y2034759*
X800234Y2034901*
Y2043273*
Y2043313*
Y2043334*
X800254Y2043374*
X800275Y2043415*
X800295Y2043496*
X806940Y2054591*
X807041Y2054693*
X807163Y2054733*
X807244Y2054774*
X807305Y2054794*
X808860Y1988860D02*
X808960Y1988900D01*
X809040Y1988960*
X809080Y1989060*
X809100Y1989180*
X809140Y1989300*
X809160Y1989440*
Y1993460*
X809140Y1993560*
Y1993640*
X809100Y1993740*
X809080Y1993840*
X809040Y1993880*
X808980Y1993920*
X808960Y1993940*
X805540Y1996700*
X805460Y1996740*
X805380Y1996780*
X805340Y1996800*
X805320Y1996820*
X805280*
X805120Y1996840*
X795240*
X795080Y1996820*
X794940Y1996780*
X794820Y1996700*
X794740Y1996620*
X794660Y1996540*
X794580Y1996440*
X794540Y1996300*
Y1996160*
Y1977320*
Y1977180*
X794580Y1977040*
X794660Y1976940*
X794760Y1976860*
X794980Y1976740*
X795200Y1976720*
X795460Y1976740*
X795700Y1976860*
X795800Y1976940*
X795880Y1977060*
X795920Y1977180*
Y1977320*
Y1986080*
X804640*
X807800Y1977120*
X807860Y1976980*
X807940Y1976880*
X808060Y1976800*
X808180Y1976760*
X808440Y1976720*
X808680Y1976780*
X808860Y1976880*
X809020Y1977060*
X809080Y1977160*
X809100Y1977300*
X809080Y1977460*
X809040Y1977640*
X805880Y1986520*
X808860Y1988860*
X813700Y1994000D02*
X817080Y1996740D01*
Y1996520*
Y1996360*
Y1996260*
X817060Y1996240*
X817140Y1996500*
X817240Y1996680*
X817340Y1996800*
X817440Y1996840*
X824040*
X824140*
X824220Y1996820*
X824280Y1996800*
X824300Y1996760*
X824340*
X824440Y1996740*
X827820Y1993980*
X827880Y1993900*
X827940Y1993820*
X827980Y1993780*
Y1993720*
X828020Y1993640*
X828040Y1993480*
Y1980020*
X828020Y1979920*
X827980Y1979780*
Y1979720*
X827940Y1979660*
X827880Y1979600*
X827820Y1979520*
X824440Y1976780*
Y1976980*
Y1977120*
Y1977200*
X824460Y1977240*
X824340Y1976980*
X824240Y1976800*
X824140Y1976700*
X824040Y1976660*
X817440*
X817300*
X817240Y1976680*
X817140Y1976720*
X817020Y1976800*
X813740Y1979480*
X813640Y1979540*
X813600Y1979600*
X813540Y1979680*
X813520Y1979800*
X813480Y1979880*
X813460Y1980020*
Y1993480*
X813480Y1993640*
X813520Y1993740*
X813540Y1993760*
X813560Y1993820*
X813620Y1993900*
X813700Y1994000*
X814860Y1993140D02*
Y1980340D01*
X815640Y1979520*
X824920Y1994640*
X823820Y1995460*
X817700*
X814860Y1993140*
X816640Y1978800D02*
X817680Y1978040D01*
X823800*
X826680Y1980360*
Y1993140*
X825900Y1993920*
X816640Y1978800*
X833173Y2034901D02*
X833193Y2034738D01*
X833295Y2034637*
X833437Y2034576*
X833579Y2034556*
X833721Y2034576*
X833843Y2034637*
X833945Y2034738*
X833986Y2034901*
Y2054327*
Y2054388*
Y2054408*
X833965Y2054550*
X833904Y2054652*
X833782Y2054713*
X833640Y2054733*
X833498Y2054754*
X833396Y2054733*
X833295Y2054693*
X833234Y2054611*
X826731Y2044065*
X820249Y2054611*
X820148Y2054713*
X820066Y2054754*
X819944*
X819843Y2054733*
X819680Y2054713*
X819558Y2054652*
X819497Y2054550*
X819457Y2054408*
Y2054388*
Y2054327*
Y2034901*
X819497Y2034738*
X819599Y2034637*
X819721Y2034576*
X819863Y2034556*
X820026Y2034576*
X820168Y2034637*
X820270Y2034738*
X820310Y2034901*
Y2052925*
X826366Y2043029*
X826447Y2042948*
X826528Y2042887*
X826630Y2042866*
X826731Y2042887*
X826833Y2042866*
X826935Y2042887*
X827016Y2042948*
X827097Y2043029*
X833173Y2052925*
Y2034901*
X835480Y1978020D02*
X835340D01*
X835200Y1977980*
X835100Y1977900*
X835020Y1977800*
X834920Y1977560*
X834900Y1977320*
X834920Y1977100*
X835020Y1976880*
X835100Y1976780*
X835200Y1976720*
X835320Y1976680*
X835480Y1976660*
X843140*
X843280Y1976680*
X843420Y1976720*
X843540Y1976780*
X843620Y1976880*
X843740Y1977100*
X843760Y1977320*
X843740Y1977560*
X843620Y1977800*
X843540Y1977900*
X843420Y1977980*
X843280Y1978020*
X843140*
X839980*
Y1996160*
X839960Y1996420*
X839840Y1996600*
X839660Y1996700*
X839420Y1996740*
X839240Y1996760*
X839080Y1996740*
X838940Y1996660*
X838800Y1996560*
X834980Y1991180*
X834920Y1991040*
X834860Y1990920*
Y1990800*
X834880Y1990680*
X834960Y1990460*
X835100Y1990300*
X835300Y1990180*
X835580Y1990120*
X835720*
X835840Y1990160*
X835940Y1990240*
X836020Y1990320*
X838660Y1994640*
Y1978020*
X835480*
X852782Y2053981D02*
X852924Y2054022D01*
X853046Y2054103*
X853107Y2054246*
X853127Y2054388*
X853107Y2054550*
X853046Y2054672*
X852924Y2054774*
X852782Y2054815*
X839066*
X838923Y2054774*
X838801Y2054672*
X838700Y2054550*
X838659Y2054408*
Y2034901*
X838700Y2034759*
X838801Y2034637*
X838923Y2034535*
X839066Y2034495*
X852782*
X852924Y2034535*
X853046Y2034616*
X853107Y2034759*
X853127Y2034901*
X853107Y2035064*
X853046Y2035206*
X852924Y2035307*
X852782Y2035348*
X839513*
Y2044248*
X848718*
X848860Y2044289*
X848982Y2044390*
X849043Y2044512*
X849063Y2044655*
X849043Y2044797*
X848982Y2044939*
X848860Y2045041*
X848718Y2045061*
X839513*
Y2053981*
X852782*
X894804Y1972816D02*
X892932Y1974022D01*
X892842Y1974112*
X892806Y1974238*
Y1974346*
X892842Y1974436*
X892896Y1974526*
X892950Y1974616*
X893040Y1974688*
X893130Y1974706*
X893220*
X893310Y1974652*
X895074Y1973500*
X897180*
X898512Y1975228*
Y1990474*
X898530Y1990618*
X898602Y1990726*
X898710Y1990780*
X898854Y1990816*
X899016Y1990780*
X899124Y1990726*
X899196Y1990618*
X899214Y1990474*
Y1975102*
X899196Y1975012*
X899160Y1974886*
X899142*
Y1974868*
X899106*
X897594Y1972888*
X897540Y1972852*
X897504Y1972834*
X897432Y1972780*
X897360Y1972762*
X894984*
X894966*
X894948*
X894930Y1972780*
X894876Y1972798*
X894804Y1972816*
X899214Y1994002D02*
Y1992202D01*
X899196Y1992058*
X899124Y1991950*
X899016Y1991896*
X898854Y1991878*
X898710Y1991896*
X898602Y1991950*
X898530Y1992058*
X898512Y1992202*
Y1994002*
X898530Y1994146*
X898602Y1994254*
X898710Y1994326*
X898854Y1994344*
X899016Y1994326*
X899124Y1994254*
X899196Y1994146*
X899214Y1994002*
X914432Y2053981D02*
X924125D01*
X927295Y2051421*
Y2037888*
X924125Y2035328*
X914432*
Y2053981*
X915432Y1977694D02*
X915576Y1977730D01*
X915648Y1977802*
X915702Y1977928*
X915720Y1978054*
X915702Y1978180*
X915648Y1978288*
X915576Y1978378*
X915432Y1978414*
X913542*
Y1990186*
X913506Y1990330*
X913434Y1990420*
X913344Y1990528*
X913200Y1990546*
X910968*
X910842Y1990528*
X910752Y1990438*
X910698Y1990312*
X910680Y1990186*
X910698Y1990060*
X910752Y1989952*
X910842Y1989862*
X910968Y1989826*
X912858*
Y1978414*
X910968*
X910842Y1978378*
X910752Y1978288*
X910698Y1978180*
X910680Y1978054*
X910698Y1977928*
X910752Y1977802*
X910842Y1977730*
X910968Y1977694*
X915432*
X923874Y1983922D02*
X927222Y1986190D01*
X931902*
X935268Y1983922*
Y1980646*
X931902Y1978414*
X927222*
X923874Y1980646*
Y1983922*
X924532Y2054733D02*
X924430Y2054774D01*
X924349Y2054794*
X924267Y2054815*
X913985*
X913843Y2054774*
X913721Y2054672*
X913620Y2054550*
X913579Y2054408*
Y2034901*
X913620Y2034738*
X913721Y2034637*
X913843Y2034515*
X913985Y2034495*
X924267*
X924349*
X924389Y2034515*
X924430Y2034535*
X924532Y2034576*
X927966Y2037360*
X928027Y2037441*
X928047Y2037482*
X928088Y2037583*
X928108Y2037685*
Y2051624*
X928088Y2051726*
X928047Y2051787*
Y2051848*
X928027Y2051868*
X927986Y2051888*
X927966Y2051929*
X924532Y2054733*
X935268Y1978054D02*
X935286Y1977910D01*
X935376Y1977820*
X935502Y1977766*
X935628Y1977748*
X935754Y1977766*
X935862Y1977820*
X935952Y1977910*
X935988Y1978054*
Y1987774*
X935952Y1987828*
Y1987900*
X935916Y1988026*
X933468Y1990456*
X933360Y1990510*
X933288Y1990528*
X933216Y1990546*
X923478*
X923352Y1990528*
X923262Y1990438*
X923190Y1990312*
X923172Y1990186*
X923190Y1990060*
X923262Y1989952*
X923352Y1989862*
X923478Y1989826*
X933018*
X935268Y1987594*
Y1984768*
X932172Y1986856*
X932100Y1986892*
X931992Y1986910*
X927132*
X927006Y1986892*
X926934Y1986856*
X923298Y1984408*
X923262Y1984372*
X923244Y1984354*
X923208Y1984336*
X923136Y1984246*
X923118Y1984120*
Y1980466*
X923136Y1980376*
X923208Y1980286*
X923244Y1980232*
X923298Y1980196*
X926934Y1977766*
X927024Y1977712*
X927132Y1977694*
X931992*
X932100Y1977712*
X932172Y1977766*
X935268Y1979800*
Y1978054*
X940200Y1978342D02*
X946014Y1984120D01*
X940200Y1989916*
X940146Y1989970*
X940110Y1990024*
Y1990078*
Y1990150*
X940164Y1990294*
X940254Y1990402*
X940362Y1990474*
X940488Y1990528*
X940632*
X940740Y1990456*
X946536Y1984660*
X952350Y1990456*
X952458Y1990528*
X952584*
X952710Y1990474*
X952836Y1990402*
X952908Y1990294*
X952962Y1990150*
Y1990024*
X952890Y1989916*
X947076Y1984120*
X952890Y1978342*
X952926Y1978270*
X952944Y1978198*
Y1978072*
X952890Y1977928*
X952800Y1977820*
X952692Y1977730*
X952566Y1977694*
X952512*
X952458Y1977712*
X952404Y1977748*
X952350Y1977802*
X946536Y1983580*
X940740Y1977802*
X940686Y1977748*
X940632Y1977712*
X940578Y1977694*
X940506*
X940380Y1977730*
X940272Y1977820*
X940200Y1977928*
X940128Y1978072*
Y1978198*
X940200Y1978342*
X946904Y2053981D02*
X947046Y2054022D01*
X947168Y2054103*
X947229Y2054246*
X947249Y2054388*
X947229Y2054550*
X947168Y2054672*
X947046Y2054774*
X946904Y2054815*
X933188*
X933046Y2054774*
X932924Y2054672*
X932822Y2054550*
X932781Y2054408*
Y2034901*
X932822Y2034759*
X932924Y2034637*
X933046Y2034535*
X933188Y2034495*
X946904*
X947046Y2034535*
X947168Y2034616*
X947229Y2034759*
X947249Y2034901*
X947229Y2035064*
X947168Y2035206*
X947046Y2035307*
X946904Y2035348*
X933635*
Y2044248*
X942840*
X942982Y2044289*
X943104Y2044390*
X943165Y2044512*
X943185Y2044655*
X943165Y2044797*
X943104Y2044939*
X942982Y2045041*
X942840Y2045061*
X933635*
Y2053981*
X946904*
X962936Y2045000D02*
X966370Y2042216D01*
X966431Y2042135*
X966452Y2042033*
X966472Y2041972*
X966492Y2041911*
X966513Y2041871*
Y2037685*
X966492Y2037624*
X966452Y2037482*
X966431Y2037441*
X966370Y2037360*
X962957Y2034576*
X962855Y2034535*
X962835Y2034515*
X962794*
X962753Y2034495*
X962733*
X962692*
X955845*
X955763Y2034515*
X955682Y2034535*
X955601Y2034576*
X952187Y2037360*
X952085Y2037461*
X952065Y2037522*
Y2037583*
X952085Y2037725*
X952167Y2037868*
X952248Y2037969*
X952370Y2038051*
X952512Y2038071*
X952654Y2038030*
X955967Y2035328*
X962530*
X965700Y2037888*
Y2041668*
X962530Y2044248*
X955845*
X955763*
X955662Y2044268*
X955601Y2044309*
X952187Y2047093*
X952146Y2047113*
X952106Y2047154*
X952065Y2047215*
X952024Y2047357*
X952004Y2047438*
Y2051624*
X952024Y2051726*
X952065Y2051807*
X952106Y2051848*
X952146Y2051888*
X952187Y2051949*
X955601Y2054733*
X955682Y2054754*
X955743Y2054774*
X955763Y2054794*
X955845Y2054815*
X962692*
X962774Y2054794*
X962814Y2054774*
X962875Y2054754*
X962936Y2054733*
X965497Y2052640*
X965598Y2052539*
X965639Y2052417*
X965619Y2052275*
X965558Y2052132*
X965456Y2052031*
X965314Y2051949*
X965151Y2051929*
X965009Y2051970*
X962571Y2053981*
X955967*
X952837Y2051421*
Y2047642*
X955967Y2045061*
X962692*
X962774Y2045041*
X962855Y2045020*
X962936Y2045000*
X965040Y1977694D02*
X965184Y1977730D01*
X965256Y1977802*
X965310Y1977928*
X965328Y1978054*
X965310Y1978180*
X965256Y1978288*
X965184Y1978378*
X965040Y1978414*
X963150*
Y1990186*
X963114Y1990330*
X963042Y1990420*
X962952Y1990528*
X962808Y1990546*
X960576*
X960450Y1990528*
X960360Y1990438*
X960306Y1990312*
X960288Y1990186*
X960306Y1990060*
X960360Y1989952*
X960450Y1989862*
X960576Y1989826*
X962466*
Y1978414*
X960576*
X960450Y1978378*
X960360Y1978288*
X960306Y1978180*
X960288Y1978054*
X960306Y1977928*
X960360Y1977802*
X960450Y1977730*
X960576Y1977694*
X965040*
X982057Y2053981D02*
X982200Y2054022D01*
X982322Y2054103*
X982383Y2054246*
X982403Y2054388*
X982383Y2054550*
X982322Y2054693*
X982200Y2054794*
X982057Y2054815*
X974133*
X973970Y2054794*
X973889Y2054693*
X973828Y2054550*
X973808Y2054388*
X973828Y2054246*
X973889Y2054103*
X973970Y2054022*
X974133Y2053981*
X977689*
Y2035348*
X974133*
X973970Y2035307*
X973889Y2035206*
X973828Y2035064*
X973808Y2034901*
X973828Y2034759*
X973889Y2034616*
X973970Y2034535*
X974133Y2034495*
X982057*
X982200Y2034535*
X982322Y2034616*
X982383Y2034759*
X982403Y2034901*
X982383Y2035064*
X982322Y2035206*
X982200Y2035307*
X982057Y2035348*
X978481*
Y2053981*
X982057*
X984876Y1978054D02*
X984894Y1977910D01*
X984984Y1977820*
X985110Y1977766*
X985236Y1977748*
X985362Y1977766*
X985470Y1977820*
X985560Y1977910*
X985596Y1978054*
Y1987774*
X985578Y1987828*
X985542Y1987900*
X985524Y1987972*
X985470Y1988062*
X982428Y1990474*
X982338Y1990510*
X982266Y1990528*
X982194Y1990546*
X976128*
X976056Y1990528*
X976002Y1990510*
X975930Y1990474*
X973482Y1988530*
Y1990186*
X973446Y1990330*
X973356Y1990420*
X973230Y1990474*
X973086Y1990510*
X972960Y1990474*
X972852Y1990420*
X972762Y1990330*
X972726Y1990186*
Y1978054*
X972762Y1977910*
X972852Y1977820*
X972960Y1977766*
X973086Y1977748*
X973230Y1977766*
X973356Y1977820*
X973446Y1977910*
X973482Y1978054*
Y1987594*
X976254Y1989826*
X982068*
X984876Y1987594*
Y1978054*
X1000650Y2054733D02*
X1004064Y2051949D01*
X1004166Y2051848*
X1004186Y2051685*
X1004166Y2051563*
X1004125Y2051462*
X1004064Y2051380*
X1003962Y2051299*
X1003861Y2051238*
X1003759Y2051218*
X1003658*
X1003576Y2051279*
X1000244Y2053981*
X993660*
X990531Y2051421*
Y2037888*
X993660Y2035328*
X1000224*
X1003393Y2037888*
Y2042866*
X1000366*
X1000224Y2042907*
X1000122Y2042988*
X1000041Y2043131*
X1000020Y2043273*
X1000041Y2043415*
X1000122Y2043537*
X1000224Y2043639*
X1000366Y2043679*
X1003800*
X1003962Y2043639*
X1004084Y2043557*
X1004186Y2043435*
X1004206Y2043273*
Y2037685*
X1004186Y2037583*
X1004145Y2037522*
X1004125Y2037421*
X1004064Y2037360*
X1000650Y2034576*
X1000549Y2034535*
X1000528Y2034515*
X1000488*
X1000447Y2034495*
X1000427*
X1000386*
X993538*
X993457Y2034515*
X993376Y2034535*
X993294Y2034576*
X989881Y2037360*
X989840Y2037400*
X989799Y2037421*
X989759Y2037482*
X989718Y2037624*
X989698Y2037685*
Y2051624*
X989718Y2051706*
X989759Y2051767*
X989799Y2051848*
X989881Y2051949*
X993294Y2054733*
X993376Y2054754*
X993437Y2054774*
X993457Y2054794*
X993538Y2054815*
X1000386*
X1000467Y2054794*
X1000488*
X1000508Y2054774*
X1000569Y2054754*
X1000650Y2054733*
X1002678Y1978342D02*
X1002606Y1978234D01*
X1002570Y1978126*
X1002588Y1978036*
X1002660Y1977928*
X1002696Y1977820*
X1002750Y1977748*
X1002840Y1977712*
X1002930Y1977694*
X1015080*
X1015206Y1977730*
X1015314Y1977802*
X1015368Y1977928*
X1015386Y1978054*
X1015368Y1978180*
X1015314Y1978288*
X1015206Y1978378*
X1015080Y1978414*
X1003830*
X1015368Y1989916*
X1015422Y1990024*
Y1990132*
X1015404Y1990240*
X1015368Y1990348*
X1015296Y1990438*
X1015242Y1990510*
X1015170Y1990546*
X1015080*
X1002930*
X1002804Y1990528*
X1002714Y1990438*
X1002642Y1990312*
X1002624Y1990186*
X1002642Y1990060*
X1002714Y1989952*
X1002804Y1989862*
X1002930Y1989826*
X1014180*
X1002678Y1978342*
X1008839Y2034901D02*
X1008880Y2034738D01*
X1008981Y2034637*
X1009103Y2034576*
X1009246Y2034556*
X1009408Y2034576*
X1009550Y2034637*
X1009652Y2034738*
X1009693Y2034901*
Y2053108*
X1022636Y2034657*
X1022697Y2034576*
X1022799Y2034535*
X1022901*
X1023023Y2034576*
X1023165Y2034616*
X1023287Y2034677*
X1023348Y2034779*
X1023368Y2034901*
Y2054408*
X1023327Y2054550*
X1023226Y2054672*
X1023104Y2054733*
X1022962Y2054754*
X1022819Y2054733*
X1022677Y2054672*
X1022576Y2054550*
X1022555Y2054408*
Y2036201*
X1009591Y2054632*
X1009510Y2054713*
X1009428Y2054754*
X1009327*
X1009225Y2054733*
X1009063Y2054713*
X1008941Y2054652*
X1008880Y2054550*
X1008839Y2054408*
Y2034901*
X1023540Y1990762D02*
X1023504Y1990744D01*
X1023486*
X1023450Y1990726*
X1023414*
X1023360Y1990672*
X1023342*
X1020282Y1988602*
Y1995334*
X1020246Y1995460*
X1020156Y1995568*
X1020030Y1995622*
X1019886Y1995640*
X1019760Y1995622*
X1019652Y1995568*
X1019562Y1995460*
X1019526Y1995334*
Y1978054*
X1019562Y1977910*
X1019652Y1977820*
X1019760Y1977766*
X1019886Y1977748*
X1020030Y1977766*
X1020156Y1977820*
X1020246Y1977910*
X1020282Y1978054*
Y1987720*
X1023594Y1990006*
X1028310*
X1031676Y1987720*
Y1978054*
X1031694Y1977910*
X1031784Y1977820*
X1031910Y1977766*
X1032036Y1977748*
X1032162Y1977766*
X1032270Y1977820*
X1032360Y1977910*
X1032396Y1978054*
Y1987918*
X1032378Y1988026*
X1032342Y1988134*
X1032234Y1988206*
X1028580Y1990672*
X1028508Y1990726*
X1028400Y1990762*
X1023540*
X1037256Y1983922D02*
X1040604Y1986190D01*
X1045284*
X1048650Y1983922*
Y1980646*
X1045284Y1978414*
X1040604*
X1037256Y1980646*
Y1983922*
X1042164Y2053981D02*
X1042306Y2054022D01*
X1042428Y2054103*
X1042489Y2054246*
X1042509Y2054388*
X1042489Y2054550*
X1042428Y2054672*
X1042306Y2054774*
X1042164Y2054815*
X1028448*
X1028306Y2054774*
X1028184Y2054672*
X1028082Y2054550*
X1028042Y2054408*
Y2034901*
X1028082Y2034759*
X1028184Y2034637*
X1028306Y2034535*
X1028448Y2034495*
X1042164*
X1042306Y2034535*
X1042428Y2034616*
X1042489Y2034759*
X1042509Y2034901*
X1042489Y2035064*
X1042428Y2035206*
X1042306Y2035307*
X1042164Y2035348*
X1028895*
Y2044248*
X1038100*
X1038242Y2044289*
X1038364Y2044390*
X1038425Y2044512*
X1038445Y2044655*
X1038425Y2044797*
X1038364Y2044939*
X1038242Y2045041*
X1038100Y2045061*
X1028895*
Y2053981*
X1042164*
X1048097D02*
X1057810D01*
X1060980Y2051421*
Y2047642*
X1057810Y2045061*
X1048097*
Y2053981*
X1048650Y1978054D02*
X1048668Y1977910D01*
X1048758Y1977820*
X1048884Y1977766*
X1049010Y1977748*
X1049136Y1977766*
X1049244Y1977820*
X1049334Y1977910*
X1049370Y1978054*
Y1987774*
X1049334Y1987828*
Y1987900*
X1049298Y1988026*
X1046850Y1990456*
X1046742Y1990510*
X1046670Y1990528*
X1046598Y1990546*
X1036860*
X1036734Y1990528*
X1036644Y1990438*
X1036572Y1990312*
X1036554Y1990186*
X1036572Y1990060*
X1036644Y1989952*
X1036734Y1989862*
X1036860Y1989826*
X1046400*
X1048650Y1987594*
Y1984768*
X1045554Y1986856*
X1045482Y1986892*
X1045374Y1986910*
X1040514*
X1040388Y1986892*
X1040316Y1986856*
X1036680Y1984408*
X1036644Y1984372*
X1036626Y1984354*
X1036590Y1984336*
X1036518Y1984246*
X1036500Y1984120*
Y1980466*
X1036518Y1980376*
X1036590Y1980286*
X1036626Y1980232*
X1036680Y1980196*
X1040316Y1977766*
X1040406Y1977712*
X1040514Y1977694*
X1045374*
X1045482Y1977712*
X1045554Y1977766*
X1048650Y1979800*
Y1978054*
X1061651Y2047093D02*
X1061712Y2047134D01*
X1061732Y2047235*
X1061793Y2047337*
Y2047438*
Y2051624*
Y2051726*
X1061732Y2051787*
Y2051848*
X1061712Y2051868*
X1061692Y2051888*
X1061651Y2051929*
X1058196Y2054733*
X1058095Y2054774*
X1058014Y2054794*
X1057932Y2054815*
X1047691*
X1047508Y2054774*
X1047386Y2054672*
X1047285Y2054550*
X1047244Y2054408*
Y2034901*
X1047285Y2034738*
X1047386Y2034637*
X1047508Y2034576*
X1047650Y2034556*
X1047813Y2034576*
X1047955Y2034637*
X1048057Y2034738*
X1048097Y2034901*
Y2044248*
X1057648*
X1060980Y2034779*
X1061062Y2034637*
X1061204Y2034556*
X1061366Y2034535*
X1061488Y2034576*
X1061610Y2034637*
X1061712Y2034738*
X1061773Y2034881*
X1061732Y2035043*
X1058400Y2044512*
X1061651Y2047093*
X1065624Y1978054D02*
X1065642Y1977910D01*
X1065732Y1977820*
X1065858Y1977766*
X1065984Y1977748*
X1066110Y1977766*
X1066218Y1977820*
X1066308Y1977910*
X1066344Y1978054*
Y1987774*
X1066326Y1987828*
X1066290Y1987900*
X1066272Y1987972*
X1066218Y1988062*
X1063176Y1990474*
X1063086Y1990510*
X1063014Y1990528*
X1062942Y1990546*
X1056876*
X1056804Y1990528*
X1056750Y1990510*
X1056678Y1990474*
X1054230Y1988530*
Y1990186*
X1054194Y1990330*
X1054104Y1990420*
X1053978Y1990474*
X1053834Y1990510*
X1053708Y1990474*
X1053600Y1990420*
X1053510Y1990330*
X1053474Y1990186*
Y1978054*
X1053510Y1977910*
X1053600Y1977820*
X1053708Y1977766*
X1053834Y1977748*
X1053978Y1977766*
X1054104Y1977820*
X1054194Y1977910*
X1054230Y1978054*
Y1987594*
X1057002Y1989826*
X1062816*
X1065624Y1987594*
Y1978054*
X1071204Y1987774D02*
Y1980718D01*
X1074552Y1978432*
X1079160*
X1082598Y1981960*
X1082616Y1986550*
X1079160Y1990096*
X1074552*
X1071204Y1987774*
X1082958Y1970296D02*
X1070862D01*
X1070718Y1970332*
X1070610Y1970404*
X1070538Y1970530*
X1070520Y1970674*
X1070538Y1970800*
X1070610Y1970926*
X1070718Y1970998*
X1070862Y1971034*
X1082598*
Y1980862*
X1079592Y1977802*
X1079484Y1977730*
X1079412Y1977712*
X1079340Y1977694*
X1074480*
X1074354Y1977712*
X1074264Y1977766*
X1070646Y1980232*
X1070574Y1980286*
X1070538Y1980340*
X1070484Y1980430*
X1070466Y1980556*
Y1987990*
X1070484Y1988098*
X1070538Y1988188*
X1070574Y1988242*
X1070610Y1988260*
X1070646Y1988296*
X1074264Y1990762*
X1074354Y1990816*
X1074480Y1990834*
X1079322*
X1079412Y1990816*
X1079484Y1990798*
X1079592Y1990744*
X1082616Y1987630*
Y1990456*
X1082652Y1990600*
X1082742Y1990690*
X1082850Y1990762*
X1082976Y1990780*
X1083102Y1990762*
X1083228Y1990690*
X1083318Y1990582*
X1083336Y1990438*
X1083318Y1970656*
X1083300Y1970512*
X1083210Y1970422*
X1083102Y1970332*
X1082958Y1970296*
X1108202Y1930234D02*
Y1931157D01*
X1109125Y1933005*
X1110049Y1933928*
X1111896Y1935160*
X1115591*
X1117438Y1933928*
X1118362Y1933005*
X1119285Y1931157*
Y1929310*
X1118362Y1927463*
X1116514Y1924384*
X1107278Y1914840*
X1120209*
X1118351Y2053981D02*
X1128064D01*
X1131233Y2051421*
Y2047642*
X1128064Y2045061*
X1118351*
Y2053981*
X1131904Y2047093D02*
X1131965Y2047134D01*
X1131985Y2047235*
X1132046Y2047337*
Y2047438*
Y2051624*
Y2051726*
X1131985Y2051787*
Y2051848*
X1131965Y2051868*
X1131945Y2051888*
X1131904Y2051929*
X1128450Y2054733*
X1128348Y2054774*
X1128267Y2054794*
X1128185Y2054815*
X1117944*
X1117761Y2054774*
X1117639Y2054672*
X1117538Y2054550*
X1117497Y2054408*
Y2034901*
X1117538Y2034738*
X1117639Y2034637*
X1117761Y2034576*
X1117904Y2034556*
X1118066Y2034576*
X1118208Y2034637*
X1118310Y2034738*
X1118351Y2034901*
Y2044248*
X1127901*
X1131233Y2034779*
X1131315Y2034637*
X1131457Y2034556*
X1131620Y2034535*
X1131741Y2034576*
X1131863Y2034637*
X1131965Y2034738*
X1132026Y2034881*
X1131985Y2035043*
X1128653Y2044512*
X1131904Y2047093*
X1136218Y1934852D02*
Y1914840D01*
Y1934852D02*
X1127598Y1921613D01*
X1140528*
X1140151Y1993981D02*
X1149844D01*
X1153014Y1991421*
Y1977888*
X1149844Y1975328*
X1140151*
Y1993981*
X1150250Y1994733D02*
X1150149Y1994774D01*
X1150067Y1994794*
X1149986Y1994815*
X1139704*
X1139562Y1994774*
X1139440Y1994672*
X1139338Y1994550*
X1139298Y1994408*
Y1974901*
X1139338Y1974738*
X1139440Y1974637*
X1139562Y1974515*
X1139704Y1974495*
X1149986*
X1150067*
X1150108Y1974515*
X1150149Y1974535*
X1150250Y1974576*
X1153684Y1977360*
X1153745Y1977441*
X1153766Y1977482*
X1153806Y1977583*
X1153827Y1977685*
Y1991624*
X1153806Y1991726*
X1153766Y1991787*
Y1991848*
X1153745Y1991868*
X1153705Y1991888*
X1153684Y1991929*
X1150250Y1994733*
X1150822Y2053981D02*
X1150964Y2054022D01*
X1151086Y2054103*
X1151147Y2054246*
X1151167Y2054388*
X1151147Y2054550*
X1151086Y2054672*
X1150964Y2054774*
X1150822Y2054815*
X1137106*
X1136964Y2054774*
X1136842Y2054672*
X1136740Y2054550*
X1136700Y2054408*
Y2034901*
X1136740Y2034759*
X1136842Y2034637*
X1136964Y2034535*
X1137106Y2034495*
X1150822*
X1150964Y2034535*
X1151086Y2034616*
X1151147Y2034759*
X1151167Y2034901*
X1151147Y2035064*
X1151086Y2035206*
X1150964Y2035307*
X1150822Y2035348*
X1137553*
Y2044248*
X1146758*
X1146900Y2044289*
X1147022Y2044390*
X1147083Y2044512*
X1147103Y2044655*
X1147083Y2044797*
X1147022Y2044939*
X1146900Y2045041*
X1146758Y2045061*
X1137553*
Y2053981*
X1150822*
X1154382Y1916688D02*
X1153767Y1915764D01*
X1154382Y1914840*
X1154690Y1915764*
X1154382Y1916688*
X1159354Y1983131D02*
Y1980916D01*
X1172216*
Y1983131*
X1165795Y1993920*
X1159354Y1983131*
X1164030Y2034495D02*
X1163481D01*
X1163359Y2034515*
X1163258Y2034576*
X1163156Y2034657*
X1163116Y2034779*
X1156512Y2054266*
X1156491Y2054428*
X1156552Y2054550*
X1156674Y2054652*
X1156816Y2054733*
X1156959Y2054754*
X1157101Y2054733*
X1157223Y2054672*
X1157304Y2054530*
X1163745Y2035368*
X1170228Y2054530*
X1170309Y2054672*
X1170431Y2054733*
X1170573Y2054754*
X1170715Y2054733*
X1170857Y2054652*
X1170959Y2054550*
X1171000Y2054428*
X1170979Y2054266*
X1164416Y2034779*
X1164355Y2034657*
X1164233Y2034576*
X1164152Y2034515*
X1164030Y2034495*
X1165592Y1994794D02*
X1166059D01*
X1166140Y1994774*
X1166201Y1994733*
X1166344Y1994632*
X1166405Y1994591*
X1172968Y1983496*
X1172988Y1983415*
X1173009Y1983374*
X1173029Y1983334*
Y1983313*
Y1983273*
Y1974901*
X1172988Y1974759*
X1172907Y1974637*
X1172765Y1974576*
X1172623Y1974556*
X1172480Y1974576*
X1172338Y1974637*
X1172257Y1974759*
X1172216Y1974901*
Y1980083*
X1159354*
Y1974901*
X1159313Y1974759*
X1159232Y1974637*
X1159089Y1974576*
X1158927Y1974556*
X1158785Y1974576*
X1158642Y1974637*
X1158561Y1974759*
X1158520Y1974901*
Y1983273*
Y1983313*
Y1983334*
X1158541Y1983374*
X1158561Y1983415*
X1158581Y1983496*
X1165226Y1994591*
X1165328Y1994693*
X1165450Y1994733*
X1165531Y1994774*
X1165592Y1994794*
X1173778Y1934852D02*
X1171007Y1933928D01*
X1169160Y1931157*
X1168236Y1926232*
Y1923461*
X1169160Y1918535*
X1171007Y1915764*
X1173778Y1914840*
X1175625*
X1178396Y1915764*
X1180243Y1918535*
X1181167Y1923461*
Y1926232*
X1180243Y1931157*
X1178396Y1933928*
X1175625Y1934852*
X1173778*
X1184611Y1974901D02*
X1184632Y1974759D01*
X1184733Y1974637*
X1184876Y1974576*
X1185018Y1974556*
X1185160Y1974576*
X1185282Y1974637*
X1185384Y1974759*
X1185424Y1974901*
Y1993981*
X1191866*
X1192008Y1994022*
X1192130Y1994103*
X1192191Y1994246*
X1192211Y1994388*
X1192191Y1994550*
X1192130Y1994693*
X1192008Y1994794*
X1191866Y1994815*
X1178150*
X1178007Y1994794*
X1177906Y1994693*
X1177824Y1994550*
X1177804Y1994388*
X1177824Y1994246*
X1177906Y1994103*
X1178007Y1994022*
X1178150Y1993981*
X1184611*
Y1974901*
X1185976Y2053981D02*
X1186118Y2054022D01*
X1186240Y2054103*
X1186301Y2054246*
X1186321Y2054388*
X1186301Y2054550*
X1186240Y2054693*
X1186118Y2054794*
X1185976Y2054815*
X1178051*
X1177888Y2054794*
X1177807Y2054693*
X1177746Y2054550*
X1177726Y2054388*
X1177746Y2054246*
X1177807Y2054103*
X1177888Y2054022*
X1178051Y2053981*
X1181607*
Y2035348*
X1178051*
X1177888Y2035307*
X1177807Y2035206*
X1177746Y2035064*
X1177726Y2034901*
X1177746Y2034759*
X1177807Y2034616*
X1177888Y2034535*
X1178051Y2034495*
X1185976*
X1186118Y2034535*
X1186240Y2034616*
X1186301Y2034759*
X1186321Y2034901*
X1186301Y2035064*
X1186240Y2035206*
X1186118Y2035307*
X1185976Y2035348*
X1182399*
Y2053981*
X1185976*
X1193482Y1931157D02*
X1194713Y1932081D01*
X1196253Y1934852*
Y1914840*
X1204548Y2045000D02*
X1207982Y2042216D01*
X1208043Y2042135*
X1208063Y2042033*
X1208084Y2041972*
X1208104Y2041911*
X1208124Y2041871*
Y2037685*
X1208104Y2037624*
X1208063Y2037482*
X1208043Y2037441*
X1207982Y2037360*
X1204568Y2034576*
X1204467Y2034535*
X1204446Y2034515*
X1204406*
X1204365Y2034495*
X1204345*
X1204304*
X1197456*
X1197375Y2034515*
X1197294Y2034535*
X1197212Y2034576*
X1193799Y2037360*
X1193697Y2037461*
X1193677Y2037522*
Y2037583*
X1193697Y2037725*
X1193778Y2037868*
X1193860Y2037969*
X1193982Y2038051*
X1194124Y2038071*
X1194266Y2038030*
X1197578Y2035328*
X1204142*
X1207312Y2037888*
Y2041668*
X1204142Y2044248*
X1197456*
X1197375*
X1197273Y2044268*
X1197212Y2044309*
X1193799Y2047093*
X1193758Y2047113*
X1193717Y2047154*
X1193677Y2047215*
X1193636Y2047357*
X1193616Y2047438*
Y2051624*
X1193636Y2051726*
X1193677Y2051807*
X1193717Y2051848*
X1193758Y2051888*
X1193799Y2051949*
X1197212Y2054733*
X1197294Y2054754*
X1197355Y2054774*
X1197375Y2054794*
X1197456Y2054815*
X1204304*
X1204385Y2054794*
X1204426Y2054774*
X1204487Y2054754*
X1204548Y2054733*
X1207108Y2052640*
X1207210Y2052539*
X1207251Y2052417*
X1207230Y2052275*
X1207169Y2052132*
X1207068Y2052031*
X1206925Y2051949*
X1206763Y2051929*
X1206621Y2051970*
X1204182Y2053981*
X1197578*
X1194449Y2051421*
Y2047642*
X1197578Y2045061*
X1204304*
X1204385Y2045041*
X1204467Y2045020*
X1204548Y2045000*
X1211068Y1993981D02*
X1211210Y1994022D01*
X1211332Y1994103*
X1211393Y1994246*
X1211413Y1994388*
X1211393Y1994550*
X1211332Y1994672*
X1211210Y1994774*
X1211068Y1994815*
X1197352*
X1197210Y1994774*
X1197088Y1994672*
X1196986Y1994550*
X1196946Y1994408*
Y1974901*
X1196986Y1974759*
X1197088Y1974637*
X1197210Y1974535*
X1197352Y1974495*
X1211068*
X1211210Y1974535*
X1211332Y1974616*
X1211393Y1974759*
X1211413Y1974901*
X1211393Y1975064*
X1211332Y1975206*
X1211210Y1975307*
X1211068Y1975348*
X1197799*
Y1984248*
X1207004*
X1207146Y1984289*
X1207268Y1984390*
X1207329Y1984512*
X1207349Y1984655*
X1207329Y1984797*
X1207268Y1984939*
X1207146Y1985041*
X1207004Y1985061*
X1197799*
Y1993981*
X1211068*
X1215341Y1916688D02*
X1214725Y1915764D01*
X1215341Y1914840*
X1215648Y1915764*
X1215341Y1916688*
X1223669Y2053981D02*
X1223811Y2054022D01*
X1223933Y2054103*
X1223994Y2054246*
X1224015Y2054388*
X1223994Y2054550*
X1223933Y2054693*
X1223811Y2054794*
X1223669Y2054815*
X1215744*
X1215582Y2054794*
X1215500Y2054693*
X1215440Y2054550*
X1215419Y2054388*
X1215440Y2054246*
X1215500Y2054103*
X1215582Y2054022*
X1215744Y2053981*
X1219300*
Y2035348*
X1215744*
X1215582Y2035307*
X1215500Y2035206*
X1215440Y2035064*
X1215419Y2034901*
X1215440Y2034759*
X1215500Y2034616*
X1215582Y2034535*
X1215744Y2034495*
X1223669*
X1223811Y2034535*
X1223933Y2034616*
X1223994Y2034759*
X1224015Y2034901*
X1223994Y2035064*
X1223933Y2035206*
X1223811Y2035307*
X1223669Y2035348*
X1220093*
Y2053981*
X1223669*
X1232143Y2051421D02*
Y2037888D01*
X1235272Y2035328*
X1241835*
X1245005Y2037888*
Y2051421*
X1241835Y2053981*
X1235272*
X1232143Y2051421*
X1234736Y1934852D02*
X1231966Y1933928D01*
X1230118Y1931157*
X1229195Y1926232*
Y1923461*
X1230118Y1918535*
X1231966Y1915764*
X1234736Y1914840*
X1236584*
X1239354Y1915764*
X1241202Y1918535*
X1242125Y1923461*
Y1926232*
X1241202Y1931157*
X1239354Y1933928*
X1236584Y1934852*
X1234736*
X1245818Y2051624D02*
Y2037685D01*
X1245798Y2037583*
X1245757Y2037502*
X1245737Y2037421*
X1245676Y2037360*
X1242262Y2034576*
X1242160Y2034535*
X1242140Y2034515*
X1242099*
X1242059Y2034495*
X1242038*
X1241998*
X1235150*
X1235069Y2034515*
X1234987Y2034535*
X1234906Y2034576*
X1231492Y2037360*
X1231411Y2037421*
X1231370Y2037502*
X1231330Y2037583*
X1231309Y2037685*
Y2051624*
X1231330Y2051726*
X1231370Y2051807*
X1231411Y2051848*
X1231452Y2051888*
X1231492Y2051949*
X1234906Y2054733*
X1234987Y2054754*
X1235048Y2054774*
X1235069Y2054794*
X1235150Y2054815*
X1241998*
X1242079Y2054794*
X1242099*
X1242120Y2054774*
X1242181Y2054754*
X1242262Y2054733*
X1245676Y2051949*
X1245696Y2051888*
X1245737Y2051868*
X1245757Y2051848*
Y2051807*
X1245798Y2051726*
X1245818Y2051624*
X1250492Y2034901D02*
X1250532Y2034738D01*
X1250634Y2034637*
X1250756Y2034576*
X1250898Y2034556*
X1251060Y2034576*
X1251203Y2034637*
X1251304Y2034738*
X1251345Y2034901*
Y2053108*
X1264289Y2034657*
X1264350Y2034576*
X1264451Y2034535*
X1264553*
X1264675Y2034576*
X1264817Y2034616*
X1264939Y2034677*
X1265000Y2034779*
X1265020Y2034901*
Y2054408*
X1264980Y2054550*
X1264878Y2054672*
X1264756Y2054733*
X1264614Y2054754*
X1264472Y2054733*
X1264329Y2054672*
X1264228Y2054550*
X1264208Y2054408*
Y2036201*
X1251243Y2054632*
X1251162Y2054713*
X1251081Y2054754*
X1250979*
X1250878Y2054733*
X1250715Y2054713*
X1250593Y2054652*
X1250532Y2054550*
X1250492Y2054408*
Y2034901*
X1254132Y1934852D02*
X1251361Y1933928D01*
X1250438Y1932081*
Y1930234*
X1251361Y1928079*
X1253209Y1927155*
X1256903Y1926232*
X1259674Y1925308*
X1261521Y1923461*
X1262445Y1921613*
Y1918535*
X1261521Y1916688*
X1260597Y1915764*
X1257827Y1914840*
X1254132*
X1251361Y1915764*
X1250438Y1916688*
X1249514Y1918535*
Y1921613*
X1250438Y1923461*
X1252285Y1925308*
X1255056Y1926232*
X1258750Y1927155*
X1260597Y1928079*
X1261521Y1930234*
Y1932081*
X1260597Y1933928*
X1257827Y1934852*
X1254132*
X1284223Y2034901D02*
X1284263Y2034738D01*
X1284365Y2034637*
X1284487Y2034576*
X1284629Y2034556*
X1284792Y2034576*
X1284934Y2034637*
X1285036Y2034738*
X1285076Y2034901*
Y2044248*
X1297939*
Y2034901*
X1297959Y2034738*
X1298061Y2034637*
X1298203Y2034576*
X1298345Y2034556*
X1298487Y2034576*
X1298609Y2034637*
X1298711Y2034738*
X1298752Y2034901*
Y2054408*
X1298711Y2054550*
X1298609Y2054672*
X1298487Y2054733*
X1298345Y2054754*
X1298203Y2054733*
X1298061Y2054672*
X1297959Y2054550*
X1297939Y2054408*
Y2045061*
X1285076*
Y2054408*
X1285036Y2054550*
X1284934Y2054672*
X1284792Y2054733*
X1284629Y2054754*
X1284487Y2054733*
X1284365Y2054672*
X1284263Y2054550*
X1284223Y2054408*
Y2034901*
X1314296Y2053981D02*
X1314439Y2054022D01*
X1314560Y2054103*
X1314621Y2054246*
X1314642Y2054388*
X1314621Y2054550*
X1314560Y2054693*
X1314439Y2054794*
X1314296Y2054815*
X1306372*
X1306209Y2054794*
X1306128Y2054693*
X1306067Y2054550*
X1306046Y2054388*
X1306067Y2054246*
X1306128Y2054103*
X1306209Y2054022*
X1306372Y2053981*
X1309928*
Y2035348*
X1306372*
X1306209Y2035307*
X1306128Y2035206*
X1306067Y2035064*
X1306046Y2034901*
X1306067Y2034759*
X1306128Y2034616*
X1306209Y2034535*
X1306372Y2034495*
X1314296*
X1314439Y2034535*
X1314560Y2034616*
X1314621Y2034759*
X1314642Y2034901*
X1314621Y2035064*
X1314560Y2035206*
X1314439Y2035307*
X1314296Y2035348*
X1310720*
Y2053981*
X1314296*
X1320138Y1916420D02*
Y1936740D01*
X1328450*
X1331221Y1935508*
X1332145Y1934585*
X1333068Y1932737*
Y1929967*
X1332145Y1927812*
X1331221Y1926888*
X1328450Y1925964*
X1320138*
X1332869Y2045000D02*
X1336303Y2042216D01*
X1336364Y2042135*
X1336384Y2042033*
X1336404Y2041972*
X1336425Y2041911*
X1336445Y2041871*
Y2037685*
X1336425Y2037624*
X1336384Y2037482*
X1336364Y2037441*
X1336303Y2037360*
X1332889Y2034576*
X1332788Y2034535*
X1332767Y2034515*
X1332727*
X1332686Y2034495*
X1332666*
X1332625*
X1325777*
X1325696Y2034515*
X1325615Y2034535*
X1325533Y2034576*
X1322120Y2037360*
X1322018Y2037461*
X1321998Y2037522*
Y2037583*
X1322018Y2037725*
X1322099Y2037868*
X1322180Y2037969*
X1322302Y2038051*
X1322445Y2038071*
X1322587Y2038030*
X1325899Y2035328*
X1332462*
X1335632Y2037888*
Y2041668*
X1332462Y2044248*
X1325777*
X1325696*
X1325594Y2044268*
X1325533Y2044309*
X1322120Y2047093*
X1322079Y2047113*
X1322038Y2047154*
X1321998Y2047215*
X1321957Y2047357*
X1321937Y2047438*
Y2051624*
X1321957Y2051726*
X1321998Y2051807*
X1322038Y2051848*
X1322079Y2051888*
X1322120Y2051949*
X1325533Y2054733*
X1325615Y2054754*
X1325676Y2054774*
X1325696Y2054794*
X1325777Y2054815*
X1332625*
X1332706Y2054794*
X1332747Y2054774*
X1332808Y2054754*
X1332869Y2054733*
X1335429Y2052640*
X1335531Y2052539*
X1335571Y2052417*
X1335551Y2052275*
X1335490Y2052132*
X1335388Y2052031*
X1335246Y2051949*
X1335084Y2051929*
X1334941Y2051970*
X1332503Y2053981*
X1325899*
X1322770Y2051421*
Y2047642*
X1325899Y2045061*
X1332625*
X1332706Y2045041*
X1332788Y2045020*
X1332869Y2045000*
X1347987Y2034901D02*
X1348007Y2034759D01*
X1348109Y2034637*
X1348251Y2034576*
X1348393Y2034556*
X1348536Y2034576*
X1348657Y2034637*
X1348759Y2034759*
X1348800Y2034901*
Y2053981*
X1355241*
X1355383Y2054022*
X1355505Y2054103*
X1355566Y2054246*
X1355587Y2054388*
X1355566Y2054550*
X1355505Y2054693*
X1355383Y2054794*
X1355241Y2054815*
X1341525*
X1341383Y2054794*
X1341281Y2054693*
X1341200Y2054550*
X1341180Y2054388*
X1341200Y2054246*
X1341281Y2054103*
X1341383Y2054022*
X1341525Y2053981*
X1347987*
Y2034901*
X1353388Y1931814D02*
X1352464Y1933661D01*
X1350617Y1935508*
X1349077Y1936740*
X1345383*
X1343844Y1935508*
X1341996Y1933661*
X1341073Y1931814*
X1340457Y1929043*
Y1924117*
X1341073Y1921346*
X1341996Y1919191*
X1343844Y1917344*
X1345383Y1916420*
X1349077*
X1350617Y1917344*
X1352464Y1919191*
X1353388Y1921346*
X1357037Y1974495D02*
X1356488D01*
X1356367Y1974515*
X1356265Y1974576*
X1356163Y1974657*
X1356123Y1974779*
X1349519Y1994266*
X1349498Y1994428*
X1349559Y1994550*
X1349681Y1994652*
X1349824Y1994733*
X1349966Y1994754*
X1350108Y1994733*
X1350230Y1994672*
X1350311Y1994530*
X1356753Y1975368*
X1363235Y1994530*
X1363316Y1994672*
X1363438Y1994733*
X1363580Y1994754*
X1363722Y1994733*
X1363865Y1994652*
X1363966Y1994550*
X1364007Y1994428*
X1363987Y1994266*
X1357423Y1974779*
X1357362Y1974657*
X1357240Y1974576*
X1357159Y1974515*
X1357037Y1974495*
X1361175Y2051421D02*
Y2037888D01*
X1364304Y2035328*
X1370867*
X1374037Y2037888*
Y2051421*
X1370867Y2053981*
X1364304*
X1361175Y2051421*
X1373707Y1933661D02*
X1371860Y1935508D01*
X1369089Y1936740*
X1365395*
X1362624Y1935508*
X1360776Y1933661*
Y1931814*
X1361700Y1929967*
X1362624Y1929043*
X1364471Y1927812*
X1370013Y1925964*
X1371860Y1925041*
X1372783Y1924117*
X1373707Y1922270*
Y1919191*
X1371860Y1917344*
X1369089Y1916420*
X1365395*
X1362624Y1917344*
X1360776Y1919191*
X1374850Y2051624D02*
Y2037685D01*
X1374830Y2037583*
X1374789Y2037502*
X1374769Y2037421*
X1374708Y2037360*
X1371294Y2034576*
X1371192Y2034535*
X1371172Y2034515*
X1371131*
X1371091Y2034495*
X1371070*
X1371030*
X1364182*
X1364101Y2034515*
X1364019Y2034535*
X1363938Y2034576*
X1360524Y2037360*
X1360443Y2037421*
X1360402Y2037502*
X1360362Y2037583*
X1360341Y2037685*
Y2051624*
X1360362Y2051726*
X1360402Y2051807*
X1360443Y2051848*
X1360484Y2051888*
X1360524Y2051949*
X1363938Y2054733*
X1364019Y2054754*
X1364080Y2054774*
X1364101Y2054794*
X1364182Y2054815*
X1371030*
X1371111Y2054794*
X1371131*
X1371152Y2054774*
X1371213Y2054754*
X1371294Y2054733*
X1374708Y2051949*
X1374728Y2051888*
X1374769Y2051868*
X1374789Y2051848*
Y2051807*
X1374830Y2051726*
X1374850Y2051624*
X1380377Y2053981D02*
X1390090D01*
X1393260Y2051421*
Y2047642*
X1390090Y2045061*
X1380377*
Y2053981*
X1382234Y1993981D02*
X1382376Y1994022D01*
X1382498Y1994103*
X1382559Y1994246*
X1382579Y1994388*
X1382559Y1994550*
X1382498Y1994672*
X1382376Y1994774*
X1382234Y1994815*
X1368518*
X1368376Y1994774*
X1368254Y1994672*
X1368152Y1994550*
X1368112Y1994408*
Y1974901*
X1368152Y1974759*
X1368254Y1974637*
X1368376Y1974535*
X1368518Y1974495*
X1382234*
X1382376Y1974535*
X1382498Y1974616*
X1382559Y1974759*
X1382579Y1974901*
X1382559Y1975064*
X1382498Y1975206*
X1382376Y1975307*
X1382234Y1975348*
X1368965*
Y1984248*
X1378170*
X1378312Y1984289*
X1378434Y1984390*
X1378495Y1984512*
X1378515Y1984655*
X1378495Y1984797*
X1378434Y1984939*
X1378312Y1985041*
X1378170Y1985061*
X1368965*
Y1993981*
X1382234*
X1386638Y1936432D02*
X1383867Y1935508D01*
X1382020Y1932737*
X1381096Y1927812*
Y1925041*
X1382020Y1920115*
X1383867Y1917344*
X1386638Y1916420*
X1388485*
X1391256Y1917344*
X1393103Y1920115*
X1394026Y1925041*
Y1927812*
X1393103Y1932737*
X1391256Y1935508*
X1388485Y1936432*
X1386638*
X1388167Y1993981D02*
X1397880D01*
X1401050Y1991421*
Y1987642*
X1397880Y1985061*
X1388167*
Y1993981*
X1393930Y2047093D02*
X1393991Y2047134D01*
X1394012Y2047235*
X1394073Y2047337*
Y2047438*
Y2051624*
Y2051726*
X1394012Y2051787*
Y2051848*
X1393991Y2051868*
X1393971Y2051888*
X1393930Y2051929*
X1390476Y2054733*
X1390374Y2054774*
X1390293Y2054794*
X1390212Y2054815*
X1379971*
X1379788Y2054774*
X1379666Y2054672*
X1379564Y2054550*
X1379524Y2054408*
Y2034901*
X1379564Y2034738*
X1379666Y2034637*
X1379788Y2034576*
X1379930Y2034556*
X1380092Y2034576*
X1380235Y2034637*
X1380336Y2034738*
X1380377Y2034901*
Y2044248*
X1389927*
X1393260Y2034779*
X1393341Y2034637*
X1393483Y2034556*
X1393646Y2034535*
X1393768Y2034576*
X1393890Y2034637*
X1393991Y2034738*
X1394052Y2034881*
X1394012Y2035043*
X1390679Y2044512*
X1393930Y2047093*
X1401721Y1987093D02*
X1401782Y1987134D01*
X1401802Y1987235*
X1401863Y1987337*
Y1987438*
Y1991624*
Y1991726*
X1401802Y1991787*
Y1991848*
X1401782Y1991868*
X1401761Y1991888*
X1401721Y1991929*
X1398266Y1994733*
X1398165Y1994774*
X1398084Y1994794*
X1398002Y1994815*
X1387761*
X1387578Y1994774*
X1387456Y1994672*
X1387355Y1994550*
X1387314Y1994408*
Y1974901*
X1387355Y1974738*
X1387456Y1974637*
X1387578Y1974576*
X1387720Y1974556*
X1387883Y1974576*
X1388025Y1974637*
X1388127Y1974738*
X1388167Y1974901*
Y1984248*
X1397718*
X1401050Y1974779*
X1401132Y1974637*
X1401274Y1974556*
X1401436Y1974535*
X1401558Y1974576*
X1401680Y1974637*
X1401782Y1974738*
X1401843Y1974881*
X1401802Y1975043*
X1398470Y1984512*
X1401721Y1987093*
X1406341Y1932737D02*
X1407573Y1933661D01*
X1409112Y1936432*
Y1916420*
X1413194Y2054164D02*
X1406407Y2044512D01*
Y2034901*
X1406366Y2034759*
X1406285Y2034637*
X1406143Y2034576*
X1406000Y2034556*
X1405858Y2034576*
X1405716Y2034637*
X1405635Y2034759*
X1405594Y2034901*
Y2044512*
X1398828Y2054164*
X1398767Y2054286*
X1398787Y2054428*
X1398848Y2054571*
X1398949Y2054672*
X1399092Y2054754*
X1399234Y2054774*
X1399376Y2054754*
X1399498Y2054652*
X1406000Y2045386*
X1412544Y2054652*
X1412645Y2054754*
X1412767Y2054774*
X1412909Y2054754*
X1413052Y2054672*
X1413153Y2054571*
X1413234Y2054428*
X1413255Y2054286*
X1413194Y2054164*
X1421735Y1926888D02*
X1430047D01*
X1432818Y1925964*
X1433742Y1925041*
X1434665Y1923193*
Y1920115*
X1433742Y1918268*
X1432818Y1917344*
X1430047Y1916420*
X1421735*
Y1936740*
X1430047*
X1432818Y1935508*
X1433742Y1934585*
X1434665Y1932737*
Y1930890*
X1433742Y1929043*
X1432818Y1927812*
X1430047Y1926888*
G54D15*
X397794Y1209794D02*
Y987206D01*
Y1209794D02*
X479513Y1291513D01*
X788863*
X810350Y1313000*
X460000Y925000D02*
X397794Y987206D01*
X701000Y434000D02*
X699599D01*
X689176Y423577*
Y416015*
X693648Y411543*
X766167*
X791711Y386000*
Y298289*
X811000Y279000*
X941000*
X987000Y233000*
X1392000*
X1505000Y346000*
Y350000*
X701000Y504000D02*
X708000Y511000D01*
X775000*
X797000Y489000*
Y434085*
X890000Y341085*
Y310000*
X701000Y519000D02*
X715000Y533000D01*
X787000*
X860000Y460000*
X900000*
X715000Y430000D02*
X715125Y429875D01*
X765522*
X810340Y385057*
Y319660*
X838000Y292000*
X945000*
X992000Y245000*
X1380000*
X1450000Y315000*
X751000Y490000D02*
X744000Y483000D01*
X692000*
X683000Y492000*
Y549000*
X689000Y555000*
X720000*
X730000Y565000*
X755000Y840000D02*
X819000Y776000D01*
X1138000*
X1170000Y808000*
Y900000*
X810350Y1313000D02*
X2288022D01*
X840000Y425000D02*
X900000Y365000D01*
X945000*
X845000Y350000D02*
Y369924D01*
X782000Y432924*
Y484000*
X768000Y498000*
X694000*
X690000Y502000*
Y522000*
X701000Y533000*
Y544000*
X865000Y315650D02*
Y357780D01*
X790000Y432780*
Y486000*
X772000Y504000*
X716000*
X865000Y315650D02*
Y310000D01*
X885000Y425000D02*
X1053474D01*
X1060274Y418199*
Y371274*
X1054000Y365000*
X1040000*
X900000Y460000D02*
X929000Y431000D01*
X1037000*
X1046000Y440000*
Y450000*
X1170000Y900000D02*
X1176525D01*
X1184042Y892483*
Y814958*
X1225000Y774000*
X1517000*
X1587000Y844000*
Y893000*
X1583712Y896288*
X1270000Y390000D02*
Y408000D01*
X1285000Y423000*
X1405000*
X1448000Y466000*
X1498000*
X1505000Y459000*
Y350000*
X1280000Y405000D02*
X1291000Y416000D01*
X1426000*
X1428000Y418000*
X1375000Y405000D02*
X1463000D01*
X1477450Y419450*
Y420000*
X1428000Y418000D02*
X1430000Y420000D01*
X1440000Y370000D02*
X1486000Y416000D01*
Y429000*
X1460000Y455000*
X1490000Y340000D02*
X1489000D01*
X1388000Y239000*
X990000*
X944000Y285000*
X819500*
X800240Y304260*
Y386628*
X766796Y420072*
X695059*
X695000Y420013*
Y420000*
X1495000Y455000D02*
Y373000D01*
X1374000Y252000*
X993000*
X947000Y298000*
X847000*
X817747Y327253*
Y387301*
X768048Y437000*
X723000*
X701000Y459000*
X1515000Y370000D02*
Y440000D01*
X1520000Y445000*
X1551000Y430650D02*
Y382000D01*
X1394000Y225000*
X987000*
X939000Y273000*
X807000*
X783874Y296126*
Y384475*
X768327Y400022*
X696349*
X683000Y413371*
Y461000*
X690000Y468000*
X769000*
X776000Y475000*
X1583712Y896288D02*
X1580000Y900000D01*
X2458496Y886504D02*
X2439133Y905867D01*
Y1161889*
X2288022Y1313000*
X2458496Y886504D02*
X2465000Y880000D01*
X2591277Y1267000D02*
X3413000D01*
X3456000Y1224000*
X2591277Y1267000D02*
X2508843D01*
X2472077Y1230235*
Y887077*
X2465000Y880000*
X3460761Y1111239D02*
Y1219239D01*
X3456000Y1224000*
X3460761Y1111239D02*
X3470000Y1102000D01*
X3521000*
X3535000Y1088000*
Y1068000*
X3516000Y1049000*
X3501100*
X3490000Y1037900*
Y1012500*
G54D16*
X245000Y1955000D02*
X1475000D01*
X245000Y2015000D02*
X1475000D01*
X245000Y2075000D02*
Y1895000D01*
Y2075000D02*
X1475000D01*
X495000D02*
Y1955000D01*
X516000Y936000D03*
Y948000D03*
Y960000D03*
Y972000D03*
Y984000D03*
X528000Y936000D03*
Y948000D03*
Y960000D03*
Y972000D03*
Y984000D03*
X540000Y936000D03*
Y948000D03*
Y960000D03*
Y972000D03*
Y984000D03*
X552000Y936000D03*
Y948000D03*
Y960000D03*
Y972000D03*
Y984000D03*
X564000Y936000D03*
Y948000D03*
Y960000D03*
Y972000D03*
Y984000D03*
X660100Y2075000D02*
Y1955000D01*
X709000Y346000D03*
Y356000D03*
Y366000D03*
X888700Y2075000D02*
Y1955000D01*
X1085000Y2075000D02*
Y1895000D01*
X1285000Y2015000D02*
Y1895000D01*
X1475000D02*
Y2075000D01*
Y1895000D02*
X245000D01*
X1837364Y993617D02*
X1837593D01*
X1855000Y800000D02*
X1903326Y848326D01*
Y991690*
X1961636Y1050000*
X1995000*
X1870250Y1170000D02*
X1865000D01*
X1870250D02*
X1885000D01*
X1930000Y1125000*
X1885000Y975000D02*
Y976589D01*
X1873022Y988567*
X1834838*
X1826475Y996930*
Y1169893*
X1838286Y1181704*
X1921704*
X1940000Y1200000*
X1885000Y985000D02*
X1876383Y993617D01*
X1837593*
X1920000Y997000D02*
X1983000D01*
X2005000Y975000*
X1930000Y1085000D02*
Y1100000D01*
Y1115000*
X1900000Y1145000*
X1930000Y1125000D02*
X1938479Y1116521D01*
Y1084221*
X1893000Y1038742*
Y947000*
X1950000Y986000D02*
Y870000D01*
X1815000Y735000*
X1950000Y1200000D02*
X1926283Y1176283D01*
X1841001*
X1831705Y1166987*
Y999276*
X1837364Y993617*
X1960000Y875000D02*
Y916614D01*
X2013221Y969835*
Y1031779*
X1995000Y1050000*
X2215000Y895000D02*
Y896479D01*
Y895000D02*
Y883880D01*
X2207074Y875953*
Y644000*
X2215000Y896479D02*
Y925000D01*
X2210000Y930000*
X2215000Y896479D02*
X2191539D01*
X2157824Y862764*
X1964672*
X1960000Y867436*
Y875000*
G54D17*
X100000Y1037900D02*
Y1012500D01*
X140000Y1037900D02*
X120000D01*
X140000D02*
X150478Y1027423D01*
X204397*
X287460Y944359*
Y529901*
X560073Y257287*
X633849*
X641691Y265129*
Y326971*
X706730Y392010*
X767251*
X772000Y387260*
Y385000*
X495000Y980000D02*
X484279Y990721D01*
X465721*
X465000Y990000*
X581000Y1135000D02*
X622000D01*
X637000Y1150000*
X585000Y684100D02*
Y710000D01*
X640000Y1005000D02*
X632626Y997626D01*
X602626*
X585000Y980000*
X755000Y1162000D02*
X861461D01*
X913250Y1213789*
X1224645*
X1233671Y1222815*
X1512815*
X1535000Y1245000*
X765000Y385000D02*
X761990Y388010D01*
X708691*
X645989Y325307*
Y262083*
X636396Y252490*
X558051*
X282728Y527813*
Y941709*
X202686Y1021750*
X109250*
X100000Y1012500*
X1920000Y965000D02*
Y853489D01*
X1809000Y742489*
Y716000*
X1825000Y700000*
X1920000Y1085000D02*
X1905000D01*
X1890000Y1100000*
X1930000Y1045000D02*
X1944423Y1059423D01*
X1999632*
X2018482Y1040574*
Y996518*
X2020000Y995000*
X1931000Y1054000D02*
X1954071Y1077071D01*
Y1154071*
X2015000Y1215000*
X1935000Y945000D02*
Y920000D01*
X2008000Y880000D02*
X2000440D01*
X1994126Y886313*
Y939126*
X2005000Y950000*
X2271405Y1296000D02*
X2413596Y1153810D01*
Y877699*
X2425250Y866045*
X2271405Y1296000D02*
X824309D01*
X795997Y1267688*
X507688*
X429000Y1189000*
Y986000*
X440000Y975000*
X2290000Y920000D02*
X2255000Y955000D01*
Y980000*
X2290900Y930000D02*
Y959100D01*
X2290000Y960000*
X2345000Y920000D02*
Y941300D01*
X2295300Y991000*
X2240100*
X2229100Y980000*
X2484842Y861904D02*
X2464938Y842000D01*
X2449295*
X2425250Y866045*
X3470000Y1012500D02*
X3429266Y1053234D01*
Y1186272*
X3380901Y1234637*
X2537684*
X2492469Y1189422*
Y869532*
X2484842Y861904*
G54D18*
X380000Y880000D03*
X440000D03*
Y975000D03*
X455000Y915000D03*
Y940000D03*
X460000Y925000D03*
X465000Y990000D03*
X475000Y985000D03*
X490000Y880000D03*
X495000Y980000D03*
X500000Y905000D03*
X504000Y914000D03*
X560000Y1005000D03*
X565000Y280000D03*
X570000Y895000D03*
Y1010000D03*
Y1045000D03*
X575000Y1005000D03*
X580000Y895000D03*
Y1040000D03*
X581000Y1135000D03*
X585000Y684100D03*
Y710000D03*
Y980000D03*
X586000Y915000D03*
X590000Y895000D03*
Y945000D03*
X600000Y1031000D03*
X605000Y449000D03*
Y469000D03*
Y534000D03*
Y554000D03*
X610000Y880000D03*
Y915000D03*
Y980000D03*
X615000Y920000D03*
X622000Y1086000D03*
X636000Y429000D03*
Y514000D03*
X637000Y1150000D03*
X640000Y1005000D03*
X645000Y1110000D03*
X659000Y306000D03*
Y314000D02*
Y306000D01*
Y314000D03*
X685000Y275000D03*
X690000Y945000D03*
X692900Y977000D03*
X695000Y420000D03*
Y1020000D03*
X700000Y255000D02*
X705000Y250000D01*
X936000*
X983000Y203000*
X1407000*
X1572000Y368000*
Y529000*
X1557000Y544000*
Y604000*
X1570000Y617000*
X1722000*
X1730000Y625000*
X700000Y255000D02*
X683000Y238000D01*
X555000*
X268000Y525000*
Y923000*
X218000Y973000*
X112000*
X88000Y997000*
Y1051000*
X100000Y1063000*
Y1063300*
X700000Y255000D03*
X701000Y434000D03*
Y459000D03*
Y504000D03*
Y519000D03*
Y544000D03*
X705000Y1075000D03*
X710000Y1020000D03*
X715000Y430000D03*
X716000Y504000D03*
X730000Y565000D03*
X745000Y930000D03*
X751000Y490000D03*
X755000Y840000D03*
Y980000D03*
Y1162000D03*
X765000Y385000D03*
Y980000D03*
X772000Y385000D03*
X775000Y985000D03*
X776000Y475000D03*
X785000Y915000D03*
X835000Y950000D03*
Y985000D03*
X840000Y425000D03*
Y1030000D03*
X845000Y350000D03*
Y500000D03*
Y1020000D03*
X865000Y310000D03*
X885000Y425000D03*
X890000Y310000D03*
X895000Y475000D03*
X900000Y460000D03*
X945000Y445000D03*
X1035000D03*
X1070000Y1030000D03*
X1135000Y885000D03*
X1145000Y1030000D03*
X1160000Y995000D03*
X1165000Y1005000D03*
X1170000Y900000D03*
X1190000Y930000D03*
Y990000D03*
X1250000Y945000D03*
Y980000D03*
X1280000Y485000D03*
X1285000Y1030000D03*
X1375000Y485000D03*
X1430000Y420000D03*
Y495000D03*
X1440000Y370000D03*
X1450000Y315000D03*
X1460000Y455000D03*
X1477450Y420000D03*
X1485000Y495000D03*
X1490000Y340000D03*
X1495000Y455000D03*
X1505000Y350000D03*
X1510000Y1040000D03*
X1515000Y370000D03*
X1520000Y445000D03*
X1535000Y1245000D03*
X1551000Y430650D03*
X1570000Y910000D03*
X1580000Y885000D03*
Y900000D03*
X1585000Y1040000D03*
X1595000Y990000D03*
X1605000Y1015000D03*
X1690000Y745000D02*
Y698621D01*
X1666886Y675507*
X1581248*
X1539522Y633781*
Y532558*
X1559432Y512649*
Y373347*
X1402450Y216365*
X985680*
X936723Y265321*
X737535*
X696857Y306000*
X659000*
X1690000Y745000D03*
X1700000D02*
X1690000D01*
X1700000D03*
X1730000Y625000D02*
Y635000D01*
Y625000D03*
Y635000D03*
X1815000Y735000D03*
X1825000Y700000D03*
X1850000Y735000D03*
X1855000Y800000D03*
X1865000Y1170000D03*
X1885000Y975000D03*
Y985000D03*
X1890000Y1100000D03*
X1893000Y947000D03*
X1900000Y1145000D03*
X1920000Y965000D03*
Y997000D03*
Y1085000D03*
X1930000Y1045000D03*
Y1085000D03*
Y1100000D03*
Y1115000D03*
Y1125000D03*
X1931000Y1054000D03*
X1935000Y920000D03*
Y945000D03*
X1940000Y1200000D03*
X1950000Y986000D03*
Y1200000D03*
X1960000Y875000D03*
X1995000Y1050000D03*
X2005000Y950000D03*
Y975000D03*
X2008000Y880000D03*
X2015000Y1215000D03*
X2020000Y995000D03*
X2085000Y340000D03*
Y360000D03*
X2095000Y325000D03*
Y375000D03*
X2110000Y323000D03*
Y377000D03*
X2125000Y323000D03*
Y377000D03*
Y470000D03*
Y490000D03*
X2135000Y455000D03*
Y500000D03*
X2140000Y323000D03*
Y377000D03*
X2150000Y453000D03*
X2155000Y375000D03*
X2160000Y325000D03*
X2165000Y340000D03*
Y360000D03*
Y453000D03*
X2180000D03*
X2195000Y455000D03*
Y505000D03*
X2200000Y890000D03*
X2210000Y930000D03*
X2215000Y895000D03*
X2220000Y453000D03*
Y507000D03*
X2229100Y980000D03*
X2235000Y453000D03*
Y507000D03*
X2245000Y340000D03*
Y360000D03*
X2250000Y330000D03*
Y453000D03*
Y507000D03*
X2255000Y375000D03*
Y980000D03*
X2260000Y325000D03*
X2265000Y455000D03*
Y507000D03*
X2270000Y377000D03*
X2273000Y323000D03*
X2275000Y500000D03*
X2280000Y465000D03*
X2285000Y377000D03*
Y485000D03*
X2286000Y323000D03*
X2290000Y920000D03*
Y960000D03*
X2290900Y930000D03*
X2291000Y893000D03*
X2300000Y323000D03*
Y377000D03*
X2310000Y325000D03*
X2315000Y375000D03*
X2322000Y846000D03*
Y863000D03*
X2325000Y335000D03*
Y360000D03*
X2345000Y920000D03*
X2410000Y230000D03*
Y240000D03*
X2425000Y230000D03*
Y240000D03*
X2435000Y350000D03*
Y360000D03*
X2440000Y230000D03*
Y240000D03*
X2450000Y350000D03*
Y360000D03*
X2455000Y230000D03*
Y240000D03*
X2465000Y350000D03*
Y360000D03*
Y880000D03*
X2470000Y230000D03*
Y240000D03*
X2480000Y350000D03*
Y360000D03*
X2550000Y230000D03*
Y240000D03*
Y350000D03*
Y360000D03*
X2565000Y230000D03*
Y240000D03*
Y350000D03*
Y360000D03*
X2580000Y230000D03*
Y240000D03*
Y350000D03*
Y360000D03*
X2595000Y230000D03*
Y240000D03*
Y350000D03*
Y360000D03*
X2610000Y230000D03*
Y240000D03*
Y350000D03*
Y360000D03*
X2700000Y240000D03*
Y260000D03*
X2710000Y275000D03*
X2725000Y278000D03*
X2730000Y730000D03*
Y740000D03*
Y750000D03*
Y760000D03*
Y770000D03*
Y780000D03*
Y790000D03*
Y800000D03*
Y810000D03*
Y820000D03*
Y830000D03*
Y840000D03*
Y850000D03*
Y860000D03*
Y870000D03*
Y880000D03*
Y890000D03*
Y900000D03*
Y910000D03*
Y920000D03*
Y930000D03*
Y940000D03*
Y950000D03*
Y960000D03*
Y970000D03*
Y980000D03*
Y990000D03*
Y1000000D03*
X2738000Y384000D03*
X2740000Y278000D03*
Y370000D03*
Y730000D03*
Y740000D03*
Y750000D03*
Y760000D03*
Y770000D03*
Y780000D03*
Y790000D03*
Y800000D03*
Y810000D03*
Y820000D03*
Y830000D03*
Y840000D03*
Y850000D03*
Y860000D03*
Y870000D03*
Y880000D03*
Y890000D03*
Y900000D03*
Y910000D03*
Y920000D03*
Y930000D03*
Y940000D03*
Y950000D03*
Y960000D03*
Y970000D03*
Y980000D03*
Y990000D03*
Y1000000D03*
X2745000Y360000D03*
Y400000D03*
X2750000Y730000D03*
Y740000D03*
Y750000D03*
Y760000D03*
Y770000D03*
Y780000D03*
Y790000D03*
Y800000D03*
Y810000D03*
Y820000D03*
Y830000D03*
Y840000D03*
Y850000D03*
Y860000D03*
Y870000D03*
Y880000D03*
Y890000D03*
Y900000D03*
Y910000D03*
Y920000D03*
Y930000D03*
Y940000D03*
Y950000D03*
Y960000D03*
Y970000D03*
Y980000D03*
Y990000D03*
Y1000000D03*
X2755000Y278000D03*
X2760000Y353000D03*
Y407000D03*
Y730000D03*
Y740000D03*
Y750000D03*
Y760000D03*
Y770000D03*
Y780000D03*
Y790000D03*
Y800000D03*
Y810000D03*
Y820000D03*
Y830000D03*
Y840000D03*
Y850000D03*
Y860000D03*
Y870000D03*
Y880000D03*
Y890000D03*
Y900000D03*
Y910000D03*
Y920000D03*
Y930000D03*
Y940000D03*
Y950000D03*
Y960000D03*
Y970000D03*
Y980000D03*
Y990000D03*
Y1000000D03*
X2770000Y275000D03*
Y890000D03*
Y900000D03*
Y910000D03*
Y920000D03*
Y930000D03*
Y940000D03*
Y950000D03*
Y960000D03*
Y970000D03*
Y980000D03*
Y990000D03*
Y1000000D03*
X2775000Y353000D03*
Y407000D03*
X2780000Y240000D03*
Y260000D03*
X2790000Y353000D03*
Y407000D03*
X2805000Y355000D03*
Y405000D03*
X2835000Y355000D03*
Y405000D03*
X2845000Y407000D03*
X2850000Y353000D03*
X2860000Y850000D03*
Y865000D03*
Y880000D03*
Y895000D03*
Y910000D03*
Y925000D03*
Y940000D03*
Y955000D03*
Y235000D03*
Y260000D03*
Y407000D03*
X2865000Y835000D03*
Y970000D03*
Y353000D03*
X2870000Y225000D03*
Y275000D03*
X2875000Y830000D03*
Y980000D03*
Y407000D03*
X2880000Y353000D03*
X2885000Y223000D03*
Y277000D03*
X2888000Y403000D03*
X2890000Y355000D03*
X2895000Y980000D03*
X2899000Y367000D03*
Y395000D03*
X2900000Y830000D03*
Y223000D03*
Y277000D03*
X2902000Y380000D03*
X2910000Y845000D03*
Y860000D03*
Y875000D03*
Y890000D03*
Y905000D03*
Y920000D03*
Y935000D03*
Y950000D03*
Y965000D03*
X2915000Y223000D03*
Y277000D03*
X2930000Y225000D03*
Y275000D03*
X2940000Y240000D03*
Y260000D03*
X3070000Y850000D03*
Y865000D03*
Y880000D03*
Y895000D03*
Y910000D03*
Y925000D03*
Y940000D03*
Y955000D03*
X3075000Y970000D03*
X3085000Y980000D03*
X3105000D03*
X3120000Y845000D03*
Y860000D03*
Y875000D03*
Y890000D03*
Y905000D03*
Y920000D03*
Y935000D03*
Y950000D03*
Y965000D03*
X3130000Y575000D03*
Y595000D03*
Y615000D03*
Y635000D03*
X3145000Y555000D03*
Y575000D03*
Y595000D03*
Y615000D03*
Y635000D03*
X3160000Y555000D03*
Y575000D03*
Y595000D03*
Y615000D03*
Y635000D03*
X3165000Y530000D03*
Y625000D03*
X3185000Y510000D03*
Y550000D03*
Y605000D03*
Y645000D03*
X3205000Y530000D03*
Y625000D03*
X3315000Y530000D03*
Y625000D03*
X3335000Y510000D03*
Y550000D03*
Y605000D03*
Y645000D03*
X3355000Y530000D03*
Y625000D03*
G54D19*
X100000Y1063300D02*
X120000D01*
X140000*
X636000Y429000D02*
Y514000D01*
X647000Y525000*
Y843000*
X610000Y880000*
X705000Y1075000D02*
X759462Y1020538D01*
Y1000538*
X775000Y985000*
X745000Y930000D02*
X705000D01*
X690000Y945000*
X745000Y930000D02*
Y865503D01*
X824503Y786000*
X1129000*
X1162000Y819000*
Y923000*
X1169000Y930000*
X1190000*
X775000Y985000D02*
Y879293D01*
X840293Y814000*
X1095000*
X1127000Y846000*
Y1019000*
X1138000Y1030000*
X1145000*
X785000Y915000D02*
Y992339D01*
X822661Y1030000*
X840000*
X845000Y500000D02*
X881000D01*
X936000Y445000*
X945000*
X845000Y1020000D02*
X828016Y1003016D01*
Y956984*
X835000Y950000*
X1035000Y445000D02*
X1028000Y438000D01*
X932000*
X895000Y475000*
X1190000Y930000D02*
X1198000Y922000D01*
Y818000*
X1231000Y785000*
X1509000*
X1580000Y856000*
Y885000*
X1190000Y990000D02*
Y1001000D01*
X1161000Y1030000*
X1145000*
X1280000Y485000D02*
X1265629D01*
X1260000Y479371*
Y439000*
X1269000Y430000*
X1396000*
X1430000Y464000*
Y495000*
X1285000Y1030000D02*
X1240000Y985000D01*
Y955000*
X1250000Y945000*
X1375000Y485000D02*
X1392000Y502000D01*
X1478000*
X1485000Y495000*
X1585000Y1040000D02*
Y957404D01*
X1543000Y915404*
Y854000*
X1498000Y809000*
X1248000*
X1218000Y839000*
Y962000*
X1190000Y990000*
X2322000Y863000D02*
Y846000D01*
Y863000D02*
X2292000Y893000D01*
X2291000*
X2322000Y863000D02*
G54D20*
X10000Y225000D03*
Y255000D03*
Y285000D03*
Y315000D03*
Y345000D03*
Y375000D03*
Y405000D03*
Y435000D03*
Y465000D03*
Y495000D03*
Y525000D03*
Y555000D03*
Y585000D03*
Y615000D03*
Y645000D03*
Y675000D03*
Y705000D03*
Y735000D03*
Y765000D03*
Y795000D03*
Y825000D03*
Y855000D03*
Y885000D03*
Y915000D03*
Y945000D03*
Y975000D03*
Y1005000D03*
Y1035000D03*
Y1065000D03*
Y1095000D03*
Y1125000D03*
Y1155000D03*
Y1185000D03*
Y1215000D03*
Y1255000D03*
Y1285000D03*
Y1315000D03*
Y1345000D03*
Y1375000D03*
Y1405000D03*
Y1435000D03*
X20000Y965000D03*
Y995000D03*
Y1025000D03*
Y1055000D03*
Y1085000D03*
Y1115000D03*
Y1145000D03*
Y1175000D03*
Y1205000D03*
Y1230000D03*
Y1265000D03*
Y1295000D03*
Y1325000D03*
Y1355000D03*
Y1385000D03*
Y1415000D03*
X25000Y215000D03*
Y245000D03*
Y275000D03*
Y305000D03*
Y335000D03*
Y365000D03*
Y395000D03*
Y425000D03*
Y455000D03*
Y485000D03*
Y515000D03*
Y545000D03*
Y575000D03*
Y605000D03*
Y635000D03*
Y665000D03*
Y695000D03*
Y785000D03*
Y815000D03*
Y845000D03*
Y875000D03*
Y905000D03*
Y935000D03*
Y1520000D03*
X45000Y225000D03*
Y255000D03*
Y795000D03*
Y820000D03*
Y885000D03*
Y915000D03*
X55000Y1520000D03*
X65000Y215000D03*
Y245000D03*
Y880000D03*
Y905000D03*
X70000Y815000D03*
X75000Y1505000D03*
X85000Y715000D03*
Y795000D03*
Y830000D03*
Y885000D03*
Y915000D03*
Y1520000D03*
X90000Y195000D03*
Y225000D03*
Y255000D03*
X100000Y745000D03*
Y775000D03*
Y805000D03*
Y835000D03*
Y865000D03*
Y895000D03*
X105000Y180000D03*
Y1505000D03*
X115000Y125000D03*
Y150000D03*
Y205000D03*
Y235000D03*
Y265000D03*
Y1515000D03*
X120000Y170000D03*
X125000Y100000D03*
X130000Y145000D03*
X135000Y1505000D03*
X145000Y120000D03*
Y1515000D03*
X150000Y90000D03*
X165000Y105000D03*
Y1505000D03*
X175000Y1520000D03*
X180000Y90000D03*
X195000Y105000D03*
Y405000D03*
Y1505000D03*
X200000Y390000D03*
Y420000D03*
X205000Y1520000D03*
X210000Y90000D03*
X215000Y385000D03*
Y425000D03*
X225000Y105000D03*
Y1505000D03*
X230000Y390000D03*
Y420000D03*
X235000Y405000D03*
Y1520000D03*
X240000Y90000D03*
X255000Y105000D03*
Y1505000D03*
X265000Y1520000D03*
X285000Y105000D03*
Y1505000D03*
X295000Y1520000D03*
X300000Y90000D03*
X315000Y105000D03*
Y1505000D03*
X325000Y290000D03*
Y1520000D03*
X330000Y90000D03*
Y275000D03*
Y305000D03*
X345000Y105000D03*
Y270000D03*
Y310000D03*
Y1505000D03*
X355000Y1520000D03*
X360000Y90000D03*
Y275000D03*
Y305000D03*
X365000Y290000D03*
X375000Y105000D03*
Y1505000D03*
X385000Y1520000D03*
X390000Y90000D03*
X405000Y105000D03*
Y1505000D03*
X415000Y1520000D03*
X420000Y90000D03*
X435000Y105000D03*
Y1505000D03*
X445000Y1520000D03*
X450000Y90000D03*
X455000Y200000D03*
X460000Y185000D03*
Y215000D03*
X465000Y105000D03*
Y1505000D03*
X475000Y180000D03*
Y220000D03*
Y1520000D03*
X480000Y90000D03*
X490000Y185000D03*
Y215000D03*
X495000Y105000D03*
Y200000D03*
Y1505000D03*
X505000Y1520000D03*
X510000Y90000D03*
X525000Y105000D03*
Y1505000D03*
X535000Y1515000D03*
X540000Y90000D03*
X555000Y105000D03*
Y1505000D03*
X565000Y1515000D03*
X570000Y90000D03*
X585000Y105000D03*
Y1505000D03*
X595000Y1520000D03*
X600000Y90000D03*
X615000Y105000D03*
Y1505000D03*
X625000Y1520000D03*
X630000Y90000D03*
X645000Y105000D03*
Y1505000D03*
X655000Y1520000D03*
X660000Y90000D03*
X675000Y105000D03*
Y1505000D03*
X685000Y1520000D03*
X690000Y90000D03*
X705000Y105000D03*
Y1505000D03*
X715000Y1520000D03*
X735000Y105000D03*
Y1505000D03*
X745000Y1520000D03*
X765000Y105000D03*
Y1505000D03*
X775000Y1520000D03*
X780000Y90000D03*
X795000Y105000D03*
Y1505000D03*
X805000Y1520000D03*
X810000Y90000D03*
X825000Y105000D03*
Y1505000D03*
X835000Y1520000D03*
X840000Y90000D03*
X845000Y530000D03*
Y540000D03*
Y550000D03*
Y560000D03*
Y570000D03*
Y580000D03*
X850000Y840000D03*
Y850000D03*
Y860000D03*
Y870000D03*
Y880000D03*
X855000Y105000D03*
Y530000D03*
Y540000D03*
Y550000D03*
Y560000D03*
Y570000D03*
Y580000D03*
Y1505000D03*
X860000Y840000D03*
Y850000D03*
Y860000D03*
Y870000D03*
Y880000D03*
X865000Y530000D03*
Y540000D03*
Y550000D03*
Y560000D03*
Y570000D03*
Y580000D03*
Y1520000D03*
X870000Y90000D03*
Y840000D03*
Y850000D03*
Y860000D03*
Y870000D03*
Y880000D03*
X875000Y530000D03*
Y540000D03*
Y550000D03*
Y560000D03*
Y570000D03*
Y580000D03*
X880000Y840000D03*
Y850000D03*
Y860000D03*
Y870000D03*
Y880000D03*
X885000Y105000D03*
Y530000D03*
Y540000D03*
Y550000D03*
Y560000D03*
Y570000D03*
Y580000D03*
X890000Y840000D03*
Y850000D03*
Y860000D03*
Y870000D03*
Y880000D03*
X895000Y530000D03*
Y540000D03*
Y550000D03*
Y560000D03*
Y570000D03*
Y580000D03*
Y1520000D03*
X900000Y95000D03*
X905000Y530000D03*
Y540000D03*
Y550000D03*
Y560000D03*
Y570000D03*
Y580000D03*
Y980000D03*
Y990000D03*
Y1000000D03*
X907000Y1023000D03*
Y1029000D03*
Y1035000D03*
Y1041000D03*
Y1047000D03*
Y1053000D03*
X908000Y932000D03*
Y938000D03*
Y944000D03*
Y950000D03*
Y956000D03*
Y962000D03*
Y968000D03*
X913000Y1023000D03*
Y1029000D03*
Y1035000D03*
Y1041000D03*
Y1047000D03*
Y1053000D03*
X914000Y932000D03*
Y938000D03*
Y944000D03*
Y950000D03*
Y956000D03*
Y962000D03*
Y968000D03*
X915000Y105000D03*
Y980000D03*
Y990000D03*
Y1000000D03*
X919000Y1023000D03*
Y1029000D03*
Y1035000D03*
Y1041000D03*
Y1047000D03*
Y1053000D03*
X920000Y932000D03*
Y938000D03*
Y944000D03*
Y950000D03*
Y956000D03*
Y962000D03*
Y968000D03*
X925000Y980000D03*
Y990000D03*
Y1000000D03*
Y1023000D03*
Y1029000D03*
Y1035000D03*
Y1041000D03*
Y1047000D03*
Y1053000D03*
Y1520000D03*
X926000Y932000D03*
Y938000D03*
Y944000D03*
Y950000D03*
Y956000D03*
Y962000D03*
Y968000D03*
X930000Y90000D03*
X931000Y1023000D03*
Y1029000D03*
Y1035000D03*
Y1041000D03*
Y1047000D03*
Y1053000D03*
X932000Y932000D03*
Y938000D03*
Y944000D03*
Y950000D03*
Y956000D03*
Y962000D03*
Y968000D03*
X935000Y380000D03*
Y390000D03*
Y400000D03*
Y410000D03*
Y460000D03*
Y470000D03*
Y480000D03*
Y490000D03*
X937000Y1023000D03*
Y1029000D03*
Y1035000D03*
Y1041000D03*
Y1047000D03*
Y1053000D03*
X938000Y932000D03*
Y938000D03*
Y944000D03*
Y950000D03*
Y956000D03*
Y962000D03*
Y968000D03*
X943000Y1023000D03*
Y1029000D03*
Y1035000D03*
Y1041000D03*
Y1047000D03*
Y1053000D03*
X945000Y105000D03*
Y365000D03*
Y380000D03*
Y390000D03*
Y400000D03*
Y410000D03*
Y460000D03*
Y470000D03*
Y480000D03*
Y490000D03*
Y1505000D03*
X955000Y380000D03*
Y390000D03*
Y400000D03*
Y410000D03*
Y460000D03*
Y470000D03*
Y480000D03*
Y490000D03*
Y1515000D03*
X960000Y90000D03*
X973000Y368000D03*
Y374000D03*
Y380000D03*
Y386000D03*
Y392000D03*
Y398000D03*
Y404000D03*
Y447000D03*
Y453000D03*
Y459000D03*
Y465000D03*
Y471000D03*
Y477000D03*
Y483000D03*
X975000Y105000D03*
Y1505000D03*
X979000Y368000D03*
Y374000D03*
Y380000D03*
Y386000D03*
Y392000D03*
Y398000D03*
Y404000D03*
Y447000D03*
Y453000D03*
Y459000D03*
Y465000D03*
Y471000D03*
Y477000D03*
Y483000D03*
X980000Y980000D03*
Y990000D03*
Y1000000D03*
X981000Y1023000D03*
Y1029000D03*
Y1035000D03*
Y1041000D03*
Y1047000D03*
Y1053000D03*
X985000Y368000D03*
Y374000D03*
Y380000D03*
Y386000D03*
Y392000D03*
Y398000D03*
Y404000D03*
Y447000D03*
Y453000D03*
Y459000D03*
Y465000D03*
Y471000D03*
Y477000D03*
Y483000D03*
Y1435000D03*
Y1515000D03*
X987000Y932000D03*
Y938000D03*
Y944000D03*
Y950000D03*
Y956000D03*
Y962000D03*
Y968000D03*
Y1023000D03*
Y1029000D03*
Y1035000D03*
Y1041000D03*
Y1047000D03*
Y1053000D03*
X990000Y90000D03*
Y980000D03*
Y990000D03*
Y1000000D03*
X991000Y368000D03*
Y374000D03*
Y380000D03*
Y386000D03*
Y392000D03*
Y398000D03*
Y404000D03*
Y447000D03*
Y453000D03*
Y459000D03*
Y465000D03*
Y471000D03*
Y477000D03*
Y483000D03*
X993000Y932000D03*
Y938000D03*
Y944000D03*
Y950000D03*
Y956000D03*
Y962000D03*
Y968000D03*
Y1023000D03*
Y1029000D03*
Y1035000D03*
Y1041000D03*
Y1047000D03*
Y1053000D03*
X997000Y368000D03*
Y374000D03*
Y380000D03*
Y386000D03*
Y392000D03*
Y398000D03*
Y404000D03*
Y447000D03*
Y453000D03*
Y459000D03*
Y465000D03*
Y471000D03*
Y477000D03*
Y483000D03*
X999000Y932000D03*
Y938000D03*
Y944000D03*
Y950000D03*
Y956000D03*
Y962000D03*
Y968000D03*
Y1023000D03*
Y1029000D03*
Y1035000D03*
Y1041000D03*
Y1047000D03*
Y1053000D03*
X1000000Y980000D03*
Y990000D03*
Y1000000D03*
Y1435000D03*
X1003000Y368000D03*
Y374000D03*
Y380000D03*
Y386000D03*
Y392000D03*
Y398000D03*
Y404000D03*
Y447000D03*
Y453000D03*
Y459000D03*
Y465000D03*
Y471000D03*
Y477000D03*
Y483000D03*
X1005000Y105000D03*
Y932000D03*
Y938000D03*
Y944000D03*
Y950000D03*
Y956000D03*
Y962000D03*
Y968000D03*
Y1023000D03*
Y1029000D03*
Y1035000D03*
Y1041000D03*
Y1047000D03*
Y1053000D03*
Y1505000D03*
X1011000Y932000D03*
Y938000D03*
Y944000D03*
Y950000D03*
Y956000D03*
Y962000D03*
Y968000D03*
Y1023000D03*
Y1029000D03*
Y1035000D03*
Y1041000D03*
Y1047000D03*
Y1053000D03*
X1015000Y1435000D03*
Y1520000D03*
X1017000Y932000D03*
Y938000D03*
Y944000D03*
Y950000D03*
Y956000D03*
Y962000D03*
Y968000D03*
Y1023000D03*
Y1029000D03*
Y1035000D03*
Y1041000D03*
Y1047000D03*
Y1053000D03*
X1020000Y90000D03*
Y840000D03*
Y850000D03*
Y860000D03*
Y870000D03*
Y880000D03*
X1030000Y380000D03*
Y390000D03*
Y400000D03*
Y410000D03*
Y460000D03*
Y470000D03*
Y480000D03*
Y490000D03*
Y840000D03*
Y850000D03*
Y860000D03*
Y870000D03*
Y880000D03*
Y1435000D03*
X1035000Y105000D03*
Y1505000D03*
X1040000Y365000D03*
Y380000D03*
Y390000D03*
Y400000D03*
Y410000D03*
Y460000D03*
Y470000D03*
Y480000D03*
Y490000D03*
Y840000D03*
Y850000D03*
Y860000D03*
Y870000D03*
Y880000D03*
X1045000Y1435000D03*
Y1520000D03*
X1050000Y90000D03*
Y380000D03*
Y390000D03*
Y400000D03*
Y410000D03*
Y460000D03*
Y470000D03*
Y480000D03*
Y490000D03*
Y840000D03*
Y850000D03*
Y860000D03*
Y870000D03*
Y880000D03*
X1060000Y540000D03*
Y550000D03*
Y560000D03*
Y570000D03*
Y580000D03*
Y840000D03*
Y850000D03*
Y860000D03*
Y870000D03*
Y880000D03*
Y1435000D03*
X1065000Y105000D03*
Y1505000D03*
X1068000Y367000D03*
Y373000D03*
Y379000D03*
Y385000D03*
Y391000D03*
Y397000D03*
Y403000D03*
Y447000D03*
Y453000D03*
Y459000D03*
Y465000D03*
Y471000D03*
Y477000D03*
Y483000D03*
X1070000Y540000D03*
Y550000D03*
Y560000D03*
Y570000D03*
Y580000D03*
X1074000Y367000D03*
Y373000D03*
Y379000D03*
Y385000D03*
Y391000D03*
Y397000D03*
Y403000D03*
Y447000D03*
Y453000D03*
Y459000D03*
Y465000D03*
Y471000D03*
Y477000D03*
Y483000D03*
X1075000Y1335000D03*
Y1345000D03*
Y1355000D03*
Y1365000D03*
Y1375000D03*
Y1435000D03*
Y1520000D03*
X1080000Y90000D03*
Y367000D03*
Y373000D03*
Y379000D03*
Y385000D03*
Y391000D03*
Y397000D03*
Y403000D03*
Y447000D03*
Y453000D03*
Y459000D03*
Y465000D03*
Y471000D03*
Y477000D03*
Y483000D03*
Y540000D03*
Y550000D03*
Y560000D03*
Y570000D03*
Y580000D03*
Y1155000D03*
Y1165000D03*
Y1175000D03*
Y1185000D03*
Y1195000D03*
X1086000Y367000D03*
Y373000D03*
Y379000D03*
Y385000D03*
Y391000D03*
Y397000D03*
Y403000D03*
Y447000D03*
Y453000D03*
Y459000D03*
Y465000D03*
Y471000D03*
Y477000D03*
Y483000D03*
X1090000Y540000D03*
Y550000D03*
Y560000D03*
Y570000D03*
Y580000D03*
Y1155000D03*
Y1165000D03*
Y1175000D03*
Y1185000D03*
Y1195000D03*
Y1335000D03*
Y1345000D03*
Y1355000D03*
Y1365000D03*
Y1375000D03*
Y1435000D03*
X1092000Y367000D03*
Y373000D03*
Y379000D03*
Y385000D03*
Y391000D03*
Y397000D03*
Y403000D03*
Y447000D03*
Y453000D03*
Y459000D03*
Y465000D03*
Y471000D03*
Y477000D03*
Y483000D03*
X1095000Y105000D03*
Y1505000D03*
X1098000Y367000D03*
Y373000D03*
Y379000D03*
Y385000D03*
Y391000D03*
Y397000D03*
Y403000D03*
Y447000D03*
Y453000D03*
Y459000D03*
Y465000D03*
Y471000D03*
Y477000D03*
Y483000D03*
X1100000Y540000D03*
Y550000D03*
Y560000D03*
Y570000D03*
Y580000D03*
Y1155000D03*
Y1165000D03*
Y1175000D03*
Y1185000D03*
Y1195000D03*
X1105000Y1335000D03*
Y1345000D03*
Y1355000D03*
Y1365000D03*
Y1375000D03*
Y1435000D03*
Y1520000D03*
X1110000Y90000D03*
Y540000D03*
Y550000D03*
Y560000D03*
Y570000D03*
Y580000D03*
Y1155000D03*
Y1165000D03*
Y1175000D03*
Y1185000D03*
Y1195000D03*
X1120000Y540000D03*
Y550000D03*
Y560000D03*
Y570000D03*
Y580000D03*
Y1155000D03*
Y1165000D03*
Y1175000D03*
Y1185000D03*
Y1195000D03*
Y1335000D03*
Y1345000D03*
Y1355000D03*
Y1365000D03*
Y1375000D03*
Y1435000D03*
X1125000Y105000D03*
Y1505000D03*
X1130000Y540000D03*
Y550000D03*
Y560000D03*
Y570000D03*
Y580000D03*
Y590000D03*
Y600000D03*
Y610000D03*
X1135000Y1335000D03*
Y1345000D03*
Y1355000D03*
Y1365000D03*
Y1375000D03*
Y1435000D03*
Y1520000D03*
X1140000Y90000D03*
Y540000D03*
Y550000D03*
Y560000D03*
Y570000D03*
Y580000D03*
Y590000D03*
Y600000D03*
Y610000D03*
X1150000Y420000D03*
Y540000D03*
Y550000D03*
Y560000D03*
Y570000D03*
Y580000D03*
Y590000D03*
Y600000D03*
Y610000D03*
Y1435000D03*
X1155000Y105000D03*
Y1505000D03*
X1160000Y420000D03*
Y540000D03*
Y550000D03*
Y560000D03*
Y570000D03*
Y580000D03*
Y590000D03*
Y600000D03*
Y610000D03*
X1165000Y1435000D03*
Y1520000D03*
X1170000Y420000D03*
Y540000D03*
Y550000D03*
Y560000D03*
Y570000D03*
Y580000D03*
Y590000D03*
Y600000D03*
Y610000D03*
X1180000Y540000D03*
Y550000D03*
Y560000D03*
Y570000D03*
Y580000D03*
Y590000D03*
Y600000D03*
Y610000D03*
Y1435000D03*
X1185000Y105000D03*
Y1505000D03*
X1190000Y540000D03*
Y550000D03*
Y560000D03*
Y570000D03*
Y580000D03*
Y590000D03*
Y600000D03*
Y610000D03*
X1195000Y1435000D03*
Y1520000D03*
X1200000Y540000D03*
Y550000D03*
Y560000D03*
Y570000D03*
Y580000D03*
X1205000Y1335000D03*
Y1345000D03*
Y1355000D03*
Y1365000D03*
Y1375000D03*
X1210000Y540000D03*
Y550000D03*
Y560000D03*
Y570000D03*
Y580000D03*
Y1435000D03*
X1215000Y105000D03*
Y1505000D03*
X1220000Y540000D03*
Y550000D03*
Y560000D03*
Y570000D03*
Y580000D03*
Y1155000D03*
Y1165000D03*
Y1175000D03*
Y1185000D03*
Y1195000D03*
Y1335000D03*
Y1345000D03*
Y1355000D03*
Y1365000D03*
Y1375000D03*
X1222000Y367000D03*
Y373000D03*
Y379000D03*
Y385000D03*
Y391000D03*
Y397000D03*
Y403000D03*
Y447000D03*
Y453000D03*
Y459000D03*
Y465000D03*
Y471000D03*
Y477000D03*
Y483000D03*
X1225000Y1435000D03*
Y1520000D03*
X1228000Y367000D03*
Y373000D03*
Y379000D03*
Y385000D03*
Y391000D03*
Y397000D03*
Y403000D03*
Y447000D03*
Y453000D03*
Y459000D03*
Y465000D03*
Y471000D03*
Y477000D03*
Y483000D03*
X1230000Y90000D03*
Y540000D03*
Y550000D03*
Y560000D03*
Y570000D03*
Y580000D03*
Y1155000D03*
Y1165000D03*
Y1175000D03*
Y1185000D03*
Y1195000D03*
X1234000Y367000D03*
Y373000D03*
Y379000D03*
Y385000D03*
Y391000D03*
Y397000D03*
Y403000D03*
Y447000D03*
Y453000D03*
Y459000D03*
Y465000D03*
Y471000D03*
Y477000D03*
Y483000D03*
X1235000Y1335000D03*
Y1345000D03*
Y1355000D03*
Y1365000D03*
Y1375000D03*
X1240000Y367000D03*
Y373000D03*
Y379000D03*
Y385000D03*
Y391000D03*
Y397000D03*
Y403000D03*
Y447000D03*
Y453000D03*
Y459000D03*
Y465000D03*
Y471000D03*
Y477000D03*
Y483000D03*
Y540000D03*
Y550000D03*
Y560000D03*
Y570000D03*
Y580000D03*
Y1155000D03*
Y1165000D03*
Y1175000D03*
Y1185000D03*
Y1195000D03*
Y1435000D03*
X1245000Y105000D03*
Y1505000D03*
X1246000Y367000D03*
Y373000D03*
Y379000D03*
Y385000D03*
Y391000D03*
Y397000D03*
Y403000D03*
Y447000D03*
Y453000D03*
Y459000D03*
Y465000D03*
Y471000D03*
Y477000D03*
Y483000D03*
X1250000Y540000D03*
Y550000D03*
Y560000D03*
Y570000D03*
Y580000D03*
Y1155000D03*
Y1165000D03*
Y1175000D03*
Y1185000D03*
Y1195000D03*
Y1335000D03*
Y1345000D03*
Y1355000D03*
Y1365000D03*
Y1375000D03*
X1252000Y367000D03*
Y373000D03*
Y379000D03*
Y385000D03*
Y391000D03*
Y397000D03*
Y403000D03*
Y447000D03*
Y453000D03*
Y459000D03*
Y465000D03*
Y471000D03*
Y477000D03*
Y483000D03*
X1255000Y1435000D03*
Y1520000D03*
X1260000Y90000D03*
Y540000D03*
Y550000D03*
Y560000D03*
Y570000D03*
Y580000D03*
Y1155000D03*
Y1165000D03*
Y1175000D03*
Y1185000D03*
Y1195000D03*
X1265000Y840000D03*
Y850000D03*
Y860000D03*
Y870000D03*
Y880000D03*
Y1335000D03*
Y1345000D03*
Y1355000D03*
Y1365000D03*
Y1375000D03*
X1270000Y360000D03*
Y370000D03*
Y380000D03*
Y390000D03*
Y440000D03*
Y450000D03*
Y460000D03*
Y470000D03*
Y540000D03*
Y550000D03*
Y560000D03*
Y570000D03*
Y580000D03*
Y1435000D03*
X1275000Y105000D03*
Y840000D03*
Y850000D03*
Y860000D03*
Y870000D03*
Y880000D03*
Y1505000D03*
X1280000Y360000D03*
Y370000D03*
Y380000D03*
Y390000D03*
Y405000D03*
Y440000D03*
Y450000D03*
Y460000D03*
Y470000D03*
Y540000D03*
Y550000D03*
Y560000D03*
Y570000D03*
Y580000D03*
X1285000Y840000D03*
Y850000D03*
Y860000D03*
Y870000D03*
Y880000D03*
Y1435000D03*
Y1520000D03*
X1290000Y90000D03*
Y360000D03*
Y370000D03*
Y380000D03*
Y390000D03*
Y440000D03*
Y450000D03*
Y460000D03*
Y470000D03*
X1295000Y840000D03*
Y850000D03*
Y860000D03*
Y870000D03*
Y880000D03*
X1300000Y1435000D03*
X1305000Y105000D03*
Y840000D03*
Y850000D03*
Y860000D03*
Y870000D03*
Y880000D03*
Y1505000D03*
X1315000Y1435000D03*
Y1520000D03*
X1317000Y367000D03*
Y373000D03*
Y379000D03*
Y385000D03*
Y391000D03*
Y397000D03*
Y403000D03*
Y447000D03*
Y453000D03*
Y459000D03*
Y465000D03*
Y471000D03*
Y477000D03*
Y483000D03*
X1320000Y90000D03*
Y980000D03*
Y990000D03*
Y1000000D03*
X1322000Y1023000D03*
Y1029000D03*
Y1035000D03*
Y1041000D03*
Y1047000D03*
Y1053000D03*
X1323000Y367000D03*
Y373000D03*
Y379000D03*
Y385000D03*
Y391000D03*
Y397000D03*
Y403000D03*
Y447000D03*
Y453000D03*
Y459000D03*
Y465000D03*
Y471000D03*
Y477000D03*
Y483000D03*
Y932000D03*
Y938000D03*
Y944000D03*
Y950000D03*
Y956000D03*
Y962000D03*
Y968000D03*
X1328000Y1023000D03*
Y1029000D03*
Y1035000D03*
Y1041000D03*
Y1047000D03*
Y1053000D03*
X1329000Y367000D03*
Y373000D03*
Y379000D03*
Y385000D03*
Y391000D03*
Y397000D03*
Y403000D03*
Y447000D03*
Y453000D03*
Y459000D03*
Y465000D03*
Y471000D03*
Y477000D03*
Y483000D03*
Y932000D03*
Y938000D03*
Y944000D03*
Y950000D03*
Y956000D03*
Y962000D03*
Y968000D03*
X1330000Y980000D03*
Y990000D03*
Y1000000D03*
Y1435000D03*
X1334000Y1023000D03*
Y1029000D03*
Y1035000D03*
Y1041000D03*
Y1047000D03*
Y1053000D03*
X1335000Y105000D03*
Y367000D03*
Y373000D03*
Y379000D03*
Y385000D03*
Y391000D03*
Y397000D03*
Y403000D03*
Y447000D03*
Y453000D03*
Y459000D03*
Y465000D03*
Y471000D03*
Y477000D03*
Y483000D03*
Y932000D03*
Y938000D03*
Y944000D03*
Y950000D03*
Y956000D03*
Y962000D03*
Y968000D03*
Y1505000D03*
X1340000Y980000D03*
Y990000D03*
Y1000000D03*
Y1023000D03*
Y1029000D03*
Y1035000D03*
Y1041000D03*
Y1047000D03*
Y1053000D03*
X1341000Y367000D03*
Y373000D03*
Y379000D03*
Y385000D03*
Y391000D03*
Y397000D03*
Y403000D03*
Y447000D03*
Y453000D03*
Y459000D03*
Y465000D03*
Y471000D03*
Y477000D03*
Y483000D03*
Y932000D03*
Y938000D03*
Y944000D03*
Y950000D03*
Y956000D03*
Y962000D03*
Y968000D03*
X1345000Y1435000D03*
Y1520000D03*
X1346000Y1023000D03*
Y1029000D03*
Y1035000D03*
Y1041000D03*
Y1047000D03*
Y1053000D03*
X1347000Y367000D03*
Y373000D03*
Y379000D03*
Y385000D03*
Y391000D03*
Y397000D03*
Y403000D03*
Y447000D03*
Y453000D03*
Y459000D03*
Y465000D03*
Y471000D03*
Y477000D03*
Y483000D03*
Y932000D03*
Y938000D03*
Y944000D03*
Y950000D03*
Y956000D03*
Y962000D03*
Y968000D03*
X1350000Y90000D03*
X1352000Y1023000D03*
Y1029000D03*
Y1035000D03*
Y1041000D03*
Y1047000D03*
Y1053000D03*
X1353000Y932000D03*
Y938000D03*
Y944000D03*
Y950000D03*
Y956000D03*
Y962000D03*
Y968000D03*
X1358000Y1023000D03*
Y1029000D03*
Y1035000D03*
Y1041000D03*
Y1047000D03*
Y1053000D03*
X1360000Y1435000D03*
X1365000Y105000D03*
Y360000D03*
Y370000D03*
Y380000D03*
Y390000D03*
Y440000D03*
Y450000D03*
Y460000D03*
Y470000D03*
Y1505000D03*
X1375000Y360000D03*
Y370000D03*
Y380000D03*
Y390000D03*
Y405000D03*
Y440000D03*
Y450000D03*
Y460000D03*
Y470000D03*
Y1435000D03*
Y1515000D03*
X1380000Y90000D03*
X1385000Y360000D03*
Y370000D03*
Y380000D03*
Y390000D03*
Y440000D03*
Y450000D03*
Y460000D03*
Y470000D03*
X1390000Y980000D03*
Y990000D03*
Y1000000D03*
Y1435000D03*
X1395000Y105000D03*
Y1505000D03*
X1396000Y1023000D03*
Y1029000D03*
Y1035000D03*
Y1041000D03*
Y1047000D03*
Y1053000D03*
X1400000Y980000D03*
Y990000D03*
Y1000000D03*
X1402000Y932000D03*
Y938000D03*
Y944000D03*
Y950000D03*
Y956000D03*
Y962000D03*
Y968000D03*
Y1023000D03*
Y1029000D03*
Y1035000D03*
Y1041000D03*
Y1047000D03*
Y1053000D03*
X1405000Y1435000D03*
Y1515000D03*
X1408000Y932000D03*
Y938000D03*
Y944000D03*
Y950000D03*
Y956000D03*
Y962000D03*
Y968000D03*
Y1023000D03*
Y1029000D03*
Y1035000D03*
Y1041000D03*
Y1047000D03*
Y1053000D03*
X1410000Y90000D03*
Y980000D03*
Y990000D03*
Y1000000D03*
X1414000Y932000D03*
Y938000D03*
Y944000D03*
Y950000D03*
Y956000D03*
Y962000D03*
Y968000D03*
Y1023000D03*
Y1029000D03*
Y1035000D03*
Y1041000D03*
Y1047000D03*
Y1053000D03*
X1420000Y530000D03*
Y540000D03*
Y550000D03*
Y560000D03*
Y570000D03*
Y580000D03*
Y932000D03*
Y938000D03*
Y944000D03*
Y950000D03*
Y956000D03*
Y962000D03*
Y968000D03*
Y1023000D03*
Y1029000D03*
Y1035000D03*
Y1041000D03*
Y1047000D03*
Y1053000D03*
Y1435000D03*
X1425000Y105000D03*
Y1505000D03*
X1426000Y932000D03*
Y938000D03*
Y944000D03*
Y950000D03*
Y956000D03*
Y962000D03*
Y968000D03*
Y1023000D03*
Y1029000D03*
Y1035000D03*
Y1041000D03*
Y1047000D03*
Y1053000D03*
X1430000Y530000D03*
Y540000D03*
Y550000D03*
Y560000D03*
Y570000D03*
Y580000D03*
X1432000Y932000D03*
Y938000D03*
Y944000D03*
Y950000D03*
Y956000D03*
Y962000D03*
Y968000D03*
Y1023000D03*
Y1029000D03*
Y1035000D03*
Y1041000D03*
Y1047000D03*
Y1053000D03*
X1435000Y840000D03*
Y850000D03*
Y860000D03*
Y870000D03*
Y880000D03*
Y1435000D03*
Y1520000D03*
X1440000Y90000D03*
Y530000D03*
Y540000D03*
Y550000D03*
Y560000D03*
Y570000D03*
Y580000D03*
X1445000Y840000D03*
Y850000D03*
Y860000D03*
Y870000D03*
Y880000D03*
X1450000Y530000D03*
Y540000D03*
Y550000D03*
Y560000D03*
Y570000D03*
Y580000D03*
Y1435000D03*
X1455000Y105000D03*
Y840000D03*
Y850000D03*
Y860000D03*
Y870000D03*
Y880000D03*
Y1505000D03*
X1460000Y530000D03*
Y540000D03*
Y550000D03*
Y560000D03*
Y570000D03*
Y580000D03*
X1465000Y840000D03*
Y850000D03*
Y860000D03*
Y870000D03*
Y880000D03*
Y1435000D03*
Y1520000D03*
X1470000Y90000D03*
Y530000D03*
Y540000D03*
Y550000D03*
Y560000D03*
Y570000D03*
Y580000D03*
X1475000Y840000D03*
Y850000D03*
Y860000D03*
Y870000D03*
Y880000D03*
X1480000Y530000D03*
Y540000D03*
Y550000D03*
Y560000D03*
Y570000D03*
Y580000D03*
Y1435000D03*
X1485000Y105000D03*
Y1505000D03*
X1495000Y215000D03*
Y225000D03*
Y235000D03*
Y245000D03*
Y255000D03*
Y265000D03*
Y275000D03*
Y1435000D03*
Y1520000D03*
X1500000Y90000D03*
X1505000Y215000D03*
Y225000D03*
Y235000D03*
Y245000D03*
Y255000D03*
Y265000D03*
Y275000D03*
X1510000Y1435000D03*
X1515000Y105000D03*
Y215000D03*
Y225000D03*
Y235000D03*
Y245000D03*
Y255000D03*
Y265000D03*
Y275000D03*
Y1505000D03*
X1525000Y1435000D03*
Y1520000D03*
X1530000Y90000D03*
X1540000Y1435000D03*
X1545000Y105000D03*
Y1505000D03*
X1555000Y1435000D03*
Y1520000D03*
X1560000Y90000D03*
X1570000Y1435000D03*
X1575000Y105000D03*
Y1505000D03*
X1580000Y250000D03*
Y265000D03*
Y280000D03*
Y295000D03*
Y385000D03*
Y400000D03*
Y415000D03*
Y430000D03*
X1585000Y1435000D03*
Y1520000D03*
X1590000Y90000D03*
Y250000D03*
Y265000D03*
Y280000D03*
Y295000D03*
Y385000D03*
Y400000D03*
Y415000D03*
Y430000D03*
X1600000Y250000D03*
Y265000D03*
Y280000D03*
Y295000D03*
Y385000D03*
Y400000D03*
Y415000D03*
Y430000D03*
Y1435000D03*
X1605000Y105000D03*
Y1505000D03*
X1615000Y1520000D03*
X1635000Y105000D03*
Y1505000D03*
X1645000Y1520000D03*
X1665000Y105000D03*
X1675000Y1520000D03*
X1680000Y95000D03*
X1690000Y915000D03*
Y935000D03*
Y955000D03*
Y975000D03*
Y995000D03*
Y1015000D03*
Y1035000D03*
Y1055000D03*
Y1075000D03*
Y1095000D03*
Y1115000D03*
Y1140000D03*
Y1160000D03*
Y1180000D03*
Y1200000D03*
Y1220000D03*
Y1240000D03*
X1695000Y105000D03*
X1700000Y925000D03*
Y945000D03*
Y965000D03*
Y985000D03*
Y1005000D03*
Y1025000D03*
Y1045000D03*
Y1065000D03*
Y1085000D03*
Y1105000D03*
Y1125000D03*
Y1150000D03*
Y1170000D03*
Y1190000D03*
Y1210000D03*
Y1230000D03*
Y1250000D03*
X1705000Y1520000D03*
X1710000Y95000D03*
Y915000D03*
Y935000D03*
Y955000D03*
Y975000D03*
Y995000D03*
Y1015000D03*
Y1035000D03*
Y1055000D03*
Y1075000D03*
Y1095000D03*
Y1115000D03*
Y1140000D03*
Y1160000D03*
Y1180000D03*
Y1200000D03*
Y1220000D03*
Y1240000D03*
X1720000Y925000D03*
Y945000D03*
Y965000D03*
Y985000D03*
Y1005000D03*
Y1025000D03*
Y1045000D03*
Y1065000D03*
Y1085000D03*
Y1105000D03*
Y1125000D03*
Y1150000D03*
Y1170000D03*
Y1190000D03*
Y1210000D03*
Y1230000D03*
Y1250000D03*
X1725000Y105000D03*
Y1505000D03*
X1730000Y915000D03*
Y935000D03*
Y955000D03*
Y975000D03*
Y995000D03*
Y1015000D03*
Y1035000D03*
Y1055000D03*
Y1075000D03*
Y1095000D03*
Y1115000D03*
Y1140000D03*
Y1160000D03*
Y1180000D03*
Y1200000D03*
Y1220000D03*
Y1240000D03*
X1735000Y1520000D03*
X1740000Y90000D03*
Y925000D03*
Y945000D03*
Y965000D03*
Y985000D03*
Y1005000D03*
Y1025000D03*
Y1045000D03*
Y1065000D03*
Y1085000D03*
Y1105000D03*
Y1125000D03*
Y1150000D03*
Y1170000D03*
Y1190000D03*
Y1210000D03*
Y1230000D03*
Y1250000D03*
X1750000Y915000D03*
Y935000D03*
Y955000D03*
Y975000D03*
Y995000D03*
Y1015000D03*
Y1035000D03*
Y1055000D03*
Y1075000D03*
Y1095000D03*
Y1115000D03*
Y1140000D03*
Y1160000D03*
Y1180000D03*
Y1200000D03*
Y1220000D03*
Y1240000D03*
X1755000Y105000D03*
Y1505000D03*
X1760000Y925000D03*
Y945000D03*
Y965000D03*
Y985000D03*
Y1005000D03*
Y1025000D03*
Y1045000D03*
Y1065000D03*
Y1085000D03*
Y1105000D03*
Y1125000D03*
Y1150000D03*
Y1170000D03*
Y1190000D03*
Y1210000D03*
Y1230000D03*
Y1250000D03*
X1765000Y1520000D03*
X1770000Y90000D03*
Y915000D03*
Y935000D03*
Y955000D03*
Y975000D03*
Y995000D03*
Y1015000D03*
Y1035000D03*
Y1055000D03*
Y1075000D03*
Y1095000D03*
Y1115000D03*
Y1140000D03*
Y1160000D03*
Y1180000D03*
Y1200000D03*
Y1220000D03*
Y1240000D03*
X1780000Y925000D03*
Y945000D03*
Y965000D03*
Y985000D03*
Y1005000D03*
Y1025000D03*
Y1045000D03*
Y1065000D03*
Y1085000D03*
Y1105000D03*
Y1125000D03*
Y1150000D03*
Y1170000D03*
Y1190000D03*
Y1210000D03*
Y1230000D03*
Y1250000D03*
X1785000Y105000D03*
Y1505000D03*
X1795000Y1515000D03*
X1800000Y90000D03*
X1815000Y105000D03*
Y1505000D03*
X1825000Y1515000D03*
X1830000Y90000D03*
X1845000Y105000D03*
Y1505000D03*
X1855000Y1520000D03*
X1860000Y90000D03*
X1875000Y105000D03*
Y1505000D03*
X1885000Y1520000D03*
X1890000Y90000D03*
X1905000Y105000D03*
Y1505000D03*
X1915000Y1520000D03*
X1920000Y90000D03*
X1925000Y475000D03*
Y485000D03*
Y495000D03*
X1935000Y105000D03*
Y1505000D03*
X1940000Y475000D03*
Y485000D03*
Y495000D03*
X1945000Y1520000D03*
X1950000Y90000D03*
X1955000Y475000D03*
Y485000D03*
Y495000D03*
X1965000Y105000D03*
Y1505000D03*
X1970000Y475000D03*
Y485000D03*
Y495000D03*
X1975000Y1520000D03*
X1985000Y475000D03*
Y485000D03*
Y495000D03*
Y505000D03*
X1995000Y105000D03*
Y1505000D03*
X2005000Y1520000D03*
X2010000Y90000D03*
X2025000Y105000D03*
Y1505000D03*
X2035000Y1520000D03*
X2045000Y100000D03*
Y125000D03*
X2055000Y1505000D03*
X2065000Y125000D03*
Y1520000D03*
X2070000Y145000D03*
X2085000Y1505000D03*
X2090000Y920000D03*
Y940000D03*
Y960000D03*
Y980000D03*
Y1000000D03*
Y1020000D03*
Y1035000D03*
Y1055000D03*
Y1075000D03*
Y1095000D03*
Y1115000D03*
Y1140000D03*
Y1160000D03*
Y1180000D03*
Y1200000D03*
Y1220000D03*
Y1240000D03*
X2095000Y1520000D03*
X2100000Y140000D03*
Y930000D03*
Y950000D03*
Y970000D03*
Y990000D03*
Y1010000D03*
Y1045000D03*
Y1065000D03*
Y1085000D03*
Y1105000D03*
Y1125000D03*
Y1150000D03*
Y1170000D03*
Y1190000D03*
Y1210000D03*
Y1230000D03*
X2110000Y155000D03*
Y920000D03*
Y940000D03*
Y960000D03*
Y980000D03*
Y1000000D03*
Y1020000D03*
Y1035000D03*
Y1055000D03*
Y1075000D03*
Y1095000D03*
Y1115000D03*
Y1140000D03*
Y1160000D03*
Y1180000D03*
Y1200000D03*
Y1220000D03*
Y1240000D03*
X2115000Y1505000D03*
X2120000Y930000D03*
Y950000D03*
Y970000D03*
Y990000D03*
Y1010000D03*
Y1045000D03*
Y1065000D03*
Y1085000D03*
Y1105000D03*
Y1125000D03*
Y1150000D03*
Y1170000D03*
Y1190000D03*
Y1210000D03*
Y1230000D03*
X2125000Y1520000D03*
X2130000Y920000D03*
Y940000D03*
Y960000D03*
Y980000D03*
Y1000000D03*
Y1020000D03*
Y1035000D03*
Y1055000D03*
Y1075000D03*
Y1095000D03*
Y1115000D03*
Y1140000D03*
Y1160000D03*
Y1180000D03*
Y1200000D03*
Y1220000D03*
Y1240000D03*
X2135000Y130000D03*
X2140000Y930000D03*
Y950000D03*
Y970000D03*
Y990000D03*
Y1010000D03*
Y1045000D03*
Y1065000D03*
Y1085000D03*
Y1105000D03*
Y1125000D03*
Y1150000D03*
Y1170000D03*
Y1190000D03*
Y1210000D03*
Y1230000D03*
X2145000Y1505000D03*
X2150000Y920000D03*
Y940000D03*
Y960000D03*
Y980000D03*
Y1000000D03*
Y1020000D03*
Y1035000D03*
Y1055000D03*
Y1075000D03*
Y1095000D03*
Y1115000D03*
Y1140000D03*
Y1160000D03*
Y1180000D03*
Y1200000D03*
Y1220000D03*
Y1240000D03*
X2155000Y115000D03*
Y135000D03*
Y1520000D03*
X2160000Y930000D03*
Y950000D03*
Y970000D03*
Y990000D03*
Y1010000D03*
Y1045000D03*
Y1065000D03*
Y1085000D03*
Y1105000D03*
Y1125000D03*
Y1150000D03*
Y1170000D03*
Y1190000D03*
Y1210000D03*
Y1230000D03*
X2170000Y920000D03*
Y940000D03*
Y960000D03*
Y980000D03*
Y1000000D03*
Y1020000D03*
Y1035000D03*
Y1055000D03*
Y1075000D03*
Y1095000D03*
Y1115000D03*
Y1140000D03*
Y1160000D03*
Y1180000D03*
Y1200000D03*
Y1220000D03*
Y1240000D03*
X2175000Y105000D03*
Y1505000D03*
X2180000Y930000D03*
Y950000D03*
Y970000D03*
Y990000D03*
Y1010000D03*
Y1045000D03*
Y1065000D03*
Y1085000D03*
Y1105000D03*
Y1125000D03*
Y1150000D03*
Y1170000D03*
Y1190000D03*
Y1210000D03*
Y1230000D03*
X2185000Y920000D03*
Y940000D03*
Y960000D03*
Y980000D03*
Y1000000D03*
Y1020000D03*
Y1035000D03*
Y1055000D03*
Y1075000D03*
Y1095000D03*
Y1115000D03*
Y1140000D03*
Y1160000D03*
Y1180000D03*
Y1200000D03*
Y1220000D03*
Y1240000D03*
Y1520000D03*
X2190000Y90000D03*
X2205000Y105000D03*
Y1505000D03*
X2215000Y1515000D03*
X2220000Y90000D03*
X2235000Y105000D03*
Y1505000D03*
X2245000Y1515000D03*
X2250000Y90000D03*
X2265000Y105000D03*
Y1505000D03*
X2275000Y1520000D03*
X2280000Y90000D03*
X2295000Y105000D03*
Y1505000D03*
X2305000Y1520000D03*
X2310000Y90000D03*
X2325000Y105000D03*
Y1505000D03*
X2335000Y1520000D03*
X2340000Y90000D03*
X2355000Y105000D03*
Y1505000D03*
X2365000Y1520000D03*
X2370000Y90000D03*
X2385000Y105000D03*
Y1505000D03*
X2395000Y1520000D03*
X2400000Y90000D03*
X2415000Y105000D03*
Y1505000D03*
X2425000Y1520000D03*
X2445000Y105000D03*
Y1505000D03*
X2455000Y1520000D03*
X2460000Y90000D03*
X2461000Y849000D03*
Y866000D03*
X2475000Y105000D03*
Y1505000D03*
X2485000Y1520000D03*
X2495000Y95000D03*
X2505000Y105000D03*
Y1505000D03*
X2510000Y560000D03*
Y590000D03*
Y620000D03*
Y650000D03*
Y680000D03*
Y710000D03*
Y740000D03*
Y770000D03*
Y800000D03*
Y830000D03*
Y860000D03*
Y890000D03*
Y920000D03*
Y950000D03*
Y980000D03*
Y1010000D03*
Y1040000D03*
Y1070000D03*
Y1100000D03*
X2515000Y1125000D03*
Y1520000D03*
X2520000Y570000D03*
Y600000D03*
Y630000D03*
Y660000D03*
Y690000D03*
Y720000D03*
Y750000D03*
Y780000D03*
Y810000D03*
Y840000D03*
Y870000D03*
Y900000D03*
Y930000D03*
Y960000D03*
Y990000D03*
Y1020000D03*
Y1050000D03*
Y1080000D03*
Y1110000D03*
X2530000Y1125000D03*
Y1145000D03*
X2535000Y105000D03*
Y1505000D03*
X2545000Y1140000D03*
Y1520000D03*
X2550000Y90000D03*
Y1165000D03*
X2565000Y105000D03*
Y1160000D03*
Y1505000D03*
X2570000Y1185000D03*
X2575000Y1520000D03*
X2580000Y90000D03*
X2585000Y865000D03*
Y875000D03*
Y885000D03*
Y895000D03*
Y905000D03*
Y915000D03*
Y925000D03*
Y935000D03*
Y945000D03*
Y955000D03*
Y965000D03*
Y975000D03*
Y985000D03*
Y1035000D03*
Y1045000D03*
Y1055000D03*
Y1065000D03*
Y1075000D03*
Y1085000D03*
Y1095000D03*
Y1105000D03*
Y1115000D03*
Y1125000D03*
X2590000Y1180000D03*
Y1195000D03*
X2595000Y105000D03*
Y865000D03*
Y875000D03*
Y885000D03*
Y895000D03*
Y905000D03*
Y915000D03*
Y925000D03*
Y935000D03*
Y945000D03*
Y955000D03*
Y965000D03*
Y975000D03*
Y985000D03*
Y1505000D03*
X2600000Y1035000D03*
Y1045000D03*
Y1055000D03*
Y1065000D03*
Y1075000D03*
Y1085000D03*
Y1095000D03*
Y1105000D03*
Y1115000D03*
Y1125000D03*
X2605000Y865000D03*
Y875000D03*
Y885000D03*
Y895000D03*
Y905000D03*
Y915000D03*
Y925000D03*
Y935000D03*
Y945000D03*
Y955000D03*
Y965000D03*
Y975000D03*
Y985000D03*
Y1520000D03*
X2610000Y90000D03*
Y1185000D03*
X2615000Y865000D03*
Y875000D03*
Y885000D03*
Y895000D03*
Y905000D03*
Y915000D03*
Y925000D03*
Y935000D03*
Y945000D03*
Y955000D03*
Y965000D03*
Y975000D03*
Y985000D03*
X2620000Y1195000D03*
X2625000Y105000D03*
Y760000D03*
Y770000D03*
Y780000D03*
Y790000D03*
Y800000D03*
Y810000D03*
Y820000D03*
Y830000D03*
Y840000D03*
Y850000D03*
Y860000D03*
Y870000D03*
Y880000D03*
Y895000D03*
Y905000D03*
Y915000D03*
Y925000D03*
Y935000D03*
Y945000D03*
Y955000D03*
Y965000D03*
Y975000D03*
Y985000D03*
Y1505000D03*
X2635000Y760000D03*
Y770000D03*
Y780000D03*
Y790000D03*
Y800000D03*
Y810000D03*
Y820000D03*
Y830000D03*
Y840000D03*
Y850000D03*
Y860000D03*
Y870000D03*
Y880000D03*
Y1515000D03*
X2640000Y90000D03*
Y1185000D03*
X2645000Y760000D03*
Y770000D03*
Y780000D03*
Y790000D03*
Y800000D03*
Y810000D03*
Y820000D03*
Y830000D03*
Y840000D03*
Y850000D03*
Y860000D03*
Y870000D03*
Y880000D03*
X2650000Y1195000D03*
X2655000Y105000D03*
Y760000D03*
Y770000D03*
Y780000D03*
Y790000D03*
Y800000D03*
Y810000D03*
Y820000D03*
Y830000D03*
Y840000D03*
Y850000D03*
Y860000D03*
Y870000D03*
Y880000D03*
Y1505000D03*
X2665000Y1515000D03*
X2670000Y90000D03*
Y1185000D03*
X2680000Y1195000D03*
X2685000Y105000D03*
Y1505000D03*
X2695000Y1520000D03*
X2700000Y90000D03*
Y1185000D03*
X2710000Y1195000D03*
X2715000Y105000D03*
Y1505000D03*
X2725000Y1520000D03*
X2730000Y1185000D03*
X2740000Y1195000D03*
X2745000Y105000D03*
Y1505000D03*
X2755000Y1520000D03*
X2760000Y90000D03*
Y1185000D03*
X2770000Y1195000D03*
X2775000Y105000D03*
Y1505000D03*
X2785000Y1520000D03*
X2790000Y90000D03*
Y1185000D03*
X2800000Y1195000D03*
X2805000Y105000D03*
Y1505000D03*
X2815000Y1520000D03*
X2820000Y90000D03*
Y1185000D03*
X2830000Y1195000D03*
X2835000Y105000D03*
Y1505000D03*
X2845000Y1520000D03*
X2850000Y90000D03*
Y1185000D03*
X2860000Y1195000D03*
X2865000Y105000D03*
Y1505000D03*
X2875000Y1520000D03*
X2880000Y90000D03*
Y1185000D03*
X2890000Y1195000D03*
X2895000Y105000D03*
Y1505000D03*
X2905000Y1520000D03*
X2910000Y90000D03*
Y1185000D03*
X2920000Y1195000D03*
X2925000Y105000D03*
Y1505000D03*
X2935000Y1520000D03*
X2940000Y90000D03*
Y1185000D03*
X2950000Y1195000D03*
X2955000Y105000D03*
Y1505000D03*
X2965000Y1520000D03*
X2970000Y95000D03*
Y1185000D03*
X2980000Y1195000D03*
X2985000Y105000D03*
Y1505000D03*
X2995000Y1520000D03*
X3000000Y95000D03*
Y1185000D03*
X3010000Y1195000D03*
X3015000Y105000D03*
Y1505000D03*
X3025000Y1520000D03*
X3030000Y1185000D03*
X3040000Y1195000D03*
X3045000Y1505000D03*
X3055000Y1515000D03*
X3060000Y1185000D03*
X3070000Y1195000D03*
X3075000Y1505000D03*
X3085000Y1515000D03*
X3090000Y90000D03*
Y1185000D03*
X3100000Y1195000D03*
X3105000Y105000D03*
Y1505000D03*
X3115000Y80000D03*
Y1520000D03*
X3120000Y1185000D03*
X3130000Y1195000D03*
X3135000Y90000D03*
Y1505000D03*
X3140000Y65000D03*
X3145000Y1520000D03*
X3150000Y1185000D03*
X3160000Y35000D03*
Y65000D03*
Y1195000D03*
X3165000Y1505000D03*
X3170000Y301500D03*
Y311500D03*
Y341500D03*
Y352000D03*
X3175000Y1520000D03*
X3180000Y10000D03*
Y35000D03*
Y1185000D03*
X3190000Y1195000D03*
X3195000Y1505000D03*
X3200000Y25000D03*
X3205000Y1520000D03*
X3210000Y10000D03*
Y1185000D03*
X3220000Y1195000D03*
X3225000Y1505000D03*
X3230000Y25000D03*
X3235000Y1520000D03*
X3240000Y10000D03*
Y1185000D03*
X3250000Y1195000D03*
X3255000Y1505000D03*
X3260000Y25000D03*
X3265000Y1520000D03*
X3270000Y10000D03*
Y1185000D03*
X3280000Y1195000D03*
X3285000Y1505000D03*
X3290000Y25000D03*
X3295000Y1520000D03*
X3300000Y10000D03*
Y1185000D03*
X3310000Y1195000D03*
X3315000Y1505000D03*
X3320000Y25000D03*
X3325000Y1520000D03*
X3330000Y10000D03*
Y1185000D03*
X3340000Y335000D03*
Y345000D03*
Y355000D03*
Y1195000D03*
X3345000Y1505000D03*
X3350000Y25000D03*
Y335000D03*
Y345000D03*
Y355000D03*
Y365000D03*
X3355000Y1520000D03*
X3360000Y10000D03*
Y301500D03*
Y311500D03*
Y345000D03*
Y355000D03*
Y365000D03*
Y1185000D03*
X3370000Y345000D03*
Y355000D03*
Y365000D03*
Y1195000D03*
X3375000Y1505000D03*
X3380000Y25000D03*
Y345000D03*
Y355000D03*
Y365000D03*
Y1175000D03*
X3385000Y1520000D03*
X3390000Y10000D03*
Y345000D03*
Y355000D03*
Y365000D03*
Y1160000D03*
Y1190000D03*
X3395000Y915000D03*
Y980000D03*
Y1015000D03*
Y1045000D03*
Y1075000D03*
Y1105000D03*
Y1130000D03*
X3400000Y295000D03*
Y305000D03*
Y315000D03*
Y325000D03*
Y335000D03*
Y345000D03*
Y355000D03*
Y365000D03*
X3405000Y905000D03*
Y935000D03*
Y965000D03*
Y995000D03*
Y1025000D03*
Y1055000D03*
Y1085000D03*
Y1115000D03*
Y1145000D03*
Y1175000D03*
Y1505000D03*
X3410000Y25000D03*
Y60000D03*
Y70000D03*
Y80000D03*
Y90000D03*
Y100000D03*
Y110000D03*
Y120000D03*
Y130000D03*
Y185000D03*
Y195000D03*
Y205000D03*
Y215000D03*
Y225000D03*
Y235000D03*
Y245000D03*
X3415000Y925000D03*
Y1520000D03*
X3420000Y10000D03*
Y185000D03*
Y195000D03*
Y205000D03*
Y215000D03*
Y225000D03*
Y235000D03*
Y245000D03*
X3425000Y905000D03*
X3435000Y1505000D03*
X3440000Y25000D03*
X3445000Y915000D03*
Y1520000D03*
X3450000Y10000D03*
X3455000Y905000D03*
X3465000Y1505000D03*
X3470000Y25000D03*
X3475000Y915000D03*
Y1515000D03*
X3480000Y10000D03*
X3485000Y905000D03*
X3495000Y1505000D03*
X3500000Y25000D03*
Y295000D03*
Y325000D03*
Y350000D03*
Y380000D03*
Y410000D03*
Y435000D03*
X3505000Y915000D03*
Y1515000D03*
X3510000Y10000D03*
Y465000D03*
Y495000D03*
X3515000Y905000D03*
X3520000Y310000D03*
Y335000D03*
Y365000D03*
Y395000D03*
Y425000D03*
X3525000Y1505000D03*
X3530000Y25000D03*
X3535000Y915000D03*
Y1520000D03*
X3540000Y10000D03*
Y320000D03*
Y350000D03*
Y380000D03*
Y410000D03*
X3545000Y495000D03*
X3555000Y335000D03*
Y365000D03*
Y395000D03*
Y425000D03*
Y905000D03*
X3560000Y35000D03*
X3565000Y20000D03*
Y1520000D03*
X3570000Y205000D03*
X3575000Y60000D03*
Y85000D03*
Y115000D03*
Y320000D03*
Y350000D03*
Y380000D03*
Y410000D03*
Y440000D03*
Y495000D03*
Y595000D03*
Y620000D03*
Y645000D03*
Y675000D03*
Y705000D03*
Y735000D03*
Y765000D03*
Y795000D03*
Y825000D03*
Y855000D03*
Y885000D03*
Y915000D03*
Y945000D03*
X3580000Y40000D03*
Y470000D03*
Y975000D03*
Y1005000D03*
Y1035000D03*
Y1065000D03*
Y1095000D03*
Y1125000D03*
Y1155000D03*
Y1185000D03*
Y1215000D03*
Y1245000D03*
Y1275000D03*
Y1305000D03*
Y1335000D03*
Y1365000D03*
Y1395000D03*
Y1425000D03*
X3590000Y70000D03*
Y100000D03*
Y125000D03*
Y150000D03*
Y180000D03*
Y210000D03*
Y240000D03*
Y270000D03*
Y300000D03*
Y330000D03*
Y360000D03*
Y390000D03*
Y420000D03*
Y450000D03*
Y480000D03*
Y515000D03*
Y540000D03*
Y565000D03*
Y590000D03*
Y615000D03*
Y640000D03*
Y670000D03*
Y700000D03*
Y730000D03*
Y760000D03*
Y790000D03*
Y820000D03*
Y850000D03*
Y880000D03*
Y910000D03*
Y940000D03*
Y970000D03*
Y1000000D03*
Y1030000D03*
Y1060000D03*
Y1090000D03*
Y1120000D03*
Y1150000D03*
Y1180000D03*
Y1210000D03*
Y1230000D03*
Y1260000D03*
Y1290000D03*
Y1320000D03*
Y1350000D03*
Y1380000D03*
Y1410000D03*
Y1440000D03*
Y1505000D03*
G54D21*
X3135000Y270000D03*
Y290000D03*
Y310000D03*
Y330000D03*
Y350000D03*
Y370000D03*
X3150000Y270000D03*
Y290000D03*
Y310000D03*
Y330000D03*
Y350000D03*
Y370000D03*
X3165000D03*
X3180000D03*
G54D22*
X40000Y1474500D03*
X55000Y748500D03*
X75000Y302500D03*
X460000Y602500D03*
X900000Y148500D03*
X910000Y1474500D03*
X1610000Y563500D03*
X1665000Y148500D03*
X1672000Y1474453D03*
X2235000Y1474500D03*
X2515000Y148500D03*
X2525000Y502500D03*
X2605000Y687500D03*
X3054000Y133500D03*
X3115000Y1474500D03*
X3545000Y160000D03*
Y260000D03*
Y556500D03*
X3560000Y1474500D03*
G54D23*
X40000D03*
X55000Y748500D03*
X75000Y302500D03*
X900000Y148500D03*
X910000Y1474500D03*
X1665000Y148500D03*
X1672000Y1474453D03*
X2235000Y1474500D03*
X2515000Y148500D03*
X2525000Y502500D03*
X3054000Y133500D03*
X3115000Y1474500D03*
X3545000Y160000D03*
Y260000D03*
Y556500D03*
X3560000Y1474500D03*
G54D24*
X165000Y405000D03*
X215000D03*
X295000Y290000D03*
X320000Y1215000D03*
Y1265000D03*
Y1345000D03*
Y1395000D03*
X345000Y290000D03*
X425000Y200000D03*
X475000D03*
X1620000Y265000D03*
Y315000D03*
Y395000D03*
Y445000D03*
X2320000Y1330000D03*
Y1380000D03*
X3030000Y1330000D03*
Y1380000D03*
G54D25*
X3185000Y530000D03*
Y625000D03*
X3335000Y530000D03*
Y625000D03*
G54D26*
X3185000Y530000D03*
Y625000D03*
X3335000Y530000D03*
Y625000D03*
G54D27*
X130000Y992000D03*
Y1365200D03*
X3500000Y992000D03*
Y1365200D03*
G54D28*
X100000Y1012500D03*
Y1037900D03*
Y1063300D03*
X102000Y1161700D03*
Y1251700D03*
Y1281700D03*
X114000Y1146700D03*
Y1236700D03*
Y1266700D03*
X120000Y1012500D03*
Y1037900D03*
Y1063300D03*
X126000Y1161700D03*
Y1251700D03*
Y1281700D03*
X138000Y1146700D03*
Y1236700D03*
Y1266700D03*
X140000Y1012500D03*
Y1037900D03*
Y1063300D03*
X3470000Y1012500D03*
Y1063300D03*
Y1088700D03*
X3472000Y1251700D03*
Y1281700D03*
X3484000Y1236700D03*
Y1266700D03*
X3490000Y1012500D03*
Y1037900D03*
X3496000Y1251700D03*
Y1281700D03*
X3508000Y1236700D03*
Y1266700D03*
X3510000Y1063300D03*
Y1088700D03*
G54D29*
X2885000Y905000D03*
X3095000D03*
G54D30*
X3320000Y94500D03*
Y214500D03*
G54D31*
X3256250Y69100D03*
Y94500D03*
Y119900D03*
Y189100D03*
Y214500D03*
Y239900D03*
X3383750Y69100D03*
Y94500D03*
Y119900D03*
Y189100D03*
Y214500D03*
Y239900D03*
G54D32*
X3256250Y69100D03*
Y94500D03*
Y119900D03*
Y189100D03*
Y214500D03*
Y239900D03*
X3383750Y69100D03*
Y94500D03*
Y119900D03*
Y189100D03*
Y214500D03*
Y239900D03*
G54D33*
X2126000Y350000D03*
X2166000Y480000D03*
X2246000D03*
X2286000Y350000D03*
X2740000Y250000D03*
X2780000Y380000D03*
X2860000D03*
X2900000Y250000D03*
G54D34*
X2126000Y350000D03*
X2166000Y480000D03*
X2246000D03*
X2286000Y350000D03*
X2740000Y250000D03*
X2780000Y380000D03*
X2860000D03*
X2900000Y250000D03*
G54D70*
X905000Y990000D02*
X840000D01*
X835000Y985000*
X911257Y1112208D02*
X720704D01*
X657506Y1049010*
X574010*
X570000Y1045000*
X1011000Y989000D02*
X1048000D01*
X1070000Y1011000*
Y1030000*
X1320000Y990000D02*
X1260000D01*
X1250000Y980000*
X1510000Y1040000D02*
X1462000Y992000D01*
X1425000*
G54D71*
X140000Y1012500D02*
X120000D01*
X380000Y880000D02*
X388000Y872000D01*
X469399*
X486835Y889436*
X526839*
X569853Y932450*
Y953800*
X590728Y974675*
X604675*
X610000Y980000*
X440000Y880000D02*
X449090D01*
X483090Y914000*
X504000*
X475000Y985000D02*
X509920Y950080D01*
Y909773*
X505147Y905000*
X500000*
X565000Y280000D02*
X565097Y280097D01*
Y693157*
X495312Y762942*
Y874688*
X490000Y880000*
X575000Y1005000D02*
X573266Y1003266D01*
X561734*
X560000Y1005000*
X586000Y915000D02*
X595000Y906000D01*
Y802000*
X632000Y765000*
Y558000*
X608000Y534000*
X605000*
X590000Y895000D02*
Y784000D01*
X605000Y769000*
Y554000*
X590000Y945000D02*
X603811Y958811D01*
X674711*
X692900Y977000*
X605000Y469000D02*
Y534000D01*
Y554000D02*
X596000Y545000D01*
Y458000*
X605000Y449000*
X622000Y1086000D02*
X591113D01*
X564428Y1059314*
Y1036978*
X575000Y1026405*
Y1005000*
X645000Y1110000D02*
X608064D01*
X559801Y1061736*
Y1031327*
X570000Y1021128*
Y1010000*
X685000Y275000D02*
X653000Y243000D01*
X557000*
X275362Y524638*
Y932638*
X195500Y1012500*
X140000*
X695000Y1020000D02*
Y1018889D01*
X646334Y970223*
X592595*
X574241Y951868*
Y899241*
X570000Y895000*
X710000Y1020000D02*
Y1018752D01*
X656447Y965198*
X594706*
X580000Y950492*
Y895000*
X755000Y980000D02*
X737824Y962824D01*
X699040*
X651215Y915000*
X610000*
X755000Y980000D02*
Y869753D01*
X831753Y793000*
X1118000*
X1156000Y831000*
Y983000*
X1165000Y992000*
Y1005000*
X765000Y980000D02*
Y873113D01*
X838113Y800000*
X1111000*
X1151000Y840000*
Y986000*
X1160000Y995000*
X765000Y980000D02*
X759743Y985257D01*
X750154*
X733617Y968719*
X698683*
X649964Y920000*
X615000*
X1135000Y885000D02*
Y838000D01*
X1103000Y806000*
X840388*
X770031Y876358*
Y982092*
X721123Y1031000*
X600000*
X1165000Y1005000D02*
X1171000D01*
X1177000Y999000*
Y988000*
X1205000Y960000*
Y826000*
X1238000Y793000*
X1507000*
X1563000Y849000*
Y909718*
X1605000Y951718*
Y1015000*
X1570000Y910000D02*
X1579779D01*
X1596000Y893779*
Y841000*
X1519000Y764000*
X821650*
X675717Y909934*
X604623*
X584520Y930036*
Y946882*
X599718Y962079*
X668726*
X719112Y1012465*
Y1020073*
X713923Y1025263*
X594737*
X580000Y1040000*
X1595000Y990000D02*
Y955399D01*
X1549000Y909399*
Y846000*
X1504000Y801000*
X1242000*
X1210000Y833000*
Y961000*
X1183000Y988000*
Y1000000*
X1173000Y1010000*
X1163000*
X1160000Y1007000*
Y995000*
X1850000Y735000D02*
X1834000Y719000D01*
Y693000*
X1810000Y669000*
X1583000*
X1547463Y633463*
Y535537*
X1566000Y517000*
Y372000*
X1403000Y209000*
X985000*
X936000Y258000*
X719000*
X702000Y275000*
X685000*
X2194750Y889750D02*
X2126000Y821000D01*
X1936000*
X1850000Y735000*
X2194750Y889750D02*
X2199750D01*
X2200000Y890000*
X2277124Y1301000D02*
X819188D01*
X793308Y1275121*
X499121*
X418000Y1194000*
Y985985*
X448078Y955907*
X455844*
X475197Y936554*
Y922089*
X468108Y915000*
X455000*
X2277124Y1301000D02*
X2425041Y1153083D01*
Y884983*
X2429423Y880601*
X2461000Y849000D02*
X2488231Y876231D01*
Y1212556*
X2522018Y1246343*
X3385527*
X3438052Y1193817*
Y1095248*
X3470000Y1063300*
X2461000Y849000D02*
Y849024D01*
X2429423Y880601*
X2461000Y866000D02*
X2463299D01*
X2478994Y881694*
Y1220521*
X2514366Y1255894*
X3394379*
X3449335Y1200938*
X3449478Y1200795*
X3449621Y1200652*
X3449764Y1200509*
X3449906Y1200366*
X3450049Y1200224*
X3450478Y1199795*
Y1108222*
X3470000Y1088700*
X2461000Y866000D02*
X2440250Y886750D01*
Y898470*
X2434521Y904199*
Y1156757*
X2283278Y1308000*
X816960*
X788755Y1279795*
X486795*
X408000Y1201000*
Y987000*
X455000Y940000*
X3470000Y1088700D02*
X3481700Y1077000D01*
X3499000*
X3510000Y1088000*
Y1088700*
Y1063300D02*
X3499700Y1053000D01*
X3480300*
X3470000Y1063300*
G54D72*
X2885000Y905000D03*
X3095000D03*
G54D73*
X3320000Y94500D03*
Y214500D03*
G04 *
M02*
