*
G04 Job   : V:\2023\17_KDDI_3.7G_4.0G_32T32R_200W_PWR_PP3235-77A\PCS01B\06_Working\PCB\PP3235-77A.pcb*
G04 User  : JIAXIN-ZHANG01:jiaxin.zhang*
G04 Layer : L06_SOLD.gdo*
G04 Date  : Tue Jan 09 13:22:44 2024*
G04 *
%ICAS*%
%MOMM*%
%FSLAX34Y34*%
%OFA0.0000B0.0000*%
G90*
G74*
%AMVB_RECTANGLE*
21,1,$1,$2,0,0,$3*
%
%ADD14C,0.20000*%
%ADD17C,0.25000*%
%ADD73C,0.30000*%
%ADD19C,0.35000*%
%ADD18C,0.40000*%
%ADD16C,0.45000*%
%ADD15C,0.50000*%
%ADD70C,0.60000*%
%ADD13C,0.70000*%
%ADD12C,0.80000*%
%ADD24C,1.00000*%
%ADD71C,1.10000*%
%ADD25C,1.20000*%
%ADD38C,1.30000*%
%ADD10C,1.50000*%
%ADD26C,1.70000*%
%ADD43C,1.71000*%
%ADD11C,2.00000*%
%ADD37C,2.10000*%
%ADD44C,2.34000*%
%ADD21C,3.80000*%
%ADD41C,4.50000*%
%ADD22C,7.50000*%
%ADD42C,8.50000*%
%ADD39O,1.41000X12.11000*%
%ADD40O,2.61000X13.31000*%
%ADD45O,5.25000X2.25000*%
%ADD46O,6.45000X3.45000*%
%ADD29VB_RECTANGLE,0.41000X0.55000X180.00000*%
%ADD48VB_RECTANGLE,0.60000X0.50000X0.00000*%
%ADD31VB_RECTANGLE,0.70000X0.90000X180.00000*%
%ADD32VB_RECTANGLE,0.70000X0.90000X270.00000*%
%ADD50VB_RECTANGLE,0.70000X1.70000X0.00000*%
%ADD72VB_RECTANGLE,0.80000X1.60000X270.00000*%
%ADD28VB_RECTANGLE,0.90000X1.80000X270.00000*%
%ADD33VB_RECTANGLE,0.90000X4.30000X180.00000*%
%ADD49VB_RECTANGLE,0.94000X1.70000X0.00000*%
%ADD30VB_RECTANGLE,1.20000X2.21000X0.00000*%
%ADD35VB_RECTANGLE,1.20000X6.00000X180.00000*%
%ADD27VB_RECTANGLE,1.40000X5.21000X90.00000*%
%ADD47VB_RECTANGLE,1.90000X3.30000X90.00000*%
%ADD51VB_RECTANGLE,1.93000X2.28000X90.00000*%
%ADD20VB_RECTANGLE,2.00000X1.20000X270.00000*%
%ADD23VB_RECTANGLE,2.10000X2.30000X270.00000*%
%ADD36VB_RECTANGLE,3.00000X6.00000X180.00000*%
%ADD34VB_RECTANGLE,3.62000X3.18000X90.00000*%
G01*
G36*
X5000Y173500D02*
G02X10000Y178500I5000D01*
G01X55000*
G02X85000Y148500J30000*
G01Y120000*
G03X145000Y60000I60000*
G01X1372500*
Y20000*
X1427500*
Y40000*
X1372500*
Y60000*
X3090207*
G03X3090220I1J5000*
G02X3090246I26J10000*
X3094718Y58944J10000*
X3141505Y9833I44718J89444*
G03X3143957Y5000I45753J20167*
X3143947J5000*
G01X30000*
G02X5000Y30000J25000*
G01Y173500*
Y1500000D02*
G02X30000Y1525000I25000D01*
G01Y397500*
G03X60000Y367500I30000*
G01X110000*
G02X140000Y337500J30000*
G01Y180000*
G03X210000Y110000I70000*
G01X805381*
G03X835381Y140000J30000*
X835261Y142684I30000*
G02X835000Y148500I64739J5816*
X900000Y213500I65000*
X965000Y148500J65000*
X964739Y142684I65000*
G03X964619Y140000I29880J2684*
X994619Y110000I30000*
G01X1332500*
Y147000*
G02X1333000Y147500I500*
G01X1600007*
X1600008*
X1600007Y147502*
G02X1600000Y148500I64993J998*
X1665000Y213500I65000*
X1730000Y148500J65000*
X1729739Y142684I65000*
G03X1729619Y140000I29880J2684*
X1759619Y110000I30000*
G01X2013798*
G03X2038671Y123227J30000*
G02X2105000Y158500I66329J44727*
X2171328Y123227J80000*
G03X2196202Y110000I24874J16773*
G01X2420381*
G03X2450381Y140000J30000*
X2450261Y142684I30000*
G02X2450000Y148500I64739J5816*
X2515000Y213500I65000*
X2580000Y148500J65000*
X2579739Y142684I65000*
G03X2579619Y140000I29880J2684*
X2609619Y110000I30000*
G01X2961729*
G03X2991654Y137892J30000*
G02X3033847Y192662I62346J4392*
G03X3074500Y249457I19347J56795*
G01Y381000*
G02X3104500Y432962I60000*
G01Y145539*
G03X3131786Y95242I60000*
G02X3179662Y44917I81786J125742*
G03X3205595Y30000I25933J15083*
G01X3530000*
G03X3570000Y70000J40000*
G01Y80156*
G03X3541875Y110098I30000*
G02X3495000Y160000I3125J49902*
G01Y260000*
G02X3495251Y265000I50000*
G01X3460207*
G02X3459854Y265146J500*
G01X3437646Y287354*
G02X3437500Y287707I354J353*
G01Y411000*
X3134500*
G03X3104500Y381000J30000*
G01Y432962*
G02X3134500Y441000I30000J51962*
G01X3400000*
G03X3430000Y471000J30000*
G01Y884245*
G03X3410000Y912530I30000*
G02X3390000Y940814I10000J28284*
G01Y1136250*
G03X3360000Y1166250I30000*
G01X2600319*
G03X2587944Y1161124J17500*
G01X2542626Y1115806*
G03X2537500Y1103431I12374J12375*
G01Y732846*
G03X2555000Y715346I17500*
X2567963Y721090J17500*
G02X2605000Y737500I37037J33590*
X2655000Y687500J50000*
X2605000Y637500I50000*
X2567963Y653910J50000*
G03X2555000Y659654I12963J11756*
X2537500Y642154J17500*
G01Y562967*
G03X2547222Y547290I17500*
G02X2575000Y502500I22222J44790*
X2525000Y452500I50000*
X2475000Y502500J50000*
X2487963Y536090I50000*
G03X2492500Y547846I12963J11756*
G01Y1111716*
G02X2504948Y1141768I42500*
G01X2561982Y1198802*
G02X2592034Y1211250I30052J30052*
G01X3360000*
G03X3390000Y1241250J30000*
G01Y1470000*
G03X3360000Y1500000I30000*
G01X3182350*
G03X3152417Y1472000J30000*
G02X3115000Y1437000I37417J2500*
X3077583Y1472000J37500*
G03X3047650Y1500000I29933J2000*
G01X2302350*
G03X2272417Y1472000J30000*
G02X2235000Y1437000I37417J2500*
X2197583Y1472000J37500*
G03X2167650Y1500000I29933J2000*
G01X1739350*
G03X1709417Y1472001J30000*
G01Y1472000*
G02X1672000Y1436993I37417J2492*
X1634583Y1472000J37499*
G01Y1472001*
G03X1604650Y1500000I29933J2001*
G01X977350*
G03X947417Y1472001J30000*
G01Y1471999*
G02X910000Y1437102I37417J2610*
X872583Y1471999J37507*
G01Y1472001*
G03X842650Y1500000I29933J2001*
G01X265000*
G03X235000Y1470000J30000*
G01Y927500*
G02X205000Y897500I30000*
G01X135000*
G03X105000Y867500J30000*
G01Y748500*
G02X58125Y698598I50000*
G03X30000Y668656I1875J29942*
G01Y1525000*
X31500*
Y848500*
G03X55000Y825000I23500*
X78500Y848500J23500*
X55000Y872000I23500*
X31500Y848500J23500*
G01Y1525000*
X40000*
Y957500*
G03X70000Y927500I30000*
G01X185000*
G03X215000Y957500J30000*
G01Y1397500*
G03X185000Y1427500I30000*
G01X70000*
G03X40000Y1397500J30000*
G01Y1525000*
X3410000*
Y962500*
G03X3440000Y932500I30000*
G01X3516530*
Y462051*
G03X3537440Y438694I23500*
G01X3547379Y437592*
G03X3549970Y437449I2591J23357*
X3573470Y460949J23500*
X3552560Y484306I23500*
G01X3542621Y485408*
G03X3540030Y485551I2591J23357*
X3516530Y462051J23500*
G01Y932500*
X3530000*
G03X3560000Y962500J30000*
G01Y1392500*
G03X3530000Y1422500I30000*
G01X3440000*
G03X3410000Y1392500J30000*
G01Y1525000*
X3570000*
G02X3595000Y1500000J25000*
G01Y70000*
G02X3530000Y5000I65000*
G01X3187258*
G02X3164382Y19917J25000*
G03X3105897Y81306I114382J50417*
X3090246Y85000I15651J31306*
X3090155J35000*
G02X3089998I157J60000*
X3076666Y86500J60000*
G03X3050000Y89500I26666J117000*
X3023336Y86500J120000*
G01X3023334*
G02X3010003Y85000I13331J58500*
G01X2539997*
G02X2526665Y86500J60000*
G01X2526663*
G03X2500000Y89500I26663J117000*
X2473337Y86500J120000*
G01X2473335*
G02X2460003Y85000I13332J58500*
G01X2196202*
G02X2150603Y109247J55000*
G01X2150600Y109251*
G03X2105000Y133500I45600J30751*
X2059399Y109251J55000*
G01X2059398Y109248*
G02X2013798Y85000I45600J30752*
G01X1739997*
G02X1726665Y86500J60000*
G01X1726663*
G03X1700000Y89500I26663J117000*
X1673337Y86500J120000*
G01X1673335*
G02X1660003Y85000I13332J58500*
G01X939997*
G02X926665Y86500J60000*
G01X926663*
G03X900000Y89500I26663J117000*
X873337Y86500J120000*
G01X873335*
G02X860003Y85000I13332J58500*
G01X145000*
G02X110000Y120000J35000*
G01Y148500*
G03X55000Y203500I55000*
G01X30000*
G02X5000Y228500J25000*
G01Y1500000*
X73000Y1386700D02*
X68000Y1384200D01*
Y1389200*
X73000Y1386700*
X92000Y669793D02*
G02X92146Y670146I500D01*
G01X143854Y721854*
G02X144207Y722000I353J354*
G01X155000*
Y405000*
G03X165000Y395000I10000*
X175000Y405000J10000*
X165000Y415000I10000*
X155000Y405000J10000*
G01Y722000*
X200500*
Y405000*
G03X215000Y390500I14500*
X229500Y405000J14500*
X215000Y419500I14500*
X200500Y405000J14500*
G01Y722000*
X225793*
G02X226146Y721854J500*
G01X285000Y663000*
Y290000*
G03X295000Y280000I10000*
X305000Y290000J10000*
X295000Y300000I10000*
X285000Y290000J10000*
G01Y663000*
X330500Y617500*
Y290000*
G03X345000Y275500I14500*
X359500Y290000J14500*
X345000Y304500I14500*
X330500Y290000J14500*
G01Y617500*
X415000Y533000*
Y200000*
G03X425000Y190000I10000*
X435000Y200000J10000*
X425000Y210000I10000*
X415000Y200000J10000*
G01Y533000*
X460500Y487500*
Y200000*
G03X475000Y185500I14500*
X489500Y200000J14500*
X475000Y214500I14500*
X460500Y200000J14500*
G01Y487500*
X474854Y473146*
G02X475000Y472793I354J353*
G01Y255500*
X508000Y222500*
X725000*
X782354Y279854*
G02X782707Y280000I353J354*
G01X959293*
G02X959646Y279854J500*
G01X1005500Y234000*
X1257000*
X1269354Y246354*
G02X1269707Y246500I353J354*
G01X1320500*
X1323975Y249975*
G02X1324026Y250020I354J353*
G03X1324536Y250464I3026J3980*
G01X1357925Y283854*
G02X1358278Y284000I353J354*
G01X1456000*
X1572500Y400500*
Y429793*
G02X1572646Y430146I500*
G01X1579854Y437354*
G02X1580207Y437500I353J354*
G01X1605500*
Y265000*
G03X1620000Y250500I14500*
X1634500Y265000J14500*
X1620000Y279500I14500*
X1605500Y265000J14500*
G01Y395000*
G03X1610000Y384500I14500*
G01Y315000*
G03X1620000Y305000I10000*
X1630000Y315000J10000*
X1620000Y325000I10000*
X1610000Y315000J10000*
G01Y384500*
G03X1620000Y380500I10000J10500*
X1634500Y395000J14500*
X1620000Y409500I14500*
X1605500Y395000J14500*
G01Y437500*
X1613199*
G02X1613523Y437381J500*
G03X1620000Y435000I6477J7619*
X1626477Y437381J10000*
G02X1626801Y437500I324J381*
G01X1797500*
X1874854Y514854*
G02X1875207Y515000I353J354*
G01X1979293*
G02X1979646Y514854J500*
G01X1989854Y504646*
G02X1990000Y504293I354J353*
G01Y417707*
G02X1989854Y417354I500*
G01X1852646Y280146*
G02X1852293Y280000I353J354*
G01X1680000*
X1611146Y211146*
G02X1610793Y211000I353J354*
G01X1335500*
X1279646Y155146*
G02X1279293Y155000I353J354*
G01X997707*
G02X997354Y155146J500*
G01X974343Y178157*
G02X974233Y178324I354J353*
G03X900000Y228500I74233J29824*
X822254Y167358J80000*
G02X822122Y167122I486J118*
G01X785146Y130146*
G02X784793Y130000I353J354*
G01X370207*
G02X369854Y130146J500*
G01X169646Y330354*
G02X169500Y330707I354J353*
G01Y342500*
X92146Y419854*
G02X92000Y420207I354J353*
G01Y669793*
X217650Y168650D02*
X230350D01*
Y181350*
X217650*
Y168650*
X272500Y1460793D02*
G02X272646Y1461146I500D01*
G01X298854Y1487354*
G02X299207Y1487500I353J354*
G01X305500*
Y1395000*
G03X310000Y1384500I14500*
G01Y1345000*
G03X320000Y1335000I10000*
X330000Y1345000J10000*
X320000Y1355000I10000*
X310000Y1345000J10000*
G01Y1384500*
G03X320000Y1380500I10000J10500*
X334500Y1395000J14500*
X320000Y1409500I14500*
X305500Y1395000J14500*
G01Y1487500*
X852203*
G02X852448Y1487436J500*
X862606Y1471334I9798J17436*
G01X862608Y1471304*
G03X910000Y1427102I47392J3305*
X957392Y1471304J47507*
G01X957394Y1471334*
G02X967552Y1487436I19956J1334*
X967797Y1487500I245J436*
G01X979500*
Y1435000*
G03X985000Y1429500I5500*
X990500Y1435000J5500*
X985000Y1440500I5500*
X979500Y1435000J5500*
G01Y1487500*
X994500*
Y1435000*
G03X1000000Y1429500I5500*
X1005500Y1435000J5500*
X1000000Y1440500I5500*
X994500Y1435000J5500*
G01Y1487500*
X1009500*
Y1435000*
G03X1015000Y1429500I5500*
X1020500Y1435000J5500*
X1015000Y1440500I5500*
X1009500Y1435000J5500*
G01Y1487500*
X1024500*
Y1435000*
G03X1030000Y1429500I5500*
X1035500Y1435000J5500*
X1030000Y1440500I5500*
X1024500Y1435000J5500*
G01Y1487500*
X1039500*
Y1435000*
G03X1045000Y1429500I5500*
X1050500Y1435000J5500*
X1045000Y1440500I5500*
X1039500Y1435000J5500*
G01Y1487500*
X1054500*
Y1435000*
G03X1060000Y1429500I5500*
X1065500Y1435000J5500*
X1060000Y1440500I5500*
X1054500Y1435000J5500*
G01Y1487500*
X1069500*
Y1375000*
Y1374969*
G02Y1374960I500*
G01Y1365040*
G02Y1365031I500J9*
G01Y1365000*
Y1364969*
G02Y1364960I500*
G01Y1355040*
G02Y1355031I500J9*
G01Y1355000*
Y1354969*
G02Y1354960I500*
G01Y1345040*
G02Y1345031I500J9*
G01Y1345000*
Y1344969*
G02Y1344960I500*
G01Y1335040*
G02Y1335031I500J9*
G01Y1335000*
G03X1075000Y1329500I5500*
X1080500Y1335000J5500*
G01Y1335031*
G02Y1335040I500*
G01Y1344960*
G02Y1344969I500J9*
G01Y1345000*
Y1345031*
G02Y1345040I500*
G01Y1354960*
G02Y1354969I500J9*
G01Y1355000*
Y1355031*
G02Y1355040I500*
G01Y1364960*
G02Y1364969I500J9*
G01Y1365000*
Y1365031*
G02Y1365040I500*
G01Y1374960*
G02Y1374969I500J9*
G01Y1375000*
G03X1075000Y1380500I5500*
X1069500Y1375000J5500*
G01Y1435000*
G03X1075000Y1429500I5500*
X1080500Y1435000J5500*
X1075000Y1440500I5500*
X1069500Y1435000J5500*
G01Y1487500*
X1084500*
Y1375000*
Y1374969*
G02Y1374960I500*
G01Y1365040*
G02Y1365031I500J9*
G01Y1365000*
Y1364969*
G02Y1364960I500*
G01Y1355040*
G02Y1355031I500J9*
G01Y1355000*
Y1354969*
G02Y1354960I500*
G01Y1345040*
G02Y1345031I500J9*
G01Y1345000*
Y1344969*
G02Y1344960I500*
G01Y1335040*
G02Y1335031I500J9*
G01Y1335000*
G03X1090000Y1329500I5500*
X1095500Y1335000J5500*
G01Y1335031*
G02Y1335040I500*
G01Y1344960*
G02Y1344969I500J9*
G01Y1345000*
Y1345031*
G02Y1345040I500*
G01Y1354960*
G02Y1354969I500J9*
G01Y1355000*
Y1355031*
G02Y1355040I500*
G01Y1364960*
G02Y1364969I500J9*
G01Y1365000*
Y1365031*
G02Y1365040I500*
G01Y1374960*
G02Y1374969I500J9*
G01Y1375000*
G03X1090000Y1380500I5500*
X1084500Y1375000J5500*
G01Y1435000*
G03X1090000Y1429500I5500*
X1095500Y1435000J5500*
X1090000Y1440500I5500*
X1084500Y1435000J5500*
G01Y1487500*
X1099500*
Y1375000*
Y1374969*
G02Y1374960I500*
G01Y1365040*
G02Y1365031I500J9*
G01Y1365000*
Y1364969*
G02Y1364960I500*
G01Y1355040*
G02Y1355031I500J9*
G01Y1355000*
Y1354969*
G02Y1354960I500*
G01Y1345040*
G02Y1345031I500J9*
G01Y1345000*
Y1344969*
G02Y1344960I500*
G01Y1335040*
G02Y1335031I500J9*
G01Y1335000*
G03X1105000Y1329500I5500*
X1110500Y1335000J5500*
G01Y1335031*
G02Y1335040I500*
G01Y1344960*
G02Y1344969I500J9*
G01Y1345000*
Y1345031*
G02Y1345040I500*
G01Y1354960*
G02Y1354969I500J9*
G01Y1355000*
Y1355031*
G02Y1355040I500*
G01Y1364960*
G02Y1364969I500J9*
G01Y1365000*
Y1365031*
G02Y1365040I500*
G01Y1374960*
G02Y1374969I500J9*
G01Y1375000*
G03X1105000Y1380500I5500*
X1099500Y1375000J5500*
G01Y1435000*
G03X1105000Y1429500I5500*
X1110500Y1435000J5500*
X1105000Y1440500I5500*
X1099500Y1435000J5500*
G01Y1487500*
X1114500*
Y1375000*
Y1374969*
G02Y1374960I500*
G01Y1365040*
G02Y1365031I500J9*
G01Y1365000*
Y1364969*
G02Y1364960I500*
G01Y1355040*
G02Y1355031I500J9*
G01Y1355000*
Y1354969*
G02Y1354960I500*
G01Y1345040*
G02Y1345031I500J9*
G01Y1345000*
Y1344969*
G02Y1344960I500*
G01Y1335040*
G02Y1335031I500J9*
G01Y1335000*
G03X1120000Y1329500I5500*
X1125500Y1335000J5500*
G01Y1335031*
G02Y1335040I500*
G01Y1344960*
G02Y1344969I500J9*
G01Y1345000*
Y1345031*
G02Y1345040I500*
G01Y1354960*
G02Y1354969I500J9*
G01Y1355000*
Y1355031*
G02Y1355040I500*
G01Y1364960*
G02Y1364969I500J9*
G01Y1365000*
Y1365031*
G02Y1365040I500*
G01Y1374960*
G02Y1374969I500J9*
G01Y1375000*
G03X1120000Y1380500I5500*
X1114500Y1375000J5500*
G01Y1435000*
G03X1120000Y1429500I5500*
X1125500Y1435000J5500*
X1120000Y1440500I5500*
X1114500Y1435000J5500*
G01Y1487500*
X1129500*
Y1375000*
Y1374969*
G02Y1374960I500*
G01Y1365040*
G02Y1365031I500J9*
G01Y1365000*
Y1364969*
G02Y1364960I500*
G01Y1355040*
G02Y1355031I500J9*
G01Y1355000*
Y1354969*
G02Y1354960I500*
G01Y1345040*
G02Y1345031I500J9*
G01Y1345000*
Y1344969*
G02Y1344960I500*
G01Y1335040*
G02Y1335031I500J9*
G01Y1335000*
G03X1135000Y1329500I5500*
X1140500Y1335000J5500*
G01Y1335031*
G02Y1335040I500*
G01Y1344960*
G02Y1344969I500J9*
G01Y1345000*
Y1345031*
G02Y1345040I500*
G01Y1354960*
G02Y1354969I500J9*
G01Y1355000*
Y1355031*
G02Y1355040I500*
G01Y1364960*
G02Y1364969I500J9*
G01Y1365000*
Y1365031*
G02Y1365040I500*
G01Y1374960*
G02Y1374969I500J9*
G01Y1375000*
G03X1135000Y1380500I5500*
X1129500Y1375000J5500*
G01Y1435000*
G03X1135000Y1429500I5500*
X1140500Y1435000J5500*
X1135000Y1440500I5500*
X1129500Y1435000J5500*
G01Y1487500*
X1144500*
Y1435000*
G03X1150000Y1429500I5500*
X1155500Y1435000J5500*
X1150000Y1440500I5500*
X1144500Y1435000J5500*
G01Y1487500*
X1159500*
Y1435000*
G03X1165000Y1429500I5500*
X1170500Y1435000J5500*
X1165000Y1440500I5500*
X1159500Y1435000J5500*
G01Y1487500*
X1174500*
Y1435000*
G03X1180000Y1429500I5500*
X1185500Y1435000J5500*
X1180000Y1440500I5500*
X1174500Y1435000J5500*
G01Y1487500*
X1189500*
Y1435000*
G03X1195000Y1429500I5500*
X1199500Y1431838J5500*
G01Y1375000*
Y1374969*
G02Y1374960I500*
G01Y1365040*
G02Y1365031I500J9*
G01Y1365000*
Y1364969*
G02Y1364960I500*
G01Y1355040*
G02Y1355031I500J9*
G01Y1355000*
Y1354969*
G02Y1354960I500*
G01Y1345040*
G02Y1345031I500J9*
G01Y1345000*
Y1344969*
G02Y1344960I500*
G01Y1335040*
G02Y1335031I500J9*
G01Y1335000*
G03X1205000Y1329500I5500*
X1210500Y1335000J5500*
G01Y1335031*
G02Y1335040I500*
G01Y1344960*
G02Y1344969I500J9*
G01Y1345000*
Y1345031*
G02Y1345040I500*
G01Y1354960*
G02Y1354969I500J9*
G01Y1355000*
Y1355031*
G02Y1355040I500*
G01Y1364960*
G02Y1364969I500J9*
G01Y1365000*
Y1365031*
G02Y1365040I500*
G01Y1374960*
G02Y1374969I500J9*
G01Y1375000*
G03X1205000Y1380500I5500*
X1199500Y1375000J5500*
G01Y1431838*
G03X1200500Y1435000I4500J3162*
X1195000Y1440500I5500*
X1189500Y1435000J5500*
G01Y1487500*
X1204500*
Y1435000*
G03X1210000Y1429500I5500*
X1214500Y1431838J5500*
G01Y1375000*
Y1374969*
G02Y1374960I500*
G01Y1365040*
G02Y1365031I500J9*
G01Y1365000*
Y1364969*
G02Y1364960I500*
G01Y1355040*
G02Y1355031I500J9*
G01Y1355000*
Y1354969*
G02Y1354960I500*
G01Y1345040*
G02Y1345031I500J9*
G01Y1345000*
Y1344969*
G02Y1344960I500*
G01Y1335040*
G02Y1335031I500J9*
G01Y1335000*
G03X1220000Y1329500I5500*
X1225500Y1335000J5500*
G01Y1335031*
G02Y1335040I500*
G01Y1344960*
G02Y1344969I500J9*
G01Y1345000*
Y1345031*
G02Y1345040I500*
G01Y1354960*
G02Y1354969I500J9*
G01Y1355000*
Y1355031*
G02Y1355040I500*
G01Y1364960*
G02Y1364969I500J9*
G01Y1365000*
Y1365031*
G02Y1365040I500*
G01Y1374960*
G02Y1374969I500J9*
G01Y1375000*
G03X1220000Y1380500I5500*
X1214500Y1375000J5500*
G01Y1431838*
G03X1215500Y1435000I4500J3162*
X1210000Y1440500I5500*
X1204500Y1435000J5500*
G01Y1487500*
X1219500*
Y1435000*
G03X1225000Y1429500I5500*
X1229500Y1431838J5500*
G01Y1375000*
Y1374969*
G02Y1374960I500*
G01Y1365040*
G02Y1365031I500J9*
G01Y1365000*
Y1364969*
G02Y1364960I500*
G01Y1355040*
G02Y1355031I500J9*
G01Y1355000*
Y1354969*
G02Y1354960I500*
G01Y1345040*
G02Y1345031I500J9*
G01Y1345000*
Y1344969*
G02Y1344960I500*
G01Y1335040*
G02Y1335031I500J9*
G01Y1335000*
G03X1235000Y1329500I5500*
X1240500Y1335000J5500*
G01Y1335031*
G02Y1335040I500*
G01Y1344960*
G02Y1344969I500J9*
G01Y1345000*
Y1345031*
G02Y1345040I500*
G01Y1354960*
G02Y1354969I500J9*
G01Y1355000*
Y1355031*
G02Y1355040I500*
G01Y1364960*
G02Y1364969I500J9*
G01Y1365000*
Y1365031*
G02Y1365040I500*
G01Y1374960*
G02Y1374969I500J9*
G01Y1375000*
G03X1235000Y1380500I5500*
X1229500Y1375000J5500*
G01Y1431838*
G03X1230500Y1435000I4500J3162*
X1225000Y1440500I5500*
X1219500Y1435000J5500*
G01Y1487500*
X1234500*
Y1435000*
G03X1240000Y1429500I5500*
X1244500Y1431838J5500*
G01Y1375000*
Y1374969*
G02Y1374960I500*
G01Y1365040*
G02Y1365031I500J9*
G01Y1365000*
Y1364969*
G02Y1364960I500*
G01Y1355040*
G02Y1355031I500J9*
G01Y1355000*
Y1354969*
G02Y1354960I500*
G01Y1345040*
G02Y1345031I500J9*
G01Y1345000*
Y1344969*
G02Y1344960I500*
G01Y1335040*
G02Y1335031I500J9*
G01Y1335000*
G03X1250000Y1329500I5500*
X1255500Y1335000J5500*
G01Y1335031*
G02Y1335040I500*
G01Y1344960*
G02Y1344969I500J9*
G01Y1345000*
Y1345031*
G02Y1345040I500*
G01Y1354960*
G02Y1354969I500J9*
G01Y1355000*
Y1355031*
G02Y1355040I500*
G01Y1364960*
G02Y1364969I500J9*
G01Y1365000*
Y1365031*
G02Y1365040I500*
G01Y1374960*
G02Y1374969I500J9*
G01Y1375000*
G03X1250000Y1380500I5500*
X1244500Y1375000J5500*
G01Y1431838*
G03X1245500Y1435000I4500J3162*
X1240000Y1440500I5500*
X1234500Y1435000J5500*
G01Y1487500*
X1249500*
Y1435000*
G03X1255000Y1429500I5500*
X1259500Y1431838J5500*
G01Y1375000*
Y1374969*
G02Y1374960I500*
G01Y1365040*
G02Y1365031I500J9*
G01Y1365000*
Y1364969*
G02Y1364960I500*
G01Y1355040*
G02Y1355031I500J9*
G01Y1355000*
Y1354969*
G02Y1354960I500*
G01Y1345040*
G02Y1345031I500J9*
G01Y1345000*
Y1344969*
G02Y1344960I500*
G01Y1335040*
G02Y1335031I500J9*
G01Y1335000*
G03X1265000Y1329500I5500*
X1270500Y1335000J5500*
G01Y1335031*
G02Y1335040I500*
G01Y1344960*
G02Y1344969I500J9*
G01Y1345000*
Y1345031*
G02Y1345040I500*
G01Y1354960*
G02Y1354969I500J9*
G01Y1355000*
Y1355031*
G02Y1355040I500*
G01Y1364960*
G02Y1364969I500J9*
G01Y1365000*
Y1365031*
G02Y1365040I500*
G01Y1374960*
G02Y1374969I500J9*
G01Y1375000*
G03X1265000Y1380500I5500*
X1259500Y1375000J5500*
G01Y1431838*
G03X1260500Y1435000I4500J3162*
X1255000Y1440500I5500*
X1249500Y1435000J5500*
G01Y1487500*
X1264500*
Y1435000*
G03X1270000Y1429500I5500*
X1275500Y1435000J5500*
X1270000Y1440500I5500*
X1264500Y1435000J5500*
G01Y1487500*
X1279500*
Y1435000*
G03X1285000Y1429500I5500*
X1290500Y1435000J5500*
X1285000Y1440500I5500*
X1279500Y1435000J5500*
G01Y1487500*
X1294500*
Y1435000*
G03X1300000Y1429500I5500*
X1305500Y1435000J5500*
X1300000Y1440500I5500*
X1294500Y1435000J5500*
G01Y1487500*
X1309500*
Y1435000*
G03X1315000Y1429500I5500*
X1320500Y1435000J5500*
X1315000Y1440500I5500*
X1309500Y1435000J5500*
G01Y1487500*
X1324500*
Y1435000*
G03X1330000Y1429500I5500*
X1335500Y1435000J5500*
X1330000Y1440500I5500*
X1324500Y1435000J5500*
G01Y1487500*
X1339500*
Y1435000*
G03X1345000Y1429500I5500*
X1350500Y1435000J5500*
X1345000Y1440500I5500*
X1339500Y1435000J5500*
G01Y1487500*
X1354500*
Y1435000*
G03X1360000Y1429500I5500*
X1365500Y1435000J5500*
X1360000Y1440500I5500*
X1354500Y1435000J5500*
G01Y1487500*
X1369500*
Y1435000*
G03X1375000Y1429500I5500*
X1380500Y1435000J5500*
X1375000Y1440500I5500*
X1369500Y1435000J5500*
G01Y1487500*
X1384500*
Y1435000*
G03X1390000Y1429500I5500*
X1395500Y1435000J5500*
X1390000Y1440500I5500*
X1384500Y1435000J5500*
G01Y1487500*
X1399500*
Y1435000*
G03X1405000Y1429500I5500*
X1410500Y1435000J5500*
X1405000Y1440500I5500*
X1399500Y1435000J5500*
G01Y1487500*
X1414500*
Y1435000*
G03X1420000Y1429500I5500*
X1425500Y1435000J5500*
X1420000Y1440500I5500*
X1414500Y1435000J5500*
G01Y1487500*
X1429500*
Y1435000*
G03X1435000Y1429500I5500*
X1440500Y1435000J5500*
X1435000Y1440500I5500*
X1429500Y1435000J5500*
G01Y1487500*
X1444500*
Y1435000*
G03X1450000Y1429500I5500*
X1455500Y1435000J5500*
X1450000Y1440500I5500*
X1444500Y1435000J5500*
G01Y1487500*
X1459500*
Y1435000*
G03X1465000Y1429500I5500*
X1470500Y1435000J5500*
X1465000Y1440500I5500*
X1459500Y1435000J5500*
G01Y1487500*
X1474500*
Y1435000*
G03X1480000Y1429500I5500*
X1485500Y1435000J5500*
X1480000Y1440500I5500*
X1474500Y1435000J5500*
G01Y1487500*
X1489500*
Y1435000*
G03X1495000Y1429500I5500*
X1500500Y1435000J5500*
X1495000Y1440500I5500*
X1489500Y1435000J5500*
G01Y1487500*
X1504500*
Y1435000*
G03X1510000Y1429500I5500*
X1515500Y1435000J5500*
X1510000Y1440500I5500*
X1504500Y1435000J5500*
G01Y1487500*
X1519500*
Y1435000*
G03X1525000Y1429500I5500*
X1530500Y1435000J5500*
X1525000Y1440500I5500*
X1519500Y1435000J5500*
G01Y1487500*
X1534500*
Y1435000*
G03X1540000Y1429500I5500*
X1545500Y1435000J5500*
X1540000Y1440500I5500*
X1534500Y1435000J5500*
G01Y1487500*
X1549500*
Y1435000*
G03X1555000Y1429500I5500*
X1560500Y1435000J5500*
X1555000Y1440500I5500*
X1549500Y1435000J5500*
G01Y1487500*
X1564500*
Y1435000*
G03X1570000Y1429500I5500*
X1575500Y1435000J5500*
X1570000Y1440500I5500*
X1564500Y1435000J5500*
G01Y1487500*
X1579500*
Y1435000*
G03X1585000Y1429500I5500*
X1590500Y1435000J5500*
X1585000Y1440500I5500*
X1579500Y1435000J5500*
G01Y1487500*
X1594500*
Y1435000*
G03X1600000Y1429500I5500*
X1605500Y1435000J5500*
X1600000Y1440500I5500*
X1594500Y1435000J5500*
G01Y1487500*
X1614203*
G02X1614448Y1487436J500*
X1624606Y1471333I9798J17436*
G03X1672000Y1426993I47394J3159*
X1719394Y1471333J47499*
G02X1729552Y1487436I19956J1333*
X1729797Y1487500I245J436*
G01X2177203*
G02X2177448Y1487436J500*
X2187606Y1471335I9798J17436*
G01Y1471333*
G03X2235000Y1427000I47394J3167*
X2282394Y1471333J47500*
G01Y1471335*
G02X2292552Y1487436I19956J1335*
X2292797Y1487500I245J436*
G01X2305500*
Y1380000*
G03X2320000Y1365500I14500*
X2334500Y1380000J14500*
X2320000Y1394500I14500*
X2305500Y1380000J14500*
G01Y1487500*
X3015500*
Y1330000*
G03X3030000Y1315500I14500*
X3044500Y1330000J14500*
X3030000Y1344500I14500*
X3015500Y1330000J14500*
G01Y1487500*
X3020000*
Y1380000*
G03X3030000Y1370000I10000*
X3040000Y1380000J10000*
X3030000Y1390000I10000*
X3020000Y1380000J10000*
G01Y1487500*
X3057203*
G02X3057448Y1487436J500*
X3067606Y1471335I9798J17436*
G01Y1471333*
G03X3115000Y1427000I47394J3167*
X3162394Y1471333J47500*
G01Y1471335*
G02X3172552Y1487436I19956J1335*
X3172797Y1487500I245J436*
G01X3316793*
G02X3317146Y1487354J500*
G01X3332354Y1472146*
G02X3332500Y1471793I354J353*
G01Y1360500*
G02X3332000Y1360000I500*
G01X3320000*
G03X3315000Y1355000J5000*
G01Y1321207*
G02X3314854Y1320854I500*
G01X3224146Y1230146*
G02X3223793Y1230000I353J354*
G01X2689207*
G02X2688854Y1230146J500*
G01X2599000Y1320000*
X2324472*
G02X2323972Y1320500J500*
X2324259Y1320952I500*
G03X2330000Y1330000I4259J9048*
X2320000Y1340000I10000*
X2310000Y1330000J10000*
X2315741Y1320952I10000*
G02X2316028Y1320500I213J452*
X2315528Y1320000I500*
G01X1227500*
Y1270207*
G02X1227354Y1269854I500*
G01X1225146Y1267646*
G02X1224793Y1267500I353J354*
G01X1157707*
G02X1157354Y1267646J500*
G01X1155146Y1269854*
G02X1155000Y1270207I354J353*
G01Y1320000*
X467500*
X397646Y1250146*
G02X397293Y1250000I353J354*
G01X323841*
G02X323341Y1250500J500*
X323713Y1250983I500*
G03X334500Y1265000I3713J14017*
X320000Y1279500I14500*
X305500Y1265000J14500*
X316287Y1250983I14500*
G02X316659Y1250500I128J483*
X316159Y1250000I500*
G01X292707*
G02X292354Y1250146J500*
G01X272646Y1269854*
G02X272500Y1270207I354J353*
G01Y1460793*
X303650Y1083650D02*
X316350D01*
Y1096350*
X303650*
Y1083650*
X417500Y1045000D02*
G02X427500Y1055000I10000D01*
G01X435000*
Y880000*
G03X440000Y875000I5000*
X445000Y880000J5000*
X440000Y885000I5000*
X435000Y880000J5000*
G01Y910000*
G03X440000Y905000I5000*
X445000Y910000J5000*
X440000Y915000I5000*
X435000Y910000J5000*
G01Y975000*
G03X440000Y970000I5000*
X445000Y975000J5000*
X440000Y980000I5000*
X435000Y975000J5000*
G01Y1055000*
X450000*
Y915000*
G03X455000Y910000I5000*
X460000Y915000J5000*
X455000Y920000I5000*
X450000Y915000J5000*
G01Y940000*
G03X455000Y935000I5000*
G01Y925000*
G03X460000Y920000I5000*
X460027J5000*
G02X460030I3J500*
X460038J500*
G01X469962*
G02X469970I8J500*
X469973J500*
G03X470000I27J5000*
X475000Y925000J5000*
X470000Y930000I5000*
X469973J5000*
G02X469970I3J500*
X469962J500*
G01X460038*
G02X460030I8J500*
X460027J500*
G03X460000I27J5000*
X455000Y925000J5000*
G01Y935000*
G03X460000Y940000J5000*
X455000Y945000I5000*
X450000Y940000J5000*
G01Y962000*
G03X455000Y957000I5000*
X460000Y962000J5000*
X455000Y967000I5000*
X450000Y962000J5000*
G01Y1055000*
X460000*
Y990000*
G03X465000Y985000I5000*
G01Y975000*
G03X470000Y970000I5000*
X475000Y975000J5000*
X470000Y980000I5000*
X465000Y975000J5000*
G01Y985000*
G03X470000Y990000J5000*
G01Y985000*
G03X475000Y980000I5000*
X480000Y985000J5000*
X475000Y990000I5000*
X470000Y985000J5000*
G01Y990000*
G03X465000Y995000I5000*
X460000Y990000J5000*
G01Y1055000*
X470000*
Y1005000*
G03X475000Y1000000I5000*
X480000Y1005000J5000*
X475000Y1010000I5000*
X470000Y1005000J5000*
G01Y1055000*
X485000*
Y880000*
G03X490000Y875000I5000*
X490027J5000*
G02X490030I3J500*
X490038J500*
G01X499962*
G02X499970I8J500*
X499973J500*
G03X500000I27J5000*
X505000Y880000J5000*
X500000Y885000I5000*
X499973J5000*
G02X499970I3J500*
X499962J500*
G01X490038*
G02X490030I8J500*
X490027J500*
G03X490000I27J5000*
X485000Y880000J5000*
G01Y1055000*
X490000*
Y980000*
G03X495000Y975000I5000*
G01Y905000*
G03X500000Y900000I5000*
X504580Y902995J5000*
G02X504585Y903006I458J200*
G01X508553Y911934*
G02X508558Y911944I461J196*
G03X509000Y914000I4558J2056*
X504000Y919000I5000*
X499420Y916005J5000*
G02X499415Y915994I458J200*
G01X495447Y907066*
G02X495442Y907056I461J196*
G03X495000Y905000I4558J2056*
G01Y975000*
G03X500000Y980000J5000*
X495000Y985000I5000*
X490000Y980000J5000*
G01Y1030000*
G03X495000Y1025000I5000*
X500000Y1030000J5000*
X495000Y1035000I5000*
X490000Y1030000J5000*
G01Y1055000*
X505000*
Y1021000*
G03X510000Y1016000I5000*
X511000Y1016101J5000*
G01Y936000*
G03X516000Y931000I5000*
X520000Y933000J5000*
G01Y895000*
G03X525000Y890000I5000*
X530000Y895000J5000*
X525000Y900000I5000*
X520000Y895000J5000*
G01Y933000*
G03X521000Y936000I4000J3000*
X516000Y941000I5000*
X511000Y936000J5000*
G01Y948000*
G03X516000Y943000I5000*
X521000Y948000J5000*
X516000Y953000I5000*
X511000Y948000J5000*
G01Y960000*
G03X516000Y955000I5000*
X521000Y960000J5000*
X516000Y965000I5000*
X511000Y960000J5000*
G01Y972000*
G03X516000Y967000I5000*
X521000Y972000J5000*
X516000Y977000I5000*
X511000Y972000J5000*
G01Y984000*
G03X516000Y979000I5000*
X521000Y984000J5000*
X516000Y989000I5000*
X511000Y984000J5000*
G01Y1016101*
G03X515000Y1021000I1000J4899*
X510000Y1026000I5000*
X505000Y1021000J5000*
G01Y1035000*
G03X510000Y1030000I5000*
X515000Y1035000J5000*
X510000Y1040000I5000*
X505000Y1035000J5000*
G01Y1055000*
X523000*
Y936000*
G03X528000Y931000I5000*
X533000Y936000J5000*
X528000Y941000I5000*
X523000Y936000J5000*
G01Y948000*
G03X528000Y943000I5000*
X533000Y948000J5000*
X528000Y953000I5000*
X523000Y948000J5000*
G01Y960000*
G03X528000Y955000I5000*
X533000Y960000J5000*
X528000Y965000I5000*
X523000Y960000J5000*
G01Y972000*
G03X528000Y967000I5000*
X533000Y972000J5000*
X528000Y977000I5000*
X523000Y972000J5000*
G01Y984000*
G03X528000Y979000I5000*
X533000Y984000J5000*
X528000Y989000I5000*
X523000Y984000J5000*
G01Y1055000*
X535000*
Y890000*
G03X540000Y885000I5000*
X545000Y890000J5000*
X540000Y895000I5000*
X535000Y890000J5000*
G01Y936000*
G03X540000Y931000I5000*
X545000Y936000J5000*
X540000Y941000I5000*
X535000Y936000J5000*
G01Y948000*
G03X540000Y943000I5000*
X545000Y948000J5000*
X540000Y953000I5000*
X535000Y948000J5000*
G01Y960000*
G03X540000Y955000I5000*
X545000Y960000J5000*
X540000Y965000I5000*
X535000Y960000J5000*
G01Y972000*
G03X540000Y967000I5000*
X545000Y972000J5000*
X540000Y977000I5000*
X535000Y972000J5000*
G01Y984000*
G03X540000Y979000I5000*
X545000Y984000J5000*
X540000Y989000I5000*
X535000Y984000J5000*
G01Y1055000*
X537000*
Y1021000*
G03X542000Y1016000I5000*
X547000Y1021000J5000*
G01Y936000*
G03X552000Y931000I5000*
X557000Y936000J5000*
X552000Y941000I5000*
X547000Y936000J5000*
G01Y948000*
G03X552000Y943000I5000*
X557000Y948000J5000*
X552000Y953000I5000*
X547000Y948000J5000*
G01Y960000*
G03X552000Y955000I5000*
X557000Y960000J5000*
X552000Y965000I5000*
X547000Y960000J5000*
G01Y972000*
G03X552000Y967000I5000*
X557000Y972000J5000*
X552000Y977000I5000*
X547000Y972000J5000*
G01Y984000*
G03X552000Y979000I5000*
X557000Y984000J5000*
X552000Y989000I5000*
X547000Y984000J5000*
G01Y1021000*
G03X542000Y1026000I5000*
X537000Y1021000J5000*
G01Y1055000*
X555000*
Y1005000*
G03X559000Y1000101I5000*
G01Y936000*
G03X564000Y931000I5000*
X565000Y931101J5000*
G01Y895000*
G03X570000Y890000I5000*
X570027J5000*
G02X570030I3J500*
X570038J500*
G01X579962*
G02X579970I8J500*
X579973J500*
G03X580000I27J5000*
X580027J5000*
G02X580030I3J500*
X580038J500*
G01X589962*
G02X589970I8J500*
X589973J500*
G03X590000I27J5000*
X595000Y895000J5000*
X590000Y900000I5000*
X589973J5000*
G02X589970I3J500*
X589962J500*
G01X580038*
G02X580030I8J500*
X580027J500*
G03X580000I27J5000*
X579973J5000*
G02X579970I3J500*
X579962J500*
G01X570038*
G02X570030I8J500*
X570027J500*
G03X570000I27J5000*
X565000Y895000J5000*
G01Y931101*
G03X569000Y936000I1000J4899*
X564000Y941000I5000*
X559000Y936000J5000*
G01Y948000*
G03X564000Y943000I5000*
X569000Y948000J5000*
X564000Y953000I5000*
X559000Y948000J5000*
G01Y960000*
G03X564000Y955000I5000*
X569000Y960000J5000*
X564000Y965000I5000*
X559000Y960000J5000*
G01Y972000*
G03X564000Y967000I5000*
X569000Y972000J5000*
X564000Y977000I5000*
X559000Y972000J5000*
G01Y984000*
G03X564000Y979000I5000*
X569000Y984000J5000*
X564000Y989000I5000*
X559000Y984000J5000*
G01Y1000101*
G03X560000Y1000000I1000J4899*
X565000Y1005000J5000*
X560000Y1010000I5000*
X555000Y1005000J5000*
G01Y1055000*
X565000*
Y1010000*
G03X566483Y1006446I5000*
G02X566491Y1006438I352J355*
G01X571437Y1001492*
G02X571446Y1001483I346J361*
G03X575000Y1000000I3554J3517*
X580000Y1005000J5000*
G01Y980000*
G03X581000Y977000I5000*
G01Y915000*
G03X586000Y910000I5000*
X591000Y915000J5000*
X586000Y920000I5000*
X581000Y915000J5000*
G01Y977000*
G03X585000Y975000I4000J3000*
G01Y945000*
G03X590000Y940000I5000*
X595000Y945000J5000*
X590000Y950000I5000*
X585000Y945000J5000*
G01Y975000*
G03X590000Y980000J5000*
X585000Y985000I5000*
X580000Y980000J5000*
G01Y1005000*
G03X578517Y1008554I5000*
G02X578509Y1008562I352J355*
G01X573563Y1013508*
G02X573554Y1013517I346J361*
G03X570000Y1015000I3554J3517*
X565000Y1010000J5000*
G01Y1045000*
G03X570000Y1040000I5000*
X575000Y1045000J5000*
G01Y1040000*
Y1039970*
G02Y1039961I500*
G01Y1030039*
G02Y1030030I500J9*
G01Y1030000*
G03X580000Y1025000I5000*
X585000Y1030000J5000*
G01Y1030030*
G02Y1030039I500*
G01Y1039961*
G02Y1039970I500J9*
G01Y1040000*
G03X580000Y1045000I5000*
X575000Y1040000J5000*
G01Y1045000*
G03X570000Y1050000I5000*
X565000Y1045000J5000*
G01Y1055000*
X595000*
Y980000*
G03X600000Y975000I5000*
G01Y930000*
G03X605000Y925000I5000*
G01Y915000*
Y914970*
G02Y914961I500*
G01Y905039*
G02Y905030I500J9*
G01Y905000*
G03X610000Y900000I5000*
X614752Y903444J5000*
G02X614756Y903456I475J156*
G01X619731Y918383*
G02X619735Y918394I477J150*
G03X620000Y920000I4735J1606*
X615000Y925000I5000*
X611446Y923517J5000*
G02X611437Y923508I355J352*
G01X606491Y918562*
G02X606483Y918554I360J347*
G03X605000Y915000I3517J3554*
G01Y925000*
G03X610000Y930000J5000*
X605000Y935000I5000*
X600000Y930000J5000*
G01Y975000*
G03X600027J5000*
G02X600030I3J500*
X600038J500*
G01X609962*
G02X609970I8J500*
X609973J500*
G03X610000I27J5000*
X615000Y980000J5000*
X610000Y985000I5000*
X609973J5000*
G02X609970I3J500*
X609962J500*
G01X600038*
G02X600030I8J500*
X600027J500*
G03X600000I27J5000*
X595000Y980000J5000*
G01Y1005000*
G03X600000Y1000000I5000*
X605000Y1005000J5000*
X600000Y1010000I5000*
X595000Y1005000J5000*
G01Y1031000*
G03X600000Y1026000I5000*
X605000Y1031000J5000*
X600000Y1036000I5000*
X595000Y1031000J5000*
G01Y1055000*
X625000*
Y1005000*
G03X630000Y1000000I5000*
X630027J5000*
G02X630030I3J500*
X630038J500*
G01X639962*
G02X639970I8J500*
X639973J500*
G03X640000I27J5000*
X645000Y1005000J5000*
X640000Y1010000I5000*
X639973J5000*
G02X639970I3J500*
X639962J500*
G01X630038*
G02X630030I8J500*
X630027J500*
G03X630000I27J5000*
X625000Y1005000J5000*
G01Y1055000*
X642500*
G02X652500Y1045000J10000*
G01Y877500*
G02X642500Y867500I10000*
G01X427500*
G02X417933Y874589J10000*
X417911Y874734I478J145*
X418411Y875234I500*
X418556Y875213J500*
G03X420000Y875000I1444J4787*
X425000Y880000J5000*
X420000Y885000I5000*
X418182Y884658J5000*
G02X418000Y884623I182J465*
X417500Y885123J500*
G01Y1045000*
X840000Y597293D02*
G02X840146Y597646I500D01*
G01X847354Y604854*
G02X847707Y605000I353J354*
G01X974793*
G02X975146Y604854J500*
G01X1030000Y550000*
Y445000*
G03X1035000Y440000I5000*
X1040000Y445000J5000*
X1035000Y450000I5000*
X1030000Y445000J5000*
G01Y550000*
X1054854Y525146*
G02X1055000Y524793I354J353*
G01Y366207*
G02X1054854Y365854I500*
G01X1051146Y362146*
G02X1050793Y362000I353J354*
G01X1045454*
G02X1044954Y362500J500*
X1045000Y362708I500*
G03X1045500Y365000I5000J2292*
X1040000Y370500I5500*
X1034500Y365000J5500*
X1035000Y362708I5500*
G02X1035046Y362500I454J208*
X1034546Y362000I500*
G01X973207*
G02X972854Y362146J500*
G01X970146Y364854*
G02X970000Y365207I354J353*
G01Y492500*
X937500Y525000*
X845207*
G02X844854Y525146J500*
G01X840146Y529854*
G02X840000Y530207I354J353*
G01Y597293*
X874695Y1208530D02*
X869695D01*
Y1203530*
X874695Y1208530*
X905000Y484793D02*
G02X905146Y485146I500D01*
G01X914854Y494854*
G02X915207Y495000I353J354*
G01X939500*
Y365000*
G03X945000Y359500I5500*
X950500Y365000J5500*
X945000Y370500I5500*
X939500Y365000J5500*
G01Y495000*
X940000*
Y445000*
G03X945000Y440000I5000*
X950000Y445000J5000*
X945000Y450000I5000*
X940000Y445000J5000*
G01Y495000*
X954793*
G02X955146Y494854J500*
G01X959854Y490146*
G02X960000Y489793I354J353*
G01Y360000*
X965000Y355000*
X1009793*
G02X1010146Y354854J500*
G01X1014854Y350146*
G02X1015000Y349793I354J353*
G01Y259207*
G02X1014854Y258854I500*
G01X1010146Y254146*
G02X1009793Y254000I353J354*
G01X993207*
G02X992854Y254146J500*
G01X905146Y341854*
G02X905000Y342207I354J353*
G01Y484793*
X920125Y1241300D02*
X915125D01*
Y1246300*
X920125Y1241300*
X931500Y1246000D02*
X929000Y1251000D01*
X934000*
X931500Y1246000*
X960000Y999793D02*
G03X959854Y1000146I500D01*
G01X955146Y1004854*
G03X954793Y1005000I353J354*
G01X905207*
G03X904854Y1004854J500*
G01X900146Y1000146*
G03X900000Y999793I354J353*
G01Y900000*
X890000Y890000*
X845207*
G03X844854Y889854J500*
G01X835146Y880146*
G03X835000Y879793I354J353*
G01Y810207*
G03X835146Y809854I500*
G01X839854Y805146*
G03X840207Y805000I353J354*
G01X937293*
G03X937646Y805146J500*
G01X959854Y827354*
G03X960000Y827707I354J353*
G01Y999793*
X963752Y1242737D02*
G03X963606Y1243091I500D01*
G01X962843Y1243854*
G03X962490Y1244000I353J354*
G01X959150*
G02X956650Y1246500J2500*
G01Y1254500*
G03X956150Y1255000I500*
G01X875207*
G03X874854Y1254854J500*
G01X862646Y1242646*
G03X862500Y1242293I354J353*
G01Y1205207*
G03X862646Y1204854I500*
G01X864854Y1202646*
G03X865207Y1202500I353J354*
G01X872293*
G03X872646Y1202646J500*
G01X874854Y1204854*
G03X875000Y1205207I354J353*
G01Y1235000*
X882500Y1242500*
X912500*
X920000Y1235000*
Y1225207*
G03X920146Y1224854I500*
G01X922354Y1222646*
G03X922707Y1222500I353J354*
G01X962595*
G03X963095Y1223000J500*
X963079Y1223125I500*
G02X963000Y1223750I2421J625*
G01Y1240750*
G02X963627Y1242406I2500*
G03X963752Y1242737I375J331*
G01X969000Y1180500D02*
Y1210800D01*
X977000*
Y1213300*
X970000*
Y1217500*
X930000*
Y1213300*
X923000*
Y1210800*
X931000*
Y1180500*
X969000*
X991500Y1246000D02*
X989000Y1251000D01*
X994000*
X991500Y1246000*
X1023095Y1223000D02*
G03X1023079Y1223125I500D01*
G02X1023000Y1223750I2421J625*
G01Y1240750*
G03X1022951Y1240966I500*
G01X1021684Y1243710*
G03X1021230Y1244000I454J210*
G01X1019150*
G02X1016650Y1246500J2500*
G01Y1254500*
G03X1016150Y1255000I500*
G01X985207*
G03X984854Y1254854J500*
G01X982646Y1252646*
G03X982500Y1252293I354J353*
G01Y1225207*
G03X982646Y1224854I500*
G01X984854Y1222646*
G03X985207Y1222500I353J354*
G01X1022595*
G03X1023095Y1223000J500*
G01X1029000Y1180500D02*
Y1210800D01*
X1037000*
Y1213300*
X1030000*
Y1217500*
X990000*
Y1213300*
X983000*
Y1210800*
X991000*
Y1180500*
X1029000*
X1045000Y1134793D02*
G03X1044854Y1135146I500D01*
G01X1040146Y1139854*
G03X1039793Y1140000I353J354*
G01X920000*
X913000Y1147000*
Y1193793*
G03X912854Y1194146I500*
G01X911146Y1195854*
G03X910793Y1196000I353J354*
G01X866207*
G03X865854Y1195854J500*
G01X862646Y1192646*
G03X862500Y1192293I354J353*
G01Y1151707*
G03X862646Y1151354I500*
G01X913854Y1100146*
G03X914207Y1100000I353J354*
G01X1039793*
G03X1040146Y1100146J500*
G01X1044854Y1104854*
G03X1045000Y1105207I354J353*
G01Y1134793*
X1065000Y484793D02*
G02X1065146Y485146I500D01*
G01X1067354Y487354*
G02X1067707Y487500I353J354*
G01X1144500*
Y375000*
G03X1150000Y369500I5500*
X1150028J5500*
G02X1150031I3J500*
X1150040J500*
G01X1159960*
G02X1159969I9J500*
X1159972J500*
G03X1160000I28J5500*
X1160028J5500*
G02X1160031I3J500*
X1160040J500*
G01X1169960*
G02X1169969I9J500*
X1169972J500*
G03X1170000I28J5500*
X1175500Y375000J5500*
X1170000Y380500I5500*
X1169972J5500*
G02X1169969I3J500*
X1169960J500*
G01X1160040*
G02X1160031I9J500*
X1160028J500*
G03X1160000I28J5500*
X1159972J5500*
G02X1159969I3J500*
X1159960J500*
G01X1150040*
G02X1150031I9J500*
X1150028J500*
G03X1150000I28J5500*
X1144500Y375000J5500*
G01Y475000*
G03X1150000Y469500I5500*
X1150028J5500*
G02X1150031I3J500*
X1150040J500*
G01X1159960*
G02X1159969I9J500*
X1159972J500*
G03X1160000I28J5500*
X1160028J5500*
G02X1160031I3J500*
X1160040J500*
G01X1169960*
G02X1169969I9J500*
X1169972J500*
G03X1170000I28J5500*
X1175500Y475000J5500*
X1170000Y480500I5500*
X1169972J5500*
G02X1169969I3J500*
X1169960J500*
G01X1160040*
G02X1160031I9J500*
X1160028J500*
G03X1160000I28J5500*
X1159972J5500*
G02X1159969I3J500*
X1159960J500*
G01X1150040*
G02X1150031I9J500*
X1150028J500*
G03X1150000I28J5500*
X1144500Y475000J5500*
G01Y487500*
X1252293*
G02X1252646Y487354J500*
G01X1254854Y485146*
G02X1255000Y484793I354J353*
G01Y250207*
G02X1254854Y249854I500*
G01X1250146Y245146*
G02X1249793Y245000I353J354*
G01X1070207*
G02X1069854Y245146J500*
G01X1065146Y249854*
G02X1065000Y250207I354J353*
G01Y484793*
X1090000Y889793D02*
G03X1089854Y890146I500D01*
G01X1080146Y899854*
G03X1079793Y900000I353J354*
G01X1030000*
X1020000Y910000*
Y999793*
G03X1019854Y1000146I500*
G01X1015146Y1004854*
G03X1014793Y1005000I353J354*
G01X970207*
G03X969854Y1004854J500*
G01X965146Y1000146*
G03X965000Y999793I354J353*
G01Y827707*
G03X965146Y827354I500*
G01X987354Y805146*
G03X987707Y805000I353J354*
G01X1084793*
G03X1085146Y805146J500*
G01X1089854Y809854*
G03X1090000Y810207I354J353*
G01Y889793*
X1141000Y1262793D02*
G03X1140854Y1263146I500D01*
G01X1139146Y1264854*
G03X1138793Y1265000I353J354*
G01X1045207*
G03X1044854Y1264854J500*
G01X1042646Y1262646*
G03X1042500Y1262293I354J353*
G01Y1254775*
G03X1042636Y1254432I500*
G02X1044000Y1251000I3636J3432*
G01Y1225000*
G02X1042636Y1221568I5000*
G03X1042500Y1221225I364J343*
G01Y1220000*
X1037500Y1215000*
X922207*
G03X921854Y1214854J500*
G01X920146Y1213146*
G03X920000Y1212793I354J353*
G01Y1155207*
G03X920146Y1154854I500*
G01X924854Y1150146*
G03X925207Y1150000I353J354*
G01X1049793*
G03X1050146Y1150146J500*
G01X1064854Y1164854*
G03X1065000Y1165207I354J353*
G01Y1200000*
X1080000Y1215000*
X1138793*
G03X1139146Y1215146J500*
G01X1140854Y1216854*
G03X1141000Y1217207I354J353*
G01Y1262793*
X1165000Y1189293D02*
G03X1164854Y1189646I500D01*
G01X1150146Y1204354*
G03X1149793Y1204500I353J354*
G01X1081207*
G03X1080854Y1204354J500*
G01X1077146Y1200646*
G03X1077000Y1200293I354J353*
G01Y1119500*
X1047500Y1090000*
X911000*
X900146Y1100854*
G03X899793Y1101000I353J354*
G01X865207*
G03X864854Y1100854J500*
G01X862646Y1098646*
G03X862500Y1098293I354J353*
G01Y1082707*
G03X862646Y1082354I500*
G01X900000Y1045000*
Y1025207*
G03X900146Y1024854I500*
G01X904854Y1020146*
G03X905207Y1020000I353J354*
G01X1019500*
G03X1020000Y1020500J500*
G01Y1030000*
X1040000Y1050000*
X1154793*
G03X1155146Y1050146J500*
G01X1164854Y1059854*
G03X1165000Y1060207I354J353*
G01Y1189293*
X1227500Y1249793D02*
G03X1227354Y1250146I500D01*
G01X1225146Y1252354*
G03X1224793Y1252500I353J354*
G01X1157707*
G03X1157354Y1252354J500*
G01X1155146Y1250146*
G03X1155000Y1249793I354J353*
G01Y1217707*
G03X1155146Y1217354I500*
G01X1157354Y1215146*
G03X1157707Y1215000I353J354*
G01X1224793*
G03X1225146Y1215146J500*
G01X1227354Y1217354*
G03X1227500Y1217707I354J353*
G01Y1249793*
X1265000Y359207D02*
Y509793D01*
G02X1265146Y510146I500*
G01X1274500Y519500*
Y405000*
G03X1280000Y399500I5500*
X1285500Y405000J5500*
X1280000Y410500I5500*
X1274500Y405000J5500*
G01Y519500*
X1275000Y520000*
Y485000*
G03X1280000Y480000I5000*
X1285000Y485000J5000*
X1280000Y490000I5000*
X1275000Y485000J5000*
G01Y520000*
X1367354Y612354*
G02X1367707Y612500I353J354*
G01X1479793*
G02X1480146Y612354J500*
G01X1484854Y607646*
G02X1485000Y607293I354J353*
G01Y530207*
G02X1484854Y529854I500*
G01X1480146Y525146*
G02X1479793Y525000I353J354*
G01X1395000*
X1352500Y482500*
Y358707*
G02X1352354Y358354I500*
G01X1350146Y356146*
G02X1349793Y356000I353J354*
G01X1268207*
G02X1267854Y356146J500*
G01X1265146Y358854*
G02X1265000Y359207I354J353*
G01X1285000Y639793D02*
G03X1284854Y640146I500D01*
G01X1275146Y649854*
G03X1274793Y650000I353J354*
G01X1060207*
G03X1059854Y649854J500*
G01X1050146Y640146*
G03X1050000Y639793I354J353*
G01Y545207*
G03X1050146Y544854I500*
G01X1059854Y535146*
G03X1060207Y535000I353J354*
G01X1279793*
G03X1280146Y535146J500*
G01X1284854Y539854*
G03X1285000Y540207I354J353*
G01Y639793*
X1300000Y344793D02*
G02X1300146Y345146I500D01*
G01X1304854Y349854*
G02X1305207Y350000I353J354*
G01X1355000*
X1360000Y355000*
Y469793*
G02X1360146Y470146I500*
G01X1364854Y474854*
G02X1365207Y475000I353J354*
G01X1369500*
Y405000*
G03X1375000Y399500I5500*
X1380500Y405000J5500*
X1375000Y410500I5500*
X1369500Y405000J5500*
G01Y475000*
X1409793*
G02X1410146Y474854J500*
G01X1414854Y470146*
G02X1415000Y469793I354J353*
G01Y348207*
G02X1414854Y347854I500*
G01X1321146Y254146*
G02X1320793Y254000I353J354*
G01X1304207*
G02X1303854Y254146J500*
G01X1300146Y257854*
G02X1300000Y258207I354J353*
G01Y344793*
X1316500Y1243500D02*
X1314000Y1248500D01*
X1319000*
X1316500Y1243500*
X1359650D02*
G03X1359150Y1244000I500D01*
G02X1356650Y1246500J2500*
G01Y1254500*
G03X1356150Y1255000I500*
G01X1315707*
G03X1315354Y1254854J500*
G01X1313146Y1252646*
G03X1313000Y1252293I354J353*
G01Y1226707*
G03X1313146Y1226354I500*
G01X1316854Y1222646*
G03X1317207Y1222500I353J354*
G01X1357595*
G03X1358095Y1223000J500*
X1358079Y1223125I500*
G02X1358000Y1223750I2421J625*
G01Y1240750*
G02X1359368Y1242979I2500*
G03X1359639Y1243371I226J446*
G01X1359647Y1243446*
G03X1359650Y1243500I497J54*
G01X1364000Y1180500D02*
Y1210800D01*
X1372000*
Y1213300*
X1365000*
Y1217500*
X1325000*
Y1213300*
X1318000*
Y1210800*
X1326000*
Y1180500*
X1364000*
X1375000Y1002293D02*
G03X1374854Y1002646I500D01*
G01X1372646Y1004854*
G03X1372293Y1005000I353J354*
G01X1317707*
G03X1317354Y1004854J500*
G01X1315146Y1002646*
G03X1315000Y1002293I354J353*
G01Y900000*
X1305000Y890000*
X1255207*
G03X1254854Y889854J500*
G01X1245146Y880146*
G03X1245000Y879793I354J353*
G01Y810207*
G03X1245146Y809854I500*
G01X1249854Y805146*
G03X1250207Y805000I353J354*
G01X1349793*
G03X1350146Y805146J500*
G01X1374854Y829854*
G03X1375000Y830207I354J353*
G01Y1002293*
X1391500Y1246000D02*
X1389000Y1251000D01*
X1394000*
X1391500Y1246000*
X1424000Y1180500D02*
Y1210800D01*
X1432000*
Y1213300*
X1425000*
Y1217500*
X1385000*
Y1213300*
X1378000*
Y1210800*
X1386000*
Y1180500*
X1424000*
X1435000Y1212793D02*
G03X1434854Y1213146I500D01*
G01X1431146Y1216854*
G03X1430793Y1217000I353J354*
G01X1313000*
X1307500Y1222500*
Y1259793*
G03X1307354Y1260146I500*
G01X1302646Y1264854*
G03X1302293Y1265000I353J354*
G01X1237707*
G03X1237354Y1264854J500*
G01X1235146Y1262646*
G03X1235000Y1262293I354J353*
G01Y1215207*
G03X1235146Y1214854I500*
G01X1237354Y1212646*
G03X1237707Y1212500I353J354*
G01X1272500*
X1275000Y1210000*
Y1152707*
G03X1275146Y1152354I500*
G01X1277354Y1150146*
G03X1277707Y1150000I353J354*
G01X1429793*
G03X1430146Y1150146J500*
G01X1434854Y1154854*
G03X1435000Y1155207I354J353*
G01Y1212793*
X1443500Y196000D02*
G03X1443000Y196500I500D01*
G01X1331500*
G03X1331000Y196000J500*
G01Y182000*
G03X1331500Y181500I500*
G01X1443000*
G03X1443500Y182000J500*
G01Y196000*
X1475125Y1243450D02*
X1470125D01*
Y1248450*
X1475125Y1243450*
X1488500Y1228000D02*
Y1233000D01*
X1483500*
X1488500Y1228000*
X1492500Y1194293D02*
G03X1492354Y1194646I500D01*
G01X1490646Y1196354*
G03X1490293Y1196500I353J354*
G01X1445207*
G03X1444854Y1196354J500*
G01X1442646Y1194146*
G03X1442500Y1193793I354J353*
G01Y1147500*
X1435000Y1140000*
X1315207*
G03X1314854Y1139854J500*
G01X1310146Y1135146*
G03X1310000Y1134793I354J353*
G01Y1105207*
G03X1310146Y1104854I500*
G01X1314854Y1100146*
G03X1315207Y1100000I353J354*
G01X1432293*
G03X1432647Y1100146J500*
G01X1477500Y1145000*
X1491293*
G03X1491646Y1145146J500*
G01X1492354Y1145854*
G03X1492500Y1146207I354J353*
G01Y1194293*
X1493000Y1100793D02*
G03X1492854Y1101146I500D01*
G01X1492146Y1101854*
G03X1491793Y1102000I353J354*
G01X1457207*
G03X1456854Y1101854J500*
G01X1445000Y1090000*
X1285000*
X1267500Y1107500*
Y1198293*
G03X1267354Y1198646I500*
G01X1262646Y1203354*
G03X1262293Y1203500I353J354*
G01X1188707*
G03X1188354Y1203354J500*
G01X1175146Y1190146*
G03X1175000Y1189793I354J353*
G01Y1060207*
G03X1175146Y1059854I500*
G01X1184854Y1050146*
G03X1185207Y1050000I353J354*
G01X1295000*
X1305000Y1040000*
Y1030207*
G03X1305146Y1029854I500*
G01X1314854Y1020146*
G03X1315207Y1020000I353J354*
G01X1434793*
G03X1435146Y1020146J500*
G01X1444854Y1029854*
G03X1445000Y1030207I354J353*
G01Y1034500*
X1492854Y1082354*
G03X1493000Y1082707I354J353*
G01Y1100793*
X1495000Y1270793D02*
G03X1494854Y1271146I500D01*
G01X1490146Y1275854*
G03X1489793Y1276000I353J354*
G01X1385207*
G03X1384854Y1275854J500*
G01X1380146Y1271146*
G03X1380000Y1270793I354J353*
G01Y1258005*
G03X1380225Y1257588I500*
G02X1381350Y1255500I1375J2088*
G01Y1246500*
G02X1380225Y1244412I2500*
G03X1380000Y1243995I275J417*
G01Y1223000*
G03X1380500Y1222500I500*
G01X1417595*
G03X1418095Y1223000J500*
X1418079Y1223125I500*
G02X1418000Y1223750I2421J625*
G01Y1240750*
G02X1419368Y1242979I2500*
G03X1419639Y1243371I226J446*
G01X1419647Y1243446*
G03X1419650Y1243500I497J54*
X1419150Y1244000I500*
G02X1416650Y1246500J2500*
G01Y1255500*
G02X1419150Y1258000I2500*
G01X1426150*
X1426168*
G03X1426172I4J500*
X1426181J500*
G01X1431819*
G03X1431828I9J500*
X1431832J500*
G01X1431850*
X1438850*
G02X1441294Y1256027J2500*
G03X1441783Y1255632I489J105*
G01X1471953*
G02X1474605Y1254534J3750*
G01X1481706Y1247432*
G02X1482805Y1244780I2651J2652*
G01Y1228841*
G03X1482951Y1228488I500*
G01X1485149Y1226290*
G03X1485502Y1226143I353J353*
G01X1490936*
G03X1491290Y1226290J500*
G01X1494854Y1229854*
G03X1495000Y1230207I354J353*
G01Y1256266*
G03X1494875Y1256596I500*
G02X1494285Y1257833I1875J1654*
G03X1493792Y1258250I493J83*
G01X1493250*
Y1263750*
X1493792*
G03X1494285Y1264167J500*
G02X1494875Y1265404I2465J417*
G03X1495000Y1265734I375J330*
G01Y1270793*
X1505000Y889793D02*
G03X1504854Y890146I500D01*
G01X1495146Y899854*
G03X1494793Y900000I353J354*
G01X1445000*
X1435000Y910000*
Y1002293*
G03X1434854Y1002646I500*
G01X1432646Y1004854*
G03X1432293Y1005000I353J354*
G01X1382707*
G03X1382354Y1004854J500*
G01X1380146Y1002646*
G03X1380000Y1002293I354J353*
G01Y830207*
G03X1380146Y829854I500*
G01X1404854Y805146*
G03X1405207Y805000I353J354*
G01X1499793*
G03X1500146Y805146J500*
G01X1504854Y809854*
G03X1505000Y810207I354J353*
G01Y889793*
X1561000Y196000D02*
G03X1560500Y196500I500D01*
G01X1449000*
G03X1448500Y196000J500*
G01Y182000*
G03X1449000Y181500I500*
G01X1560500*
G03X1561000Y182000J500*
G01Y196000*
X1792500Y1247293D02*
G03X1792354Y1247646I500D01*
G01X1785146Y1254854*
G03X1784793Y1255000I353J354*
G01X1690207*
G03X1689854Y1254854J500*
G01X1685146Y1250146*
G03X1685000Y1249793I354J353*
G01Y915207*
G03X1685146Y914854I500*
G01X1689854Y910146*
G03X1690207Y910000I353J354*
G01X1787293*
G03X1787646Y910146J500*
G01X1792354Y914854*
G03X1792500Y915207I354J353*
G01Y1247293*
X2082500Y367293D02*
G02X2082646Y367646I500D01*
G01X2086750Y371750*
Y350000*
G03X2111000Y325750I24250*
G01X2141000*
G03X2165250Y350000J24250*
X2141000Y374250I24250*
G01X2111000*
G03X2086750Y350000J24250*
G01Y371750*
X2094854Y379854*
G02X2095207Y380000I353J354*
G01X2154793*
G02X2155146Y379854J500*
G01X2169854Y365146*
G02X2170000Y364793I354J353*
G01Y324000*
X2214000Y280000*
X2614793*
G02X2615146Y279854J500*
G01X2692500Y202500*
X2835000*
X2847500Y215000*
Y269793*
G02X2847646Y270146I500*
G01X2857354Y279854*
G02X2857707Y280000I353J354*
G01X2860750*
Y250000*
G03X2885000Y225750I24250*
G01X2915000*
G03X2939250Y250000J24250*
X2915000Y274250I24250*
G01X2885000*
G03X2860750Y250000J24250*
G01Y280000*
X2932293*
G02X2932646Y279854J500*
G01X2942354Y270146*
G02X2942500Y269793I354J353*
G01Y140207*
G02X2942354Y139854I500*
G01X2935146Y132646*
G02X2934793Y132500I353J354*
G01X2635207*
G02X2634854Y132646J500*
G01X2589343Y178157*
G02X2589233Y178324I354J353*
G03X2515000Y228500I74233J29824*
X2440134Y176697J80000*
G02X2440019Y176519I468J176*
G01X2397646Y134146*
G02X2397293Y134000I353J354*
G01X2193707*
G02X2193354Y134146J500*
G01X2082646Y244854*
G02X2082500Y245207I354J353*
G01Y367293*
X2197500Y1030000D02*
G02X2205000Y1039682I10000D01*
G01Y930000*
G03X2210000Y925000I5000*
G01Y895000*
G03X2214000Y890101I5000*
G01Y870000*
G03X2219000Y865000I5000*
X2224000Y870000J5000*
X2219000Y875000I5000*
X2214000Y870000J5000*
G01Y890101*
G03X2215000Y890000I1000J4899*
X2220000Y895000J5000*
X2215000Y900000I5000*
X2210000Y895000J5000*
G01Y925000*
G03X2215000Y930000J5000*
X2210000Y935000I5000*
X2205000Y930000J5000*
G01Y1039682*
G02X2207500Y1040000I2500J9682*
G01X2224100*
Y980000*
G03X2229100Y975000I5000*
X2234100Y980000J5000*
X2229100Y985000I5000*
X2224100Y980000J5000*
G01Y1040000*
X2242000*
Y892000*
G03X2247000Y887000I5000*
X2252000Y892000J5000*
X2247000Y897000I5000*
X2242000Y892000J5000*
G01Y1040000*
X2250000*
Y980000*
G03X2255000Y975000I5000*
X2260000Y980000J5000*
X2255000Y985000I5000*
X2250000Y980000J5000*
G01Y1040000*
X2270000*
Y860000*
G03X2275000Y855000I5000*
X2280000Y860000J5000*
X2275000Y865000I5000*
X2270000Y860000J5000*
G01Y1040000*
X2285000*
Y920000*
G03X2286000Y917000I5000*
G01Y881000*
G03X2291000Y876000I5000*
X2296000Y881000J5000*
X2291000Y886000I5000*
X2286000Y881000J5000*
G01Y893000*
G03X2291000Y888000I5000*
X2295976Y892512J5000*
G02X2296120Y892817I498J49*
G01X2312647Y909343*
G03X2313745Y911995I2652J2652*
G01Y958234*
G02X2313891Y958588I500*
G01X2317000Y961697*
Y846000*
G03X2322000Y841000I5000*
X2327000Y846000J5000*
X2322000Y851000I5000*
X2317000Y846000J5000*
G01Y863000*
G03X2322000Y858000I5000*
X2327000Y863000J5000*
X2322000Y868000I5000*
X2317000Y863000J5000*
G01Y961697*
X2335183Y979880*
G02X2335488Y980024I354J354*
G03X2338000Y981000I488J4976*
G01Y846000*
G03X2343000Y841000I5000*
X2348000Y846000J5000*
X2343000Y851000I5000*
X2338000Y846000J5000*
G01Y863000*
G03X2343000Y858000I5000*
X2348000Y863000J5000*
X2343000Y868000I5000*
X2338000Y863000J5000*
G01Y981000*
G03X2340000Y985000I3000J4000*
G01Y920000*
G03Y919983I5000*
G01Y893000*
G03X2345000Y888000I5000*
X2350000Y893000J5000*
X2345000Y898000I5000*
X2340000Y893000J5000*
G01Y919983*
G03X2345000Y915000I5000J17*
X2350000Y920000J5000*
X2345000Y925000I5000*
X2340000Y920000J5000*
G01Y985000*
G03X2335000Y990000I5000*
X2330024Y985488J5000*
G02X2329880Y985183I498J49*
G01X2307343Y962647*
G03X2306245Y959995I2652J2652*
G01Y913755*
G02X2306098Y913402I500*
G01X2290817Y898120*
G02X2290512Y897976I354J354*
G03X2286000Y893000I488J4976*
G01Y917000*
G03X2290000Y915000I4000J3000*
X2294982Y919579J5000*
G02X2294983Y919590I498J42*
G01X2295877Y929514*
G02Y929526I498J36*
G03X2295900Y930000I4977J474*
X2290900Y935000I5000*
X2285918Y930421J5000*
G02X2285917Y930410I498J42*
G01X2285023Y920486*
G02Y920474I498J36*
G03X2285000Y920000I4977J474*
G01Y960000*
G03X2290000Y955000I5000*
X2295000Y960000J5000*
X2290000Y965000I5000*
X2285000Y960000J5000*
G01Y1040000*
X2372500*
G02X2382500Y1030000J10000*
G01Y850000*
G02X2372500Y840000I10000*
G01X2207500*
G02X2197500Y850000J10000*
G01Y884877*
G02X2198000Y885377I500*
X2198182Y885342J500*
G03X2200000Y885000I1818J4658*
X2205000Y890000J5000*
X2200000Y895000I5000*
X2198182Y894658J5000*
G02X2198000Y894623I182J465*
X2197500Y895123J500*
G01Y1030000*
X2199500Y586793D02*
G03X2199354Y587146I500D01*
G01X2190000Y596500*
Y1244793*
G03X2189854Y1245146I500*
G01X2185147Y1249854*
G03X2184793Y1250000I354J354*
G01X2085207*
G03X2084854Y1249854J500*
G01X2080146Y1245146*
G03X2080000Y1244793I354J353*
G01Y760000*
X1950146Y630146*
G03X1950000Y629793I354J353*
G01Y557707*
G03X1950146Y557354I500*
G01X1959854Y547646*
G03X1960207Y547500I353J354*
G01X2012500*
X2115354Y444646*
G03X2115707Y444500I353J354*
G01X2187793*
G03X2188146Y444646J500*
G01X2199354Y455854*
G03X2199500Y456207I354J353*
G01Y463013*
G03X2199000Y463513I500*
X2198636Y463356J500*
G02X2181000Y455750I17636J16644*
G01X2151000*
G02X2126750Y480000J24250*
X2151000Y504250I24250*
G01X2181000*
G02X2198636Y496644J24250*
G03X2199000Y496487I364J343*
X2199500Y496987J500*
G01Y586793*
X2241500Y377793D02*
G02X2241646Y378146I500D01*
G01X2246750Y383250*
Y350000*
G03X2271000Y325750I24250*
G01X2301000*
G03X2325250Y350000J24250*
X2301000Y374250I24250*
G01X2271000*
G03X2246750Y350000J24250*
G01Y383250*
X2250854Y387354*
G02X2251207Y387500I353J354*
G01X2624793*
G02X2625147Y387354J500*
G01X2700750Y311750*
Y250000*
G03X2725000Y225750I24250*
G01X2755000*
G03X2779250Y250000J24250*
X2755000Y274250I24250*
G01X2725000*
G03X2700750Y250000J24250*
G01Y311750*
X2730500Y282000*
X2777793*
G02X2778146Y281854J500*
G01X2784854Y275146*
G02X2785000Y274793I354J353*
G01Y229207*
G02X2784854Y228854I500*
G01X2773646Y217646*
G02X2773293Y217500I353J354*
G01X2702707*
G02X2702354Y217646J500*
G01X2607500Y312500*
X2251207*
G02X2250854Y312646J500*
G01X2241646Y321854*
G02X2241500Y322207I354J353*
G01Y377793*
X2297500Y532293D02*
G03X2297354Y532646I500D01*
G01X2292646Y537354*
G03X2292293Y537500I353J354*
G01X2217707*
G03X2217354Y537354J500*
G01X2212646Y532646*
G03X2212500Y532293I354J353*
G01Y496987*
G03X2213000Y496487I500*
X2213364Y496644J500*
G02X2231000Y504250I17636J16644*
G01X2261000*
G02X2285250Y480000J24250*
X2261000Y455750I24250*
G01X2231000*
G02X2213364Y463356J24250*
G03X2213000Y463513I364J343*
X2212500Y463013J500*
G01Y452707*
G03X2212646Y452354I500*
G01X2217354Y447646*
G03X2217707Y447500I353J354*
G01X2289793*
G03X2290146Y447646J500*
G01X2297354Y454854*
G03X2297500Y455207I354J353*
G01Y532293*
X2555500Y1099293D02*
G02X2555646Y1099646I500D01*
G01X2604854Y1148854*
G02X2605207Y1149000I353J354*
G01X3276793*
G02X3277146Y1148854J500*
G01X3295854Y1130146*
G02X3296000Y1129793I354J353*
G01Y911500*
X3319500Y888000*
Y530000*
G03X3335000Y514500I15500*
X3350500Y530000J15500*
X3335000Y545500I15500*
X3319500Y530000J15500*
G01Y625000*
G03X3335000Y609500I15500*
X3350500Y625000J15500*
X3335000Y640500I15500*
X3319500Y625000J15500*
G01Y888000*
X3365354Y842146*
G02X3365500Y841793I354J353*
G01Y505707*
G02X3365354Y505354I500*
G01X3358146Y498146*
G02X3357793Y498000I353J354*
G01X3285707*
G02X3285354Y498146J500*
G01X3277646Y505854*
G02X3277500Y506207I354J353*
G01Y712500*
X3162646Y827354*
G02X3162500Y827707I354J353*
G01Y1013000*
X3150000Y1025500*
X2722000*
X2701500Y1005000*
Y626500*
X2814354Y513646*
G02X2814500Y513293I354J353*
G01Y395861*
G02X2814000Y395361I500*
X2813616Y395540J500*
G03X2795000Y404250I18616J15540*
G01X2765000*
G03X2740750Y380000J24250*
X2765000Y355750I24250*
G01X2795000*
G03X2813616Y364460J24250*
G02X2814000Y364639I384J321*
X2814500Y364139J500*
G01Y339707*
G02X2814354Y339354I500*
G01X2807646Y332646*
G02X2807293Y332500I353J354*
G01X2752707*
G02X2752354Y332646J500*
G01X2721146Y363854*
G02X2721000Y364207I354J353*
G01Y412000*
X2555646Y577354*
G02X2555500Y577707I354J353*
G01Y643886*
G02X2556000Y644386I500*
X2556250Y644319J500*
X2556852Y643834I1250J2165*
G03X2605000Y622500I48148J43666*
X2670000Y687500J65000*
X2605000Y752500I65000*
X2556852Y731166J65000*
G02X2556250Y730681I1852J1680*
X2556000Y730614I250J433*
X2555500Y731114J500*
G01Y1099293*
X2852500Y974793D02*
G02X2852646Y975146I500D01*
G01X2859854Y982354*
G02X2860207Y982500I353J354*
G01X2864950*
Y851500*
G03X2885000Y831450I20050*
X2905050Y851500J20050*
G01Y958500*
G03X2885000Y978550I20050*
X2864950Y958500J20050*
G01Y982500*
X2914793*
G02X2915146Y982354J500*
G01X2919854Y977646*
G02X2920000Y977293I354J353*
G01Y835207*
G02X2919854Y834854I500*
G01X2912646Y827646*
G02X2912293Y827500I353J354*
G01X2860207*
G02X2859854Y827646J500*
G01X2852646Y834854*
G02X2852500Y835207I354J353*
G01Y974793*
X2857500Y890000D02*
X2915000D01*
Y917500*
X2857500*
Y890000*
X2967500Y612293D02*
G03X2967354Y612646I500D01*
G01X2817500Y762500*
Y997293*
G03X2817354Y997646I500*
G01X2810146Y1004854*
G03X2809793Y1005000I353J354*
G01X2732707*
G03X2732354Y1004854J500*
G01X2727646Y1000146*
G03X2727500Y999793I354J353*
G01Y637707*
G03X2727646Y637354I500*
G01X2830000Y535000*
Y400058*
G03X2830500Y399558I500*
X2830793Y399653J500*
G02X2845000Y404250I14207J19653*
G01X2875000*
G02X2899250Y380000J24250*
X2875000Y355750I24250*
G01X2845000*
G02X2830793Y360347J24250*
G03X2830500Y360442I293J405*
X2830000Y359942J500*
G01Y340207*
G03X2830146Y339854I500*
G01X2837354Y332646*
G03X2837707Y332500I353J354*
G01X2944793*
G03X2945146Y332646J500*
G01X2967354Y354854*
G03X2967500Y355207I354J353*
G01Y612293*
X2994362Y974793D02*
G02X2994509Y975146I500D01*
G01X3004854Y985491*
G02X3005207Y985638I353J353*
G01X3074950*
Y851500*
G03X3095000Y831450I20050*
X3115050Y851500J20050*
G01Y958500*
G03X3095000Y978550I20050*
X3074950Y958500J20050*
G01Y985638*
X3129793*
G02X3130146Y985491J500*
G01X3139854Y975784*
G02X3140000Y975431I354J353*
G01Y785000*
X3169500Y755500*
Y530000*
G03X3185000Y514500I15500*
X3200500Y530000J15500*
X3185000Y545500I15500*
X3169500Y530000J15500*
G01Y625000*
G03X3185000Y609500I15500*
X3200500Y625000J15500*
X3185000Y640500I15500*
X3169500Y625000J15500*
G01Y755500*
X3214854Y710146*
G02X3215000Y709793I354J353*
G01Y517707*
G02X3214854Y517354I500*
G01X3205146Y507646*
G02X3204793Y507500I353J354*
G01X3184207*
G02X3183854Y507646J500*
G01X2994509Y696991*
G02X2994362Y697345I353J354*
G01Y974793*
X3014650Y362650D02*
X3027350D01*
Y375350*
X3014650*
Y362650*
X3065000Y890000D02*
X3122500D01*
Y917500*
X3065000*
Y890000*
X3223000Y363500D02*
G03X3222500Y364000I500D01*
G01X3211500*
G03X3211000Y363500J500*
G01Y297000*
G03X3211500Y296500I500*
G01X3222500*
G03X3223000Y297000J500*
G01Y363500*
X3255000D02*
G03X3254500Y364000I500D01*
G01X3243500*
G03X3243000Y363500J500*
G01Y297000*
G03X3243500Y296500I500*
G01X3254500*
G03X3255000Y297000J500*
G01Y363500*
X3287000Y374500D02*
G03X3286500Y375000I500D01*
G01X3275500*
G03X3275000Y374500J500*
G01Y297000*
G03X3275500Y296500I500*
G01X3286500*
G03X3287000Y297000J500*
G01Y374500*
X3319000Y394500D02*
G03X3318500Y395000I500D01*
G01X3307500*
G03X3307000Y394500J500*
G01Y297000*
G03X3307500Y296500I500*
G01X3318500*
G03X3319000Y297000J500*
G01Y394500*
X3333650Y1328650D02*
X3346350D01*
Y1341350*
X3333650*
Y1328650*
X3416500Y138793D02*
G03X3416354Y139146I500D01*
G01X3413146Y142354*
G03X3412793Y142500I353J354*
G01X3235000*
X3222500Y155000*
Y253793*
G03X3222354Y254146I500*
G01X3192500Y284000*
Y374793*
G03X3192354Y375146I500*
G01X3189146Y378354*
G03X3188793Y378500I353J354*
G01X3129207*
G03X3128854Y378354J500*
G01X3120146Y369646*
G03X3120000Y369293I354J353*
G01Y138887*
G03X3120006Y138812I500*
X3120972Y134125I44494J6727*
X3121102Y133898I483J127*
G01X3204854Y50146*
G03X3205207Y50000I353J354*
G01X3412293*
G03X3412646Y50146J500*
G01X3416354Y53854*
G03X3416500Y54207I354J353*
G01Y138793*
X3424000Y265793D02*
G03X3423854Y266146I500D01*
G01X3405000Y285000*
Y379793*
G03X3404854Y380146I500*
G01X3390146Y394854*
G03X3389793Y395000I353J354*
G01X3348000*
G03X3347500Y394500J500*
G01Y369000*
X3337146Y358646*
G03X3337000Y358293I354J353*
G01Y282000*
X3330000Y275000*
X3251707*
G03X3251354Y274854J500*
G01X3244146Y267646*
G03X3244000Y267293I354J353*
G01Y174207*
G03X3244146Y173854I500*
G01X3250354Y167646*
G03X3250707Y167500I353J354*
G01X3416793*
G03X3417146Y167646J500*
G01X3423854Y174354*
G03X3424000Y174707I354J353*
G01Y265793*
X3443000Y1386700D02*
X3438000Y1384200D01*
Y1389200*
X3443000Y1386700*
X3595000Y1560000D02*
G02X3585000Y1550000I10000D01*
G01X15012*
G03X15001I11J5000*
G01X15000*
G02X5000Y1560000J10000*
G01Y1575000*
G02X15000Y1585000I10000*
G01X3585000*
G02X3595000Y1575000J10000*
G01Y1560000*
G37*
G54D10*
X165000Y405000D03*
X215000D03*
X295000Y290000D03*
X320000Y1215000D03*
Y1265000D03*
Y1345000D03*
Y1395000D03*
X345000Y290000D03*
X425000Y200000D03*
X475000D03*
X1620000Y265000D03*
Y315000D03*
Y395000D03*
Y445000D03*
X2111000Y350000D02*
X2093499Y332499D01*
X2111000Y350000D02*
X2093499Y367501D01*
X2141000Y350000D02*
X2158501Y332499D01*
X2151000Y480000D02*
X2133499Y462499D01*
X2151000Y480000D02*
X2133499Y497501D01*
X2181000Y480000D02*
X2185278Y455623D01*
X2181000Y480000D02*
X2187947Y503755D01*
X2231000Y480000D02*
X2224054Y503755D01*
X2231000Y480000D02*
X2224053Y456245D01*
X2261000Y480000D02*
X2278501Y497501D01*
X2261000Y480000D02*
X2278501Y462499D01*
X2271000Y350000D02*
X2253499Y332499D01*
X2271000Y350000D02*
X2253499Y367501D01*
X2301000Y350000D02*
X2318501Y332499D01*
X2301000Y350000D02*
X2318501Y367501D01*
X2320000Y1330000D03*
Y1380000D03*
X2725000Y250000D02*
X2707499Y232499D01*
X2725000Y250000D02*
X2707499Y267501D01*
X2755000Y250000D02*
X2772501Y232499D01*
X2755000Y250000D02*
X2772501Y267501D01*
X2765000Y380000D02*
X2747499Y397501D01*
X2765000Y380000D02*
X2747499Y362499D01*
X2795000Y380000D02*
X2802523Y403579D01*
X2795000Y380000D02*
X2802523Y356421D01*
X2845000Y380000D02*
X2839872Y404213D01*
X2845000Y380000D02*
X2839871Y355787D01*
X2875000Y380000D02*
X2892501Y362499D01*
X2875000Y380000D02*
X2892501Y397501D01*
X2885000Y250000D02*
X2867499Y232499D01*
X2885000Y250000D02*
X2867499Y267501D01*
X2915000Y250000D02*
X2932501Y267501D01*
X2915000Y250000D02*
X2932501Y232499D01*
X3030000Y1330000D03*
Y1380000D03*
G54D11*
X2885000Y851500D02*
X2903890Y843408D01*
X2885000Y851500D02*
X2866236Y843121D01*
X2885000Y958500D02*
X2903764Y966879D01*
X2885000Y958500D02*
X2866236Y966879D01*
X3095000Y851500D02*
X3109531Y836969D01*
X3095000Y851500D02*
X3080469Y836969D01*
X3095000Y958500D02*
X3109531Y973031D01*
X3095000Y958500D02*
X3080469Y973031D01*
G54D12*
X36000Y191000D03*
X51000D03*
X100000Y1012500D03*
Y1037900D03*
Y1063300D03*
Y1088700D03*
X102000Y1131700D03*
Y1161700D03*
Y1191700D03*
Y1221700D03*
Y1251700D03*
Y1281700D03*
Y1311700D03*
Y1341700D03*
X114000Y1116700D03*
Y1146700D03*
Y1176700D03*
Y1206700D03*
Y1236700D03*
Y1266700D03*
Y1296700D03*
Y1326700D03*
X114034Y1537500D03*
X120000Y1012500D03*
Y1037900D03*
Y1063300D03*
Y1088700D03*
X126000Y1131700D03*
Y1161700D03*
Y1191700D03*
Y1221700D03*
Y1251700D03*
Y1281700D03*
Y1311700D03*
Y1341700D03*
X129034Y1537500D03*
X138000Y1116700D03*
Y1146700D03*
Y1176700D03*
Y1206700D03*
Y1236700D03*
Y1266700D03*
Y1296700D03*
Y1326700D03*
X140000Y1012500D03*
Y1037900D03*
Y1063300D03*
Y1088700D03*
X144034Y1537500D03*
X261000Y72500D03*
X276000D03*
X291000D03*
X534032Y1537500D03*
X541003Y72500D03*
X549032Y1537500D03*
X556003Y72500D03*
X564032Y1537500D03*
X571003Y72500D03*
X811003D03*
X826003D03*
X841003D03*
X984030Y1537500D03*
X999030D03*
X1014030D03*
X1091003Y72500D03*
X1106003D03*
X1121003D03*
X1249027Y1537500D03*
X1264027D03*
X1279027D03*
X1361003Y72500D03*
X1376003D03*
X1391003D03*
X1519027Y1537500D03*
X1534027D03*
X1549027D03*
X1911003Y72500D03*
X1926003D03*
X1941003D03*
X2069000Y1537500D03*
X2084000D03*
X2099000D03*
X2339000D03*
X2354000D03*
X2369000D03*
X2414003Y72500D03*
X2429003D03*
X2444003D03*
X2604018Y1537500D03*
X2619018D03*
X2634018D03*
X2714003Y72500D03*
X2729003D03*
X2744003D03*
X2964003D03*
X2979003D03*
X2994003D03*
X3054014Y1537500D03*
X3069014D03*
X3084014D03*
X3185000Y530000D02*
X3201000D01*
X3185000D02*
X3169057Y531347D01*
X3185000Y530000D02*
X3186347Y514057D01*
X3185000Y530000D02*
Y546000D01*
Y625000D02*
Y609000D01*
Y625000D02*
X3201000D01*
X3185000D02*
X3169000D01*
X3185000D02*
Y641000D01*
X3335000Y530000D02*
X3351000D01*
X3335000D02*
X3319000D01*
X3335000D02*
Y514000D01*
Y530000D02*
Y546000D01*
Y625000D02*
X3351000D01*
X3335000D02*
Y641000D01*
Y625000D02*
X3319000D01*
X3335000D02*
Y609000D01*
X3470000Y1012500D03*
Y1037900D03*
Y1063300D03*
Y1088700D03*
X3472000Y1131700D03*
Y1161700D03*
Y1191700D03*
Y1221700D03*
Y1251700D03*
Y1281700D03*
Y1311700D03*
Y1341700D03*
X3474007Y1537500D03*
X3484000Y1116700D03*
Y1146700D03*
Y1176700D03*
Y1206700D03*
Y1236700D03*
Y1266700D03*
Y1296700D03*
Y1326700D03*
X3489007Y1537500D03*
X3490000Y1012500D03*
Y1037900D03*
Y1063300D03*
Y1088700D03*
X3496000Y1131700D03*
Y1161700D03*
Y1191700D03*
Y1221700D03*
Y1251700D03*
Y1281700D03*
Y1311700D03*
Y1341700D03*
X3504007Y1537500D03*
X3508000Y1116700D03*
Y1146700D03*
Y1176700D03*
Y1206700D03*
Y1236700D03*
Y1266700D03*
Y1296700D03*
Y1326700D03*
X3510000Y1012500D03*
Y1037900D03*
Y1063300D03*
Y1088700D03*
G54D13*
X215000Y405000D02*
Y390000D01*
Y405000D02*
X230000D01*
X215000D02*
Y420000D01*
Y405000D02*
X200000D01*
X320000Y1265000D02*
X309393Y1275607D01*
X320000Y1265000D02*
X330607Y1275607D01*
X320000Y1265000D02*
X308427Y1255458D01*
X320000Y1265000D02*
X331573Y1255458D01*
X320000Y1395000D02*
X335000D01*
X320000D02*
Y1380000D01*
Y1395000D02*
Y1410000D01*
Y1395000D02*
X305000D01*
X345000Y290000D02*
X330000D01*
X345000D02*
Y275000D01*
Y290000D02*
X360000D01*
X345000D02*
Y305000D01*
X475000Y200000D02*
X460000D01*
X475000D02*
Y185000D01*
Y200000D02*
X490000D01*
X475000D02*
Y215000D01*
X1620000Y265000D02*
Y280000D01*
Y265000D02*
X1605000D01*
X1620000D02*
X1635000D01*
X1620000D02*
Y250000D01*
Y395000D02*
Y410000D01*
Y395000D02*
Y380000D01*
Y395000D02*
X1635000D01*
X1620000D02*
X1605000D01*
X2320000Y1380000D02*
Y1365000D01*
Y1380000D02*
Y1395000D01*
Y1380000D02*
X2305000D01*
X2320000D02*
X2335000D01*
X3030000Y1330000D02*
Y1315000D01*
Y1330000D02*
Y1345000D01*
Y1330000D02*
X3045000D01*
X3030000D02*
X3015000D01*
G54D14*
X271959Y1974840D02*
Y1995160D01*
X280271*
X283042Y1993928*
X283966Y1993005*
X284889Y1991157*
Y1988387*
X283966Y1986232*
X283042Y1985308*
X280271Y1984384*
X271959*
X274860Y2045041D02*
X284736D01*
X287723Y2041688*
Y2037868*
X284777Y2035328*
X274860*
Y2045041*
Y2053981D02*
X284756D01*
X287032Y2051441*
Y2047682*
X284777Y2045874*
X274860*
Y2053981*
X287865Y2051767D02*
X285244Y2054672D01*
X285102Y2054774*
X284960Y2054815*
X274413*
X274271Y2054774*
X274149Y2054672*
X274048Y2054550*
X274007Y2054408*
Y2045528*
Y2045467*
Y2045406*
Y2034901*
X274048Y2034759*
X274149Y2034616*
X274271Y2034515*
X274413Y2034495*
X285081*
X288414Y2037400*
X288495Y2037522*
X288536Y2037685*
Y2042033*
X285549Y2045406*
X287682Y2047113*
X287743Y2047195*
X287804Y2047296*
X287845Y2047398*
X287865Y2047459*
Y2051767*
X292278Y1974840D02*
Y1995160D01*
X300591*
X303362Y1993928*
X304285Y1993005*
X305209Y1991157*
Y1988387*
X304285Y1986232*
X303362Y1985308*
X300591Y1984384*
X292278*
X294063Y2051421D02*
Y2037888D01*
X297192Y2035328*
X303756*
X306925Y2037888*
Y2051421*
X303756Y2053981*
X297192*
X294063Y2051421*
X307738Y2051624D02*
Y2037685D01*
X307718Y2037583*
X307677Y2037502*
X307657Y2037421*
X307596Y2037360*
X304182Y2034576*
X304081Y2034535*
X304060Y2034515*
X304020*
X303979Y2034495*
X303959*
X303918*
X297070*
X296989Y2034515*
X296908Y2034535*
X296826Y2034576*
X293413Y2037360*
X293331Y2037421*
X293291Y2037502*
X293250Y2037583*
X293230Y2037685*
Y2051624*
X293250Y2051726*
X293291Y2051807*
X293331Y2051848*
X293372Y2051888*
X293413Y2051949*
X296826Y2054733*
X296908Y2054754*
X296969Y2054774*
X296989Y2054794*
X297070Y2054815*
X303918*
X303999Y2054794*
X304020*
X304040Y2054774*
X304101Y2054754*
X304182Y2054733*
X307596Y2051949*
X307616Y2051888*
X307657Y2051868*
X307677Y2051848*
Y2051807*
X307718Y2051726*
X307738Y2051624*
X313265Y2043131D02*
Y2040916D01*
X326128*
Y2043131*
X319707Y2053920*
X313265Y2043131*
X314445Y1994852D02*
X324605D01*
X319063Y1987155*
X321834*
X323681Y1986232*
X324605Y1985308*
X325528Y1982537*
Y1980382*
X324605Y1977611*
X322757Y1975764*
X319987Y1974840*
X317216*
X314445Y1975764*
X313521Y1976688*
X312598Y1978535*
X319504Y2054794D02*
X319971D01*
X320052Y2054774*
X320113Y2054733*
X320255Y2054632*
X320316Y2054591*
X326880Y2043496*
X326900Y2043415*
X326920Y2043374*
X326941Y2043334*
Y2043313*
Y2043273*
Y2034901*
X326900Y2034759*
X326819Y2034637*
X326676Y2034576*
X326534Y2034556*
X326392Y2034576*
X326250Y2034637*
X326168Y2034759*
X326128Y2034901*
Y2040083*
X313265*
Y2034901*
X313225Y2034759*
X313143Y2034637*
X313001Y2034576*
X312839Y2034556*
X312696Y2034576*
X312554Y2034637*
X312473Y2034759*
X312432Y2034901*
Y2043273*
Y2043313*
Y2043334*
X312452Y2043374*
X312473Y2043415*
X312493Y2043496*
X319138Y2054591*
X319239Y2054693*
X319361Y2054733*
X319443Y2054774*
X319504Y2054794*
X332508Y2053981D02*
X342221D01*
X345391Y2051421*
Y2047642*
X342221Y2045061*
X332508*
Y2053981*
X333841Y1990234D02*
Y1991157D01*
X334764Y1993005*
X335688Y1993928*
X337535Y1995160*
X341230*
X343077Y1993928*
X344000Y1993005*
X344924Y1991157*
Y1989310*
X344000Y1987463*
X342153Y1984384*
X332917Y1974840*
X345848*
X346062Y2047093D02*
X346123Y2047134D01*
X346143Y2047235*
X346204Y2047337*
Y2047438*
Y2051624*
Y2051726*
X346143Y2051787*
Y2051848*
X346123Y2051868*
X346102Y2051888*
X346062Y2051929*
X342607Y2054733*
X342506Y2054774*
X342424Y2054794*
X342343Y2054815*
X332102*
X331919Y2054774*
X331797Y2054672*
X331696Y2054550*
X331655Y2054408*
Y2034901*
X331696Y2034738*
X331797Y2034637*
X331919Y2034576*
X332061Y2034556*
X332224Y2034576*
X332366Y2034637*
X332468Y2034738*
X332508Y2034901*
Y2044248*
X342059*
X345391Y2034779*
X345472Y2034637*
X345615Y2034556*
X345777Y2034535*
X345899Y2034576*
X346021Y2034637*
X346123Y2034738*
X346184Y2034881*
X346143Y2035043*
X342811Y2044512*
X346062Y2047093*
X351711Y2053981D02*
X361403D01*
X364573Y2051421*
Y2037888*
X361403Y2035328*
X351711*
Y2053981*
X355084Y1994852D02*
X365243D01*
X359702Y1987155*
X362473*
X364320Y1986232*
X365243Y1985308*
X366167Y1982537*
Y1980382*
X365243Y1977611*
X363396Y1975764*
X360625Y1974840*
X357855*
X355084Y1975764*
X354160Y1976688*
X353236Y1978535*
X361810Y2054733D02*
X361708Y2054774D01*
X361627Y2054794*
X361546Y2054815*
X351264*
X351121Y2054774*
X351000Y2054672*
X350898Y2054550*
X350857Y2054408*
Y2034901*
X350898Y2034738*
X351000Y2034637*
X351121Y2034515*
X351264Y2034495*
X361546*
X361627*
X361668Y2034515*
X361708Y2034535*
X361810Y2034576*
X365244Y2037360*
X365305Y2037441*
X365325Y2037482*
X365366Y2037583*
X365386Y2037685*
Y2051624*
X365366Y2051726*
X365325Y2051787*
Y2051848*
X365305Y2051868*
X365264Y2051888*
X365244Y2051929*
X361810Y2054733*
X384588Y2034901D02*
X384629Y2034738D01*
X384731Y2034637*
X384853Y2034576*
X384995Y2034556*
X385157Y2034576*
X385300Y2034637*
X385401Y2034738*
X385442Y2034901*
Y2053108*
X398386Y2034657*
X398447Y2034576*
X398548Y2034535*
X398650*
X398772Y2034576*
X398914Y2034616*
X399036Y2034677*
X399097Y2034779*
X399117Y2034901*
Y2054408*
X399077Y2054550*
X398975Y2054672*
X398853Y2054733*
X398711Y2054754*
X398569Y2054733*
X398426Y2054672*
X398325Y2054550*
X398304Y2054408*
Y2036201*
X385340Y2054632*
X385259Y2054713*
X385178Y2054754*
X385076*
X384975Y2054733*
X384812Y2054713*
X384690Y2054652*
X384629Y2054550*
X384588Y2054408*
Y2034901*
X384639Y1994852D02*
X375403D01*
X374480Y1986232*
X375403Y1987155*
X378174Y1988079*
X380945*
X383716Y1987155*
X385563Y1985308*
X386486Y1982537*
Y1980382*
X385563Y1977611*
X383716Y1975764*
X380945Y1974840*
X378174*
X375403Y1975764*
X374480Y1976688*
X373556Y1978535*
X393875Y1983461D02*
X406806D01*
X404644Y2043131D02*
Y2040916D01*
X417507*
Y2043131*
X411086Y2053920*
X404644Y2043131*
X410883Y2054794D02*
X411350D01*
X411431Y2054774*
X411492Y2054733*
X411634Y2054632*
X411695Y2054591*
X418259Y2043496*
X418279Y2043415*
X418299Y2043374*
X418320Y2043334*
Y2043313*
Y2043273*
Y2034901*
X418279Y2034759*
X418198Y2034637*
X418056Y2034576*
X417913Y2034556*
X417771Y2034576*
X417629Y2034637*
X417548Y2034759*
X417507Y2034901*
Y2040083*
X404644*
Y2034901*
X404604Y2034759*
X404522Y2034637*
X404380Y2034576*
X404218Y2034556*
X404075Y2034576*
X403933Y2034637*
X403852Y2034759*
X403811Y2034901*
Y2043273*
Y2043313*
Y2043334*
X403832Y2043374*
X403852Y2043415*
X403872Y2043496*
X410517Y2054591*
X410618Y2054693*
X410740Y2054733*
X410822Y2054774*
X410883Y2054794*
X414195Y1994852D02*
X427125D01*
X417889Y1974840*
X434514Y1994852D02*
X447445D01*
X438209Y1974840*
X436750Y2034901D02*
X436770Y2034738D01*
X436872Y2034637*
X437014Y2034576*
X437156Y2034556*
X437299Y2034576*
X437420Y2034637*
X437522Y2034738*
X437563Y2034901*
Y2054327*
Y2054388*
Y2054408*
X437542Y2054550*
X437481Y2054652*
X437360Y2054713*
X437217Y2054733*
X437075Y2054754*
X436973Y2054733*
X436872Y2054693*
X436811Y2054611*
X430308Y2044065*
X423826Y2054611*
X423725Y2054713*
X423644Y2054754*
X423522*
X423420Y2054733*
X423257Y2054713*
X423136Y2054652*
X423075Y2054550*
X423034Y2054408*
Y2054388*
Y2054327*
Y2034901*
X423075Y2034738*
X423176Y2034637*
X423298Y2034576*
X423440Y2034556*
X423603Y2034576*
X423745Y2034637*
X423847Y2034738*
X423887Y2034901*
Y2052925*
X429943Y2043029*
X430024Y2042948*
X430105Y2042887*
X430207Y2042866*
X430308Y2042887*
X430410Y2042866*
X430512Y2042887*
X430593Y2042948*
X430674Y2043029*
X436750Y2052925*
Y2034901*
X454834Y1974840D02*
X461299Y1995160D01*
X467764Y1974840*
X456359Y2053981D02*
X456501Y2054022D01*
X456623Y2054103*
X456684Y2054246*
X456704Y2054388*
X456684Y2054550*
X456623Y2054672*
X456501Y2054774*
X456359Y2054815*
X442643*
X442500Y2054774*
X442379Y2054672*
X442277Y2054550*
X442236Y2054408*
Y2034901*
X442277Y2034759*
X442379Y2034637*
X442500Y2034535*
X442643Y2034495*
X456359*
X456501Y2034535*
X456623Y2034616*
X456684Y2034759*
X456704Y2034901*
X456684Y2035064*
X456623Y2035206*
X456501Y2035307*
X456359Y2035348*
X443090*
Y2044248*
X452295*
X452437Y2044289*
X452559Y2044390*
X452620Y2044512*
X452640Y2044655*
X452620Y2044797*
X452559Y2044939*
X452437Y2045041*
X452295Y2045061*
X443090*
Y2053981*
X456359*
X456989Y1981613D02*
X465609D01*
X525995Y2034901D02*
X526036Y2034738D01*
X526138Y2034637*
X526260Y2034515*
X526402Y2034495*
X540118*
X540260Y2034515*
X540382Y2034616*
X540443Y2034759*
X540463Y2034901*
X540443Y2035064*
X540382Y2035206*
X540260Y2035287*
X540118Y2035328*
X526849*
Y2054408*
X526808Y2054550*
X526707Y2054672*
X526564Y2054733*
X526402Y2054754*
X526260Y2054733*
X526138Y2054672*
X526036Y2054550*
X525995Y2054408*
Y2034901*
X546051Y2043131D02*
Y2040916D01*
X558914*
Y2043131*
X552493Y2053920*
X546051Y2043131*
X550368Y1932081D02*
X548521Y1933928D01*
X545750Y1935160*
X542056*
X539285Y1933928*
X537438Y1932081*
Y1930234*
X538362Y1928387*
X539285Y1927463*
X541132Y1926232*
X546674Y1924384*
X548521Y1923461*
X549445Y1922537*
X550368Y1920690*
Y1917611*
X548521Y1915764*
X545750Y1914840*
X542056*
X539285Y1915764*
X537438Y1917611*
X552289Y2054794D02*
X552757D01*
X552838Y2054774*
X552899Y2054733*
X553041Y2054632*
X553102Y2054591*
X559666Y2043496*
X559686Y2043415*
X559706Y2043374*
X559727Y2043334*
Y2043313*
Y2043273*
Y2034901*
X559686Y2034759*
X559605Y2034637*
X559462Y2034576*
X559320Y2034556*
X559178Y2034576*
X559036Y2034637*
X558954Y2034759*
X558914Y2034901*
Y2040083*
X546051*
Y2034901*
X546011Y2034759*
X545929Y2034637*
X545787Y2034576*
X545624Y2034556*
X545482Y2034576*
X545340Y2034637*
X545259Y2034759*
X545218Y2034901*
Y2043273*
Y2043313*
Y2043334*
X545238Y2043374*
X545259Y2043415*
X545279Y2043496*
X551924Y2054591*
X552025Y2054693*
X552147Y2054733*
X552228Y2054774*
X552289Y2054794*
X553443Y1992081D02*
X552520Y1993928D01*
X549441Y1994852*
X547286*
X544207Y1993928*
X542360Y1991157*
X541436Y1986232*
Y1981613*
X542360Y1977611*
X544207Y1975764*
X547286Y1974840*
X548210*
X551288Y1975764*
X553443Y1977611*
X554367Y1980382*
Y1981613*
X553443Y1984384*
X551288Y1986232*
X548210Y1987155*
X547286*
X544207Y1986232*
X542360Y1984384*
X541436Y1981613*
X557757Y1914840D02*
X564223Y1935160D01*
X570688Y1914840*
X559912Y1921613D02*
X568533D01*
X561756Y1995160D02*
Y1974840D01*
X574686*
X578077Y1914840D02*
Y1935160D01*
X584542Y1914840*
X591007Y1935160*
Y1914840*
X578909Y2054164D02*
X572122Y2044512D01*
Y2034901*
X572081Y2034759*
X572000Y2034637*
X571858Y2034576*
X571715Y2034556*
X571573Y2034576*
X571431Y2034637*
X571350Y2034759*
X571309Y2034901*
Y2044512*
X564542Y2054164*
X564481Y2054286*
X564502Y2054428*
X564563Y2054571*
X564664Y2054672*
X564807Y2054754*
X564949Y2054774*
X565091Y2054754*
X565213Y2054652*
X571715Y2045386*
X578258Y2054652*
X578360Y2054754*
X578482Y2054774*
X578624Y2054754*
X578766Y2054672*
X578868Y2054571*
X578949Y2054428*
X578970Y2054286*
X578909Y2054164*
X597766Y2053981D02*
X597908Y2054022D01*
X598030Y2054103*
X598091Y2054246*
X598111Y2054388*
X598091Y2054550*
X598030Y2054672*
X597908Y2054774*
X597766Y2054815*
X584050*
X583907Y2054774*
X583785Y2054672*
X583684Y2054550*
X583643Y2054408*
Y2034901*
X583684Y2034759*
X583785Y2034637*
X583907Y2034535*
X584050Y2034495*
X597766*
X597908Y2034535*
X598030Y2034616*
X598091Y2034759*
X598111Y2034901*
X598091Y2035064*
X598030Y2035206*
X597908Y2035307*
X597766Y2035348*
X584497*
Y2044248*
X593702*
X593844Y2044289*
X593966Y2044390*
X594027Y2044512*
X594047Y2044655*
X594027Y2044797*
X593966Y2044939*
X593844Y2045041*
X593702Y2045061*
X584497*
Y2053981*
X597766*
X603699D02*
X613412D01*
X616582Y2051421*
Y2047642*
X613412Y2045061*
X603699*
Y2053981*
X611327Y1932081D02*
X609480Y1933928D01*
X606709Y1935160*
X603014*
X600243Y1933928*
X598396Y1932081*
Y1930234*
X599320Y1928387*
X600243Y1927463*
X602091Y1926232*
X607632Y1924384*
X609480Y1923461*
X610403Y1922537*
X611327Y1920690*
Y1917611*
X609480Y1915764*
X606709Y1914840*
X603014*
X600243Y1915764*
X598396Y1917611*
X617252Y2047093D02*
X617313Y2047134D01*
X617334Y2047235*
X617395Y2047337*
Y2047438*
Y2051624*
Y2051726*
X617334Y2051787*
Y2051848*
X617313Y2051868*
X617293Y2051888*
X617252Y2051929*
X613798Y2054733*
X613696Y2054774*
X613615Y2054794*
X613534Y2054815*
X603293*
X603110Y2054774*
X602988Y2054672*
X602886Y2054550*
X602846Y2054408*
Y2034901*
X602886Y2034738*
X602988Y2034637*
X603110Y2034576*
X603252Y2034556*
X603415Y2034576*
X603557Y2034637*
X603658Y2034738*
X603699Y2034901*
Y2044248*
X613249*
X616582Y2034779*
X616663Y2034637*
X616805Y2034556*
X616968Y2034535*
X617090Y2034576*
X617212Y2034637*
X617313Y2034738*
X617374Y2034881*
X617334Y2035043*
X614001Y2044512*
X617252Y2047093*
X618716Y1935160D02*
Y1920690D01*
X619639Y1917611*
X621486Y1915764*
X624257Y1914840*
X626104*
X628875Y1915764*
X630723Y1917611*
X631646Y1920690*
Y1935160*
X633000Y2045000D02*
X636435Y2042216D01*
X636496Y2042135*
X636516Y2042033*
X636536Y2041972*
X636556Y2041911*
X636577Y2041871*
Y2037685*
X636556Y2037624*
X636516Y2037482*
X636496Y2037441*
X636435Y2037360*
X633021Y2034576*
X632919Y2034535*
X632899Y2034515*
X632858*
X632818Y2034495*
X632797*
X632757*
X625909*
X625828Y2034515*
X625746Y2034535*
X625665Y2034576*
X622251Y2037360*
X622150Y2037461*
X622129Y2037522*
Y2037583*
X622150Y2037725*
X622231Y2037868*
X622312Y2037969*
X622434Y2038051*
X622576Y2038071*
X622719Y2038030*
X626031Y2035328*
X632594*
X635764Y2037888*
Y2041668*
X632594Y2044248*
X625909*
X625828*
X625726Y2044268*
X625665Y2044309*
X622251Y2047093*
X622211Y2047113*
X622170Y2047154*
X622129Y2047215*
X622089Y2047357*
X622068Y2047438*
Y2051624*
X622089Y2051726*
X622129Y2051807*
X622170Y2051848*
X622211Y2051888*
X622251Y2051949*
X625665Y2054733*
X625746Y2054754*
X625807Y2054774*
X625828Y2054794*
X625909Y2054815*
X632757*
X632838Y2054794*
X632879Y2054774*
X632940Y2054754*
X633000Y2054733*
X635561Y2052640*
X635662Y2052539*
X635703Y2052417*
X635683Y2052275*
X635622Y2052132*
X635520Y2052031*
X635378Y2051949*
X635215Y2051929*
X635073Y2051970*
X632635Y2053981*
X626031*
X622901Y2051421*
Y2047642*
X626031Y2045061*
X632757*
X632838Y2045041*
X632919Y2045020*
X633000Y2045000*
X639035Y1914840D02*
Y1935160D01*
X651966Y1914840*
Y1935160*
X672285Y1930234D02*
X671361Y1932081D01*
X669514Y1933928*
X667975Y1935160*
X664280*
X662741Y1933928*
X660894Y1932081*
X659970Y1930234*
X659354Y1927463*
Y1922537*
X659970Y1919766*
X660894Y1917611*
X662741Y1915764*
X664280Y1914840*
X667975*
X669514Y1915764*
X671361Y1917611*
X672285Y1919766*
Y1922537*
X667975*
X704507Y2053981D02*
X704649Y2054022D01*
X704771Y2054103*
X704832Y2054246*
X704852Y2054388*
X704832Y2054550*
X704771Y2054672*
X704649Y2054774*
X704507Y2054815*
X690791*
X690648Y2054774*
X690526Y2054672*
X690425Y2054550*
X690384Y2054408*
Y2034901*
X690425Y2034759*
X690526Y2034637*
X690648Y2034576*
X690791Y2034556*
X690953Y2034576*
X691095Y2034637*
X691197Y2034759*
X691238Y2034901*
Y2045163*
X700443*
X700585Y2045183*
X700707Y2045284*
X700768Y2045427*
X700788Y2045569*
X700768Y2045711*
X700707Y2045853*
X700585Y2045955*
X700443Y2045996*
X691238*
Y2053981*
X704507*
X709680Y1994000D02*
X713060Y1996740D01*
Y1996520*
Y1996360*
Y1996260*
X713040Y1996240*
X713120Y1996500*
X713220Y1996680*
X713320Y1996800*
X713420Y1996840*
X720020*
X720120*
X720200Y1996820*
X720260Y1996800*
X720280Y1996760*
X720320*
X720420Y1996740*
X723800Y1993980*
X723860Y1993900*
X723920Y1993820*
X723960Y1993780*
Y1993720*
X724000Y1993640*
X724020Y1993480*
Y1980020*
X724000Y1979920*
X723960Y1979780*
Y1979720*
X723920Y1979660*
X723860Y1979600*
X723800Y1979520*
X720420Y1976780*
Y1976980*
Y1977120*
Y1977200*
X720440Y1977240*
X720320Y1976980*
X720220Y1976800*
X720120Y1976700*
X720020Y1976660*
X713420*
X713280*
X713220Y1976680*
X713120Y1976720*
X713000Y1976800*
X709720Y1979480*
X709620Y1979540*
X709580Y1979600*
X709520Y1979680*
X709500Y1979800*
X709460Y1979880*
X709440Y1980020*
Y1993480*
X709460Y1993640*
X709500Y1993740*
X709520Y1993760*
X709540Y1993820*
X709600Y1993900*
X709680Y1994000*
X710840Y1993140D02*
Y1980340D01*
X711620Y1979520*
X720900Y1994640*
X719800Y1995460*
X713680*
X710840Y1993140*
X712620Y1978800D02*
X713660Y1978040D01*
X719780*
X722660Y1980360*
Y1993140*
X721880Y1993920*
X712620Y1978800*
X720458Y2053981D02*
X720600Y2054022D01*
X720722Y2054103*
X720783Y2054246*
X720803Y2054388*
X720783Y2054550*
X720722Y2054693*
X720600Y2054794*
X720458Y2054815*
X712533*
X712370Y2054794*
X712289Y2054693*
X712228Y2054550*
X712208Y2054388*
X712228Y2054246*
X712289Y2054103*
X712370Y2054022*
X712533Y2053981*
X716089*
Y2035348*
X712533*
X712370Y2035307*
X712289Y2035206*
X712228Y2035064*
X712208Y2034901*
X712228Y2034759*
X712289Y2034616*
X712370Y2034535*
X712533Y2034495*
X720458*
X720600Y2034535*
X720722Y2034616*
X720783Y2034759*
X720803Y2034901*
X720783Y2035064*
X720722Y2035206*
X720600Y2035307*
X720458Y2035348*
X716881*
Y2053981*
X720458*
X728078Y2034901D02*
X728118Y2034738D01*
X728220Y2034637*
X728342Y2034515*
X728484Y2034495*
X742200*
X742342Y2034515*
X742464Y2034616*
X742525Y2034759*
X742546Y2034901*
X742525Y2035064*
X742464Y2035206*
X742342Y2035287*
X742200Y2035328*
X728931*
Y2054408*
X728891Y2054550*
X728789Y2054672*
X728647Y2054733*
X728484Y2054754*
X728342Y2054733*
X728220Y2054672*
X728118Y2054550*
X728078Y2054408*
Y2034901*
X729760Y1985080D02*
Y1980340D01*
X732600Y1978040*
X738720*
X741580Y1980360*
Y1985080*
X738700Y1987420*
X732600*
X729760Y1985080*
X737000Y1124500D03*
Y1133500D03*
X739340Y1996740D02*
X742680Y1994000D01*
X742780Y1993900*
X742860Y1993800*
X742900Y1993660*
X742920Y1993520*
X742900Y1993360*
X742820Y1993200*
X742720Y1993060*
X742560Y1992940*
X742360Y1992860*
X742200Y1992820*
X742020Y1992840*
X741840Y1992920*
X738700Y1995460*
X732600*
X729760Y1993140*
Y1986520*
X731980Y1988640*
Y1988440*
Y1988280*
Y1988200*
Y1988180*
X732060Y1988420*
X732160Y1988620*
X732240Y1988720*
X732340Y1988760*
X738940*
X739100Y1988740*
X739200Y1988680*
X739240*
X739340Y1988640*
X742740Y1985900*
X742760Y1985880*
X742820Y1985840*
X742860Y1985780*
X742880Y1985640*
X742920Y1985480*
X742940Y1985400*
Y1980020*
Y1979920*
X742920Y1979840*
X742900Y1979780*
X742880Y1979740*
X742860Y1979640*
X742820Y1979560*
X742760Y1979500*
X742660Y1979460*
X739360Y1976780*
X739220Y1976700*
X739180Y1976680*
X739160*
X739120Y1976660*
X739060*
X738940*
X732340*
X732200*
X732140Y1976680*
X732040Y1976720*
X731920Y1976800*
X728640Y1979480*
X728540Y1979540*
X728500Y1979600*
X728440Y1979680*
X728420Y1979800*
X728380Y1979880*
X728360Y1980020*
Y1993480*
X728400Y1993680*
X728500Y1993840*
Y1993860*
X728540Y1993900*
X728600Y1994000*
X731980Y1996740*
Y1996520*
Y1996360*
Y1996260*
X731960Y1996240*
X732040Y1996500*
X732140Y1996680*
X732240Y1996800*
X732340Y1996840*
X738940*
X739040*
X739120Y1996820*
X739180Y1996800*
X739200Y1996760*
X739240*
X739340Y1996740*
X743000Y1129000D03*
X748040Y1977900D02*
X761420D01*
X761580Y1977880*
X761700Y1977840*
X761800Y1977780*
X761900Y1977700*
X762000Y1977500*
X762040Y1977300*
X762020Y1977160*
X762000Y1977020*
X761940Y1976920*
X761880Y1976820*
X761800Y1976760*
X761700Y1976700*
X761560Y1976660*
X761420*
X748040*
X747900*
X747780Y1976700*
X747680Y1976760*
X747580Y1976820*
X747520Y1976920*
X747480Y1977020*
X747460Y1977160*
X747440Y1977300*
X747480Y1977500*
X747580Y1977700*
X747660Y1977780*
X747760Y1977840*
X747880Y1977880*
X748040Y1977900*
X749000Y1124500D03*
Y1133500D03*
X760996Y2034901D02*
X761016Y2034738D01*
X761118Y2034637*
X761260Y2034576*
X761403Y2034556*
X761545Y2034576*
X761667Y2034637*
X761768Y2034738*
X761809Y2034901*
Y2054327*
Y2054388*
Y2054408*
X761789Y2054550*
X761728Y2054652*
X761606Y2054713*
X761464Y2054733*
X761321Y2054754*
X761220Y2054733*
X761118Y2054693*
X761057Y2054611*
X754555Y2044065*
X748073Y2054611*
X747971Y2054713*
X747890Y2054754*
X747768*
X747666Y2054733*
X747504Y2054713*
X747382Y2054652*
X747321Y2054550*
X747280Y2054408*
Y2054388*
Y2054327*
Y2034901*
X747321Y2034738*
X747422Y2034637*
X747544Y2034576*
X747687Y2034556*
X747849Y2034576*
X747991Y2034637*
X748093Y2034738*
X748134Y2034901*
Y2052925*
X754189Y2043029*
X754270Y2042948*
X754352Y2042887*
X754453Y2042866*
X754555Y2042887*
X754656Y2042866*
X754758Y2042887*
X754839Y2042948*
X754920Y2043029*
X760996Y2052925*
Y2034901*
X777100Y1987360D02*
X780520Y1984580D01*
X780580Y1984500*
X780640Y1984420*
X780680Y1984340*
Y1984260*
X780700Y1984180*
X780720Y1984140*
X780740Y1984100*
Y1980020*
X780720Y1979920*
X780680Y1979780*
Y1979720*
X780640Y1979660*
X780580Y1979600*
X780520Y1979520*
X777160Y1976780*
X777020Y1976700*
X776980Y1976680*
X776960*
X776920Y1976660*
X776860*
X776740*
X770140*
X770000*
X769940Y1976680*
X769840Y1976720*
X769720Y1976800*
X766420Y1979500*
X766320Y1979580*
X766240Y1979680*
X766200Y1979800*
Y1979920*
X766240Y1980160*
X766340Y1980380*
X766500Y1980540*
X766720Y1980640*
X766860Y1980680*
X767000*
X767140Y1980640*
X767280Y1980580*
X770400Y1978040*
X776520*
X779380Y1980360*
Y1983720*
X776500Y1986080*
X770140*
X769920*
Y1986100*
X769960*
X769820Y1986140*
X769700Y1986220*
X766440Y1988880*
X766340Y1988940*
X766300Y1988980*
X766240Y1989080*
X766180Y1989300*
X766160Y1989440*
Y1993480*
X766200Y1993680*
X766300Y1993840*
Y1993860*
X766340Y1993900*
X766400Y1994000*
X769780Y1996740*
Y1996520*
Y1996360*
Y1996260*
X769760Y1996240*
X769860Y1996500*
X769940Y1996680*
X770040Y1996800*
X770140Y1996840*
X776740*
X776840*
X776920Y1996820*
X776980Y1996800*
X777020Y1996760*
X777040*
X777140Y1996740*
X779660Y1994660*
X779760Y1994580*
X779840Y1994480*
X779880Y1994360*
X779900Y1994220*
X779860Y1994000*
X779760Y1993800*
X779600Y1993640*
X779360Y1993520*
X779240Y1993500*
X779100*
X778960Y1993520*
X778800Y1993580*
X776520Y1995460*
X770400*
X767560Y1993140*
Y1989760*
X770400Y1987420*
X776740*
X776900*
X776960Y1987400*
X776980Y1987380*
X777020Y1987360*
X777100*
X781011Y2034901D02*
X781052Y2034738D01*
X781154Y2034637*
X781276Y2034576*
X781418Y2034556*
X781580Y2034576*
X781723Y2034637*
X781824Y2034738*
X781865Y2034901*
Y2053108*
X794809Y2034657*
X794870Y2034576*
X794971Y2034535*
X795073*
X795195Y2034576*
X795337Y2034616*
X795459Y2034677*
X795520Y2034779*
X795540Y2034901*
Y2054408*
X795500Y2054550*
X795398Y2054672*
X795276Y2054733*
X795134Y2054754*
X794992Y2054733*
X794849Y2054672*
X794748Y2054550*
X794727Y2054408*
Y2036201*
X781763Y2054632*
X781682Y2054713*
X781601Y2054754*
X781499*
X781397Y2054733*
X781235Y2054713*
X781113Y2054652*
X781052Y2054550*
X781011Y2054408*
Y2034901*
X786480Y1993140D02*
Y1980340D01*
X789320Y1978040*
X795440*
X798300Y1980360*
Y1993140*
X795420Y1995460*
X789320*
X786480Y1993140*
X799660Y1993480D02*
Y1980020D01*
Y1979920*
X799640Y1979840*
X799620Y1979780*
X799600Y1979740*
X799580Y1979640*
X799540Y1979580*
X799480Y1979500*
X799380Y1979460*
X796080Y1976780*
X795940Y1976700*
X795900Y1976680*
X795880*
X795840Y1976660*
X795780*
X795660*
X789060*
X788920*
X788860Y1976680*
X788760Y1976720*
X788640Y1976800*
X785380Y1979460*
X785280Y1979500*
X785200Y1979560*
X785160Y1979640*
X785140Y1979720*
X785120Y1979760*
X785100Y1979820*
X785080Y1979920*
Y1980020*
Y1993480*
X785120Y1993680*
X785220Y1993840*
Y1993860*
X785260Y1993900*
X785320Y1994000*
X788700Y1996740*
Y1996520*
Y1996360*
Y1996260*
X788680Y1996240*
X788760Y1996500*
X788860Y1996680*
X788960Y1996800*
X789060Y1996840*
X795660*
X795760*
X795840Y1996820*
X795900Y1996800*
X795920Y1996760*
X795960*
X796060Y1996740*
X799460Y1993960*
X799480Y1993920*
X799540Y1993900*
X799580Y1993840*
X799600Y1993760*
X799620Y1993720*
X799640Y1993660*
X799660Y1993580*
Y1993480*
X801067Y2043131D02*
Y2040916D01*
X813930*
Y2043131*
X807509Y2053920*
X801067Y2043131*
X804000Y1977320D02*
Y1977180D01*
X804040Y1977060*
X804120Y1976940*
X804200Y1976880*
X804280Y1976780*
X804380Y1976720*
X804520Y1976680*
X804660Y1976660*
X817900*
X818040Y1976680*
X818180Y1976720*
X818300Y1976780*
X818380Y1976880*
X818500Y1977100*
X818520Y1977320*
X818500Y1977560*
X818380Y1977800*
X818280Y1977900*
X818180Y1977980*
X818040Y1978020*
X817900*
X805380*
Y1996160*
Y1996300*
X805320Y1996420*
X805260Y1996540*
X805160Y1996620*
X804920Y1996740*
X804660Y1996780*
X804440Y1996740*
X804220Y1996620*
X804120Y1996540*
X804060Y1996440*
X804000Y1996300*
Y1996160*
Y1977320*
X807305Y2054794D02*
X807773D01*
X807854Y2054774*
X807915Y2054733*
X808057Y2054632*
X808118Y2054591*
X814682Y2043496*
X814702Y2043415*
X814722Y2043374*
X814743Y2043334*
Y2043313*
Y2043273*
Y2034901*
X814702Y2034759*
X814621Y2034637*
X814478Y2034576*
X814336Y2034556*
X814194Y2034576*
X814052Y2034637*
X813970Y2034759*
X813930Y2034901*
Y2040083*
X801067*
Y2034901*
X801027Y2034759*
X800945Y2034637*
X800803Y2034576*
X800640Y2034556*
X800498Y2034576*
X800356Y2034637*
X800275Y2034759*
X800234Y2034901*
Y2043273*
Y2043313*
Y2043334*
X800254Y2043374*
X800275Y2043415*
X800295Y2043496*
X806940Y2054591*
X807041Y2054693*
X807163Y2054733*
X807244Y2054774*
X807305Y2054794*
X824300Y1995460D02*
X833260D01*
X836140Y1993140*
Y1980360*
X833260Y1978040*
X824300*
Y1995460*
X833173Y2034901D02*
X833193Y2034738D01*
X833295Y2034637*
X833437Y2034576*
X833579Y2034556*
X833721Y2034576*
X833843Y2034637*
X833945Y2034738*
X833986Y2034901*
Y2054327*
Y2054388*
Y2054408*
X833965Y2054550*
X833904Y2054652*
X833782Y2054713*
X833640Y2054733*
X833498Y2054754*
X833396Y2054733*
X833295Y2054693*
X833234Y2054611*
X826731Y2044065*
X820249Y2054611*
X820148Y2054713*
X820066Y2054754*
X819944*
X819843Y2054733*
X819680Y2054713*
X819558Y2054652*
X819497Y2054550*
X819457Y2054408*
Y2054388*
Y2054327*
Y2034901*
X819497Y2034738*
X819599Y2034637*
X819721Y2034576*
X819863Y2034556*
X820026Y2034576*
X820168Y2034637*
X820270Y2034738*
X820310Y2034901*
Y2052925*
X826366Y2043029*
X826447Y2042948*
X826528Y2042887*
X826630Y2042866*
X826731Y2042887*
X826833Y2042866*
X826935Y2042887*
X827016Y2042948*
X827097Y2043029*
X833173Y2052925*
Y2034901*
X833920Y1996700D02*
X833840Y1996740D01*
X833760Y1996780*
X833720Y1996800*
X833700Y1996820*
X833660*
X833500Y1996840*
X823580*
X823440Y1996820*
X823320Y1996780*
X823200Y1996700*
X823120Y1996620*
X823040Y1996540*
X822960Y1996440*
X822920Y1996300*
Y1996160*
Y1977320*
Y1977180*
X822960Y1977060*
X823040Y1976940*
X823120Y1976880*
X823200Y1976780*
X823300Y1976720*
X823440Y1976680*
X823580Y1976660*
X833500*
X833600*
X833680*
X833720Y1976680*
X833740*
Y1976700*
X833780*
X833840Y1976740*
X833920Y1976780*
X837280Y1979520*
X837360Y1979600*
X837400Y1979660*
X837440Y1979720*
Y1979760*
X837500Y1979880*
Y1980020*
Y1993460*
Y1993560*
Y1993640*
X837440Y1993740*
Y1993840*
X837380Y1993880*
X837340Y1993920*
X837300Y1993940*
X833920Y1996700*
X852782Y2053981D02*
X852924Y2054022D01*
X853046Y2054103*
X853107Y2054246*
X853127Y2054388*
X853107Y2054550*
X853046Y2054672*
X852924Y2054774*
X852782Y2054815*
X839066*
X838923Y2054774*
X838801Y2054672*
X838700Y2054550*
X838659Y2054408*
Y2034901*
X838700Y2034759*
X838801Y2034637*
X838923Y2034535*
X839066Y2034495*
X852782*
X852924Y2034535*
X853046Y2034616*
X853107Y2034759*
X853127Y2034901*
X853107Y2035064*
X853046Y2035206*
X852924Y2035307*
X852782Y2035348*
X839513*
Y2044248*
X848718*
X848860Y2044289*
X848982Y2044390*
X849043Y2044512*
X849063Y2044655*
X849043Y2044797*
X848982Y2044939*
X848860Y2045041*
X848718Y2045061*
X839513*
Y2053981*
X852782*
X894804Y1972816D02*
X892932Y1974022D01*
X892842Y1974112*
X892806Y1974238*
Y1974346*
X892842Y1974436*
X892896Y1974526*
X892950Y1974616*
X893040Y1974688*
X893130Y1974706*
X893220*
X893310Y1974652*
X895074Y1973500*
X897180*
X898512Y1975228*
Y1990474*
X898530Y1990618*
X898602Y1990726*
X898710Y1990780*
X898854Y1990816*
X899016Y1990780*
X899124Y1990726*
X899196Y1990618*
X899214Y1990474*
Y1975102*
X899196Y1975012*
X899160Y1974886*
X899142*
Y1974868*
X899106*
X897594Y1972888*
X897540Y1972852*
X897504Y1972834*
X897432Y1972780*
X897360Y1972762*
X894984*
X894966*
X894948*
X894930Y1972780*
X894876Y1972798*
X894804Y1972816*
X899214Y1994002D02*
Y1992202D01*
X899196Y1992058*
X899124Y1991950*
X899016Y1991896*
X898854Y1991878*
X898710Y1991896*
X898602Y1991950*
X898530Y1992058*
X898512Y1992202*
Y1994002*
X898530Y1994146*
X898602Y1994254*
X898710Y1994326*
X898854Y1994344*
X899016Y1994326*
X899124Y1994254*
X899196Y1994146*
X899214Y1994002*
X914432Y2053981D02*
X924125D01*
X927295Y2051421*
Y2037888*
X924125Y2035328*
X914432*
Y2053981*
X915432Y1977694D02*
X915576Y1977730D01*
X915648Y1977802*
X915702Y1977928*
X915720Y1978054*
X915702Y1978180*
X915648Y1978288*
X915576Y1978378*
X915432Y1978414*
X913542*
Y1990186*
X913506Y1990330*
X913434Y1990420*
X913344Y1990528*
X913200Y1990546*
X910968*
X910842Y1990528*
X910752Y1990438*
X910698Y1990312*
X910680Y1990186*
X910698Y1990060*
X910752Y1989952*
X910842Y1989862*
X910968Y1989826*
X912858*
Y1978414*
X910968*
X910842Y1978378*
X910752Y1978288*
X910698Y1978180*
X910680Y1978054*
X910698Y1977928*
X910752Y1977802*
X910842Y1977730*
X910968Y1977694*
X915432*
X923874Y1983922D02*
X927222Y1986190D01*
X931902*
X935268Y1983922*
Y1980646*
X931902Y1978414*
X927222*
X923874Y1980646*
Y1983922*
X924532Y2054733D02*
X924430Y2054774D01*
X924349Y2054794*
X924267Y2054815*
X913985*
X913843Y2054774*
X913721Y2054672*
X913620Y2054550*
X913579Y2054408*
Y2034901*
X913620Y2034738*
X913721Y2034637*
X913843Y2034515*
X913985Y2034495*
X924267*
X924349*
X924389Y2034515*
X924430Y2034535*
X924532Y2034576*
X927966Y2037360*
X928027Y2037441*
X928047Y2037482*
X928088Y2037583*
X928108Y2037685*
Y2051624*
X928088Y2051726*
X928047Y2051787*
Y2051848*
X928027Y2051868*
X927986Y2051888*
X927966Y2051929*
X924532Y2054733*
X935268Y1978054D02*
X935286Y1977910D01*
X935376Y1977820*
X935502Y1977766*
X935628Y1977748*
X935754Y1977766*
X935862Y1977820*
X935952Y1977910*
X935988Y1978054*
Y1987774*
X935952Y1987828*
Y1987900*
X935916Y1988026*
X933468Y1990456*
X933360Y1990510*
X933288Y1990528*
X933216Y1990546*
X923478*
X923352Y1990528*
X923262Y1990438*
X923190Y1990312*
X923172Y1990186*
X923190Y1990060*
X923262Y1989952*
X923352Y1989862*
X923478Y1989826*
X933018*
X935268Y1987594*
Y1984768*
X932172Y1986856*
X932100Y1986892*
X931992Y1986910*
X927132*
X927006Y1986892*
X926934Y1986856*
X923298Y1984408*
X923262Y1984372*
X923244Y1984354*
X923208Y1984336*
X923136Y1984246*
X923118Y1984120*
Y1980466*
X923136Y1980376*
X923208Y1980286*
X923244Y1980232*
X923298Y1980196*
X926934Y1977766*
X927024Y1977712*
X927132Y1977694*
X931992*
X932100Y1977712*
X932172Y1977766*
X935268Y1979800*
Y1978054*
X940200Y1978342D02*
X946014Y1984120D01*
X940200Y1989916*
X940146Y1989970*
X940110Y1990024*
Y1990078*
Y1990150*
X940164Y1990294*
X940254Y1990402*
X940362Y1990474*
X940488Y1990528*
X940632*
X940740Y1990456*
X946536Y1984660*
X952350Y1990456*
X952458Y1990528*
X952584*
X952710Y1990474*
X952836Y1990402*
X952908Y1990294*
X952962Y1990150*
Y1990024*
X952890Y1989916*
X947076Y1984120*
X952890Y1978342*
X952926Y1978270*
X952944Y1978198*
Y1978072*
X952890Y1977928*
X952800Y1977820*
X952692Y1977730*
X952566Y1977694*
X952512*
X952458Y1977712*
X952404Y1977748*
X952350Y1977802*
X946536Y1983580*
X940740Y1977802*
X940686Y1977748*
X940632Y1977712*
X940578Y1977694*
X940506*
X940380Y1977730*
X940272Y1977820*
X940200Y1977928*
X940128Y1978072*
Y1978198*
X940200Y1978342*
X946904Y2053981D02*
X947046Y2054022D01*
X947168Y2054103*
X947229Y2054246*
X947249Y2054388*
X947229Y2054550*
X947168Y2054672*
X947046Y2054774*
X946904Y2054815*
X933188*
X933046Y2054774*
X932924Y2054672*
X932822Y2054550*
X932781Y2054408*
Y2034901*
X932822Y2034759*
X932924Y2034637*
X933046Y2034535*
X933188Y2034495*
X946904*
X947046Y2034535*
X947168Y2034616*
X947229Y2034759*
X947249Y2034901*
X947229Y2035064*
X947168Y2035206*
X947046Y2035307*
X946904Y2035348*
X933635*
Y2044248*
X942840*
X942982Y2044289*
X943104Y2044390*
X943165Y2044512*
X943185Y2044655*
X943165Y2044797*
X943104Y2044939*
X942982Y2045041*
X942840Y2045061*
X933635*
Y2053981*
X946904*
X962936Y2045000D02*
X966370Y2042216D01*
X966431Y2042135*
X966452Y2042033*
X966472Y2041972*
X966492Y2041911*
X966513Y2041871*
Y2037685*
X966492Y2037624*
X966452Y2037482*
X966431Y2037441*
X966370Y2037360*
X962957Y2034576*
X962855Y2034535*
X962835Y2034515*
X962794*
X962753Y2034495*
X962733*
X962692*
X955845*
X955763Y2034515*
X955682Y2034535*
X955601Y2034576*
X952187Y2037360*
X952085Y2037461*
X952065Y2037522*
Y2037583*
X952085Y2037725*
X952167Y2037868*
X952248Y2037969*
X952370Y2038051*
X952512Y2038071*
X952654Y2038030*
X955967Y2035328*
X962530*
X965700Y2037888*
Y2041668*
X962530Y2044248*
X955845*
X955763*
X955662Y2044268*
X955601Y2044309*
X952187Y2047093*
X952146Y2047113*
X952106Y2047154*
X952065Y2047215*
X952024Y2047357*
X952004Y2047438*
Y2051624*
X952024Y2051726*
X952065Y2051807*
X952106Y2051848*
X952146Y2051888*
X952187Y2051949*
X955601Y2054733*
X955682Y2054754*
X955743Y2054774*
X955763Y2054794*
X955845Y2054815*
X962692*
X962774Y2054794*
X962814Y2054774*
X962875Y2054754*
X962936Y2054733*
X965497Y2052640*
X965598Y2052539*
X965639Y2052417*
X965619Y2052275*
X965558Y2052132*
X965456Y2052031*
X965314Y2051949*
X965151Y2051929*
X965009Y2051970*
X962571Y2053981*
X955967*
X952837Y2051421*
Y2047642*
X955967Y2045061*
X962692*
X962774Y2045041*
X962855Y2045020*
X962936Y2045000*
X965040Y1977694D02*
X965184Y1977730D01*
X965256Y1977802*
X965310Y1977928*
X965328Y1978054*
X965310Y1978180*
X965256Y1978288*
X965184Y1978378*
X965040Y1978414*
X963150*
Y1990186*
X963114Y1990330*
X963042Y1990420*
X962952Y1990528*
X962808Y1990546*
X960576*
X960450Y1990528*
X960360Y1990438*
X960306Y1990312*
X960288Y1990186*
X960306Y1990060*
X960360Y1989952*
X960450Y1989862*
X960576Y1989826*
X962466*
Y1978414*
X960576*
X960450Y1978378*
X960360Y1978288*
X960306Y1978180*
X960288Y1978054*
X960306Y1977928*
X960360Y1977802*
X960450Y1977730*
X960576Y1977694*
X965040*
X982057Y2053981D02*
X982200Y2054022D01*
X982322Y2054103*
X982383Y2054246*
X982403Y2054388*
X982383Y2054550*
X982322Y2054693*
X982200Y2054794*
X982057Y2054815*
X974133*
X973970Y2054794*
X973889Y2054693*
X973828Y2054550*
X973808Y2054388*
X973828Y2054246*
X973889Y2054103*
X973970Y2054022*
X974133Y2053981*
X977689*
Y2035348*
X974133*
X973970Y2035307*
X973889Y2035206*
X973828Y2035064*
X973808Y2034901*
X973828Y2034759*
X973889Y2034616*
X973970Y2034535*
X974133Y2034495*
X982057*
X982200Y2034535*
X982322Y2034616*
X982383Y2034759*
X982403Y2034901*
X982383Y2035064*
X982322Y2035206*
X982200Y2035307*
X982057Y2035348*
X978481*
Y2053981*
X982057*
X984876Y1978054D02*
X984894Y1977910D01*
X984984Y1977820*
X985110Y1977766*
X985236Y1977748*
X985362Y1977766*
X985470Y1977820*
X985560Y1977910*
X985596Y1978054*
Y1987774*
X985578Y1987828*
X985542Y1987900*
X985524Y1987972*
X985470Y1988062*
X982428Y1990474*
X982338Y1990510*
X982266Y1990528*
X982194Y1990546*
X976128*
X976056Y1990528*
X976002Y1990510*
X975930Y1990474*
X973482Y1988530*
Y1990186*
X973446Y1990330*
X973356Y1990420*
X973230Y1990474*
X973086Y1990510*
X972960Y1990474*
X972852Y1990420*
X972762Y1990330*
X972726Y1990186*
Y1978054*
X972762Y1977910*
X972852Y1977820*
X972960Y1977766*
X973086Y1977748*
X973230Y1977766*
X973356Y1977820*
X973446Y1977910*
X973482Y1978054*
Y1987594*
X976254Y1989826*
X982068*
X984876Y1987594*
Y1978054*
X1000650Y2054733D02*
X1004064Y2051949D01*
X1004166Y2051848*
X1004186Y2051685*
X1004166Y2051563*
X1004125Y2051462*
X1004064Y2051380*
X1003962Y2051299*
X1003861Y2051238*
X1003759Y2051218*
X1003658*
X1003576Y2051279*
X1000244Y2053981*
X993660*
X990531Y2051421*
Y2037888*
X993660Y2035328*
X1000224*
X1003393Y2037888*
Y2042866*
X1000366*
X1000224Y2042907*
X1000122Y2042988*
X1000041Y2043131*
X1000020Y2043273*
X1000041Y2043415*
X1000122Y2043537*
X1000224Y2043639*
X1000366Y2043679*
X1003800*
X1003962Y2043639*
X1004084Y2043557*
X1004186Y2043435*
X1004206Y2043273*
Y2037685*
X1004186Y2037583*
X1004145Y2037522*
X1004125Y2037421*
X1004064Y2037360*
X1000650Y2034576*
X1000549Y2034535*
X1000528Y2034515*
X1000488*
X1000447Y2034495*
X1000427*
X1000386*
X993538*
X993457Y2034515*
X993376Y2034535*
X993294Y2034576*
X989881Y2037360*
X989840Y2037400*
X989799Y2037421*
X989759Y2037482*
X989718Y2037624*
X989698Y2037685*
Y2051624*
X989718Y2051706*
X989759Y2051767*
X989799Y2051848*
X989881Y2051949*
X993294Y2054733*
X993376Y2054754*
X993437Y2054774*
X993457Y2054794*
X993538Y2054815*
X1000386*
X1000467Y2054794*
X1000488*
X1000508Y2054774*
X1000569Y2054754*
X1000650Y2054733*
X1002678Y1978342D02*
X1002606Y1978234D01*
X1002570Y1978126*
X1002588Y1978036*
X1002660Y1977928*
X1002696Y1977820*
X1002750Y1977748*
X1002840Y1977712*
X1002930Y1977694*
X1015080*
X1015206Y1977730*
X1015314Y1977802*
X1015368Y1977928*
X1015386Y1978054*
X1015368Y1978180*
X1015314Y1978288*
X1015206Y1978378*
X1015080Y1978414*
X1003830*
X1015368Y1989916*
X1015422Y1990024*
Y1990132*
X1015404Y1990240*
X1015368Y1990348*
X1015296Y1990438*
X1015242Y1990510*
X1015170Y1990546*
X1015080*
X1002930*
X1002804Y1990528*
X1002714Y1990438*
X1002642Y1990312*
X1002624Y1990186*
X1002642Y1990060*
X1002714Y1989952*
X1002804Y1989862*
X1002930Y1989826*
X1014180*
X1002678Y1978342*
X1008839Y2034901D02*
X1008880Y2034738D01*
X1008981Y2034637*
X1009103Y2034576*
X1009246Y2034556*
X1009408Y2034576*
X1009550Y2034637*
X1009652Y2034738*
X1009693Y2034901*
Y2053108*
X1022636Y2034657*
X1022697Y2034576*
X1022799Y2034535*
X1022901*
X1023023Y2034576*
X1023165Y2034616*
X1023287Y2034677*
X1023348Y2034779*
X1023368Y2034901*
Y2054408*
X1023327Y2054550*
X1023226Y2054672*
X1023104Y2054733*
X1022962Y2054754*
X1022819Y2054733*
X1022677Y2054672*
X1022576Y2054550*
X1022555Y2054408*
Y2036201*
X1009591Y2054632*
X1009510Y2054713*
X1009428Y2054754*
X1009327*
X1009225Y2054733*
X1009063Y2054713*
X1008941Y2054652*
X1008880Y2054550*
X1008839Y2054408*
Y2034901*
X1023540Y1990762D02*
X1023504Y1990744D01*
X1023486*
X1023450Y1990726*
X1023414*
X1023360Y1990672*
X1023342*
X1020282Y1988602*
Y1995334*
X1020246Y1995460*
X1020156Y1995568*
X1020030Y1995622*
X1019886Y1995640*
X1019760Y1995622*
X1019652Y1995568*
X1019562Y1995460*
X1019526Y1995334*
Y1978054*
X1019562Y1977910*
X1019652Y1977820*
X1019760Y1977766*
X1019886Y1977748*
X1020030Y1977766*
X1020156Y1977820*
X1020246Y1977910*
X1020282Y1978054*
Y1987720*
X1023594Y1990006*
X1028310*
X1031676Y1987720*
Y1978054*
X1031694Y1977910*
X1031784Y1977820*
X1031910Y1977766*
X1032036Y1977748*
X1032162Y1977766*
X1032270Y1977820*
X1032360Y1977910*
X1032396Y1978054*
Y1987918*
X1032378Y1988026*
X1032342Y1988134*
X1032234Y1988206*
X1028580Y1990672*
X1028508Y1990726*
X1028400Y1990762*
X1023540*
X1037256Y1983922D02*
X1040604Y1986190D01*
X1045284*
X1048650Y1983922*
Y1980646*
X1045284Y1978414*
X1040604*
X1037256Y1980646*
Y1983922*
X1042164Y2053981D02*
X1042306Y2054022D01*
X1042428Y2054103*
X1042489Y2054246*
X1042509Y2054388*
X1042489Y2054550*
X1042428Y2054672*
X1042306Y2054774*
X1042164Y2054815*
X1028448*
X1028306Y2054774*
X1028184Y2054672*
X1028082Y2054550*
X1028042Y2054408*
Y2034901*
X1028082Y2034759*
X1028184Y2034637*
X1028306Y2034535*
X1028448Y2034495*
X1042164*
X1042306Y2034535*
X1042428Y2034616*
X1042489Y2034759*
X1042509Y2034901*
X1042489Y2035064*
X1042428Y2035206*
X1042306Y2035307*
X1042164Y2035348*
X1028895*
Y2044248*
X1038100*
X1038242Y2044289*
X1038364Y2044390*
X1038425Y2044512*
X1038445Y2044655*
X1038425Y2044797*
X1038364Y2044939*
X1038242Y2045041*
X1038100Y2045061*
X1028895*
Y2053981*
X1042164*
X1048097D02*
X1057810D01*
X1060980Y2051421*
Y2047642*
X1057810Y2045061*
X1048097*
Y2053981*
X1048650Y1978054D02*
X1048668Y1977910D01*
X1048758Y1977820*
X1048884Y1977766*
X1049010Y1977748*
X1049136Y1977766*
X1049244Y1977820*
X1049334Y1977910*
X1049370Y1978054*
Y1987774*
X1049334Y1987828*
Y1987900*
X1049298Y1988026*
X1046850Y1990456*
X1046742Y1990510*
X1046670Y1990528*
X1046598Y1990546*
X1036860*
X1036734Y1990528*
X1036644Y1990438*
X1036572Y1990312*
X1036554Y1990186*
X1036572Y1990060*
X1036644Y1989952*
X1036734Y1989862*
X1036860Y1989826*
X1046400*
X1048650Y1987594*
Y1984768*
X1045554Y1986856*
X1045482Y1986892*
X1045374Y1986910*
X1040514*
X1040388Y1986892*
X1040316Y1986856*
X1036680Y1984408*
X1036644Y1984372*
X1036626Y1984354*
X1036590Y1984336*
X1036518Y1984246*
X1036500Y1984120*
Y1980466*
X1036518Y1980376*
X1036590Y1980286*
X1036626Y1980232*
X1036680Y1980196*
X1040316Y1977766*
X1040406Y1977712*
X1040514Y1977694*
X1045374*
X1045482Y1977712*
X1045554Y1977766*
X1048650Y1979800*
Y1978054*
X1061651Y2047093D02*
X1061712Y2047134D01*
X1061732Y2047235*
X1061793Y2047337*
Y2047438*
Y2051624*
Y2051726*
X1061732Y2051787*
Y2051848*
X1061712Y2051868*
X1061692Y2051888*
X1061651Y2051929*
X1058196Y2054733*
X1058095Y2054774*
X1058014Y2054794*
X1057932Y2054815*
X1047691*
X1047508Y2054774*
X1047386Y2054672*
X1047285Y2054550*
X1047244Y2054408*
Y2034901*
X1047285Y2034738*
X1047386Y2034637*
X1047508Y2034576*
X1047650Y2034556*
X1047813Y2034576*
X1047955Y2034637*
X1048057Y2034738*
X1048097Y2034901*
Y2044248*
X1057648*
X1060980Y2034779*
X1061062Y2034637*
X1061204Y2034556*
X1061366Y2034535*
X1061488Y2034576*
X1061610Y2034637*
X1061712Y2034738*
X1061773Y2034881*
X1061732Y2035043*
X1058400Y2044512*
X1061651Y2047093*
X1065624Y1978054D02*
X1065642Y1977910D01*
X1065732Y1977820*
X1065858Y1977766*
X1065984Y1977748*
X1066110Y1977766*
X1066218Y1977820*
X1066308Y1977910*
X1066344Y1978054*
Y1987774*
X1066326Y1987828*
X1066290Y1987900*
X1066272Y1987972*
X1066218Y1988062*
X1063176Y1990474*
X1063086Y1990510*
X1063014Y1990528*
X1062942Y1990546*
X1056876*
X1056804Y1990528*
X1056750Y1990510*
X1056678Y1990474*
X1054230Y1988530*
Y1990186*
X1054194Y1990330*
X1054104Y1990420*
X1053978Y1990474*
X1053834Y1990510*
X1053708Y1990474*
X1053600Y1990420*
X1053510Y1990330*
X1053474Y1990186*
Y1978054*
X1053510Y1977910*
X1053600Y1977820*
X1053708Y1977766*
X1053834Y1977748*
X1053978Y1977766*
X1054104Y1977820*
X1054194Y1977910*
X1054230Y1978054*
Y1987594*
X1057002Y1989826*
X1062816*
X1065624Y1987594*
Y1978054*
X1071204Y1987774D02*
Y1980718D01*
X1074552Y1978432*
X1079160*
X1082598Y1981960*
X1082616Y1986550*
X1079160Y1990096*
X1074552*
X1071204Y1987774*
X1082958Y1970296D02*
X1070862D01*
X1070718Y1970332*
X1070610Y1970404*
X1070538Y1970530*
X1070520Y1970674*
X1070538Y1970800*
X1070610Y1970926*
X1070718Y1970998*
X1070862Y1971034*
X1082598*
Y1980862*
X1079592Y1977802*
X1079484Y1977730*
X1079412Y1977712*
X1079340Y1977694*
X1074480*
X1074354Y1977712*
X1074264Y1977766*
X1070646Y1980232*
X1070574Y1980286*
X1070538Y1980340*
X1070484Y1980430*
X1070466Y1980556*
Y1987990*
X1070484Y1988098*
X1070538Y1988188*
X1070574Y1988242*
X1070610Y1988260*
X1070646Y1988296*
X1074264Y1990762*
X1074354Y1990816*
X1074480Y1990834*
X1079322*
X1079412Y1990816*
X1079484Y1990798*
X1079592Y1990744*
X1082616Y1987630*
Y1990456*
X1082652Y1990600*
X1082742Y1990690*
X1082850Y1990762*
X1082976Y1990780*
X1083102Y1990762*
X1083228Y1990690*
X1083318Y1990582*
X1083336Y1990438*
X1083318Y1970656*
X1083300Y1970512*
X1083210Y1970422*
X1083102Y1970332*
X1082958Y1970296*
X1108202Y1930234D02*
Y1931157D01*
X1109125Y1933005*
X1110049Y1933928*
X1111896Y1935160*
X1115591*
X1117438Y1933928*
X1118362Y1933005*
X1119285Y1931157*
Y1929310*
X1118362Y1927463*
X1116514Y1924384*
X1107278Y1914840*
X1120209*
X1118351Y2053981D02*
X1128064D01*
X1131233Y2051421*
Y2047642*
X1128064Y2045061*
X1118351*
Y2053981*
X1131904Y2047093D02*
X1131965Y2047134D01*
X1131985Y2047235*
X1132046Y2047337*
Y2047438*
Y2051624*
Y2051726*
X1131985Y2051787*
Y2051848*
X1131965Y2051868*
X1131945Y2051888*
X1131904Y2051929*
X1128450Y2054733*
X1128348Y2054774*
X1128267Y2054794*
X1128185Y2054815*
X1117944*
X1117761Y2054774*
X1117639Y2054672*
X1117538Y2054550*
X1117497Y2054408*
Y2034901*
X1117538Y2034738*
X1117639Y2034637*
X1117761Y2034576*
X1117904Y2034556*
X1118066Y2034576*
X1118208Y2034637*
X1118310Y2034738*
X1118351Y2034901*
Y2044248*
X1127901*
X1131233Y2034779*
X1131315Y2034637*
X1131457Y2034556*
X1131620Y2034535*
X1131741Y2034576*
X1131863Y2034637*
X1131965Y2034738*
X1132026Y2034881*
X1131985Y2035043*
X1128653Y2044512*
X1131904Y2047093*
X1136218Y1934852D02*
X1127598Y1921613D01*
X1140528*
X1136218Y1934852D02*
Y1914840D01*
X1140151Y1993981D02*
X1149844D01*
X1153014Y1991421*
Y1977888*
X1149844Y1975328*
X1140151*
Y1993981*
X1150250Y1994733D02*
X1150149Y1994774D01*
X1150067Y1994794*
X1149986Y1994815*
X1139704*
X1139562Y1994774*
X1139440Y1994672*
X1139338Y1994550*
X1139298Y1994408*
Y1974901*
X1139338Y1974738*
X1139440Y1974637*
X1139562Y1974515*
X1139704Y1974495*
X1149986*
X1150067*
X1150108Y1974515*
X1150149Y1974535*
X1150250Y1974576*
X1153684Y1977360*
X1153745Y1977441*
X1153766Y1977482*
X1153806Y1977583*
X1153827Y1977685*
Y1991624*
X1153806Y1991726*
X1153766Y1991787*
Y1991848*
X1153745Y1991868*
X1153705Y1991888*
X1153684Y1991929*
X1150250Y1994733*
X1150822Y2053981D02*
X1150964Y2054022D01*
X1151086Y2054103*
X1151147Y2054246*
X1151167Y2054388*
X1151147Y2054550*
X1151086Y2054672*
X1150964Y2054774*
X1150822Y2054815*
X1137106*
X1136964Y2054774*
X1136842Y2054672*
X1136740Y2054550*
X1136700Y2054408*
Y2034901*
X1136740Y2034759*
X1136842Y2034637*
X1136964Y2034535*
X1137106Y2034495*
X1150822*
X1150964Y2034535*
X1151086Y2034616*
X1151147Y2034759*
X1151167Y2034901*
X1151147Y2035064*
X1151086Y2035206*
X1150964Y2035307*
X1150822Y2035348*
X1137553*
Y2044248*
X1146758*
X1146900Y2044289*
X1147022Y2044390*
X1147083Y2044512*
X1147103Y2044655*
X1147083Y2044797*
X1147022Y2044939*
X1146900Y2045041*
X1146758Y2045061*
X1137553*
Y2053981*
X1150822*
X1154382Y1916688D02*
X1153767Y1915764D01*
X1154382Y1914840*
X1154690Y1915764*
X1154382Y1916688*
X1159354Y1983131D02*
Y1980916D01*
X1172216*
Y1983131*
X1165795Y1993920*
X1159354Y1983131*
X1164030Y2034495D02*
X1163481D01*
X1163359Y2034515*
X1163258Y2034576*
X1163156Y2034657*
X1163116Y2034779*
X1156512Y2054266*
X1156491Y2054428*
X1156552Y2054550*
X1156674Y2054652*
X1156816Y2054733*
X1156959Y2054754*
X1157101Y2054733*
X1157223Y2054672*
X1157304Y2054530*
X1163745Y2035368*
X1170228Y2054530*
X1170309Y2054672*
X1170431Y2054733*
X1170573Y2054754*
X1170715Y2054733*
X1170857Y2054652*
X1170959Y2054550*
X1171000Y2054428*
X1170979Y2054266*
X1164416Y2034779*
X1164355Y2034657*
X1164233Y2034576*
X1164152Y2034515*
X1164030Y2034495*
X1165592Y1994794D02*
X1166059D01*
X1166140Y1994774*
X1166201Y1994733*
X1166344Y1994632*
X1166405Y1994591*
X1172968Y1983496*
X1172988Y1983415*
X1173009Y1983374*
X1173029Y1983334*
Y1983313*
Y1983273*
Y1974901*
X1172988Y1974759*
X1172907Y1974637*
X1172765Y1974576*
X1172623Y1974556*
X1172480Y1974576*
X1172338Y1974637*
X1172257Y1974759*
X1172216Y1974901*
Y1980083*
X1159354*
Y1974901*
X1159313Y1974759*
X1159232Y1974637*
X1159089Y1974576*
X1158927Y1974556*
X1158785Y1974576*
X1158642Y1974637*
X1158561Y1974759*
X1158520Y1974901*
Y1983273*
Y1983313*
Y1983334*
X1158541Y1983374*
X1158561Y1983415*
X1158581Y1983496*
X1165226Y1994591*
X1165328Y1994693*
X1165450Y1994733*
X1165531Y1994774*
X1165592Y1994794*
X1173778Y1934852D02*
X1171007Y1933928D01*
X1169160Y1931157*
X1168236Y1926232*
Y1923461*
X1169160Y1918535*
X1171007Y1915764*
X1173778Y1914840*
X1175625*
X1178396Y1915764*
X1180243Y1918535*
X1181167Y1923461*
Y1926232*
X1180243Y1931157*
X1178396Y1933928*
X1175625Y1934852*
X1173778*
X1184611Y1974901D02*
X1184632Y1974759D01*
X1184733Y1974637*
X1184876Y1974576*
X1185018Y1974556*
X1185160Y1974576*
X1185282Y1974637*
X1185384Y1974759*
X1185424Y1974901*
Y1993981*
X1191866*
X1192008Y1994022*
X1192130Y1994103*
X1192191Y1994246*
X1192211Y1994388*
X1192191Y1994550*
X1192130Y1994693*
X1192008Y1994794*
X1191866Y1994815*
X1178150*
X1178007Y1994794*
X1177906Y1994693*
X1177824Y1994550*
X1177804Y1994388*
X1177824Y1994246*
X1177906Y1994103*
X1178007Y1994022*
X1178150Y1993981*
X1184611*
Y1974901*
X1185976Y2053981D02*
X1186118Y2054022D01*
X1186240Y2054103*
X1186301Y2054246*
X1186321Y2054388*
X1186301Y2054550*
X1186240Y2054693*
X1186118Y2054794*
X1185976Y2054815*
X1178051*
X1177888Y2054794*
X1177807Y2054693*
X1177746Y2054550*
X1177726Y2054388*
X1177746Y2054246*
X1177807Y2054103*
X1177888Y2054022*
X1178051Y2053981*
X1181607*
Y2035348*
X1178051*
X1177888Y2035307*
X1177807Y2035206*
X1177746Y2035064*
X1177726Y2034901*
X1177746Y2034759*
X1177807Y2034616*
X1177888Y2034535*
X1178051Y2034495*
X1185976*
X1186118Y2034535*
X1186240Y2034616*
X1186301Y2034759*
X1186321Y2034901*
X1186301Y2035064*
X1186240Y2035206*
X1186118Y2035307*
X1185976Y2035348*
X1182399*
Y2053981*
X1185976*
X1193482Y1931157D02*
X1194713Y1932081D01*
X1196253Y1934852*
Y1914840*
X1204548Y2045000D02*
X1207982Y2042216D01*
X1208043Y2042135*
X1208063Y2042033*
X1208084Y2041972*
X1208104Y2041911*
X1208124Y2041871*
Y2037685*
X1208104Y2037624*
X1208063Y2037482*
X1208043Y2037441*
X1207982Y2037360*
X1204568Y2034576*
X1204467Y2034535*
X1204446Y2034515*
X1204406*
X1204365Y2034495*
X1204345*
X1204304*
X1197456*
X1197375Y2034515*
X1197294Y2034535*
X1197212Y2034576*
X1193799Y2037360*
X1193697Y2037461*
X1193677Y2037522*
Y2037583*
X1193697Y2037725*
X1193778Y2037868*
X1193860Y2037969*
X1193982Y2038051*
X1194124Y2038071*
X1194266Y2038030*
X1197578Y2035328*
X1204142*
X1207312Y2037888*
Y2041668*
X1204142Y2044248*
X1197456*
X1197375*
X1197273Y2044268*
X1197212Y2044309*
X1193799Y2047093*
X1193758Y2047113*
X1193717Y2047154*
X1193677Y2047215*
X1193636Y2047357*
X1193616Y2047438*
Y2051624*
X1193636Y2051726*
X1193677Y2051807*
X1193717Y2051848*
X1193758Y2051888*
X1193799Y2051949*
X1197212Y2054733*
X1197294Y2054754*
X1197355Y2054774*
X1197375Y2054794*
X1197456Y2054815*
X1204304*
X1204385Y2054794*
X1204426Y2054774*
X1204487Y2054754*
X1204548Y2054733*
X1207108Y2052640*
X1207210Y2052539*
X1207251Y2052417*
X1207230Y2052275*
X1207169Y2052132*
X1207068Y2052031*
X1206925Y2051949*
X1206763Y2051929*
X1206621Y2051970*
X1204182Y2053981*
X1197578*
X1194449Y2051421*
Y2047642*
X1197578Y2045061*
X1204304*
X1204385Y2045041*
X1204467Y2045020*
X1204548Y2045000*
X1211068Y1993981D02*
X1211210Y1994022D01*
X1211332Y1994103*
X1211393Y1994246*
X1211413Y1994388*
X1211393Y1994550*
X1211332Y1994672*
X1211210Y1994774*
X1211068Y1994815*
X1197352*
X1197210Y1994774*
X1197088Y1994672*
X1196986Y1994550*
X1196946Y1994408*
Y1974901*
X1196986Y1974759*
X1197088Y1974637*
X1197210Y1974535*
X1197352Y1974495*
X1211068*
X1211210Y1974535*
X1211332Y1974616*
X1211393Y1974759*
X1211413Y1974901*
X1211393Y1975064*
X1211332Y1975206*
X1211210Y1975307*
X1211068Y1975348*
X1197799*
Y1984248*
X1207004*
X1207146Y1984289*
X1207268Y1984390*
X1207329Y1984512*
X1207349Y1984655*
X1207329Y1984797*
X1207268Y1984939*
X1207146Y1985041*
X1207004Y1985061*
X1197799*
Y1993981*
X1211068*
X1215341Y1916688D02*
X1214725Y1915764D01*
X1215341Y1914840*
X1215648Y1915764*
X1215341Y1916688*
X1223669Y2053981D02*
X1223811Y2054022D01*
X1223933Y2054103*
X1223994Y2054246*
X1224015Y2054388*
X1223994Y2054550*
X1223933Y2054693*
X1223811Y2054794*
X1223669Y2054815*
X1215744*
X1215582Y2054794*
X1215500Y2054693*
X1215440Y2054550*
X1215419Y2054388*
X1215440Y2054246*
X1215500Y2054103*
X1215582Y2054022*
X1215744Y2053981*
X1219300*
Y2035348*
X1215744*
X1215582Y2035307*
X1215500Y2035206*
X1215440Y2035064*
X1215419Y2034901*
X1215440Y2034759*
X1215500Y2034616*
X1215582Y2034535*
X1215744Y2034495*
X1223669*
X1223811Y2034535*
X1223933Y2034616*
X1223994Y2034759*
X1224015Y2034901*
X1223994Y2035064*
X1223933Y2035206*
X1223811Y2035307*
X1223669Y2035348*
X1220093*
Y2053981*
X1223669*
X1232143Y2051421D02*
Y2037888D01*
X1235272Y2035328*
X1241835*
X1245005Y2037888*
Y2051421*
X1241835Y2053981*
X1235272*
X1232143Y2051421*
X1234736Y1934852D02*
X1231966Y1933928D01*
X1230118Y1931157*
X1229195Y1926232*
Y1923461*
X1230118Y1918535*
X1231966Y1915764*
X1234736Y1914840*
X1236584*
X1239354Y1915764*
X1241202Y1918535*
X1242125Y1923461*
Y1926232*
X1241202Y1931157*
X1239354Y1933928*
X1236584Y1934852*
X1234736*
X1245818Y2051624D02*
Y2037685D01*
X1245798Y2037583*
X1245757Y2037502*
X1245737Y2037421*
X1245676Y2037360*
X1242262Y2034576*
X1242160Y2034535*
X1242140Y2034515*
X1242099*
X1242059Y2034495*
X1242038*
X1241998*
X1235150*
X1235069Y2034515*
X1234987Y2034535*
X1234906Y2034576*
X1231492Y2037360*
X1231411Y2037421*
X1231370Y2037502*
X1231330Y2037583*
X1231309Y2037685*
Y2051624*
X1231330Y2051726*
X1231370Y2051807*
X1231411Y2051848*
X1231452Y2051888*
X1231492Y2051949*
X1234906Y2054733*
X1234987Y2054754*
X1235048Y2054774*
X1235069Y2054794*
X1235150Y2054815*
X1241998*
X1242079Y2054794*
X1242099*
X1242120Y2054774*
X1242181Y2054754*
X1242262Y2054733*
X1245676Y2051949*
X1245696Y2051888*
X1245737Y2051868*
X1245757Y2051848*
Y2051807*
X1245798Y2051726*
X1245818Y2051624*
X1250492Y2034901D02*
X1250532Y2034738D01*
X1250634Y2034637*
X1250756Y2034576*
X1250898Y2034556*
X1251060Y2034576*
X1251203Y2034637*
X1251304Y2034738*
X1251345Y2034901*
Y2053108*
X1264289Y2034657*
X1264350Y2034576*
X1264451Y2034535*
X1264553*
X1264675Y2034576*
X1264817Y2034616*
X1264939Y2034677*
X1265000Y2034779*
X1265020Y2034901*
Y2054408*
X1264980Y2054550*
X1264878Y2054672*
X1264756Y2054733*
X1264614Y2054754*
X1264472Y2054733*
X1264329Y2054672*
X1264228Y2054550*
X1264208Y2054408*
Y2036201*
X1251243Y2054632*
X1251162Y2054713*
X1251081Y2054754*
X1250979*
X1250878Y2054733*
X1250715Y2054713*
X1250593Y2054652*
X1250532Y2054550*
X1250492Y2054408*
Y2034901*
X1254132Y1934852D02*
X1251361Y1933928D01*
X1250438Y1932081*
Y1930234*
X1251361Y1928079*
X1253209Y1927155*
X1256903Y1926232*
X1259674Y1925308*
X1261521Y1923461*
X1262445Y1921613*
Y1918535*
X1261521Y1916688*
X1260597Y1915764*
X1257827Y1914840*
X1254132*
X1251361Y1915764*
X1250438Y1916688*
X1249514Y1918535*
Y1921613*
X1250438Y1923461*
X1252285Y1925308*
X1255056Y1926232*
X1258750Y1927155*
X1260597Y1928079*
X1261521Y1930234*
Y1932081*
X1260597Y1933928*
X1257827Y1934852*
X1254132*
X1284223Y2034901D02*
X1284263Y2034738D01*
X1284365Y2034637*
X1284487Y2034576*
X1284629Y2034556*
X1284792Y2034576*
X1284934Y2034637*
X1285036Y2034738*
X1285076Y2034901*
Y2044248*
X1297939*
Y2034901*
X1297959Y2034738*
X1298061Y2034637*
X1298203Y2034576*
X1298345Y2034556*
X1298487Y2034576*
X1298609Y2034637*
X1298711Y2034738*
X1298752Y2034901*
Y2054408*
X1298711Y2054550*
X1298609Y2054672*
X1298487Y2054733*
X1298345Y2054754*
X1298203Y2054733*
X1298061Y2054672*
X1297959Y2054550*
X1297939Y2054408*
Y2045061*
X1285076*
Y2054408*
X1285036Y2054550*
X1284934Y2054672*
X1284792Y2054733*
X1284629Y2054754*
X1284487Y2054733*
X1284365Y2054672*
X1284263Y2054550*
X1284223Y2054408*
Y2034901*
X1314296Y2053981D02*
X1314439Y2054022D01*
X1314560Y2054103*
X1314621Y2054246*
X1314642Y2054388*
X1314621Y2054550*
X1314560Y2054693*
X1314439Y2054794*
X1314296Y2054815*
X1306372*
X1306209Y2054794*
X1306128Y2054693*
X1306067Y2054550*
X1306046Y2054388*
X1306067Y2054246*
X1306128Y2054103*
X1306209Y2054022*
X1306372Y2053981*
X1309928*
Y2035348*
X1306372*
X1306209Y2035307*
X1306128Y2035206*
X1306067Y2035064*
X1306046Y2034901*
X1306067Y2034759*
X1306128Y2034616*
X1306209Y2034535*
X1306372Y2034495*
X1314296*
X1314439Y2034535*
X1314560Y2034616*
X1314621Y2034759*
X1314642Y2034901*
X1314621Y2035064*
X1314560Y2035206*
X1314439Y2035307*
X1314296Y2035348*
X1310720*
Y2053981*
X1314296*
X1320138Y1916420D02*
Y1936740D01*
X1328450*
X1331221Y1935508*
X1332145Y1934585*
X1333068Y1932737*
Y1929967*
X1332145Y1927812*
X1331221Y1926888*
X1328450Y1925964*
X1320138*
X1332869Y2045000D02*
X1336303Y2042216D01*
X1336364Y2042135*
X1336384Y2042033*
X1336404Y2041972*
X1336425Y2041911*
X1336445Y2041871*
Y2037685*
X1336425Y2037624*
X1336384Y2037482*
X1336364Y2037441*
X1336303Y2037360*
X1332889Y2034576*
X1332788Y2034535*
X1332767Y2034515*
X1332727*
X1332686Y2034495*
X1332666*
X1332625*
X1325777*
X1325696Y2034515*
X1325615Y2034535*
X1325533Y2034576*
X1322120Y2037360*
X1322018Y2037461*
X1321998Y2037522*
Y2037583*
X1322018Y2037725*
X1322099Y2037868*
X1322180Y2037969*
X1322302Y2038051*
X1322445Y2038071*
X1322587Y2038030*
X1325899Y2035328*
X1332462*
X1335632Y2037888*
Y2041668*
X1332462Y2044248*
X1325777*
X1325696*
X1325594Y2044268*
X1325533Y2044309*
X1322120Y2047093*
X1322079Y2047113*
X1322038Y2047154*
X1321998Y2047215*
X1321957Y2047357*
X1321937Y2047438*
Y2051624*
X1321957Y2051726*
X1321998Y2051807*
X1322038Y2051848*
X1322079Y2051888*
X1322120Y2051949*
X1325533Y2054733*
X1325615Y2054754*
X1325676Y2054774*
X1325696Y2054794*
X1325777Y2054815*
X1332625*
X1332706Y2054794*
X1332747Y2054774*
X1332808Y2054754*
X1332869Y2054733*
X1335429Y2052640*
X1335531Y2052539*
X1335571Y2052417*
X1335551Y2052275*
X1335490Y2052132*
X1335388Y2052031*
X1335246Y2051949*
X1335084Y2051929*
X1334941Y2051970*
X1332503Y2053981*
X1325899*
X1322770Y2051421*
Y2047642*
X1325899Y2045061*
X1332625*
X1332706Y2045041*
X1332788Y2045020*
X1332869Y2045000*
X1347987Y2034901D02*
X1348007Y2034759D01*
X1348109Y2034637*
X1348251Y2034576*
X1348393Y2034556*
X1348536Y2034576*
X1348657Y2034637*
X1348759Y2034759*
X1348800Y2034901*
Y2053981*
X1355241*
X1355383Y2054022*
X1355505Y2054103*
X1355566Y2054246*
X1355587Y2054388*
X1355566Y2054550*
X1355505Y2054693*
X1355383Y2054794*
X1355241Y2054815*
X1341525*
X1341383Y2054794*
X1341281Y2054693*
X1341200Y2054550*
X1341180Y2054388*
X1341200Y2054246*
X1341281Y2054103*
X1341383Y2054022*
X1341525Y2053981*
X1347987*
Y2034901*
X1353388Y1931814D02*
X1352464Y1933661D01*
X1350617Y1935508*
X1349077Y1936740*
X1345383*
X1343844Y1935508*
X1341996Y1933661*
X1341073Y1931814*
X1340457Y1929043*
Y1924117*
X1341073Y1921346*
X1341996Y1919191*
X1343844Y1917344*
X1345383Y1916420*
X1349077*
X1350617Y1917344*
X1352464Y1919191*
X1353388Y1921346*
X1357037Y1974495D02*
X1356488D01*
X1356367Y1974515*
X1356265Y1974576*
X1356163Y1974657*
X1356123Y1974779*
X1349519Y1994266*
X1349498Y1994428*
X1349559Y1994550*
X1349681Y1994652*
X1349824Y1994733*
X1349966Y1994754*
X1350108Y1994733*
X1350230Y1994672*
X1350311Y1994530*
X1356753Y1975368*
X1363235Y1994530*
X1363316Y1994672*
X1363438Y1994733*
X1363580Y1994754*
X1363722Y1994733*
X1363865Y1994652*
X1363966Y1994550*
X1364007Y1994428*
X1363987Y1994266*
X1357423Y1974779*
X1357362Y1974657*
X1357240Y1974576*
X1357159Y1974515*
X1357037Y1974495*
X1361175Y2051421D02*
Y2037888D01*
X1364304Y2035328*
X1370867*
X1374037Y2037888*
Y2051421*
X1370867Y2053981*
X1364304*
X1361175Y2051421*
X1373707Y1933661D02*
X1371860Y1935508D01*
X1369089Y1936740*
X1365395*
X1362624Y1935508*
X1360776Y1933661*
Y1931814*
X1361700Y1929967*
X1362624Y1929043*
X1364471Y1927812*
X1370013Y1925964*
X1371860Y1925041*
X1372783Y1924117*
X1373707Y1922270*
Y1919191*
X1371860Y1917344*
X1369089Y1916420*
X1365395*
X1362624Y1917344*
X1360776Y1919191*
X1374850Y2051624D02*
Y2037685D01*
X1374830Y2037583*
X1374789Y2037502*
X1374769Y2037421*
X1374708Y2037360*
X1371294Y2034576*
X1371192Y2034535*
X1371172Y2034515*
X1371131*
X1371091Y2034495*
X1371070*
X1371030*
X1364182*
X1364101Y2034515*
X1364019Y2034535*
X1363938Y2034576*
X1360524Y2037360*
X1360443Y2037421*
X1360402Y2037502*
X1360362Y2037583*
X1360341Y2037685*
Y2051624*
X1360362Y2051726*
X1360402Y2051807*
X1360443Y2051848*
X1360484Y2051888*
X1360524Y2051949*
X1363938Y2054733*
X1364019Y2054754*
X1364080Y2054774*
X1364101Y2054794*
X1364182Y2054815*
X1371030*
X1371111Y2054794*
X1371131*
X1371152Y2054774*
X1371213Y2054754*
X1371294Y2054733*
X1374708Y2051949*
X1374728Y2051888*
X1374769Y2051868*
X1374789Y2051848*
Y2051807*
X1374830Y2051726*
X1374850Y2051624*
X1380377Y2053981D02*
X1390090D01*
X1393260Y2051421*
Y2047642*
X1390090Y2045061*
X1380377*
Y2053981*
X1382234Y1993981D02*
X1382376Y1994022D01*
X1382498Y1994103*
X1382559Y1994246*
X1382579Y1994388*
X1382559Y1994550*
X1382498Y1994672*
X1382376Y1994774*
X1382234Y1994815*
X1368518*
X1368376Y1994774*
X1368254Y1994672*
X1368152Y1994550*
X1368112Y1994408*
Y1974901*
X1368152Y1974759*
X1368254Y1974637*
X1368376Y1974535*
X1368518Y1974495*
X1382234*
X1382376Y1974535*
X1382498Y1974616*
X1382559Y1974759*
X1382579Y1974901*
X1382559Y1975064*
X1382498Y1975206*
X1382376Y1975307*
X1382234Y1975348*
X1368965*
Y1984248*
X1378170*
X1378312Y1984289*
X1378434Y1984390*
X1378495Y1984512*
X1378515Y1984655*
X1378495Y1984797*
X1378434Y1984939*
X1378312Y1985041*
X1378170Y1985061*
X1368965*
Y1993981*
X1382234*
X1386638Y1936432D02*
X1383867Y1935508D01*
X1382020Y1932737*
X1381096Y1927812*
Y1925041*
X1382020Y1920115*
X1383867Y1917344*
X1386638Y1916420*
X1388485*
X1391256Y1917344*
X1393103Y1920115*
X1394026Y1925041*
Y1927812*
X1393103Y1932737*
X1391256Y1935508*
X1388485Y1936432*
X1386638*
X1388167Y1993981D02*
X1397880D01*
X1401050Y1991421*
Y1987642*
X1397880Y1985061*
X1388167*
Y1993981*
X1393930Y2047093D02*
X1393991Y2047134D01*
X1394012Y2047235*
X1394073Y2047337*
Y2047438*
Y2051624*
Y2051726*
X1394012Y2051787*
Y2051848*
X1393991Y2051868*
X1393971Y2051888*
X1393930Y2051929*
X1390476Y2054733*
X1390374Y2054774*
X1390293Y2054794*
X1390212Y2054815*
X1379971*
X1379788Y2054774*
X1379666Y2054672*
X1379564Y2054550*
X1379524Y2054408*
Y2034901*
X1379564Y2034738*
X1379666Y2034637*
X1379788Y2034576*
X1379930Y2034556*
X1380092Y2034576*
X1380235Y2034637*
X1380336Y2034738*
X1380377Y2034901*
Y2044248*
X1389927*
X1393260Y2034779*
X1393341Y2034637*
X1393483Y2034556*
X1393646Y2034535*
X1393768Y2034576*
X1393890Y2034637*
X1393991Y2034738*
X1394052Y2034881*
X1394012Y2035043*
X1390679Y2044512*
X1393930Y2047093*
X1401721Y1987093D02*
X1401782Y1987134D01*
X1401802Y1987235*
X1401863Y1987337*
Y1987438*
Y1991624*
Y1991726*
X1401802Y1991787*
Y1991848*
X1401782Y1991868*
X1401761Y1991888*
X1401721Y1991929*
X1398266Y1994733*
X1398165Y1994774*
X1398084Y1994794*
X1398002Y1994815*
X1387761*
X1387578Y1994774*
X1387456Y1994672*
X1387355Y1994550*
X1387314Y1994408*
Y1974901*
X1387355Y1974738*
X1387456Y1974637*
X1387578Y1974576*
X1387720Y1974556*
X1387883Y1974576*
X1388025Y1974637*
X1388127Y1974738*
X1388167Y1974901*
Y1984248*
X1397718*
X1401050Y1974779*
X1401132Y1974637*
X1401274Y1974556*
X1401436Y1974535*
X1401558Y1974576*
X1401680Y1974637*
X1401782Y1974738*
X1401843Y1974881*
X1401802Y1975043*
X1398470Y1984512*
X1401721Y1987093*
X1406341Y1932737D02*
X1407573Y1933661D01*
X1409112Y1936432*
Y1916420*
X1413194Y2054164D02*
X1406407Y2044512D01*
Y2034901*
X1406366Y2034759*
X1406285Y2034637*
X1406143Y2034576*
X1406000Y2034556*
X1405858Y2034576*
X1405716Y2034637*
X1405635Y2034759*
X1405594Y2034901*
Y2044512*
X1398828Y2054164*
X1398767Y2054286*
X1398787Y2054428*
X1398848Y2054571*
X1398949Y2054672*
X1399092Y2054754*
X1399234Y2054774*
X1399376Y2054754*
X1399498Y2054652*
X1406000Y2045386*
X1412544Y2054652*
X1412645Y2054754*
X1412767Y2054774*
X1412909Y2054754*
X1413052Y2054672*
X1413153Y2054571*
X1413234Y2054428*
X1413255Y2054286*
X1413194Y2054164*
X1421735Y1926888D02*
X1430047D01*
X1432818Y1925964*
X1433742Y1925041*
X1434665Y1923193*
Y1920115*
X1433742Y1918268*
X1432818Y1917344*
X1430047Y1916420*
X1421735*
Y1936740*
X1430047*
X1432818Y1935508*
X1433742Y1934585*
X1434665Y1932737*
Y1930890*
X1433742Y1929043*
X1432818Y1927812*
X1430047Y1926888*
X2215734Y1282697D02*
X2210416D01*
X2208644Y1282106*
X2208053Y1281515*
X2207462Y1280333*
Y1278364*
X2208053Y1277182*
X2208644Y1276591*
X2210416Y1276000*
X2215734*
Y1289000*
X2210416*
X2208644Y1288212*
X2208053Y1287621*
X2207462Y1286439*
Y1285257*
X2208053Y1284076*
X2208644Y1283288*
X2210416Y1282697*
X2225582Y1286439D02*
X2224794Y1287030D01*
X2223809Y1288803*
Y1276000*
X2238188Y1288803D02*
X2239960Y1288212D01*
X2241142Y1286439*
X2241733Y1283288*
Y1281515*
X2241142Y1278364*
X2239960Y1276591*
X2238188Y1276000*
X2237006*
X2235233Y1276591*
X2234051Y1278364*
X2233460Y1281515*
Y1283288*
X2234051Y1286439*
X2235233Y1288212*
X2237006Y1288803*
X2238188*
X2246460Y1287030D02*
X2247642Y1288212D01*
X2249414Y1289000*
X2251778*
X2253550Y1288212*
X2254732Y1287030*
Y1285848*
X2254141Y1284667*
X2253550Y1284076*
X2252369Y1283288*
X2248823Y1282106*
X2247642Y1281515*
X2247051Y1280924*
X2246460Y1279743*
Y1277773*
X2247642Y1276591*
X2249414Y1276000*
X2251778*
X2253550Y1276591*
X2254732Y1277773*
X2259459Y1285848D02*
X2260050Y1287030D01*
X2261232Y1288212*
X2262217Y1289000*
X2264580*
X2265565Y1288212*
X2266747Y1287030*
X2267338Y1285848*
X2267732Y1284076*
Y1280924*
X2267338Y1279152*
X2266747Y1277773*
X2265565Y1276591*
X2264580Y1276000*
X2262217*
X2261232Y1276591*
X2260050Y1277773*
X2259459Y1279152*
X2280731Y1276000D02*
Y1289000D01*
X2275413*
X2273640Y1288212*
X2273049Y1287621*
X2272459Y1286439*
Y1284667*
X2273049Y1283288*
X2273640Y1282697*
X2275413Y1282106*
X2280731*
X2305351Y1280333D02*
X2299836D01*
X2306730Y1276000D02*
X2302593Y1289000D01*
X2298457Y1276000*
X2314214Y1288803D02*
Y1276000D01*
Y1288803D02*
X2319729Y1280333D01*
X2311457*
X2331547Y1288803D02*
X2325047D01*
X2328592Y1283879*
X2326820*
X2325638Y1283288*
X2325047Y1282697*
X2324456Y1280924*
Y1279546*
X2325047Y1277773*
X2326229Y1276591*
X2328001Y1276000*
X2329774*
X2331547Y1276591*
X2332137Y1277182*
X2332728Y1278364*
X2342773Y1288803D02*
X2344546Y1288212D01*
X2345137Y1287030*
Y1285848*
X2344546Y1284470*
X2343364Y1283879*
X2341001Y1283288*
X2339228Y1282697*
X2338046Y1281515*
X2337455Y1280333*
Y1278364*
X2338046Y1277182*
X2338637Y1276591*
X2340410Y1276000*
X2342773*
X2344546Y1276591*
X2345137Y1277182*
X2345728Y1278364*
Y1280333*
X2345137Y1281515*
X2343955Y1282697*
X2342182Y1283288*
X2339819Y1283879*
X2338637Y1284470*
X2338046Y1285848*
Y1287030*
X2338637Y1288212*
X2340410Y1288803*
X2342773*
X2355576Y1286439D02*
X2354788Y1287030D01*
X2353803Y1288803*
Y1276000*
X2368181Y1288803D02*
X2369954Y1288212D01*
X2371136Y1286439*
X2371726Y1283288*
Y1281515*
X2371136Y1278364*
X2369954Y1276591*
X2368181Y1276000*
X2366999*
X2365227Y1276591*
X2364045Y1278364*
X2363454Y1281515*
Y1283288*
X2364045Y1286439*
X2365227Y1288212*
X2366999Y1288803*
X2368181*
X2384726Y1281515D02*
X2376453D01*
X2394574Y1286439D02*
X2393786Y1287030D01*
X2392801Y1288803*
Y1276000*
X2405210Y1288803D02*
Y1276000D01*
Y1288803D02*
X2410724Y1280333D01*
X2402452*
X2423724Y1276000D02*
Y1289000D01*
X2418406*
X2416633Y1288212*
X2416042Y1287621*
X2415452Y1286439*
Y1284667*
X2416042Y1283288*
X2416633Y1282697*
X2418406Y1282106*
X2423724*
X2428451Y1289000D02*
X2436723D01*
Y1276000*
X2428451*
X2436723Y1282697D02*
X2431602D01*
X2474343Y1280333D02*
X2468828D01*
X2475721Y1276000D02*
X2471585Y1289000D01*
X2467449Y1276000*
X2488721Y1288803D02*
X2480448D01*
X2486357Y1276000*
X2501720Y1288803D02*
X2493448D01*
X2499356Y1276000*
X2514719Y1281515D02*
X2506447D01*
X2520628Y1288803D02*
X2526537D01*
X2527128Y1283288*
X2526537Y1283879*
X2524764Y1284470*
X2522992*
X2521219Y1283879*
X2520037Y1282697*
X2519446Y1280924*
Y1279546*
X2520037Y1277773*
X2521219Y1276591*
X2522992Y1276000*
X2524764*
X2526537Y1276591*
X2527128Y1277182*
X2527719Y1278364*
X2539536Y1288803D02*
X2533037D01*
X2536582Y1283879*
X2534809*
X2533628Y1283288*
X2533037Y1282697*
X2532446Y1280924*
Y1279546*
X2533037Y1277773*
X2534218Y1276591*
X2535991Y1276000*
X2537764*
X2539536Y1276591*
X2540127Y1277182*
X2540718Y1278364*
X2553127Y1285848D02*
Y1286439D01*
X2552536Y1287621*
X2551945Y1288212*
X2550763Y1289000*
X2548400*
X2547218Y1288212*
X2546627Y1287621*
X2546036Y1286439*
Y1285257*
X2546627Y1284076*
X2547809Y1282106*
X2553717Y1276000*
X2545445*
X2565535Y1288803D02*
X2559035D01*
X2562581Y1283879*
X2560808*
X2559626Y1283288*
X2559035Y1282697*
X2558444Y1280924*
Y1279546*
X2559035Y1277773*
X2560217Y1276591*
X2561990Y1276000*
X2563762*
X2565535Y1276591*
X2566126Y1277182*
X2566717Y1278364*
X2579716Y1276000D02*
Y1289000D01*
X2574398*
X2572626Y1288212*
X2572035Y1287621*
X2571444Y1286439*
Y1284667*
X2572035Y1283288*
X2572626Y1282697*
X2574398Y1282106*
X2579716*
X2592716Y1276000D02*
Y1289000D01*
X2587398*
X2585625Y1288212*
X2585034Y1287621*
X2584443Y1286439*
Y1284667*
X2585034Y1283288*
X2585625Y1282697*
X2587398Y1282106*
X2592716*
G54D15*
X204000Y155000D02*
X244000D01*
Y195000*
X204000*
Y155000*
X290000Y1070000D02*
X330000D01*
Y1110000*
X290000*
Y1070000*
X360000Y810000D03*
X370000D03*
X380000D03*
Y880000D03*
X420000D03*
X425000Y900000D03*
X440000Y880000D03*
Y910000D03*
Y975000D03*
X455000Y915000D03*
Y940000D03*
Y950000D03*
Y962000D03*
X460000Y810000D03*
Y925000D03*
Y975000D03*
X465000Y990000D03*
X470000Y810000D03*
Y885000D03*
Y925000D03*
Y975000D03*
X475000Y985000D03*
Y1005000D03*
X480000Y810000D03*
X490000Y870000D03*
Y880000D03*
X495000Y980000D03*
Y1030000D03*
X500000Y880000D03*
Y905000D03*
X504000Y914000D03*
X505000Y1045000D03*
X510000Y1021000D03*
Y1035000D03*
X516000Y936000D03*
Y948000D03*
Y960000D03*
Y972000D03*
Y984000D03*
X525000Y880000D03*
Y895000D03*
X528000Y936000D03*
Y948000D03*
Y960000D03*
Y972000D03*
Y984000D03*
X530000Y1065000D03*
X540000Y705000D03*
Y765000D03*
Y890000D03*
Y936000D03*
Y948000D03*
Y960000D03*
Y972000D03*
Y984000D03*
X542000Y1021000D03*
X550000Y760000D03*
X552000Y936000D03*
Y948000D03*
Y960000D03*
Y972000D03*
Y984000D03*
X560000Y760000D03*
Y1005000D03*
X564000Y936000D03*
Y948000D03*
Y960000D03*
Y972000D03*
Y984000D03*
X565000Y280000D03*
X570000Y720000D03*
Y760000D03*
Y895000D03*
Y1010000D03*
Y1045000D03*
X575000Y280000D03*
Y1005000D03*
X580000Y760000D03*
Y895000D03*
Y1030000D03*
Y1040000D03*
X581000Y1135000D03*
X582000Y1106000D03*
X585000Y675000D03*
Y684100D03*
Y710000D03*
Y980000D03*
X586000Y915000D03*
X590000Y335000D03*
Y345000D03*
Y760000D03*
Y895000D03*
Y945000D03*
X595000Y675000D03*
X600000Y695000D03*
Y980000D03*
Y1005000D03*
Y1031000D03*
X605000Y810000D03*
Y840000D03*
Y449000D03*
Y469000D03*
Y534000D03*
Y554000D03*
Y930000D03*
Y1165000D03*
X610000Y695000D03*
Y880000D03*
Y905000D03*
Y915000D03*
Y980000D03*
X615000Y810000D03*
Y840000D03*
Y920000D03*
Y1165000D03*
X617000Y695000D03*
X622000Y1086000D03*
X625000Y560000D03*
Y990000D03*
X626000Y474000D03*
X627000Y695000D03*
X630000Y830000D03*
Y840000D03*
Y444000D03*
Y529000D03*
Y940000D03*
Y950000D03*
Y1005000D03*
Y275000D03*
X635000Y367000D03*
Y990000D03*
X636000Y429000D03*
Y514000D03*
X637000Y1150000D03*
X640000Y1005000D03*
Y1129000D03*
X645000Y1095000D03*
Y1110000D03*
X659000Y306000D03*
Y314000D03*
X660000Y390000D03*
X669000Y1003000D03*
X675000Y330000D03*
X680000Y375000D03*
X685000Y275000D03*
X690000Y450000D03*
Y535000D03*
Y945000D03*
X692900Y977000D03*
X695000Y420000D03*
Y1020000D03*
Y1065000D03*
X700000Y255000D03*
X701000Y434000D03*
Y459000D03*
Y504000D03*
Y519000D03*
Y544000D03*
X703000Y346000D03*
Y352000D03*
Y360000D03*
Y366000D03*
X705000Y375000D03*
Y1075000D03*
Y1120000D03*
Y1145000D03*
X709000Y346000D03*
Y356000D03*
Y366000D03*
X710000Y1020000D03*
X710100Y461000D03*
Y546000D03*
X714000Y490100D03*
Y575100D03*
X715000Y346000D03*
Y352000D03*
Y360000D03*
Y366000D03*
Y430000D03*
Y1055000D03*
X716000Y504000D03*
X720000Y845000D03*
X724000Y977000D03*
X730000Y330000D03*
Y565000D03*
X732000Y818000D03*
X735000Y1170000D03*
X740000Y1162000D03*
X743000Y1129000D03*
X745000Y930000D03*
X751000Y490000D03*
X755000Y360000D03*
Y840000D03*
Y980000D03*
Y1162000D03*
X760000Y815000D03*
X762350Y491000D03*
X765000Y385000D03*
Y980000D03*
X772000Y385000D03*
X775000Y985000D03*
X776000Y475000D03*
X780000Y1005000D03*
Y1030000D03*
X785000Y915000D03*
X815000Y300000D03*
X825000Y1015000D03*
X835000Y325000D03*
Y950000D03*
Y985000D03*
X840000Y425000D03*
Y1030000D03*
X845000Y350000D03*
Y500000D03*
Y1020000D03*
X865000Y310000D03*
X885000Y425000D03*
X890000Y310000D03*
X895000Y475000D03*
X900000Y460000D03*
X945000Y445000D03*
X1035000D03*
X1039000Y1002000D03*
X1045000Y1035000D03*
X1046000Y969000D03*
X1070000Y1030000D03*
X1073000Y997000D03*
X1080000Y985000D03*
X1089000Y1005000D03*
X1096000Y915000D03*
X1134000Y990000D03*
Y1015000D03*
X1135000Y885000D03*
X1145000Y905000D03*
Y1030000D03*
X1160000Y995000D03*
X1165000Y1005000D03*
X1170000Y900000D03*
X1190000Y915000D03*
Y930000D03*
Y990000D03*
X1195000Y1005000D03*
Y1030000D03*
X1240000Y1015000D03*
X1250000Y945000D03*
Y980000D03*
X1255000Y1030000D03*
X1280000Y485000D03*
X1285000Y1030000D03*
X1375000Y485000D03*
X1430000Y420000D03*
Y495000D03*
X1440000Y370000D03*
X1450000Y315000D03*
X1460000Y455000D03*
X1477450Y420000D03*
X1485000Y495000D03*
X1490000Y340000D03*
X1495000Y455000D03*
X1505000Y350000D03*
X1510000Y1040000D03*
X1515000Y370000D03*
X1520000Y445000D03*
X1529000Y1015000D03*
X1530000Y415000D03*
X1535000Y1245000D03*
X1550000Y445000D03*
X1551000Y430650D03*
X1555000Y895000D03*
X1570000Y910000D03*
X1574000Y1000000D03*
Y1025000D03*
X1580000Y885000D03*
Y900000D03*
X1585000Y1040000D03*
X1595000Y990000D03*
X1605000Y1015000D03*
X1645000Y705000D03*
X1650000Y795000D03*
Y805000D03*
Y815000D03*
Y825000D03*
Y835000D03*
X1655000Y705000D03*
X1660000Y795000D03*
Y805000D03*
Y815000D03*
Y825000D03*
Y835000D03*
X1670000Y795000D03*
Y805000D03*
Y815000D03*
Y825000D03*
Y835000D03*
X1680000Y795000D03*
Y805000D03*
Y815000D03*
Y825000D03*
Y835000D03*
X1690000Y745000D03*
Y795000D03*
Y805000D03*
Y815000D03*
Y825000D03*
Y835000D03*
X1700000Y625000D03*
Y635000D03*
Y745000D03*
Y795000D03*
Y805000D03*
Y815000D03*
Y825000D03*
Y835000D03*
X1710000Y795000D03*
Y805000D03*
Y815000D03*
Y825000D03*
Y835000D03*
X1720000Y795000D03*
Y805000D03*
Y815000D03*
Y825000D03*
Y835000D03*
X1730000Y625000D03*
Y635000D03*
Y795000D03*
Y805000D03*
Y815000D03*
Y825000D03*
Y835000D03*
X1740000Y795000D03*
Y805000D03*
Y815000D03*
Y825000D03*
Y835000D03*
X1750000Y740000D03*
Y750000D03*
Y795000D03*
Y805000D03*
Y815000D03*
Y825000D03*
Y835000D03*
X1760000Y795000D03*
Y805000D03*
Y815000D03*
Y825000D03*
Y835000D03*
X1782155Y1064949D02*
X1944949D01*
X1965000Y1085000*
X1815000Y735000D03*
X1825000Y700000D03*
X1840000Y905000D03*
Y915000D03*
Y925000D03*
Y960000D03*
Y970000D03*
Y980000D03*
Y1000000D03*
Y1010000D03*
Y1020000D03*
Y1030000D03*
Y1040000D03*
Y1075000D03*
Y1085000D03*
Y1095000D03*
Y1115000D03*
Y1125000D03*
Y1135000D03*
Y1145000D03*
Y1155000D03*
Y1190000D03*
Y1200000D03*
Y1210000D03*
Y1230000D03*
Y1240000D03*
Y1250000D03*
X1850000Y720000D03*
Y735000D03*
Y905000D03*
Y915000D03*
Y925000D03*
Y960000D03*
Y970000D03*
Y980000D03*
Y1000000D03*
Y1010000D03*
Y1020000D03*
Y1030000D03*
Y1040000D03*
Y1075000D03*
Y1085000D03*
Y1095000D03*
Y1115000D03*
Y1125000D03*
Y1135000D03*
Y1145000D03*
Y1155000D03*
Y1190000D03*
Y1200000D03*
Y1210000D03*
Y1230000D03*
Y1240000D03*
Y1250000D03*
X1855000Y800000D03*
X1860000Y905000D03*
Y915000D03*
Y925000D03*
Y960000D03*
Y970000D03*
Y980000D03*
Y1000000D03*
Y1010000D03*
Y1020000D03*
Y1030000D03*
Y1040000D03*
Y1075000D03*
Y1085000D03*
Y1095000D03*
Y1115000D03*
Y1125000D03*
Y1135000D03*
Y1145000D03*
Y1155000D03*
Y1190000D03*
Y1200000D03*
Y1210000D03*
Y1230000D03*
Y1240000D03*
Y1250000D03*
X1865000Y1170000D03*
X1885000Y975000D03*
Y985000D03*
X1890000Y1100000D03*
X1893000Y947000D03*
X1900000Y1145000D03*
X1920000Y965000D03*
Y997000D03*
Y1085000D03*
X1930000Y1045000D03*
Y1085000D03*
Y1100000D03*
Y1115000D03*
Y1125000D03*
X1931000Y1030000D03*
Y1054000D03*
X1935000Y920000D03*
Y945000D03*
X1940000Y1200000D03*
X1947000Y1173000D03*
X1950000Y986000D03*
Y1200000D03*
X1960000Y565000D03*
Y575000D03*
Y875000D03*
X1965000Y1085000D03*
X1970000Y565000D03*
Y575000D03*
X1995000Y1050000D03*
X2005000Y890000D03*
Y950000D03*
Y975000D03*
Y995000D03*
X2008000Y880000D03*
X2015000Y905000D03*
Y1215000D03*
X2020000Y995000D03*
X2025000Y910000D03*
Y920000D03*
Y930000D03*
Y955000D03*
Y965000D03*
Y975000D03*
Y1010000D03*
Y1020000D03*
Y1030000D03*
Y1040000D03*
Y1065000D03*
Y1075000D03*
Y1085000D03*
Y1120000D03*
Y1130000D03*
Y1140000D03*
Y1150000D03*
Y1175000D03*
Y1185000D03*
Y1195000D03*
Y1230000D03*
Y1240000D03*
Y1250000D03*
X2035000Y910000D03*
Y920000D03*
Y930000D03*
Y955000D03*
Y965000D03*
Y975000D03*
Y1010000D03*
Y1020000D03*
Y1030000D03*
Y1040000D03*
Y1065000D03*
Y1075000D03*
Y1085000D03*
Y1120000D03*
Y1130000D03*
Y1140000D03*
Y1150000D03*
Y1175000D03*
Y1185000D03*
Y1195000D03*
Y1230000D03*
Y1240000D03*
Y1250000D03*
X2045000Y910000D03*
Y920000D03*
Y930000D03*
Y955000D03*
Y965000D03*
Y975000D03*
Y1010000D03*
Y1020000D03*
Y1030000D03*
Y1040000D03*
Y1065000D03*
Y1075000D03*
Y1085000D03*
Y1120000D03*
Y1130000D03*
Y1140000D03*
Y1150000D03*
Y1175000D03*
Y1185000D03*
Y1195000D03*
Y1230000D03*
Y1240000D03*
Y1250000D03*
X2085000Y340000D03*
Y360000D03*
X2090000Y980000D02*
X2084285Y985715D01*
X2014285*
X2005000Y995000*
X2095000Y325000D03*
Y375000D03*
X2110000Y323000D03*
Y377000D03*
X2125000Y323000D03*
Y377000D03*
Y470000D03*
Y490000D03*
X2135000Y455000D03*
Y500000D03*
X2140000Y323000D03*
Y377000D03*
X2150000Y453000D03*
X2155000Y375000D03*
X2160000Y325000D03*
X2165000Y340000D03*
Y360000D03*
Y453000D03*
X2180000D03*
X2195000Y455000D03*
Y505000D03*
X2200000Y890000D03*
X2200900Y980000D03*
X2210000Y930000D03*
Y960900D03*
X2215000Y895000D03*
X2219000Y870000D03*
X2220000Y453000D03*
Y507000D03*
X2229100Y980000D03*
X2230000Y940000D03*
X2235000Y453000D03*
Y507000D03*
X2245000Y340000D03*
Y360000D03*
X2247000Y892000D03*
X2250000Y330000D03*
Y453000D03*
Y507000D03*
Y920000D03*
X2255000Y375000D03*
Y980000D03*
X2260000Y325000D03*
X2265000Y455000D03*
Y507000D03*
X2270000Y377000D03*
X2272000Y980000D03*
X2273000Y323000D03*
X2275000Y500000D03*
Y860000D03*
X2280000Y465000D03*
X2285000Y377000D03*
Y485000D03*
X2286000Y323000D03*
X2290000Y920000D03*
Y960000D03*
Y1020000D03*
X2290900Y930000D03*
X2291000Y881000D03*
Y893000D03*
X2300000Y323000D03*
Y377000D03*
X2310000Y325000D03*
X2315000Y375000D03*
X2322000Y846000D03*
Y863000D03*
X2325000Y335000D03*
Y360000D03*
X2330000Y940000D03*
X2335000Y985000D03*
X2343000Y846000D03*
Y863000D03*
X2345000Y920000D03*
Y893000D03*
X2350000Y1005000D03*
X2355000Y940000D03*
X2410000Y230000D03*
Y240000D03*
X2420000Y965000D03*
X2425000Y230000D03*
Y240000D03*
X2435000Y350000D03*
Y360000D03*
X2440000Y230000D03*
Y240000D03*
X2450000Y350000D03*
Y360000D03*
X2455000Y230000D03*
Y240000D03*
X2465000Y350000D03*
Y360000D03*
Y880000D03*
X2470000Y230000D03*
Y240000D03*
X2480000Y350000D03*
Y360000D03*
X2550000Y230000D03*
Y240000D03*
Y350000D03*
Y360000D03*
X2565000Y230000D03*
Y240000D03*
Y350000D03*
Y360000D03*
X2580000Y230000D03*
Y240000D03*
Y350000D03*
Y360000D03*
X2595000Y230000D03*
Y240000D03*
Y350000D03*
Y360000D03*
X2610000Y230000D03*
Y240000D03*
Y350000D03*
Y360000D03*
X2700000Y240000D03*
Y260000D03*
X2710000Y275000D03*
X2725000Y278000D03*
X2730000Y730000D03*
Y740000D03*
Y750000D03*
Y760000D03*
Y770000D03*
Y780000D03*
Y790000D03*
Y800000D03*
Y810000D03*
Y820000D03*
Y830000D03*
Y840000D03*
Y850000D03*
Y860000D03*
Y870000D03*
Y880000D03*
Y890000D03*
Y900000D03*
Y910000D03*
Y920000D03*
Y930000D03*
Y940000D03*
Y950000D03*
Y960000D03*
Y970000D03*
Y980000D03*
Y990000D03*
Y1000000D03*
X2738000Y384000D03*
X2740000Y278000D03*
Y370000D03*
Y730000D03*
Y740000D03*
Y750000D03*
Y760000D03*
Y770000D03*
Y780000D03*
Y790000D03*
Y800000D03*
Y810000D03*
Y820000D03*
Y830000D03*
Y840000D03*
Y850000D03*
Y860000D03*
Y870000D03*
Y880000D03*
Y890000D03*
Y900000D03*
Y910000D03*
Y920000D03*
Y930000D03*
Y940000D03*
Y950000D03*
Y960000D03*
Y970000D03*
Y980000D03*
Y990000D03*
Y1000000D03*
X2745000Y360000D03*
Y400000D03*
X2750000Y730000D03*
Y740000D03*
Y750000D03*
Y760000D03*
Y770000D03*
Y780000D03*
Y790000D03*
Y800000D03*
Y810000D03*
Y820000D03*
Y830000D03*
Y840000D03*
Y850000D03*
Y860000D03*
Y870000D03*
Y880000D03*
Y890000D03*
Y900000D03*
Y910000D03*
Y920000D03*
Y930000D03*
Y940000D03*
Y950000D03*
Y960000D03*
Y970000D03*
Y980000D03*
Y990000D03*
Y1000000D03*
X2755000Y278000D03*
X2760000Y353000D03*
Y407000D03*
Y730000D03*
Y740000D03*
Y750000D03*
Y760000D03*
Y770000D03*
Y780000D03*
Y790000D03*
Y800000D03*
Y810000D03*
Y820000D03*
Y830000D03*
Y840000D03*
Y850000D03*
Y860000D03*
Y870000D03*
Y880000D03*
Y890000D03*
Y900000D03*
Y910000D03*
Y920000D03*
Y930000D03*
Y940000D03*
Y950000D03*
Y960000D03*
Y970000D03*
Y980000D03*
Y990000D03*
Y1000000D03*
X2770000Y275000D03*
Y890000D03*
Y900000D03*
Y910000D03*
Y920000D03*
Y930000D03*
Y940000D03*
Y950000D03*
Y960000D03*
Y970000D03*
Y980000D03*
Y990000D03*
Y1000000D03*
X2775000Y353000D03*
Y407000D03*
X2780000Y240000D03*
Y260000D03*
X2790000Y353000D03*
Y407000D03*
X2805000Y355000D03*
Y405000D03*
X2835000Y355000D03*
Y405000D03*
X2845000Y407000D03*
X2850000Y353000D03*
X2860000Y850000D03*
Y865000D03*
Y880000D03*
Y895000D03*
Y910000D03*
Y925000D03*
Y940000D03*
Y955000D03*
Y235000D03*
Y260000D03*
Y407000D03*
X2865000Y835000D03*
Y970000D03*
Y353000D03*
X2870000Y225000D03*
Y275000D03*
X2875000Y830000D03*
Y980000D03*
Y407000D03*
X2880000Y353000D03*
X2885000Y223000D03*
Y277000D03*
X2888000Y403000D03*
X2890000Y355000D03*
X2895000Y980000D03*
X2899000Y367000D03*
Y395000D03*
X2900000Y830000D03*
Y223000D03*
Y277000D03*
X2902000Y380000D03*
X2910000Y845000D03*
Y860000D03*
Y875000D03*
Y890000D03*
Y905000D03*
Y920000D03*
Y935000D03*
Y950000D03*
Y965000D03*
X2915000Y223000D03*
Y277000D03*
X2930000Y225000D03*
Y275000D03*
X2940000Y240000D03*
Y260000D03*
X3001000Y349000D02*
X3041000D01*
Y389000*
X3001000*
Y349000*
X3070000Y850000D03*
Y865000D03*
Y880000D03*
Y895000D03*
Y910000D03*
Y925000D03*
Y940000D03*
Y955000D03*
X3075000Y970000D03*
X3085000Y980000D03*
X3105000D03*
X3120000Y845000D03*
Y860000D03*
Y875000D03*
Y890000D03*
Y905000D03*
Y920000D03*
Y935000D03*
Y950000D03*
Y965000D03*
X3130000Y575000D03*
Y595000D03*
Y615000D03*
Y635000D03*
X3145000Y555000D03*
Y575000D03*
Y595000D03*
Y615000D03*
Y635000D03*
X3160000Y555000D03*
Y575000D03*
Y595000D03*
Y615000D03*
Y635000D03*
X3165000Y530000D03*
Y625000D03*
X3185000Y510000D03*
Y550000D03*
Y605000D03*
Y645000D03*
X3205000Y530000D03*
Y625000D03*
X3220000Y351500D03*
Y361500D03*
X3250000Y351500D03*
Y361500D03*
X3280000D03*
Y371500D03*
X3315000Y530000D03*
Y625000D03*
X3320000Y1315000D02*
X3360000D01*
Y1355000*
X3320000*
Y1315000*
X3335000Y510000D03*
Y550000D03*
Y605000D03*
Y645000D03*
X3355000Y530000D03*
Y625000D03*
G54D16*
X895000Y1229650D02*
Y1215000D01*
Y1230300D02*
X904550Y1220750D01*
Y1215450*
X905000Y1215000*
X895000Y1230300D02*
X885000Y1220300D01*
Y1215000*
X895000Y1230300D02*
Y1229650D01*
X1450000Y1215000D02*
Y1224300D01*
X1460000Y1234300*
Y1229300D02*
Y1215000D01*
Y1229300D02*
Y1234300D01*
X1470000Y1215000D02*
Y1224300D01*
X1460000Y1234300*
G54D17*
X605000Y1165000D02*
X610834Y1159166D01*
X617029*
X625083Y1167220*
Y1242300*
X662003Y1279220*
X1132723*
X1154476Y1257467*
X1190695*
X1193111Y1255051*
Y1248222*
X740000Y1162000D02*
X762000Y1184000D01*
X836000*
Y1214000D02*
X838650Y1216650D01*
Y1226000*
X838200Y1237000D02*
Y1226450D01*
X838650Y1226000*
X845800Y1237000D02*
Y1248926D01*
X864214Y1267341*
X971567*
X975350Y1263558*
Y1251000*
X850500Y1215000D02*
Y1225150D01*
X851350Y1226000*
X855200Y1237000D02*
Y1229850D01*
X851350Y1226000*
X855200Y1237000D02*
X845800D01*
X962650Y1251000D02*
Y1249350D01*
X969000Y1243000*
Y1232300*
X969050Y1232250*
X975350Y1251000D02*
X986742Y1262392D01*
X1033208*
X1035350Y1260251*
Y1251000*
X1022650D02*
X1029050Y1244600D01*
Y1232250*
X1039000Y1002000D02*
X1040000Y1003000D01*
X1053000*
X1192940Y1273438D02*
Y1264581D01*
X1190379Y1262020*
X1156455*
X1134427Y1284048*
X659858*
X620637Y1244826*
Y1170637*
X615000Y1165000*
X1362650Y1251000D02*
X1364050Y1249600D01*
Y1232250*
X1422650Y1251000D02*
X1424050Y1249600D01*
Y1232250*
X1498800Y1261000D02*
X1498785Y1261015D01*
Y1274615*
X1493409Y1279992*
X1382125*
X1375350Y1273217*
Y1251000*
X1503650D02*
X1509200Y1256550D01*
Y1261000*
X1504500Y1240000D02*
Y1227038D01*
X1499856Y1222393*
X1483742*
X1479055Y1227081*
Y1244780*
X1471953Y1251882*
X1436232*
X1435350Y1251000*
X1504500Y1240000D02*
Y1250150D01*
X1503650Y1251000*
X1504650D02*
X1503650D01*
X1509200Y1261000D02*
X1498800D01*
X1517350Y1251000D02*
X1516800Y1251550D01*
Y1261000*
X1517350Y1251000D02*
Y1240650D01*
X1519000Y1239000*
Y1209000D02*
X1529682D01*
X1535000Y1214318*
Y1245000*
X2291000Y893000D02*
X2309995Y911995D01*
Y959995*
X2335000Y985000*
G54D18*
X705000Y1075000D02*
X673212D01*
X642089Y1043877*
X614000*
X737000Y1124500D03*
Y1133500D03*
X749000Y1124500D03*
Y1133500D03*
X1046000Y969000D02*
Y964518D01*
X1049518Y961000*
X1060000*
X1053000Y1033000D02*
X1051980Y1034020D01*
X1045980*
X1045000Y1035000*
X1060000Y991000D02*
X1067000D01*
X1073000Y997000*
X1093000Y968000D02*
Y979000D01*
X1087000Y985000*
X1080000*
X1093000Y968000D02*
X1076650D01*
X1076000Y967350*
X1190000Y915000D02*
X1223000Y948000D01*
Y1013000*
X1240000Y1030000*
X1255000*
X1190000Y930000D02*
X1121000D01*
X1104000Y947000*
X1083650*
X1076000Y954650*
G54D19*
X1096000Y915000D02*
Y935000D01*
X1093000Y938000*
G54D20*
X3169000Y306500D03*
Y346500D03*
X3361000Y306500D03*
Y346500D03*
X3379000Y314000D03*
Y338000D03*
X3461000Y314000D03*
Y338000D03*
G54D21*
X40000Y1474500D03*
X55000Y748500D03*
X75000Y302500D03*
X460000Y602500D03*
X900000Y148500D03*
X910000Y1474500D03*
X1610000Y563500D03*
X1665000Y148500D03*
X1672000Y1474453D03*
X2235000Y1474500D03*
X2515000Y148500D03*
X2525000Y502500D03*
X2605000Y687500D03*
X3054000Y133500D03*
X3115000Y1474500D03*
X3545000Y160000D03*
Y260000D03*
Y556500D03*
X3560000Y1474500D03*
G54D22*
X40000D03*
X55000Y748500D03*
X75000Y302500D03*
X460000Y602500D03*
X900000Y148500D03*
X910000Y1474500D03*
X1610000Y563500D03*
X1665000Y148500D03*
X1672000Y1474453D03*
X2235000Y1474500D03*
X2515000Y148500D03*
X2525000Y502500D03*
X2605000Y687500D03*
X3054000Y133500D03*
X3115000Y1474500D03*
X3545000Y160000D03*
Y260000D03*
Y556500D03*
X3560000Y1474500D03*
G54D23*
X1105500Y1228500D03*
Y1251500D03*
X1130500Y1228500D03*
Y1251500D03*
X1249500Y1228500D03*
Y1251500D03*
X1274500Y1228500D03*
Y1251500D03*
G54D24*
X165000Y405000D03*
X215000D03*
X295000Y290000D03*
X320000Y1215000D03*
Y1265000D03*
Y1345000D03*
Y1395000D03*
X345000Y290000D03*
X425000Y200000D03*
X475000D03*
X1620000Y265000D03*
Y315000D03*
Y395000D03*
Y445000D03*
X2320000Y1330000D03*
Y1380000D03*
X3030000Y1330000D03*
Y1380000D03*
G54D25*
X3185000Y530000D03*
Y625000D03*
X3335000Y530000D03*
Y625000D03*
G54D26*
X3185000Y530000D03*
Y625000D03*
X3335000Y530000D03*
Y625000D03*
G54D27*
X1357000Y139500D03*
Y188500D03*
X1416000Y189500D03*
Y238500D03*
X1475000Y189500D03*
Y238500D03*
X1534000Y140500D03*
Y189500D03*
G54D28*
X925000Y1083500D03*
Y1112500D03*
X947000Y1083500D03*
Y1112500D03*
X969000Y1083500D03*
Y1112500D03*
X991000Y1083500D03*
Y1112500D03*
X1013000Y1083500D03*
Y1112500D03*
X1035000Y1083500D03*
Y1112500D03*
X1320000Y1083500D03*
Y1112500D03*
X1342000Y1083500D03*
Y1112500D03*
X1364000Y1083500D03*
Y1112500D03*
X1386000Y1083500D03*
Y1112500D03*
X1408000Y1083500D03*
Y1112500D03*
X1430000Y1083500D03*
Y1112500D03*
G54D29*
X838200Y1237000D03*
X845800D03*
X855200D03*
X862800D03*
X1491200Y1261000D03*
X1498800D03*
X1509200D03*
X1516800D03*
G54D30*
X3313500Y384000D03*
X3352500D03*
G54D31*
X838650Y1226000D03*
X851350D03*
X962650Y1251000D03*
X975350D03*
X1022650D03*
X1035350D03*
X1362650D03*
X1375350D03*
X1422650D03*
X1435350D03*
X1504650D03*
X1517350D03*
G54D32*
X1076000Y954650D03*
Y967350D03*
G54D33*
X3391500Y326000D03*
X3448500D03*
G54D34*
X1175000Y1233750D03*
Y1286250D03*
X1210000Y1233750D03*
Y1286250D03*
G54D35*
X3217000Y326500D03*
X3249000D03*
X3281000D03*
X3313000D03*
G54D36*
X3178000D03*
X3352000D03*
G54D37*
X130000Y992000D03*
Y1365200D03*
X3500000Y992000D03*
Y1365200D03*
G54D38*
X100000Y1012500D03*
Y1037900D03*
Y1063300D03*
Y1088700D03*
X102000Y1131700D03*
Y1161700D03*
Y1191700D03*
Y1221700D03*
Y1251700D03*
Y1281700D03*
Y1311700D03*
Y1341700D03*
X114000Y1116700D03*
Y1146700D03*
Y1176700D03*
Y1206700D03*
Y1236700D03*
Y1266700D03*
Y1296700D03*
Y1326700D03*
X120000Y1012500D03*
Y1037900D03*
Y1063300D03*
Y1088700D03*
X126000Y1131700D03*
Y1161700D03*
Y1191700D03*
Y1221700D03*
Y1251700D03*
Y1281700D03*
Y1311700D03*
Y1341700D03*
X138000Y1116700D03*
Y1146700D03*
Y1176700D03*
Y1206700D03*
Y1236700D03*
Y1266700D03*
Y1296700D03*
Y1326700D03*
X140000Y1012500D03*
Y1037900D03*
Y1063300D03*
Y1088700D03*
X3470000Y1012500D03*
Y1037900D03*
Y1063300D03*
Y1088700D03*
X3472000Y1131700D03*
Y1161700D03*
Y1191700D03*
Y1221700D03*
Y1251700D03*
Y1281700D03*
Y1311700D03*
Y1341700D03*
X3484000Y1116700D03*
Y1146700D03*
Y1176700D03*
Y1206700D03*
Y1236700D03*
Y1266700D03*
Y1296700D03*
Y1326700D03*
X3490000Y1012500D03*
Y1037900D03*
Y1063300D03*
Y1088700D03*
X3496000Y1131700D03*
Y1161700D03*
Y1191700D03*
Y1221700D03*
Y1251700D03*
Y1281700D03*
Y1311700D03*
Y1341700D03*
X3508000Y1116700D03*
Y1146700D03*
Y1176700D03*
Y1206700D03*
Y1236700D03*
Y1266700D03*
Y1296700D03*
Y1326700D03*
X3510000Y1012500D03*
Y1037900D03*
Y1063300D03*
Y1088700D03*
G54D39*
X2885000Y905000D03*
X3095000D03*
G54D40*
X2885000D03*
X3095000D03*
G54D41*
X3320000Y94500D03*
Y214500D03*
G54D42*
Y94500D03*
Y214500D03*
G54D43*
X3256250Y69100D03*
Y94500D03*
Y119900D03*
Y189100D03*
Y214500D03*
Y239900D03*
X3383750Y69100D03*
Y94500D03*
Y119900D03*
Y189100D03*
Y214500D03*
Y239900D03*
G54D44*
X3256250Y69100D03*
Y94500D03*
Y119900D03*
Y189100D03*
Y214500D03*
Y239900D03*
X3383750Y69100D03*
Y94500D03*
Y119900D03*
Y189100D03*
Y214500D03*
Y239900D03*
G54D45*
X2126000Y350000D03*
X2166000Y480000D03*
X2246000D03*
X2286000Y350000D03*
X2740000Y250000D03*
X2780000Y380000D03*
X2860000D03*
X2900000Y250000D03*
G54D46*
X2126000Y350000D03*
X2166000Y480000D03*
X2246000D03*
X2286000Y350000D03*
X2740000Y250000D03*
X2780000Y380000D03*
X2860000D03*
X2900000Y250000D03*
G54D47*
X880000Y1087500D03*
Y1158500D03*
X1475000Y1087500D03*
Y1158500D03*
G54D48*
X850500Y1215000D03*
X867500D03*
X1487500Y1240000D03*
X1504500D03*
G54D49*
X929800Y1177750D03*
Y1232250D03*
X970200Y1177750D03*
Y1232250D03*
X989800Y1177750D03*
Y1232250D03*
X1030200Y1177750D03*
Y1232250D03*
X1324800Y1177750D03*
Y1232250D03*
X1365200Y1177750D03*
Y1232250D03*
X1384800Y1177750D03*
Y1232250D03*
X1425200Y1177750D03*
Y1232250D03*
G54D50*
X943650Y1177750D03*
Y1232250D03*
X956350Y1177750D03*
Y1232250D03*
X1003650Y1177750D03*
Y1232250D03*
X1016350Y1177750D03*
Y1232250D03*
X1338650Y1177750D03*
Y1232250D03*
X1351350Y1177750D03*
Y1232250D03*
X1398650Y1177750D03*
Y1232250D03*
X1411350Y1177750D03*
Y1232250D03*
G54D51*
X895000Y1182350D03*
Y1229650D03*
X1460000Y1182000D03*
Y1229300D03*
G54D70*
X10000Y225000D03*
Y255000D03*
Y285000D03*
Y315000D03*
Y345000D03*
Y375000D03*
Y405000D03*
Y435000D03*
Y465000D03*
Y495000D03*
Y525000D03*
Y555000D03*
Y585000D03*
Y615000D03*
Y645000D03*
Y675000D03*
Y705000D03*
Y735000D03*
Y765000D03*
Y795000D03*
Y825000D03*
Y855000D03*
Y885000D03*
Y915000D03*
Y945000D03*
Y975000D03*
Y1005000D03*
Y1035000D03*
Y1065000D03*
Y1095000D03*
Y1125000D03*
Y1155000D03*
Y1185000D03*
Y1215000D03*
Y1255000D03*
Y1285000D03*
Y1315000D03*
Y1345000D03*
Y1375000D03*
Y1405000D03*
Y1435000D03*
X20000Y965000D03*
Y995000D03*
Y1025000D03*
Y1055000D03*
Y1085000D03*
Y1115000D03*
Y1145000D03*
Y1175000D03*
Y1205000D03*
Y1230000D03*
Y1265000D03*
Y1295000D03*
Y1325000D03*
Y1355000D03*
Y1385000D03*
Y1415000D03*
X25000Y215000D03*
Y245000D03*
Y275000D03*
Y305000D03*
Y335000D03*
Y365000D03*
Y395000D03*
Y425000D03*
Y455000D03*
Y485000D03*
Y515000D03*
Y545000D03*
Y575000D03*
Y605000D03*
Y635000D03*
Y665000D03*
Y695000D03*
Y785000D03*
Y815000D03*
Y845000D03*
Y875000D03*
Y905000D03*
Y935000D03*
Y1520000D03*
X45000Y225000D03*
Y255000D03*
Y795000D03*
Y820000D03*
Y885000D03*
Y915000D03*
X55000Y1520000D03*
X65000Y215000D03*
Y245000D03*
Y880000D03*
Y905000D03*
X70000Y815000D03*
X75000Y1505000D03*
X85000Y715000D03*
Y795000D03*
Y830000D03*
Y885000D03*
Y915000D03*
Y1520000D03*
X90000Y195000D03*
Y225000D03*
Y255000D03*
X100000Y615000D03*
Y625000D03*
Y635000D03*
Y645000D03*
Y655000D03*
Y665000D03*
Y745000D03*
Y775000D03*
Y805000D03*
Y835000D03*
Y865000D03*
Y895000D03*
X105000Y180000D03*
Y1505000D03*
X110000Y615000D03*
Y625000D03*
Y635000D03*
Y645000D03*
Y655000D03*
Y665000D03*
X115000Y125000D03*
Y150000D03*
Y205000D03*
Y235000D03*
Y265000D03*
Y1515000D03*
X120000Y170000D03*
X125000Y100000D03*
X130000Y145000D03*
X135000Y1505000D03*
X145000Y120000D03*
Y1515000D03*
X150000Y90000D03*
X165000Y105000D03*
Y1505000D03*
X175000Y1520000D03*
X180000Y90000D03*
X195000Y105000D03*
Y405000D03*
Y1505000D03*
X200000Y390000D03*
Y420000D03*
X205000Y1520000D03*
X210000Y90000D03*
X215000Y385000D03*
Y425000D03*
X225000Y105000D03*
Y1505000D03*
X230000Y390000D03*
Y420000D03*
X235000Y405000D03*
Y1520000D03*
X240000Y90000D03*
X255000Y105000D03*
Y1505000D03*
X265000Y1520000D03*
X285000Y105000D03*
Y1505000D03*
X295000Y1520000D03*
X300000Y90000D03*
X315000Y105000D03*
Y1505000D03*
X325000Y290000D03*
Y1520000D03*
X330000Y90000D03*
Y275000D03*
Y305000D03*
X345000Y105000D03*
Y270000D03*
Y310000D03*
Y1505000D03*
X355000Y1520000D03*
X360000Y90000D03*
Y275000D03*
Y305000D03*
X365000Y290000D03*
X375000Y105000D03*
Y1505000D03*
X385000Y1520000D03*
X390000Y90000D03*
X405000Y105000D03*
Y1505000D03*
X415000Y1520000D03*
X420000Y90000D03*
X435000Y105000D03*
Y1505000D03*
X445000Y1520000D03*
X450000Y90000D03*
X455000Y200000D03*
X460000Y185000D03*
Y215000D03*
X465000Y105000D03*
Y1505000D03*
X475000Y180000D03*
Y220000D03*
Y1520000D03*
X480000Y90000D03*
X490000Y185000D03*
Y215000D03*
X495000Y105000D03*
Y200000D03*
Y1505000D03*
X505000Y1520000D03*
X510000Y90000D03*
X525000Y105000D03*
Y1505000D03*
X535000Y1515000D03*
X540000Y90000D03*
X555000Y105000D03*
Y1505000D03*
X565000Y1515000D03*
X570000Y90000D03*
X585000Y105000D03*
Y1505000D03*
X595000Y1520000D03*
X600000Y90000D03*
X615000Y105000D03*
Y1505000D03*
X625000Y1520000D03*
X630000Y90000D03*
X645000Y105000D03*
Y1505000D03*
X655000Y1520000D03*
X660000Y90000D03*
X675000Y105000D03*
Y1505000D03*
X685000Y1520000D03*
X690000Y90000D03*
X705000Y105000D03*
Y1505000D03*
X715000Y1520000D03*
X735000Y105000D03*
Y1505000D03*
X745000Y1520000D03*
X765000Y105000D03*
Y1505000D03*
X775000Y1520000D03*
X780000Y90000D03*
X795000Y105000D03*
Y1505000D03*
X805000Y1520000D03*
X810000Y90000D03*
X825000Y105000D03*
Y1505000D03*
X835000Y1520000D03*
X840000Y90000D03*
X845000Y530000D03*
Y540000D03*
Y550000D03*
Y560000D03*
Y570000D03*
Y580000D03*
X850000Y840000D03*
Y850000D03*
Y860000D03*
Y870000D03*
Y880000D03*
X855000Y105000D03*
Y530000D03*
Y540000D03*
Y550000D03*
Y560000D03*
Y570000D03*
Y580000D03*
Y1505000D03*
X860000Y840000D03*
Y850000D03*
Y860000D03*
Y870000D03*
Y880000D03*
X865000Y530000D03*
Y540000D03*
Y550000D03*
Y560000D03*
Y570000D03*
Y580000D03*
Y1520000D03*
X870000Y90000D03*
Y840000D03*
Y850000D03*
Y860000D03*
Y870000D03*
Y880000D03*
X875000Y530000D03*
Y540000D03*
Y550000D03*
Y560000D03*
Y570000D03*
Y580000D03*
X880000Y840000D03*
Y850000D03*
Y860000D03*
Y870000D03*
Y880000D03*
Y947000D03*
Y956000D03*
Y966000D03*
X885000Y105000D03*
Y530000D03*
Y540000D03*
Y550000D03*
Y560000D03*
Y570000D03*
Y580000D03*
Y1215000D03*
X886000Y947000D03*
Y956000D03*
Y966000D03*
X890000Y840000D03*
Y850000D03*
Y860000D03*
Y870000D03*
Y880000D03*
X892000Y947000D03*
Y956000D03*
Y966000D03*
X895000Y530000D03*
Y540000D03*
Y550000D03*
Y560000D03*
Y570000D03*
Y580000D03*
Y1215000D03*
Y1520000D03*
X900000Y95000D03*
X905000Y530000D03*
Y540000D03*
Y550000D03*
Y560000D03*
Y570000D03*
Y580000D03*
Y980000D03*
Y990000D03*
Y1000000D03*
Y1215000D03*
X907000Y1023000D03*
Y1029000D03*
Y1035000D03*
Y1041000D03*
Y1047000D03*
Y1053000D03*
X908000Y932000D03*
Y938000D03*
Y944000D03*
Y950000D03*
Y956000D03*
Y962000D03*
Y968000D03*
X913000Y1023000D03*
Y1029000D03*
Y1035000D03*
Y1041000D03*
Y1047000D03*
Y1053000D03*
X914000Y932000D03*
Y938000D03*
Y944000D03*
Y950000D03*
Y956000D03*
Y962000D03*
Y968000D03*
X915000Y105000D03*
Y980000D03*
Y990000D03*
Y1000000D03*
X919000Y1023000D03*
Y1029000D03*
Y1035000D03*
Y1041000D03*
Y1047000D03*
Y1053000D03*
X920000Y932000D03*
Y938000D03*
Y944000D03*
Y950000D03*
Y956000D03*
Y962000D03*
Y968000D03*
X925000Y980000D03*
Y990000D03*
Y1000000D03*
Y1023000D03*
Y1029000D03*
Y1035000D03*
Y1041000D03*
Y1047000D03*
Y1053000D03*
Y1230000D03*
Y1240000D03*
Y1250000D03*
Y1520000D03*
X926000Y932000D03*
Y938000D03*
Y944000D03*
Y950000D03*
Y956000D03*
Y962000D03*
Y968000D03*
X930000Y90000D03*
X931000Y1023000D03*
Y1029000D03*
Y1035000D03*
Y1041000D03*
Y1047000D03*
Y1053000D03*
X932000Y932000D03*
Y938000D03*
Y944000D03*
Y950000D03*
Y956000D03*
Y962000D03*
Y968000D03*
X935000Y380000D03*
Y390000D03*
Y400000D03*
Y410000D03*
Y460000D03*
Y470000D03*
Y480000D03*
Y490000D03*
X937000Y1023000D03*
Y1029000D03*
Y1035000D03*
Y1041000D03*
Y1047000D03*
Y1053000D03*
X938000Y932000D03*
Y938000D03*
Y944000D03*
Y950000D03*
Y956000D03*
Y962000D03*
Y968000D03*
X940000Y1230000D03*
Y1240000D03*
Y1250000D03*
X943000Y1023000D03*
Y1029000D03*
Y1035000D03*
Y1041000D03*
Y1047000D03*
Y1053000D03*
X945000Y105000D03*
Y365000D03*
Y380000D03*
Y390000D03*
Y400000D03*
Y410000D03*
Y460000D03*
Y470000D03*
Y480000D03*
Y490000D03*
Y1505000D03*
X950000Y1250000D03*
X955000Y380000D03*
Y390000D03*
Y400000D03*
Y410000D03*
Y460000D03*
Y470000D03*
Y480000D03*
Y490000D03*
Y1230000D03*
Y1240000D03*
Y1515000D03*
X960000Y90000D03*
X973000Y368000D03*
Y374000D03*
Y380000D03*
Y386000D03*
Y392000D03*
Y398000D03*
Y404000D03*
Y447000D03*
Y453000D03*
Y459000D03*
Y465000D03*
Y471000D03*
Y477000D03*
Y483000D03*
X975000Y105000D03*
Y1480000D03*
Y1505000D03*
X979000Y368000D03*
Y374000D03*
Y380000D03*
Y386000D03*
Y392000D03*
Y398000D03*
Y404000D03*
Y447000D03*
Y453000D03*
Y459000D03*
Y465000D03*
Y471000D03*
Y477000D03*
Y483000D03*
X980000Y980000D03*
Y990000D03*
Y1000000D03*
X981000Y1023000D03*
Y1029000D03*
Y1035000D03*
Y1041000D03*
Y1047000D03*
Y1053000D03*
X985000Y368000D03*
Y374000D03*
Y380000D03*
Y386000D03*
Y392000D03*
Y398000D03*
Y404000D03*
Y447000D03*
Y453000D03*
Y459000D03*
Y465000D03*
Y471000D03*
Y477000D03*
Y483000D03*
Y1230000D03*
Y1240000D03*
Y1250000D03*
Y1435000D03*
Y1515000D03*
X987000Y932000D03*
Y938000D03*
Y944000D03*
Y950000D03*
Y956000D03*
Y962000D03*
Y968000D03*
Y1023000D03*
Y1029000D03*
Y1035000D03*
Y1041000D03*
Y1047000D03*
Y1053000D03*
X990000Y90000D03*
Y980000D03*
Y990000D03*
Y1000000D03*
X991000Y368000D03*
Y374000D03*
Y380000D03*
Y386000D03*
Y392000D03*
Y398000D03*
Y404000D03*
Y447000D03*
Y453000D03*
Y459000D03*
Y465000D03*
Y471000D03*
Y477000D03*
Y483000D03*
X993000Y932000D03*
Y938000D03*
Y944000D03*
Y950000D03*
Y956000D03*
Y962000D03*
Y968000D03*
Y1023000D03*
Y1029000D03*
Y1035000D03*
Y1041000D03*
Y1047000D03*
Y1053000D03*
X995000Y260000D03*
Y270000D03*
Y280000D03*
Y290000D03*
Y300000D03*
Y310000D03*
Y320000D03*
Y330000D03*
Y340000D03*
X997000Y368000D03*
Y374000D03*
Y380000D03*
Y386000D03*
Y392000D03*
Y398000D03*
Y404000D03*
Y447000D03*
Y453000D03*
Y459000D03*
Y465000D03*
Y471000D03*
Y477000D03*
Y483000D03*
X999000Y932000D03*
Y938000D03*
Y944000D03*
Y950000D03*
Y956000D03*
Y962000D03*
Y968000D03*
Y1023000D03*
Y1029000D03*
Y1035000D03*
Y1041000D03*
Y1047000D03*
Y1053000D03*
X1000000Y980000D03*
Y990000D03*
Y1000000D03*
Y1230000D03*
Y1240000D03*
Y1250000D03*
Y1435000D03*
X1003000Y368000D03*
Y374000D03*
Y380000D03*
Y386000D03*
Y392000D03*
Y398000D03*
Y404000D03*
Y447000D03*
Y453000D03*
Y459000D03*
Y465000D03*
Y471000D03*
Y477000D03*
Y483000D03*
X1005000Y105000D03*
Y260000D03*
Y270000D03*
Y280000D03*
Y290000D03*
Y300000D03*
Y310000D03*
Y320000D03*
Y330000D03*
Y340000D03*
Y932000D03*
Y938000D03*
Y944000D03*
Y950000D03*
Y956000D03*
Y962000D03*
Y968000D03*
Y1023000D03*
Y1029000D03*
Y1035000D03*
Y1041000D03*
Y1047000D03*
Y1053000D03*
Y1480000D03*
Y1505000D03*
X1010000Y1250000D03*
X1011000Y932000D03*
Y938000D03*
Y944000D03*
Y950000D03*
Y956000D03*
Y962000D03*
Y968000D03*
Y1023000D03*
Y1029000D03*
Y1035000D03*
Y1041000D03*
Y1047000D03*
Y1053000D03*
X1015000Y1230000D03*
Y1240000D03*
Y1435000D03*
Y1520000D03*
X1017000Y932000D03*
Y938000D03*
Y944000D03*
Y950000D03*
Y956000D03*
Y962000D03*
Y968000D03*
Y1023000D03*
Y1029000D03*
Y1035000D03*
Y1041000D03*
Y1047000D03*
Y1053000D03*
X1020000Y90000D03*
Y840000D03*
Y850000D03*
Y860000D03*
Y870000D03*
Y880000D03*
X1030000Y380000D03*
Y390000D03*
Y400000D03*
Y410000D03*
Y460000D03*
Y470000D03*
Y480000D03*
Y490000D03*
Y840000D03*
Y850000D03*
Y860000D03*
Y870000D03*
Y880000D03*
Y1435000D03*
X1034000Y933000D03*
Y942000D03*
Y952000D03*
X1035000Y105000D03*
Y1480000D03*
Y1505000D03*
X1040000Y365000D03*
Y380000D03*
Y390000D03*
Y400000D03*
Y410000D03*
Y460000D03*
Y470000D03*
Y480000D03*
Y490000D03*
Y840000D03*
Y850000D03*
Y860000D03*
Y870000D03*
Y880000D03*
Y933000D03*
Y942000D03*
Y952000D03*
X1045000Y1435000D03*
Y1520000D03*
X1046000Y933000D03*
Y942000D03*
Y952000D03*
X1050000Y90000D03*
Y380000D03*
Y390000D03*
Y400000D03*
Y410000D03*
Y460000D03*
Y470000D03*
Y480000D03*
Y490000D03*
Y840000D03*
Y850000D03*
Y860000D03*
Y870000D03*
Y880000D03*
X1060000Y540000D03*
Y550000D03*
Y560000D03*
Y570000D03*
Y580000D03*
Y840000D03*
Y850000D03*
Y860000D03*
Y870000D03*
Y880000D03*
Y1435000D03*
X1065000Y105000D03*
Y1480000D03*
Y1505000D03*
X1068000Y367000D03*
Y373000D03*
Y379000D03*
Y385000D03*
Y391000D03*
Y397000D03*
Y403000D03*
Y447000D03*
Y453000D03*
Y459000D03*
Y465000D03*
Y471000D03*
Y477000D03*
Y483000D03*
X1070000Y540000D03*
Y550000D03*
Y560000D03*
Y570000D03*
Y580000D03*
X1074000Y367000D03*
Y373000D03*
Y379000D03*
Y385000D03*
Y391000D03*
Y397000D03*
Y403000D03*
Y447000D03*
Y453000D03*
Y459000D03*
Y465000D03*
Y471000D03*
Y477000D03*
Y483000D03*
X1075000Y260000D03*
Y270000D03*
Y280000D03*
Y290000D03*
Y300000D03*
Y310000D03*
Y320000D03*
Y330000D03*
Y340000D03*
Y1335000D03*
Y1345000D03*
Y1355000D03*
Y1365000D03*
Y1375000D03*
Y1435000D03*
Y1520000D03*
X1080000Y90000D03*
Y367000D03*
Y373000D03*
Y379000D03*
Y385000D03*
Y391000D03*
Y397000D03*
Y403000D03*
Y447000D03*
Y453000D03*
Y459000D03*
Y465000D03*
Y471000D03*
Y477000D03*
Y483000D03*
Y540000D03*
Y550000D03*
Y560000D03*
Y570000D03*
Y580000D03*
Y1155000D03*
Y1165000D03*
Y1175000D03*
Y1185000D03*
Y1195000D03*
X1085000Y260000D03*
Y270000D03*
Y280000D03*
Y290000D03*
Y300000D03*
Y310000D03*
Y320000D03*
Y330000D03*
Y340000D03*
X1086000Y367000D03*
Y373000D03*
Y379000D03*
Y385000D03*
Y391000D03*
Y397000D03*
Y403000D03*
Y447000D03*
Y453000D03*
Y459000D03*
Y465000D03*
Y471000D03*
Y477000D03*
Y483000D03*
X1090000Y540000D03*
Y550000D03*
Y560000D03*
Y570000D03*
Y580000D03*
Y1155000D03*
Y1165000D03*
Y1175000D03*
Y1185000D03*
Y1195000D03*
Y1335000D03*
Y1345000D03*
Y1355000D03*
Y1365000D03*
Y1375000D03*
Y1435000D03*
X1092000Y367000D03*
Y373000D03*
Y379000D03*
Y385000D03*
Y391000D03*
Y397000D03*
Y403000D03*
Y447000D03*
Y453000D03*
Y459000D03*
Y465000D03*
Y471000D03*
Y477000D03*
Y483000D03*
X1095000Y105000D03*
Y1480000D03*
Y1505000D03*
X1098000Y367000D03*
Y373000D03*
Y379000D03*
Y385000D03*
Y391000D03*
Y397000D03*
Y403000D03*
Y447000D03*
Y453000D03*
Y459000D03*
Y465000D03*
Y471000D03*
Y477000D03*
Y483000D03*
X1100000Y540000D03*
Y550000D03*
Y560000D03*
Y570000D03*
Y580000D03*
Y1155000D03*
Y1165000D03*
Y1175000D03*
Y1185000D03*
Y1195000D03*
X1105000Y1335000D03*
Y1345000D03*
Y1355000D03*
Y1365000D03*
Y1375000D03*
Y1435000D03*
Y1520000D03*
X1110000Y90000D03*
Y540000D03*
Y550000D03*
Y560000D03*
Y570000D03*
Y580000D03*
Y1155000D03*
Y1165000D03*
Y1175000D03*
Y1185000D03*
Y1195000D03*
X1120000Y540000D03*
Y550000D03*
Y560000D03*
Y570000D03*
Y580000D03*
Y1155000D03*
Y1165000D03*
Y1175000D03*
Y1185000D03*
Y1195000D03*
Y1335000D03*
Y1345000D03*
Y1355000D03*
Y1365000D03*
Y1375000D03*
Y1435000D03*
X1125000Y105000D03*
Y1480000D03*
Y1505000D03*
X1130000Y540000D03*
Y550000D03*
Y560000D03*
Y570000D03*
Y580000D03*
Y590000D03*
Y600000D03*
Y610000D03*
X1135000Y1335000D03*
Y1345000D03*
Y1355000D03*
Y1365000D03*
Y1375000D03*
Y1435000D03*
Y1520000D03*
X1140000Y90000D03*
Y540000D03*
Y550000D03*
Y560000D03*
Y570000D03*
Y580000D03*
Y590000D03*
Y600000D03*
Y610000D03*
X1150000Y320000D03*
Y375000D03*
Y420000D03*
Y475000D03*
Y540000D03*
Y550000D03*
Y560000D03*
Y570000D03*
Y580000D03*
Y590000D03*
Y600000D03*
Y610000D03*
Y1435000D03*
X1155000Y105000D03*
Y1480000D03*
Y1505000D03*
X1160000Y320000D03*
Y375000D03*
Y420000D03*
Y475000D03*
Y540000D03*
Y550000D03*
Y560000D03*
Y570000D03*
Y580000D03*
Y590000D03*
Y600000D03*
Y610000D03*
Y1220000D03*
Y1230000D03*
Y1240000D03*
Y1250000D03*
Y1270000D03*
Y1280000D03*
Y1290000D03*
X1165000Y1435000D03*
Y1520000D03*
X1170000Y320000D03*
Y375000D03*
Y420000D03*
Y475000D03*
Y540000D03*
Y550000D03*
Y560000D03*
Y570000D03*
Y580000D03*
Y590000D03*
Y600000D03*
Y610000D03*
Y1220000D03*
Y1230000D03*
Y1240000D03*
Y1250000D03*
Y1270000D03*
Y1280000D03*
Y1290000D03*
X1180000Y540000D03*
Y550000D03*
Y560000D03*
Y570000D03*
Y580000D03*
Y590000D03*
Y600000D03*
Y610000D03*
Y1220000D03*
Y1230000D03*
Y1240000D03*
Y1250000D03*
Y1270000D03*
Y1280000D03*
Y1290000D03*
Y1435000D03*
X1185000Y105000D03*
Y1480000D03*
Y1505000D03*
X1190000Y540000D03*
Y550000D03*
Y560000D03*
Y570000D03*
Y580000D03*
Y590000D03*
Y600000D03*
Y610000D03*
Y1220000D03*
Y1230000D03*
Y1240000D03*
Y1250000D03*
Y1270000D03*
Y1280000D03*
Y1290000D03*
X1195000Y1435000D03*
Y1520000D03*
X1200000Y540000D03*
Y550000D03*
Y560000D03*
Y570000D03*
Y580000D03*
Y1220000D03*
Y1230000D03*
Y1240000D03*
Y1250000D03*
Y1270000D03*
Y1280000D03*
Y1290000D03*
X1205000Y1335000D03*
Y1345000D03*
Y1355000D03*
Y1365000D03*
Y1375000D03*
X1210000Y540000D03*
Y550000D03*
Y560000D03*
Y570000D03*
Y580000D03*
Y1220000D03*
Y1230000D03*
Y1240000D03*
Y1250000D03*
Y1270000D03*
Y1280000D03*
Y1290000D03*
Y1435000D03*
X1215000Y105000D03*
Y1480000D03*
Y1505000D03*
X1220000Y540000D03*
Y550000D03*
Y560000D03*
Y570000D03*
Y580000D03*
Y1155000D03*
Y1165000D03*
Y1175000D03*
Y1185000D03*
Y1195000D03*
Y1220000D03*
Y1230000D03*
Y1240000D03*
Y1250000D03*
Y1270000D03*
Y1280000D03*
Y1290000D03*
Y1335000D03*
Y1345000D03*
Y1355000D03*
Y1365000D03*
Y1375000D03*
X1222000Y367000D03*
Y373000D03*
Y379000D03*
Y385000D03*
Y391000D03*
Y397000D03*
Y403000D03*
Y447000D03*
Y453000D03*
Y459000D03*
Y465000D03*
Y471000D03*
Y477000D03*
Y483000D03*
X1225000Y1435000D03*
Y1520000D03*
X1228000Y367000D03*
Y373000D03*
Y379000D03*
Y385000D03*
Y391000D03*
Y397000D03*
Y403000D03*
Y447000D03*
Y453000D03*
Y459000D03*
Y465000D03*
Y471000D03*
Y477000D03*
Y483000D03*
X1230000Y90000D03*
Y540000D03*
Y550000D03*
Y560000D03*
Y570000D03*
Y580000D03*
Y1155000D03*
Y1165000D03*
Y1175000D03*
Y1185000D03*
Y1195000D03*
X1234000Y367000D03*
Y373000D03*
Y379000D03*
Y385000D03*
Y391000D03*
Y397000D03*
Y403000D03*
Y447000D03*
Y453000D03*
Y459000D03*
Y465000D03*
Y471000D03*
Y477000D03*
Y483000D03*
X1235000Y260000D03*
Y270000D03*
Y280000D03*
Y290000D03*
Y300000D03*
Y310000D03*
Y320000D03*
Y330000D03*
Y340000D03*
Y1335000D03*
Y1345000D03*
Y1355000D03*
Y1365000D03*
Y1375000D03*
X1240000Y367000D03*
Y373000D03*
Y379000D03*
Y385000D03*
Y391000D03*
Y397000D03*
Y403000D03*
Y447000D03*
Y453000D03*
Y459000D03*
Y465000D03*
Y471000D03*
Y477000D03*
Y483000D03*
Y540000D03*
Y550000D03*
Y560000D03*
Y570000D03*
Y580000D03*
Y1155000D03*
Y1165000D03*
Y1175000D03*
Y1185000D03*
Y1195000D03*
Y1435000D03*
X1245000Y105000D03*
Y260000D03*
Y270000D03*
Y280000D03*
Y290000D03*
Y300000D03*
Y310000D03*
Y320000D03*
Y330000D03*
Y340000D03*
Y1480000D03*
Y1505000D03*
X1246000Y367000D03*
Y373000D03*
Y379000D03*
Y385000D03*
Y391000D03*
Y397000D03*
Y403000D03*
Y447000D03*
Y453000D03*
Y459000D03*
Y465000D03*
Y471000D03*
Y477000D03*
Y483000D03*
X1250000Y540000D03*
Y550000D03*
Y560000D03*
Y570000D03*
Y580000D03*
Y1155000D03*
Y1165000D03*
Y1175000D03*
Y1185000D03*
Y1195000D03*
Y1335000D03*
Y1345000D03*
Y1355000D03*
Y1365000D03*
Y1375000D03*
X1252000Y367000D03*
Y373000D03*
Y379000D03*
Y385000D03*
Y391000D03*
Y397000D03*
Y403000D03*
Y447000D03*
Y453000D03*
Y459000D03*
Y465000D03*
Y471000D03*
Y477000D03*
Y483000D03*
X1255000Y1435000D03*
Y1520000D03*
X1260000Y90000D03*
Y540000D03*
Y550000D03*
Y560000D03*
Y570000D03*
Y580000D03*
Y1155000D03*
Y1165000D03*
Y1175000D03*
Y1185000D03*
Y1195000D03*
X1265000Y840000D03*
Y850000D03*
Y860000D03*
Y870000D03*
Y880000D03*
Y1335000D03*
Y1345000D03*
Y1355000D03*
Y1365000D03*
Y1375000D03*
X1270000Y360000D03*
Y370000D03*
Y380000D03*
Y390000D03*
Y440000D03*
Y450000D03*
Y460000D03*
Y470000D03*
Y540000D03*
Y550000D03*
Y560000D03*
Y570000D03*
Y580000D03*
Y1435000D03*
X1275000Y105000D03*
Y840000D03*
Y850000D03*
Y860000D03*
Y870000D03*
Y880000D03*
Y1480000D03*
Y1505000D03*
X1280000Y360000D03*
Y370000D03*
Y380000D03*
Y390000D03*
Y405000D03*
Y440000D03*
Y450000D03*
Y460000D03*
Y470000D03*
Y540000D03*
Y550000D03*
Y560000D03*
Y570000D03*
Y580000D03*
X1285000Y840000D03*
Y850000D03*
Y860000D03*
Y870000D03*
Y880000D03*
Y1435000D03*
Y1520000D03*
X1290000Y90000D03*
Y360000D03*
Y370000D03*
Y380000D03*
Y390000D03*
Y440000D03*
Y450000D03*
Y460000D03*
Y470000D03*
X1295000Y840000D03*
Y850000D03*
Y860000D03*
Y870000D03*
Y880000D03*
Y948000D03*
Y957000D03*
Y967000D03*
X1300000Y1435000D03*
X1301000Y948000D03*
Y957000D03*
Y967000D03*
X1305000Y105000D03*
Y840000D03*
Y850000D03*
Y860000D03*
Y870000D03*
Y880000D03*
Y1480000D03*
Y1505000D03*
X1307000Y948000D03*
Y957000D03*
Y967000D03*
X1310000Y260000D03*
Y270000D03*
Y280000D03*
Y290000D03*
Y300000D03*
Y310000D03*
Y320000D03*
Y330000D03*
Y340000D03*
X1315000Y1435000D03*
Y1520000D03*
X1317000Y367000D03*
Y373000D03*
Y379000D03*
Y385000D03*
Y391000D03*
Y397000D03*
Y403000D03*
Y447000D03*
Y453000D03*
Y459000D03*
Y465000D03*
Y471000D03*
Y477000D03*
Y483000D03*
X1320000Y90000D03*
Y260000D03*
Y270000D03*
Y280000D03*
Y290000D03*
Y300000D03*
Y310000D03*
Y320000D03*
Y330000D03*
Y340000D03*
Y980000D03*
Y990000D03*
Y1000000D03*
X1322000Y1023000D03*
Y1029000D03*
Y1035000D03*
Y1041000D03*
Y1047000D03*
Y1053000D03*
X1323000Y367000D03*
Y373000D03*
Y379000D03*
Y385000D03*
Y391000D03*
Y397000D03*
Y403000D03*
Y447000D03*
Y453000D03*
Y459000D03*
Y465000D03*
Y471000D03*
Y477000D03*
Y483000D03*
Y932000D03*
Y938000D03*
Y944000D03*
Y950000D03*
Y956000D03*
Y962000D03*
Y968000D03*
X1325000Y1230000D03*
Y1240000D03*
Y1250000D03*
X1328000Y1023000D03*
Y1029000D03*
Y1035000D03*
Y1041000D03*
Y1047000D03*
Y1053000D03*
X1329000Y367000D03*
Y373000D03*
Y379000D03*
Y385000D03*
Y391000D03*
Y397000D03*
Y403000D03*
Y447000D03*
Y453000D03*
Y459000D03*
Y465000D03*
Y471000D03*
Y477000D03*
Y483000D03*
Y932000D03*
Y938000D03*
Y944000D03*
Y950000D03*
Y956000D03*
Y962000D03*
Y968000D03*
X1330000Y980000D03*
Y990000D03*
Y1000000D03*
Y1435000D03*
X1334000Y1023000D03*
Y1029000D03*
Y1035000D03*
Y1041000D03*
Y1047000D03*
Y1053000D03*
X1335000Y105000D03*
Y367000D03*
Y373000D03*
Y379000D03*
Y385000D03*
Y391000D03*
Y397000D03*
Y403000D03*
Y447000D03*
Y453000D03*
Y459000D03*
Y465000D03*
Y471000D03*
Y477000D03*
Y483000D03*
Y932000D03*
Y938000D03*
Y944000D03*
Y950000D03*
Y956000D03*
Y962000D03*
Y968000D03*
Y1480000D03*
Y1505000D03*
X1340000Y980000D03*
Y990000D03*
Y1000000D03*
Y1023000D03*
Y1029000D03*
Y1035000D03*
Y1041000D03*
Y1047000D03*
Y1053000D03*
Y1230000D03*
Y1240000D03*
Y1250000D03*
X1341000Y367000D03*
Y373000D03*
Y379000D03*
Y385000D03*
Y391000D03*
Y397000D03*
Y403000D03*
Y447000D03*
Y453000D03*
Y459000D03*
Y465000D03*
Y471000D03*
Y477000D03*
Y483000D03*
Y932000D03*
Y938000D03*
Y944000D03*
Y950000D03*
Y956000D03*
Y962000D03*
Y968000D03*
X1345000Y1435000D03*
Y1520000D03*
X1346000Y1023000D03*
Y1029000D03*
Y1035000D03*
Y1041000D03*
Y1047000D03*
Y1053000D03*
X1347000Y367000D03*
Y373000D03*
Y379000D03*
Y385000D03*
Y391000D03*
Y397000D03*
Y403000D03*
Y447000D03*
Y453000D03*
Y459000D03*
Y465000D03*
Y471000D03*
Y477000D03*
Y483000D03*
Y932000D03*
Y938000D03*
Y944000D03*
Y950000D03*
Y956000D03*
Y962000D03*
Y968000D03*
X1350000Y90000D03*
Y1250000D03*
X1352000Y1023000D03*
Y1029000D03*
Y1035000D03*
Y1041000D03*
Y1047000D03*
Y1053000D03*
X1353000Y932000D03*
Y938000D03*
Y944000D03*
Y950000D03*
Y956000D03*
Y962000D03*
Y968000D03*
X1355000Y1230000D03*
Y1240000D03*
X1358000Y1023000D03*
Y1029000D03*
Y1035000D03*
Y1041000D03*
Y1047000D03*
Y1053000D03*
X1360000Y1435000D03*
X1365000Y105000D03*
Y360000D03*
Y370000D03*
Y380000D03*
Y390000D03*
Y440000D03*
Y450000D03*
Y460000D03*
Y470000D03*
Y1480000D03*
Y1505000D03*
X1375000Y360000D03*
Y370000D03*
Y380000D03*
Y390000D03*
Y405000D03*
Y440000D03*
Y450000D03*
Y460000D03*
Y470000D03*
Y1435000D03*
Y1515000D03*
X1380000Y90000D03*
X1385000Y360000D03*
Y370000D03*
Y380000D03*
Y390000D03*
Y440000D03*
Y450000D03*
Y460000D03*
Y470000D03*
Y1230000D03*
Y1240000D03*
Y1250000D03*
X1390000Y980000D03*
Y990000D03*
Y1000000D03*
Y1435000D03*
X1395000Y105000D03*
Y1480000D03*
Y1505000D03*
X1396000Y1023000D03*
Y1029000D03*
Y1035000D03*
Y1041000D03*
Y1047000D03*
Y1053000D03*
X1400000Y980000D03*
Y990000D03*
Y1000000D03*
Y1230000D03*
Y1240000D03*
Y1250000D03*
X1402000Y932000D03*
Y938000D03*
Y944000D03*
Y950000D03*
Y956000D03*
Y962000D03*
Y968000D03*
Y1023000D03*
Y1029000D03*
Y1035000D03*
Y1041000D03*
Y1047000D03*
Y1053000D03*
X1405000Y1435000D03*
Y1515000D03*
X1408000Y932000D03*
Y938000D03*
Y944000D03*
Y950000D03*
Y956000D03*
Y962000D03*
Y968000D03*
Y1023000D03*
Y1029000D03*
Y1035000D03*
Y1041000D03*
Y1047000D03*
Y1053000D03*
X1410000Y90000D03*
Y980000D03*
Y990000D03*
Y1000000D03*
Y1250000D03*
X1414000Y932000D03*
Y938000D03*
Y944000D03*
Y950000D03*
Y956000D03*
Y962000D03*
Y968000D03*
Y1023000D03*
Y1029000D03*
Y1035000D03*
Y1041000D03*
Y1047000D03*
Y1053000D03*
X1415000Y1230000D03*
Y1240000D03*
X1420000Y530000D03*
Y540000D03*
Y550000D03*
Y560000D03*
Y570000D03*
Y580000D03*
Y932000D03*
Y938000D03*
Y944000D03*
Y950000D03*
Y956000D03*
Y962000D03*
Y968000D03*
Y1023000D03*
Y1029000D03*
Y1035000D03*
Y1041000D03*
Y1047000D03*
Y1053000D03*
Y1435000D03*
X1425000Y105000D03*
Y1480000D03*
Y1505000D03*
X1426000Y932000D03*
Y938000D03*
Y944000D03*
Y950000D03*
Y956000D03*
Y962000D03*
Y968000D03*
Y1023000D03*
Y1029000D03*
Y1035000D03*
Y1041000D03*
Y1047000D03*
Y1053000D03*
X1430000Y530000D03*
Y540000D03*
Y550000D03*
Y560000D03*
Y570000D03*
Y580000D03*
X1432000Y932000D03*
Y938000D03*
Y944000D03*
Y950000D03*
Y956000D03*
Y962000D03*
Y968000D03*
Y1023000D03*
Y1029000D03*
Y1035000D03*
Y1041000D03*
Y1047000D03*
Y1053000D03*
X1435000Y840000D03*
Y850000D03*
Y860000D03*
Y870000D03*
Y880000D03*
Y1435000D03*
Y1520000D03*
X1440000Y90000D03*
Y530000D03*
Y540000D03*
Y550000D03*
Y560000D03*
Y570000D03*
Y580000D03*
X1445000Y840000D03*
Y850000D03*
Y860000D03*
Y870000D03*
Y880000D03*
X1449000Y933000D03*
Y942000D03*
Y952000D03*
X1450000Y530000D03*
Y540000D03*
Y550000D03*
Y560000D03*
Y570000D03*
Y580000D03*
Y1215000D03*
Y1435000D03*
X1455000Y105000D03*
Y840000D03*
Y850000D03*
Y860000D03*
Y870000D03*
Y880000D03*
Y933000D03*
Y942000D03*
Y952000D03*
Y1480000D03*
Y1505000D03*
X1460000Y530000D03*
Y540000D03*
Y550000D03*
Y560000D03*
Y570000D03*
Y580000D03*
Y1215000D03*
X1461000Y933000D03*
Y942000D03*
Y952000D03*
X1465000Y840000D03*
Y850000D03*
Y860000D03*
Y870000D03*
Y880000D03*
Y1435000D03*
Y1520000D03*
X1470000Y90000D03*
Y530000D03*
Y540000D03*
Y550000D03*
Y560000D03*
Y570000D03*
Y580000D03*
Y1215000D03*
X1475000Y840000D03*
Y850000D03*
Y860000D03*
Y870000D03*
Y880000D03*
X1480000Y530000D03*
Y540000D03*
Y550000D03*
Y560000D03*
Y570000D03*
Y580000D03*
Y1435000D03*
X1485000Y105000D03*
Y1480000D03*
Y1505000D03*
X1495000Y215000D03*
Y225000D03*
Y235000D03*
Y245000D03*
Y255000D03*
Y265000D03*
Y275000D03*
Y1435000D03*
Y1520000D03*
X1500000Y90000D03*
X1505000Y215000D03*
Y225000D03*
Y235000D03*
Y245000D03*
Y255000D03*
Y265000D03*
Y275000D03*
X1510000Y1435000D03*
X1515000Y105000D03*
Y215000D03*
Y225000D03*
Y235000D03*
Y245000D03*
Y255000D03*
Y265000D03*
Y275000D03*
Y1480000D03*
Y1505000D03*
X1525000Y1435000D03*
Y1520000D03*
X1530000Y90000D03*
X1540000Y1435000D03*
X1545000Y105000D03*
Y1480000D03*
Y1505000D03*
X1555000Y1435000D03*
Y1520000D03*
X1560000Y90000D03*
X1570000Y1435000D03*
X1575000Y105000D03*
Y1480000D03*
Y1505000D03*
X1580000Y250000D03*
Y265000D03*
Y280000D03*
Y295000D03*
Y385000D03*
Y400000D03*
Y415000D03*
Y430000D03*
X1585000Y1435000D03*
Y1520000D03*
X1590000Y90000D03*
Y250000D03*
Y265000D03*
Y280000D03*
Y295000D03*
Y385000D03*
Y400000D03*
Y415000D03*
Y430000D03*
X1600000Y250000D03*
Y265000D03*
Y280000D03*
Y295000D03*
Y385000D03*
Y400000D03*
Y415000D03*
Y430000D03*
Y1435000D03*
X1605000Y105000D03*
Y1480000D03*
Y1505000D03*
X1615000Y1520000D03*
X1635000Y105000D03*
Y1505000D03*
X1645000Y1520000D03*
X1665000Y105000D03*
X1675000Y1520000D03*
X1680000Y95000D03*
X1690000Y915000D03*
Y935000D03*
Y955000D03*
Y975000D03*
Y995000D03*
Y1015000D03*
Y1035000D03*
Y1055000D03*
Y1075000D03*
Y1095000D03*
Y1115000D03*
Y1140000D03*
Y1160000D03*
Y1180000D03*
Y1200000D03*
Y1220000D03*
Y1240000D03*
X1695000Y105000D03*
X1700000Y925000D03*
Y945000D03*
Y965000D03*
Y985000D03*
Y1005000D03*
Y1025000D03*
Y1045000D03*
Y1065000D03*
Y1085000D03*
Y1105000D03*
Y1125000D03*
Y1150000D03*
Y1170000D03*
Y1190000D03*
Y1210000D03*
Y1230000D03*
Y1250000D03*
X1705000Y1520000D03*
X1710000Y95000D03*
Y915000D03*
Y935000D03*
Y955000D03*
Y975000D03*
Y995000D03*
Y1015000D03*
Y1035000D03*
Y1055000D03*
Y1075000D03*
Y1095000D03*
Y1115000D03*
Y1140000D03*
Y1160000D03*
Y1180000D03*
Y1200000D03*
Y1220000D03*
Y1240000D03*
X1720000Y925000D03*
Y945000D03*
Y965000D03*
Y985000D03*
Y1005000D03*
Y1025000D03*
Y1045000D03*
Y1065000D03*
Y1085000D03*
Y1105000D03*
Y1125000D03*
Y1150000D03*
Y1170000D03*
Y1190000D03*
Y1210000D03*
Y1230000D03*
Y1250000D03*
X1725000Y105000D03*
Y1505000D03*
X1730000Y915000D03*
Y935000D03*
Y955000D03*
Y975000D03*
Y995000D03*
Y1015000D03*
Y1035000D03*
Y1055000D03*
Y1075000D03*
Y1095000D03*
Y1115000D03*
Y1140000D03*
Y1160000D03*
Y1180000D03*
Y1200000D03*
Y1220000D03*
Y1240000D03*
X1735000Y1520000D03*
X1740000Y90000D03*
Y925000D03*
Y945000D03*
Y965000D03*
Y985000D03*
Y1005000D03*
Y1025000D03*
Y1045000D03*
Y1065000D03*
Y1085000D03*
Y1105000D03*
Y1125000D03*
Y1150000D03*
Y1170000D03*
Y1190000D03*
Y1210000D03*
Y1230000D03*
Y1250000D03*
X1750000Y915000D03*
Y935000D03*
Y955000D03*
Y975000D03*
Y995000D03*
Y1015000D03*
Y1035000D03*
Y1055000D03*
Y1075000D03*
Y1095000D03*
Y1115000D03*
Y1140000D03*
Y1160000D03*
Y1180000D03*
Y1200000D03*
Y1220000D03*
Y1240000D03*
X1755000Y105000D03*
Y1505000D03*
X1760000Y925000D03*
Y945000D03*
Y965000D03*
Y985000D03*
Y1005000D03*
Y1025000D03*
Y1045000D03*
Y1065000D03*
Y1085000D03*
Y1105000D03*
Y1125000D03*
Y1150000D03*
Y1170000D03*
Y1190000D03*
Y1210000D03*
Y1230000D03*
Y1250000D03*
X1765000Y1520000D03*
X1770000Y90000D03*
Y915000D03*
Y935000D03*
Y955000D03*
Y975000D03*
Y995000D03*
Y1015000D03*
Y1035000D03*
Y1055000D03*
Y1075000D03*
Y1095000D03*
Y1115000D03*
Y1140000D03*
Y1160000D03*
Y1180000D03*
Y1200000D03*
Y1220000D03*
Y1240000D03*
X1780000Y925000D03*
Y945000D03*
Y965000D03*
Y985000D03*
Y1005000D03*
Y1025000D03*
Y1045000D03*
Y1065000D03*
Y1085000D03*
Y1105000D03*
Y1125000D03*
Y1150000D03*
Y1170000D03*
Y1190000D03*
Y1210000D03*
Y1230000D03*
Y1250000D03*
X1785000Y105000D03*
Y1505000D03*
X1795000Y1515000D03*
X1800000Y90000D03*
X1815000Y105000D03*
Y1505000D03*
X1825000Y1515000D03*
X1830000Y90000D03*
X1845000Y105000D03*
Y1505000D03*
X1855000Y1520000D03*
X1860000Y90000D03*
X1875000Y105000D03*
Y1505000D03*
X1885000Y1520000D03*
X1890000Y90000D03*
X1905000Y105000D03*
Y1505000D03*
X1915000Y1520000D03*
X1920000Y90000D03*
X1925000Y475000D03*
Y485000D03*
Y495000D03*
X1935000Y105000D03*
Y1505000D03*
X1940000Y475000D03*
Y485000D03*
Y495000D03*
X1945000Y1520000D03*
X1950000Y90000D03*
X1955000Y475000D03*
Y485000D03*
Y495000D03*
X1965000Y105000D03*
Y225000D03*
Y235000D03*
Y1505000D03*
X1970000Y475000D03*
Y485000D03*
Y495000D03*
X1975000Y225000D03*
Y235000D03*
Y1520000D03*
X1985000Y225000D03*
Y235000D03*
Y475000D03*
Y485000D03*
Y495000D03*
Y505000D03*
X1995000Y225000D03*
Y235000D03*
Y105000D03*
Y1505000D03*
X2005000Y225000D03*
Y235000D03*
Y1520000D03*
X2010000Y90000D03*
X2025000Y105000D03*
Y1505000D03*
X2035000Y1520000D03*
X2045000Y100000D03*
Y125000D03*
X2055000Y1505000D03*
X2065000Y125000D03*
Y1520000D03*
X2070000Y145000D03*
X2085000Y1505000D03*
X2090000Y920000D03*
Y940000D03*
Y960000D03*
Y980000D03*
Y1000000D03*
Y1020000D03*
Y1035000D03*
Y1055000D03*
Y1075000D03*
Y1095000D03*
Y1115000D03*
Y1140000D03*
Y1160000D03*
Y1180000D03*
Y1200000D03*
Y1220000D03*
Y1240000D03*
X2095000Y1520000D03*
X2100000Y140000D03*
Y930000D03*
Y950000D03*
Y970000D03*
Y990000D03*
Y1010000D03*
Y1045000D03*
Y1065000D03*
Y1085000D03*
Y1105000D03*
Y1125000D03*
Y1150000D03*
Y1170000D03*
Y1190000D03*
Y1210000D03*
Y1230000D03*
X2110000Y155000D03*
Y920000D03*
Y940000D03*
Y960000D03*
Y980000D03*
Y1000000D03*
Y1020000D03*
Y1035000D03*
Y1055000D03*
Y1075000D03*
Y1095000D03*
Y1115000D03*
Y1140000D03*
Y1160000D03*
Y1180000D03*
Y1200000D03*
Y1220000D03*
Y1240000D03*
X2115000Y1505000D03*
X2120000Y930000D03*
Y950000D03*
Y970000D03*
Y990000D03*
Y1010000D03*
Y1045000D03*
Y1065000D03*
Y1085000D03*
Y1105000D03*
Y1125000D03*
Y1150000D03*
Y1170000D03*
Y1190000D03*
Y1210000D03*
Y1230000D03*
X2125000Y1520000D03*
X2130000Y920000D03*
Y940000D03*
Y960000D03*
Y980000D03*
Y1000000D03*
Y1020000D03*
Y1035000D03*
Y1055000D03*
Y1075000D03*
Y1095000D03*
Y1115000D03*
Y1140000D03*
Y1160000D03*
Y1180000D03*
Y1200000D03*
Y1220000D03*
Y1240000D03*
X2135000Y130000D03*
X2140000Y930000D03*
Y950000D03*
Y970000D03*
Y990000D03*
Y1010000D03*
Y1045000D03*
Y1065000D03*
Y1085000D03*
Y1105000D03*
Y1125000D03*
Y1150000D03*
Y1170000D03*
Y1190000D03*
Y1210000D03*
Y1230000D03*
X2145000Y1505000D03*
X2150000Y920000D03*
Y940000D03*
Y960000D03*
Y980000D03*
Y1000000D03*
Y1020000D03*
Y1035000D03*
Y1055000D03*
Y1075000D03*
Y1095000D03*
Y1115000D03*
Y1140000D03*
Y1160000D03*
Y1180000D03*
Y1200000D03*
Y1220000D03*
Y1240000D03*
X2155000Y115000D03*
Y135000D03*
Y1520000D03*
X2160000Y930000D03*
Y950000D03*
Y970000D03*
Y990000D03*
Y1010000D03*
Y1045000D03*
Y1065000D03*
Y1085000D03*
Y1105000D03*
Y1125000D03*
Y1150000D03*
Y1170000D03*
Y1190000D03*
Y1210000D03*
Y1230000D03*
X2170000Y920000D03*
Y940000D03*
Y960000D03*
Y980000D03*
Y1000000D03*
Y1020000D03*
Y1035000D03*
Y1055000D03*
Y1075000D03*
Y1095000D03*
Y1115000D03*
Y1140000D03*
Y1160000D03*
Y1180000D03*
Y1200000D03*
Y1220000D03*
Y1240000D03*
X2175000Y105000D03*
Y1505000D03*
X2180000Y930000D03*
Y950000D03*
Y970000D03*
Y990000D03*
Y1010000D03*
Y1045000D03*
Y1065000D03*
Y1085000D03*
Y1105000D03*
Y1125000D03*
Y1150000D03*
Y1170000D03*
Y1190000D03*
Y1210000D03*
Y1230000D03*
X2185000Y920000D03*
Y940000D03*
Y960000D03*
Y980000D03*
Y1000000D03*
Y1020000D03*
Y1035000D03*
Y1055000D03*
Y1075000D03*
Y1095000D03*
Y1115000D03*
Y1140000D03*
Y1160000D03*
Y1180000D03*
Y1200000D03*
Y1220000D03*
Y1240000D03*
Y1520000D03*
X2190000Y90000D03*
X2205000Y105000D03*
Y1505000D03*
X2215000Y1515000D03*
X2220000Y90000D03*
X2235000Y105000D03*
Y1505000D03*
X2245000Y1515000D03*
X2250000Y90000D03*
X2265000Y105000D03*
Y1505000D03*
X2275000Y1520000D03*
X2280000Y90000D03*
X2295000Y105000D03*
Y1505000D03*
X2305000Y1520000D03*
X2310000Y90000D03*
X2325000Y105000D03*
Y1505000D03*
X2335000Y1520000D03*
X2340000Y90000D03*
X2355000Y105000D03*
Y1505000D03*
X2365000Y1520000D03*
X2370000Y90000D03*
X2385000Y105000D03*
Y1505000D03*
X2395000Y1520000D03*
X2400000Y90000D03*
X2415000Y105000D03*
Y1505000D03*
X2425000Y1520000D03*
X2430000Y850000D03*
X2435000Y865000D03*
Y895000D03*
X2445000Y105000D03*
Y1505000D03*
X2455000Y1520000D03*
X2460000Y90000D03*
X2461000Y849000D03*
Y866000D03*
X2465000Y895000D03*
X2475000Y105000D03*
Y1505000D03*
X2485000Y1520000D03*
X2495000Y95000D03*
X2505000Y105000D03*
Y1505000D03*
X2510000Y560000D03*
Y590000D03*
Y620000D03*
Y650000D03*
Y680000D03*
Y710000D03*
Y740000D03*
Y770000D03*
Y800000D03*
Y830000D03*
Y860000D03*
Y890000D03*
Y920000D03*
Y950000D03*
Y980000D03*
Y1010000D03*
Y1040000D03*
Y1070000D03*
Y1100000D03*
X2515000Y1125000D03*
Y1520000D03*
X2520000Y570000D03*
Y600000D03*
Y630000D03*
Y660000D03*
Y690000D03*
Y720000D03*
Y750000D03*
Y780000D03*
Y810000D03*
Y840000D03*
Y870000D03*
Y900000D03*
Y930000D03*
Y960000D03*
Y990000D03*
Y1020000D03*
Y1050000D03*
Y1080000D03*
Y1110000D03*
X2530000Y1125000D03*
Y1145000D03*
X2535000Y105000D03*
Y1505000D03*
X2545000Y1140000D03*
Y1520000D03*
X2550000Y90000D03*
Y1165000D03*
X2565000Y105000D03*
Y1160000D03*
Y1505000D03*
X2570000Y1185000D03*
X2575000Y1520000D03*
X2580000Y90000D03*
X2585000Y865000D03*
Y875000D03*
Y885000D03*
Y895000D03*
Y905000D03*
Y915000D03*
Y925000D03*
Y935000D03*
Y945000D03*
Y955000D03*
Y965000D03*
Y975000D03*
Y985000D03*
Y1035000D03*
Y1045000D03*
Y1055000D03*
Y1065000D03*
Y1075000D03*
Y1085000D03*
Y1095000D03*
Y1105000D03*
Y1115000D03*
Y1125000D03*
X2590000Y1180000D03*
Y1195000D03*
X2595000Y105000D03*
Y865000D03*
Y875000D03*
Y885000D03*
Y895000D03*
Y905000D03*
Y915000D03*
Y925000D03*
Y935000D03*
Y945000D03*
Y955000D03*
Y965000D03*
Y975000D03*
Y985000D03*
Y1505000D03*
X2600000Y1035000D03*
Y1045000D03*
Y1055000D03*
Y1065000D03*
Y1075000D03*
Y1085000D03*
Y1095000D03*
Y1105000D03*
Y1115000D03*
Y1125000D03*
X2605000Y865000D03*
Y875000D03*
Y885000D03*
Y895000D03*
Y905000D03*
Y915000D03*
Y925000D03*
Y935000D03*
Y945000D03*
Y955000D03*
Y965000D03*
Y975000D03*
Y985000D03*
Y1520000D03*
X2610000Y90000D03*
Y1185000D03*
X2615000Y865000D03*
Y875000D03*
Y885000D03*
Y895000D03*
Y905000D03*
Y915000D03*
Y925000D03*
Y935000D03*
Y945000D03*
Y955000D03*
Y965000D03*
Y975000D03*
Y985000D03*
X2620000Y1195000D03*
X2625000Y105000D03*
Y760000D03*
Y770000D03*
Y780000D03*
Y790000D03*
Y800000D03*
Y810000D03*
Y820000D03*
Y830000D03*
Y840000D03*
Y850000D03*
Y860000D03*
Y870000D03*
Y880000D03*
Y895000D03*
Y905000D03*
Y915000D03*
Y925000D03*
Y935000D03*
Y945000D03*
Y955000D03*
Y965000D03*
Y975000D03*
Y985000D03*
Y1505000D03*
X2635000Y760000D03*
Y770000D03*
Y780000D03*
Y790000D03*
Y800000D03*
Y810000D03*
Y820000D03*
Y830000D03*
Y840000D03*
Y850000D03*
Y860000D03*
Y870000D03*
Y880000D03*
Y1515000D03*
X2640000Y90000D03*
Y1185000D03*
X2645000Y760000D03*
Y770000D03*
Y780000D03*
Y790000D03*
Y800000D03*
Y810000D03*
Y820000D03*
Y830000D03*
Y840000D03*
Y850000D03*
Y860000D03*
Y870000D03*
Y880000D03*
X2650000Y1195000D03*
X2655000Y105000D03*
Y760000D03*
Y770000D03*
Y780000D03*
Y790000D03*
Y800000D03*
Y810000D03*
Y820000D03*
Y830000D03*
Y840000D03*
Y850000D03*
Y860000D03*
Y870000D03*
Y880000D03*
Y1505000D03*
X2665000Y1515000D03*
X2670000Y90000D03*
Y1185000D03*
X2680000Y1195000D03*
X2685000Y105000D03*
Y1505000D03*
X2695000Y1520000D03*
X2700000Y90000D03*
Y1185000D03*
X2710000Y1195000D03*
X2715000Y105000D03*
Y1505000D03*
X2725000Y1520000D03*
X2730000Y1185000D03*
X2740000Y1195000D03*
X2745000Y105000D03*
Y1505000D03*
X2755000Y1520000D03*
X2760000Y90000D03*
Y1185000D03*
X2770000Y1195000D03*
X2775000Y105000D03*
Y1505000D03*
X2785000Y1520000D03*
X2790000Y90000D03*
Y1185000D03*
X2800000Y1195000D03*
X2805000Y105000D03*
Y1505000D03*
X2815000Y1520000D03*
X2820000Y90000D03*
Y1185000D03*
X2830000Y1195000D03*
X2835000Y105000D03*
Y1505000D03*
X2845000Y1520000D03*
X2850000Y90000D03*
Y1185000D03*
X2860000Y1195000D03*
X2865000Y105000D03*
Y1505000D03*
X2875000Y1520000D03*
X2880000Y90000D03*
Y1185000D03*
X2890000Y1195000D03*
X2895000Y105000D03*
Y1505000D03*
X2905000Y1520000D03*
X2910000Y90000D03*
Y1185000D03*
X2920000Y1195000D03*
X2925000Y105000D03*
Y1505000D03*
X2935000Y1520000D03*
X2940000Y90000D03*
Y1185000D03*
X2950000Y1195000D03*
X2955000Y105000D03*
Y1505000D03*
X2965000Y1520000D03*
X2970000Y95000D03*
Y1185000D03*
X2980000Y1195000D03*
X2985000Y105000D03*
Y1505000D03*
X2995000Y1520000D03*
X3000000Y95000D03*
Y1185000D03*
X3010000Y1195000D03*
X3015000Y105000D03*
Y1505000D03*
X3025000Y1520000D03*
X3030000Y1185000D03*
X3040000Y1195000D03*
X3045000Y1505000D03*
X3055000Y1515000D03*
X3060000Y1185000D03*
X3070000Y1195000D03*
X3075000Y1505000D03*
X3085000Y1515000D03*
X3090000Y90000D03*
Y1185000D03*
X3100000Y1195000D03*
X3105000Y105000D03*
Y1505000D03*
X3115000Y80000D03*
Y1520000D03*
X3120000Y1185000D03*
X3130000Y1195000D03*
X3135000Y90000D03*
Y1505000D03*
X3140000Y65000D03*
X3145000Y1520000D03*
X3150000Y1185000D03*
X3160000Y35000D03*
Y65000D03*
Y1195000D03*
X3165000Y1505000D03*
X3170000Y301500D03*
Y311500D03*
Y341500D03*
Y352000D03*
X3175000Y1520000D03*
X3180000Y10000D03*
Y35000D03*
Y1185000D03*
X3190000Y1195000D03*
X3195000Y1505000D03*
X3200000Y25000D03*
X3205000Y1520000D03*
X3210000Y10000D03*
Y1185000D03*
X3220000Y1195000D03*
X3225000Y1505000D03*
X3230000Y25000D03*
X3235000Y1520000D03*
X3240000Y10000D03*
Y1185000D03*
X3250000Y1195000D03*
X3255000Y1505000D03*
X3260000Y25000D03*
X3265000Y1520000D03*
X3270000Y10000D03*
Y1185000D03*
X3280000Y1195000D03*
X3285000Y1505000D03*
X3290000Y25000D03*
X3295000Y1520000D03*
X3300000Y10000D03*
Y1185000D03*
X3310000Y1195000D03*
X3315000Y1505000D03*
X3320000Y25000D03*
X3325000Y1520000D03*
X3330000Y10000D03*
Y1185000D03*
X3340000Y335000D03*
Y345000D03*
Y355000D03*
Y1195000D03*
X3345000Y1505000D03*
X3350000Y25000D03*
Y335000D03*
Y345000D03*
Y355000D03*
Y365000D03*
X3355000Y1520000D03*
X3360000Y10000D03*
Y301500D03*
Y311500D03*
Y345000D03*
Y355000D03*
Y365000D03*
Y1185000D03*
X3370000Y345000D03*
Y355000D03*
Y365000D03*
Y1195000D03*
X3375000Y1505000D03*
X3380000Y25000D03*
Y345000D03*
Y355000D03*
Y365000D03*
Y1175000D03*
X3385000Y1520000D03*
X3390000Y10000D03*
Y345000D03*
Y355000D03*
Y365000D03*
Y1160000D03*
Y1190000D03*
X3395000Y915000D03*
Y980000D03*
Y1015000D03*
Y1045000D03*
Y1075000D03*
Y1105000D03*
Y1130000D03*
X3400000Y295000D03*
Y305000D03*
Y315000D03*
Y325000D03*
Y335000D03*
Y345000D03*
Y355000D03*
Y365000D03*
X3405000Y905000D03*
Y935000D03*
Y965000D03*
Y995000D03*
Y1025000D03*
Y1055000D03*
Y1085000D03*
Y1115000D03*
Y1145000D03*
Y1175000D03*
Y1505000D03*
X3410000Y25000D03*
Y60000D03*
Y70000D03*
Y80000D03*
Y90000D03*
Y100000D03*
Y110000D03*
Y120000D03*
Y130000D03*
Y185000D03*
Y195000D03*
Y205000D03*
Y215000D03*
Y225000D03*
Y235000D03*
Y245000D03*
X3415000Y925000D03*
Y1520000D03*
X3420000Y10000D03*
Y185000D03*
Y195000D03*
Y205000D03*
Y215000D03*
Y225000D03*
Y235000D03*
Y245000D03*
X3425000Y905000D03*
X3435000Y1505000D03*
X3440000Y25000D03*
Y295000D03*
Y305000D03*
Y315000D03*
Y325000D03*
Y335000D03*
Y345000D03*
Y355000D03*
Y365000D03*
X3445000Y915000D03*
Y1520000D03*
X3450000Y10000D03*
X3455000Y905000D03*
X3465000Y1505000D03*
X3470000Y25000D03*
X3475000Y915000D03*
Y1515000D03*
X3480000Y10000D03*
X3485000Y905000D03*
X3495000Y1505000D03*
X3500000Y25000D03*
Y295000D03*
Y325000D03*
Y350000D03*
Y380000D03*
Y410000D03*
Y435000D03*
X3505000Y915000D03*
Y1515000D03*
X3510000Y10000D03*
Y465000D03*
Y495000D03*
X3515000Y905000D03*
X3520000Y310000D03*
Y335000D03*
Y365000D03*
Y395000D03*
Y425000D03*
X3525000Y1505000D03*
X3530000Y25000D03*
X3535000Y915000D03*
Y1520000D03*
X3540000Y10000D03*
Y320000D03*
Y350000D03*
Y380000D03*
Y410000D03*
X3545000Y495000D03*
X3555000Y335000D03*
Y365000D03*
Y395000D03*
Y425000D03*
Y905000D03*
X3560000Y35000D03*
X3565000Y20000D03*
Y1520000D03*
X3570000Y205000D03*
X3575000Y60000D03*
Y85000D03*
Y115000D03*
Y320000D03*
Y350000D03*
Y380000D03*
Y410000D03*
Y440000D03*
Y495000D03*
Y595000D03*
Y620000D03*
Y645000D03*
Y675000D03*
Y705000D03*
Y735000D03*
Y765000D03*
Y795000D03*
Y825000D03*
Y855000D03*
Y885000D03*
Y915000D03*
Y945000D03*
X3580000Y40000D03*
Y470000D03*
Y975000D03*
Y1005000D03*
Y1035000D03*
Y1065000D03*
Y1095000D03*
Y1125000D03*
Y1155000D03*
Y1185000D03*
Y1215000D03*
Y1245000D03*
Y1275000D03*
Y1305000D03*
Y1335000D03*
Y1365000D03*
Y1395000D03*
Y1425000D03*
X3590000Y70000D03*
Y100000D03*
Y125000D03*
Y150000D03*
Y180000D03*
Y210000D03*
Y240000D03*
Y270000D03*
Y300000D03*
Y330000D03*
Y360000D03*
Y390000D03*
Y420000D03*
Y450000D03*
Y480000D03*
Y515000D03*
Y540000D03*
Y565000D03*
Y590000D03*
Y615000D03*
Y640000D03*
Y670000D03*
Y700000D03*
Y730000D03*
Y760000D03*
Y790000D03*
Y820000D03*
Y850000D03*
Y880000D03*
Y910000D03*
Y940000D03*
Y970000D03*
Y1000000D03*
Y1030000D03*
Y1060000D03*
Y1090000D03*
Y1120000D03*
Y1150000D03*
Y1180000D03*
Y1210000D03*
Y1230000D03*
Y1260000D03*
Y1290000D03*
Y1320000D03*
Y1350000D03*
Y1380000D03*
Y1410000D03*
Y1440000D03*
Y1505000D03*
G54D71*
X3135000Y270000D03*
Y290000D03*
Y310000D03*
Y330000D03*
Y350000D03*
Y370000D03*
X3150000Y270000D03*
Y290000D03*
Y310000D03*
Y330000D03*
Y350000D03*
Y370000D03*
X3165000D03*
X3180000D03*
G54D72*
X836000Y1184000D03*
Y1214000D03*
X930000Y1130000D03*
Y1160000D03*
X950000Y1130000D03*
Y1160000D03*
X970000Y1130000D03*
Y1160000D03*
X990000Y1130000D03*
Y1160000D03*
X1010000Y1130000D03*
Y1160000D03*
X1030000Y1130000D03*
Y1160000D03*
X1053000Y1003000D03*
Y1033000D03*
X1060000Y961000D03*
Y991000D03*
X1093000Y938000D03*
Y968000D03*
X1325000Y1130000D03*
Y1160000D03*
X1345000Y1130000D03*
Y1160000D03*
X1365000Y1130000D03*
Y1160000D03*
X1385000Y1130000D03*
Y1160000D03*
X1405000Y1130000D03*
Y1160000D03*
X1425000Y1130000D03*
Y1160000D03*
X1519000Y1209000D03*
Y1239000D03*
G54D73*
X245000Y1955000D02*
X1475000D01*
X245000Y2015000D02*
X1475000D01*
X245000Y2075000D02*
X1475000D01*
X245000D02*
Y1895000D01*
X495000Y2075000D02*
Y1955000D01*
X516000Y936000D03*
Y948000D03*
Y960000D03*
Y972000D03*
Y984000D03*
X528000Y936000D03*
Y948000D03*
Y960000D03*
Y972000D03*
Y984000D03*
X540000Y936000D03*
Y948000D03*
Y960000D03*
Y972000D03*
Y984000D03*
X552000Y936000D03*
Y948000D03*
Y960000D03*
Y972000D03*
Y984000D03*
X564000Y936000D03*
Y948000D03*
Y960000D03*
Y972000D03*
Y984000D03*
X660100Y2075000D02*
Y1955000D01*
X709000Y346000D03*
Y356000D03*
Y366000D03*
X888700Y2075000D02*
Y1955000D01*
X1085000Y2075000D02*
Y1895000D01*
X1285000Y2015000D02*
Y1895000D01*
X1475000D02*
Y2075000D01*
Y1895000D02*
X245000D01*
G04 *
M02*
