; Version : LOCAL
; Job     : V:\2023\17_KDDI_3.7G_4.0G_32T32R_200W_PWR_PP3235-77A\PCS01B\06_Working\PCB\PP3235-77A.pcb
; User    : JIAXIN-ZHANG01:jiaxin.zhang
; Date    : Tue Jan 09 13:22:22 2024
; Format  : 2.4 / Absolute / MM / Leading
; Contents: Thru / Mill / Plated
M48
METRIC,TZ
FMAT,2
ICI,OFF
T06C1.4100
T09C2.2500
%
M71
G90
G93X0Y0
T06
G00X2885000Y905000
M15
G01Y851500
Y958500
M16
G00X3095000Y905000
M15
G01Y851500
Y958500
M16
T09
G00X2740000Y250000
M15
G01X2755000
X2725000
M16
G00X2900000
M15
G01X2915000
X2885000
M16
G00X2286000Y350000
M15
G01X2301000
X2271000
M16
G00X2126000
M15
G01X2141000
X2111000
M16
G00X2780000Y380000
M15
G01X2795000
X2765000
M16
G00X2860000
M15
G01X2875000
X2845000
M16
G00X2246000Y480000
M15
G01X2261000
X2231000
M16
G00X2166000
M15
G01X2181000
X2151000
M17
T00
M30
