; Version : LOCAL
; Job     : V:\2023\17_KDDI_3.7G_4.0G_32T32R_200W_PWR_PP3235-77A\PCS01B\06_Working\PCB\PP3235-77A.pcb
; User    : JIAXIN-ZHANG01:jiaxin.zhang
; Date    : Tue Jan 09 13:22:22 2024
; Format  : 2.4 / Absolute / MM / Leading
; Contents: Thru / Mill / Non-Plated
M48
METRIC,TZ
FMAT,2
ICI,OFF
T14C0.1000
%
M71
G90
G93X0Y0
T14
G00X3537715Y441179
M15
G02X3519030Y462051A21000
X3540030Y483051A21000
X3542346Y482923A21000
G01X3552285Y481821
G02X3570970Y460949A21000
X3549970Y439949A21000
X3547654Y440077A21000
G01X3537715Y441179
M16
G00X855000Y671250
M15
G01X1055000
Y748750
X855000
Y671250
M16
G00X1270000
M15
G01X1470000
Y748750
X1270000
Y671250
M16
G00X76000Y848500
M15
G03X55000Y869500A21000
X34000Y848500A21000
X55000Y827500A21000
X76000Y848500A21000
M17
T00
M30
