; Version : LOCAL
; Job     : V:\2023\17_KDDI_3.7G_4.0G_32T32R_200W_PWR_PP3235-77A\PCS01B\06_Working\PCB\PP3235-77A.pcb
; User    : JIAXIN-ZHANG01:jiaxin.zhang
; Date    : Tue Jan 09 13:22:22 2024
; Format  : 2.4 / Absolute / MM / Leading
; Contents: Thru / Drill / Plated
M48
METRIC,TZ
FMAT,2
ICI,OFF
T04C0.2000
T11C0.2500
T10C0.3000
T05C0.8000
T02C1.0000
T03C1.2000
T08C1.7100
T01C3.8000
T07C4.5000
%
M71
G90
G93X0Y0
T04
X749000Y1124500
X737000
X743000Y1129000
X737000Y1133500
X749000
T11
X2915000Y223000
X2900000
X2885000
X2930000Y225000
X2870000
X2610000Y230000
X2595000
X2580000
X2565000
X2550000
X2470000
X2455000
X2440000
X2425000
X2410000
X2860000Y235000
X2700000Y240000
X2780000
X2940000
X2610000
X2595000
X2580000
X2565000
X2550000
X2470000
X2455000
X2440000
X2425000
X2410000
X700000Y255000
X2700000Y260000
X2780000
X2860000
X2940000
X2930000Y275000
X2870000
X2770000
X2710000
X630000
X685000
X2915000Y277000
X2900000
X2885000
X2725000Y278000
X2740000
X2755000
X575000Y280000
X565000
X815000Y300000
X659000Y306000
X890000Y310000
X865000
X1450000Y315000
X659000Y314000
X2300000Y323000
X2140000
X2125000
X2110000
X2273000
X2286000
X2310000Y325000
X2260000
X2160000
X2095000
X835000
X2250000Y330000
X730000
X675000
X2325000Y335000
X590000
X1490000Y340000
X2085000
X2165000
X2245000
X590000Y345000
X715000Y346000
X703000
X1505000Y350000
X2610000
X2595000
X2580000
X2565000
X2550000
X2480000
X2465000
X2450000
X2435000
X845000
X3220000Y351500
X3250000
X2880000Y353000
X2865000
X2850000
X2790000
X2775000
X2760000
X715000Y352000
X703000
X2890000Y355000
X2835000
X2805000
X2085000Y360000
X2165000
X2245000
X2325000
X2745000
X2610000
X2595000
X2580000
X2565000
X2550000
X2480000
X2465000
X2450000
X2435000
X755000
X715000
X703000
X3220000Y361500
X3250000
X3280000
X2899000Y367000
X715000Y366000
X703000
X635000Y367000
X1440000Y370000
X1515000
X2740000
X3280000Y371500
X2315000Y375000
X2255000
X2155000
X2095000
X680000
X705000
X2300000Y377000
X2285000
X2270000
X2140000
X2125000
X2110000
X2902000Y380000
X2738000Y384000
X765000Y385000
X772000
X660000Y390000
X2899000Y395000
X2745000Y400000
X2888000Y403000
X2835000Y405000
X2805000
X2875000Y407000
X2860000
X2845000
X2790000
X2775000
X2760000
X1530000Y415000
X1430000Y420000
X1477450
X695000
X885000Y425000
X840000
X636000Y429000
X1551000Y430650
X715000Y430000
X701000Y434000
X630000Y444000
X1550000Y445000
X1520000
X1035000
X945000
X605000Y449000
X690000Y450000
X2250000Y453000
X2235000
X2220000
X2180000
X2165000
X2150000
X2265000Y455000
X2195000
X2135000
X1495000
X1460000
X701000Y459000
X900000Y460000
X710100Y461000
X2280000Y465000
X605000Y469000
X2125000Y470000
X626000Y474000
X776000Y475000
X895000
X1375000Y485000
X1280000
X2285000
X751000Y490000
X2125000
X762350Y491000
X714000Y490100
X1430000Y495000
X1485000
X845000Y500000
X2275000
X2135000
X701000Y504000
X716000
X2195000Y505000
X2265000Y507000
X2250000
X2235000
X2220000
X3185000Y510000
X3335000
X636000Y514000
X701000Y519000
X630000Y529000
X3165000Y530000
X3205000
X3315000
X3355000
X605000Y534000
X690000Y535000
X701000Y544000
X710100Y546000
X3185000Y550000
X3335000
X605000Y554000
X3160000Y555000
X3145000
X625000Y560000
X730000Y565000
X1960000
X1970000
X3160000Y575000
X3145000
X3130000
X714000Y575100
X1960000Y575000
X1970000
X3160000Y595000
X3145000
X3130000
X3335000Y605000
X3185000
X3160000Y615000
X3145000
X3130000
X3355000Y625000
X3315000
X3205000
X3165000
X1730000
X1700000
X3160000Y635000
X3145000
X3130000
X1730000
X1700000
X3335000Y645000
X3185000
X595000Y675000
X585000
Y684100
X627000Y695000
X617000
X610000
X600000
X1825000Y700000
X1655000Y705000
X1645000
X540000
X585000Y710000
X570000Y720000
X1850000
X2730000Y730000
X2740000
X2750000
X2760000
X1850000Y735000
X1815000
X1750000Y740000
X2730000
X2740000
X2750000
X2760000
X1690000Y745000
X1700000
X1750000Y750000
X2730000
X2740000
X2750000
X2760000
X560000Y760000
X570000
X580000
X590000
X2730000
X2740000
X2750000
X2760000
X550000
X540000Y765000
X2730000Y770000
X2740000
X2750000
X2760000
X2730000Y780000
X2740000
X2750000
X2760000
X2730000Y790000
X2740000
X2750000
X2760000
X1760000Y795000
X1750000
X1740000
X1730000
X1720000
X1710000
X1700000
X1690000
X1680000
X1670000
X1660000
X1650000
X2730000Y800000
X2740000
X2750000
X2760000
X1855000
X1760000Y805000
X1750000
X1740000
X1730000
X1720000
X1710000
X1700000
X1690000
X1680000
X1670000
X1660000
X1650000
X360000Y810000
X370000
X380000
X460000
X470000
X480000
X2730000
X2740000
X2750000
X2760000
X615000
X605000
X1760000Y815000
X1750000
X1740000
X1730000
X1720000
X1710000
X1700000
X1690000
X1680000
X1670000
X1660000
X1650000
X760000
X732000Y818000
X2730000Y820000
X2740000
X2750000
X2760000
X1760000Y825000
X1750000
X1740000
X1730000
X1720000
X1710000
X1700000
X1690000
X1680000
X1670000
X1660000
X1650000
X2730000Y830000
X2740000
X2750000
X2760000
X2900000
X2875000
X630000
X1760000Y835000
X1750000
X1740000
X1730000
X1720000
X1710000
X1700000
X1690000
X1680000
X1670000
X1660000
X1650000
X2865000
X2730000Y840000
X2740000
X2750000
X2760000
X755000
X630000
X615000
X605000
X720000Y845000
X2910000
X3120000
X2343000Y846000
X2322000
X2730000Y850000
X2740000
X2750000
X2760000
X3070000
X2860000
X2730000Y860000
X2740000
X2750000
X2760000
X3120000
X2910000
X2275000
X2322000Y863000
X2343000
X2860000Y865000
X3070000
X2730000Y870000
X2740000
X2750000
X2760000
X2219000
X490000
X1960000Y875000
X2910000
X3120000
X380000Y880000
X420000
X440000
X610000
X2730000
X2740000
X2750000
X2760000
X3070000
X2860000
X2465000
X2008000
X525000
X500000
X490000
X2291000Y881000
X1135000Y885000
X470000
X1580000
X2730000Y890000
X2740000
X2750000
X2760000
X2770000
X3120000
X2910000
X2200000
X2005000
X540000
X2247000Y892000
X2291000Y893000
X2345000
X525000Y895000
X570000
X580000
X590000
X1555000
X2215000
X2860000
X3070000
X2730000Y900000
X2740000
X2750000
X2760000
X2770000
X1580000
X1170000
X425000
X1145000Y905000
X500000
X610000
X1840000
X1850000
X1860000
X2015000
X2910000
X3120000
X2730000Y910000
X2740000
X2750000
X2760000
X2770000
X3070000
X2860000
X2045000
X2035000
X2025000
X1570000
X440000
X504000Y914000
X1096000Y915000
X586000
X455000
X610000
X785000
X1190000
X1840000
X1850000
X1860000
X1935000Y920000
X2250000
X2345000
X2730000
X2740000
X2750000
X2760000
X2770000
X3120000
X2910000
X2290000
X2045000
X2035000
X2025000
X615000
X460000Y925000
X470000
X1840000
X1850000
X1860000
X2860000
X3070000
X2210000Y930000
X2290900
X2730000
X2740000
X2750000
X2760000
X2770000
X2045000
X2035000
X2025000
X1190000
X745000
X605000
X2910000Y935000
X3120000
X630000Y940000
X2230000
X2330000
X2355000
X2730000
X2740000
X2750000
X2760000
X2770000
X3070000
X2860000
X455000
X1935000Y945000
X590000
X690000
X1250000
X1893000Y947000
X455000Y950000
X630000
X2730000
X2740000
X2750000
X2760000
X2770000
X3120000
X2910000
X2005000
X835000
X2025000Y955000
X2035000
X2045000
X2860000
X3070000
X2290000Y960000
X2730000
X2740000
X2750000
X2760000
X2770000
X2210000Y960900
X1860000Y960000
X1850000
X1840000
X455000Y962000
X1920000Y965000
X2025000
X2035000
X2045000
X2420000
X2910000
X3120000
X1046000Y969000
X2730000Y970000
X2740000
X2750000
X2760000
X2770000
X3075000
X2865000
X1860000
X1850000
X1840000
X440000Y975000
X460000
X470000
X1885000
X2005000
X2025000
X2035000
X2045000
X692900Y977000
X724000
X495000Y980000
X1250000
X2200900
X2229100
X2272000
X2730000
X2740000
X2750000
X2760000
X2770000
X3105000
X3085000
X2895000
X2875000
X2255000
X1860000
X1850000
X1840000
X765000
X755000
X610000
X600000
X585000
X1080000Y985000
X775000
X475000
X835000
X1885000
X1950000Y986000
X2335000Y985000
X625000Y990000
X635000
X1134000
X2730000
X2740000
X2750000
X2760000
X2770000
X1595000
X1190000
X465000
X1160000Y995000
X2005000
X2020000
X1920000Y997000
X1073000
X1574000Y1000000
X2730000
X2740000
X2750000
X2760000
X2770000
X1860000
X1850000
X1840000
X1039000Y1002000
X669000Y1003000
X2350000Y1005000
X1195000
X1089000
X780000
X475000
X560000
X575000
X600000
X630000
X640000
X1165000
X2045000Y1010000
X2035000
X2025000
X1860000
X1850000
X1840000
X570000
X1529000Y1015000
X1134000
X825000
X1240000
X1605000
X695000Y1020000
X710000
X2290000
X2045000
X2035000
X2025000
X1860000
X1850000
X1840000
X845000
X542000Y1021000
X510000
X1574000Y1025000
X780000Y1030000
X840000
X1070000
X1145000
X1195000
X1255000
X1931000
X2045000
X2035000
X2025000
X1860000
X1850000
X1840000
X1285000
X580000
X495000
X600000Y1031000
X1045000Y1035000
X510000
X1585000Y1040000
X2045000
X2035000
X2025000
X1860000
X1850000
X1840000
X1510000
X580000
X505000Y1045000
X570000
X1930000
X1995000Y1050000
X1931000Y1054000
X715000Y1055000
X695000Y1065000
X530000
X2025000
X2035000
X2045000
X705000Y1075000
X1840000
X1850000
X1860000
X2025000
X2035000
X2045000
X622000Y1086000
X1840000Y1085000
X1850000
X1860000
X1920000
X1930000
X1965000
X2025000
X2035000
X2045000
X645000Y1095000
X1840000
X1850000
X1860000
X1930000Y1100000
X1890000
X582000Y1106000
X645000Y1110000
X1840000Y1115000
X1850000
X1860000
X1930000
X705000Y1120000
X2045000
X2035000
X2025000
X1840000Y1125000
X1850000
X1860000
X1930000
X640000Y1129000
X2045000Y1130000
X2035000
X2025000
X581000Y1135000
X1840000
X1850000
X1860000
X2045000Y1140000
X2035000
X2025000
X705000Y1145000
X1840000
X1850000
X1860000
X1900000
X637000Y1150000
X2045000
X2035000
X2025000
X1840000Y1155000
X1850000
X1860000
X740000Y1162000
X755000
X605000Y1165000
X615000
X735000Y1170000
X1865000
X1947000Y1173000
X2025000Y1175000
X2035000
X2045000
X2025000Y1185000
X2035000
X2045000
X1860000Y1190000
X1850000
X1840000
X2025000Y1195000
X2035000
X2045000
X1950000Y1200000
X1940000
X1860000
X1850000
X1840000
X1860000Y1210000
X1850000
X1840000
X2015000Y1215000
X2045000Y1230000
X2035000
X2025000
X1860000
X1850000
X1840000
X2045000Y1240000
X2035000
X2025000
X1860000
X1850000
X1840000
X1535000Y1245000
X2045000Y1250000
X2035000
X2025000
X1860000
X1850000
X1840000
T10
X3540000Y10000
X3510000
X3480000
X3450000
X3420000
X3390000
X3360000
X3330000
X3300000
X3270000
X3240000
X3210000
X3180000
X3565000Y20000
X3200000Y25000
X3230000
X3260000
X3290000
X3320000
X3350000
X3380000
X3410000
X3440000
X3470000
X3500000
X3530000
X3160000Y35000
X3180000
X3560000
X3580000Y40000
X3575000Y60000
X3410000
X3140000Y65000
X3160000
X3590000Y70000
X3410000
Y80000
X3115000
X3575000Y85000
X3410000Y90000
X3135000
X3090000
X2940000
X2910000
X2880000
X2850000
X2820000
X2790000
X2760000
X2700000
X2670000
X2640000
X2610000
X2580000
X2550000
X2460000
X2400000
X2370000
X2340000
X2310000
X2280000
X2250000
X2220000
X2190000
X2010000
X1950000
X1920000
X1890000
X1860000
X1830000
X1800000
X1770000
X1740000
X1590000
X1560000
X1530000
X1500000
X1470000
X1440000
X1410000
X1380000
X1350000
X1320000
X1290000
X1260000
X1230000
X1140000
X1110000
X1080000
X1050000
X1020000
X990000
X960000
X930000
X870000
X840000
X810000
X780000
X690000
X660000
X630000
X600000
X570000
X540000
X510000
X480000
X450000
X420000
X390000
X360000
X330000
X300000
X240000
X210000
X180000
X150000
X900000Y95000
X1680000
X1710000
X2495000
X2970000
X3000000
X3590000Y100000
X3410000
X2045000
X125000
X165000Y105000
X195000
X225000
X255000
X285000
X315000
X345000
X375000
X405000
X435000
X465000
X495000
X525000
X555000
X585000
X615000
X645000
X675000
X705000
X735000
X765000
X795000
X825000
X855000
X885000
X915000
X945000
X975000
X1005000
X1035000
X1065000
X1095000
X1125000
X1155000
X1185000
X1215000
X1245000
X1275000
X1305000
X1335000
X1365000
X1395000
X1425000
X1455000
X1485000
X1515000
X1545000
X1575000
X1605000
X1635000
X1665000
X1695000
X1725000
X1755000
X1785000
X1815000
X1845000
X1875000
X1905000
X1935000
X1965000
X1995000
X2025000
X2175000
X2205000
X2235000
X2265000
X2295000
X2325000
X2355000
X2385000
X2415000
X2445000
X2475000
X2505000
X2535000
X2565000
X2595000
X2625000
X2655000
X2685000
X2715000
X2745000
X2775000
X2805000
X2835000
X2865000
X2895000
X2925000
X2955000
X2985000
X3015000
X3105000
X3410000Y110000
X2155000Y115000
X3575000
X3410000Y120000
X145000
X115000Y125000
X2045000
X2065000
X3590000
X3410000Y130000
X2135000
X2155000Y135000
X2100000Y140000
X130000Y145000
X2070000
X3590000Y150000
X115000
X2110000Y155000
X120000Y170000
X3590000Y180000
X475000
X105000
X3420000Y185000
X3410000
X460000
X490000
X3420000Y195000
X3410000
X90000
X455000Y200000
X495000
X3420000Y205000
X3410000
X115000
X3570000
X3590000Y210000
X3420000Y215000
X3410000
X1515000
X1505000
X1495000
X25000
X65000
X460000
X490000
X475000Y220000
X3420000Y225000
X3410000
X1515000
X1505000
X1495000
X10000
X45000
X90000
X1965000
X1975000
X1985000
X1995000
X2005000
X3420000Y235000
X3410000
X1515000
X1505000
X1495000
X115000
X1965000
X1975000
X1985000
X1995000
X2005000
X3590000Y240000
X3420000Y245000
X3410000
X1515000
X1505000
X1495000
X25000
X65000
X1600000Y250000
X1590000
X1580000
X1515000Y255000
X1505000
X1495000
X10000
X45000
X90000
X995000Y260000
X1005000
X1075000
X1085000
X1235000
X1245000
X1310000
X1320000
X1515000Y265000
X1505000
X1495000
X115000
X1580000
X1590000
X1600000
X995000Y270000
X1005000
X1075000
X1085000
X1235000
X1245000
X1310000
X1320000
X3590000
X345000
X1505000Y275000
X1495000
X360000
X330000
X25000
X1515000
X995000Y280000
X1005000
X1075000
X1085000
X1235000
X1245000
X1310000
X1320000
X1600000
X1590000
X1580000
X10000Y285000
X325000Y290000
X365000
X995000
X1005000
X1075000
X1085000
X1235000
X1245000
X1310000
X1320000
X3440000Y295000
X3400000
X1580000
X1590000
X1600000
X3500000
X995000Y300000
X1005000
X1075000
X1085000
X1235000
X1245000
X1310000
X1320000
X3590000
X3170000Y301500
X3360000
X3440000Y305000
X3400000
X360000
X330000
X25000
X345000Y310000
X995000
X1005000
X1075000
X1085000
X1235000
X1245000
X1310000
X1320000
X3520000
X3170000Y311500
X3360000
X3440000Y315000
X3400000
X10000
X995000Y320000
X1005000
X1075000
X1085000
X1150000
X1160000
X1170000
X1235000
X1245000
X1310000
X1320000
X3575000
X3540000
X3440000Y325000
X3400000
X3500000
X995000Y330000
X1005000
X1075000
X1085000
X1235000
X1245000
X1310000
X1320000
X3590000
X3440000Y335000
X3400000
X3350000
X3340000
X25000
X3520000
X3555000
X995000Y340000
X1005000
X1075000
X1085000
X1235000
X1245000
X1310000
X1320000
X3170000Y341500
X3440000Y345000
X3400000
X3390000
X3380000
X3370000
X3360000
X3350000
X3340000
X10000
X709000Y346000
X3575000Y350000
X3540000
X3500000
X3170000Y352000
X3440000Y355000
X3400000
X3390000
X3380000
X3370000
X3360000
X3350000
X3340000
X709000Y356000
X1270000Y360000
X1280000
X1290000
X1365000
X1375000
X1385000
X3590000
X3440000Y365000
X3400000
X3390000
X3380000
X3370000
X3360000
X3350000
X1040000
X945000
X25000
X3520000
X3555000
X1347000Y367000
X1341000
X1335000
X1329000
X1323000
X1317000
X1252000
X1246000
X1240000
X1234000
X1228000
X1222000
X1098000
X1092000
X1086000
X1080000
X1074000
X1068000
X709000Y366000
X973000Y368000
X979000
X985000
X991000
X997000
X1003000
X1270000Y370000
X1280000
X1290000
X1365000
X1375000
X1385000
X1347000Y373000
X1341000
X1335000
X1329000
X1323000
X1317000
X1252000
X1246000
X1240000
X1234000
X1228000
X1222000
X1098000
X1092000
X1086000
X1080000
X1074000
X1068000
X973000Y374000
X979000
X985000
X991000
X997000
X1003000
X1170000Y375000
X1160000
X1150000
X10000
X1347000Y379000
X1341000
X1335000
X1329000
X1323000
X1317000
X1252000
X1246000
X1240000
X1234000
X1228000
X1222000
X1098000
X1092000
X1086000
X1080000
X1074000
X1068000
X935000Y380000
X945000
X955000
X973000
X979000
X985000
X991000
X997000
X1003000
X1030000
X1040000
X1050000
X1270000
X1280000
X1290000
X1365000
X1375000
X1385000
X3575000
X3540000
X3500000
X1347000Y385000
X1341000
X1335000
X1329000
X1323000
X1317000
X1252000
X1246000
X1240000
X1234000
X1228000
X1222000
X1098000
X1092000
X1086000
X1080000
X1074000
X1068000
X215000
X973000Y386000
X979000
X985000
X991000
X997000
X1003000
X1580000Y385000
X1590000
X1600000
X200000Y390000
X230000
X935000
X945000
X955000
X1030000
X1040000
X1050000
X1270000
X1280000
X1290000
X1365000
X1375000
X1385000
X3590000
X1347000Y391000
X1341000
X1335000
X1329000
X1323000
X1317000
X1252000
X1246000
X1240000
X1234000
X1228000
X1222000
X1098000
X1092000
X1086000
X1080000
X1074000
X1068000
X973000Y392000
X979000
X985000
X991000
X997000
X1003000
X25000Y395000
X3520000
X3555000
X1347000Y397000
X1341000
X1335000
X1329000
X1323000
X1317000
X1252000
X1246000
X1240000
X1234000
X1228000
X1222000
X1098000
X1092000
X1086000
X1080000
X1074000
X1068000
X973000Y398000
X979000
X985000
X991000
X997000
X1003000
X935000Y400000
X945000
X955000
X1030000
X1040000
X1050000
X1600000
X1590000
X1580000
X1347000Y403000
X1341000
X1335000
X1329000
X1323000
X1317000
X1252000
X1246000
X1240000
X1234000
X1228000
X1222000
X1098000
X1092000
X1086000
X1080000
X1074000
X1068000
X973000Y404000
X979000
X985000
X991000
X997000
X1003000
X1375000Y405000
X1280000
X10000
X195000
X235000
X935000Y410000
X945000
X955000
X1030000
X1040000
X1050000
X3575000
X3540000
X3500000
X1580000Y415000
X1590000
X1600000
X200000Y420000
X230000
X1150000
X1160000
X1170000
X3590000
X25000Y425000
X215000
X3520000
X3555000
X1600000Y430000
X1590000
X1580000
X10000Y435000
X3500000
X1270000Y440000
X1280000
X1290000
X1365000
X1375000
X1385000
X3575000
X1347000Y447000
X1341000
X1335000
X1329000
X1323000
X1317000
X1252000
X1246000
X1240000
X1234000
X1228000
X1222000
X1098000
X1092000
X1086000
X1080000
X1074000
X1068000
X1003000
X997000
X991000
X985000
X979000
X973000
X1270000Y450000
X1280000
X1290000
X1365000
X1375000
X1385000
X3590000
X1347000Y453000
X1341000
X1335000
X1329000
X1323000
X1317000
X1252000
X1246000
X1240000
X1234000
X1228000
X1222000
X1098000
X1092000
X1086000
X1080000
X1074000
X1068000
X1003000
X997000
X991000
X985000
X979000
X973000
X25000Y455000
X1347000Y459000
X1341000
X1335000
X1329000
X1323000
X1317000
X1252000
X1246000
X1240000
X1234000
X1228000
X1222000
X1098000
X1092000
X1086000
X1080000
X1074000
X1068000
X1003000
X997000
X991000
X985000
X979000
X973000
X935000Y460000
X945000
X955000
X1030000
X1040000
X1050000
X1270000
X1280000
X1290000
X1365000
X1375000
X1385000
X1347000Y465000
X1341000
X1335000
X1329000
X1323000
X1317000
X1252000
X1246000
X1240000
X1234000
X1228000
X1222000
X1098000
X1092000
X1086000
X1080000
X1074000
X1068000
X1003000
X997000
X991000
X985000
X979000
X973000
X10000
X3510000
X935000Y470000
X945000
X955000
X1030000
X1040000
X1050000
X1270000
X1280000
X1290000
X1365000
X1375000
X1385000
X3580000
X1347000Y471000
X1341000
X1335000
X1329000
X1323000
X1317000
X1252000
X1246000
X1240000
X1234000
X1228000
X1222000
X1098000
X1092000
X1086000
X1080000
X1074000
X1068000
X1003000
X997000
X991000
X985000
X979000
X973000
X1170000Y475000
X1160000
X1150000
X1925000
X1940000
X1955000
X1970000
X1985000
X1347000Y477000
X1341000
X1335000
X1329000
X1323000
X1317000
X1252000
X1246000
X1240000
X1234000
X1228000
X1222000
X1098000
X1092000
X1086000
X1080000
X1074000
X1068000
X1003000
X997000
X991000
X985000
X979000
X973000
X935000Y480000
X945000
X955000
X1030000
X1040000
X1050000
X3590000
X1347000Y483000
X1341000
X1335000
X1329000
X1323000
X1317000
X1252000
X1246000
X1240000
X1234000
X1228000
X1222000
X1098000
X1092000
X1086000
X1080000
X1074000
X1068000
X1003000
X997000
X991000
X985000
X979000
X973000
X25000Y485000
X1925000
X1940000
X1955000
X1970000
X1985000
X935000Y490000
X945000
X955000
X1030000
X1040000
X1050000
X10000Y495000
X1925000
X1940000
X1955000
X1970000
X1985000
X3510000
X3545000
X3575000
X1985000Y505000
X25000Y515000
X3590000
X10000Y525000
X845000Y530000
X855000
X865000
X875000
X885000
X895000
X905000
X1420000
X1430000
X1440000
X1450000
X1460000
X1470000
X1480000
X845000Y540000
X855000
X865000
X875000
X885000
X895000
X905000
X1060000
X1070000
X1080000
X1090000
X1100000
X1110000
X1120000
X1130000
X1140000
X1150000
X1160000
X1170000
X1180000
X1190000
X1210000
X1220000
X1230000
X1240000
X1250000
X1260000
X1270000
X1280000
X1420000
X1430000
X1440000
X1450000
X1460000
X1470000
X1480000
X3590000
X1200000
X25000Y545000
X845000Y550000
X855000
X865000
X875000
X885000
X895000
X905000
X1060000
X1070000
X1080000
X1090000
X1100000
X1110000
X1120000
X1130000
X1140000
X1150000
X1160000
X1170000
X1180000
X1190000
X1210000
X1220000
X1230000
X1240000
X1250000
X1260000
X1270000
X1280000
X1420000
X1430000
X1440000
X1450000
X1460000
X1470000
X1480000
X1200000
X10000Y555000
X845000Y560000
X855000
X865000
X875000
X885000
X895000
X905000
X1060000
X1070000
X1080000
X1090000
X1100000
X1110000
X1120000
X1130000
X1140000
X1150000
X1160000
X1170000
X1180000
X1190000
X1210000
X1220000
X1230000
X1240000
X1250000
X1260000
X1270000
X1280000
X1420000
X1430000
X1440000
X1450000
X1460000
X1470000
X1480000
X2510000
X1200000
X3590000Y565000
X845000Y570000
X855000
X865000
X875000
X885000
X895000
X905000
X1060000
X1070000
X1080000
X1090000
X1100000
X1110000
X1120000
X1130000
X1140000
X1150000
X1160000
X1170000
X1180000
X1190000
X1210000
X1220000
X1230000
X1240000
X1250000
X1260000
X1270000
X1280000
X1420000
X1430000
X1440000
X1450000
X1460000
X1470000
X1480000
X2520000
X1200000
X25000Y575000
X845000Y580000
X855000
X865000
X875000
X885000
X895000
X905000
X1060000
X1070000
X1080000
X1090000
X1100000
X1110000
X1120000
X1130000
X1140000
X1150000
X1160000
X1170000
X1180000
X1190000
X1210000
X1220000
X1230000
X1240000
X1250000
X1260000
X1270000
X1280000
X1420000
X1430000
X1440000
X1450000
X1460000
X1470000
X1480000
X1200000
X10000Y585000
X1130000Y590000
X1140000
X1150000
X1160000
X1170000
X1180000
X1190000
X3590000
X2510000
X3575000Y595000
X1130000Y600000
X1140000
X1150000
X1160000
X1170000
X1180000
X1190000
X2520000
X25000Y605000
X1130000Y610000
X1140000
X1150000
X1160000
X1170000
X1180000
X1190000
X10000Y615000
X100000
X110000
X3590000
X3575000Y620000
X2510000
X100000Y625000
X110000
X2520000Y630000
X25000Y635000
X100000
X110000
X3590000Y640000
X10000Y645000
X100000
X110000
X3575000
X2510000Y650000
X100000Y655000
X110000
X2520000Y660000
X25000Y665000
X100000
X110000
X3590000Y670000
X10000Y675000
X3575000
X2510000Y680000
X2520000Y690000
X25000Y695000
X3590000Y700000
X10000Y705000
X3575000
X2510000Y710000
X85000Y715000
X2520000Y720000
X3590000Y730000
X10000Y735000
X3575000
X2510000Y740000
X100000Y745000
X2520000Y750000
X2625000Y760000
X2635000
X2645000
X2655000
X3590000
X10000Y765000
X3575000
X2625000Y770000
X2635000
X2645000
X2655000
X2510000
X100000Y775000
X2625000Y780000
X2635000
X2645000
X2655000
X2520000
X25000Y785000
X2625000Y790000
X2635000
X2645000
X2655000
X3590000
X10000Y795000
X45000
X85000
X3575000
X2625000Y800000
X2635000
X2645000
X2655000
X2510000
X100000Y805000
X2625000Y810000
X2635000
X2645000
X2655000
X2520000
X25000Y815000
X70000
X2625000Y820000
X2635000
X2645000
X2655000
X3590000
X45000
X10000Y825000
X3575000
X2625000Y830000
X2635000
X2645000
X2655000
X2510000
X85000
X100000Y835000
X850000Y840000
X860000
X870000
X880000
X890000
X1020000
X1030000
X1040000
X1050000
X1060000
X1265000
X1275000
X1285000
X1295000
X1305000
X1435000
X1445000
X1455000
X1465000
X1475000
X2625000
X2635000
X2645000
X2655000
X2520000
X25000Y845000
X850000Y850000
X860000
X870000
X880000
X890000
X1020000
X1030000
X1040000
X1050000
X1060000
X1265000
X1275000
X1285000
X1295000
X1305000
X1435000
X1445000
X1455000
X1465000
X1475000
X2430000
X2461000Y849000
X2625000Y850000
X2635000
X2645000
X2655000
X3590000
X10000Y855000
X3575000
X850000Y860000
X860000
X870000
X880000
X890000
X1020000
X1030000
X1040000
X1050000
X1060000
X1265000
X1275000
X1285000
X1295000
X1305000
X1435000
X1445000
X1455000
X1465000
X1475000
X2625000
X2635000
X2645000
X2655000
X2510000
X2615000Y865000
X2605000
X2595000
X2585000
X2435000
X100000
X2461000Y866000
X850000Y870000
X860000
X870000
X880000
X890000
X1020000
X1030000
X1040000
X1050000
X1060000
X1265000
X1275000
X1285000
X1295000
X1305000
X1435000
X1445000
X1455000
X1465000
X1475000
X2625000
X2635000
X2645000
X2655000
X2520000
X2615000Y875000
X2605000
X2595000
X2585000
X25000
X850000Y880000
X860000
X870000
X880000
X890000
X1020000
X1030000
X1040000
X1050000
X1060000
X1265000
X1275000
X1285000
X1295000
X1305000
X1435000
X1445000
X1455000
X1465000
X1475000
X2625000
X2635000
X2645000
X2655000
X3590000
X65000
X2615000Y885000
X2605000
X2595000
X2585000
X10000
X45000
X85000
X3575000
X2510000Y890000
X2625000Y895000
X2615000
X2605000
X2595000
X2585000
X2465000
X2435000
X100000
X2520000Y900000
X2625000Y905000
X2615000
X2605000
X2595000
X2585000
X25000
X65000
X3405000
X3425000
X3455000
X3485000
X3515000
X3555000
X3590000Y910000
X2625000Y915000
X2615000
X2605000
X2595000
X2585000
X1770000
X1750000
X1730000
X1710000
X1690000
X10000
X45000
X85000
X3395000
X3445000
X3475000
X3505000
X3535000
X3575000
X2110000Y920000
X2130000
X2150000
X2170000
X2185000
X2510000
X2090000
X2625000Y925000
X2615000
X2605000
X2595000
X2585000
X1780000
X1760000
X1740000
X1720000
X1700000
X3415000
X2100000Y930000
X2120000
X2140000
X2160000
X2180000
X2520000
X908000Y932000
X914000
X920000
X926000
X932000
X938000
X987000
X993000
X999000
X1005000
X1011000
X1017000
X1323000
X1329000
X1335000
X1341000
X1347000
X1353000
X1402000
X1408000
X1414000
X1420000
X1426000
X1432000
X1461000Y933000
X1455000
X1449000
X1046000
X1040000
X1034000
X2625000Y935000
X2615000
X2605000
X2595000
X2585000
X1770000
X1750000
X1730000
X1710000
X1690000
X25000
X516000Y936000
X528000
X540000
X552000
X564000
X3405000Y935000
X908000Y938000
X914000
X920000
X926000
X932000
X938000
X987000
X993000
X999000
X1005000
X1011000
X1017000
X1323000
X1329000
X1335000
X1341000
X1347000
X1353000
X1402000
X1408000
X1414000
X1420000
X1426000
X1432000
X2090000Y940000
X2110000
X2130000
X2150000
X2170000
X2185000
X3590000
X1034000Y942000
X1040000
X1046000
X1449000
X1455000
X1461000
X908000Y944000
X914000
X920000
X926000
X932000
X938000
X987000
X993000
X999000
X1005000
X1011000
X1017000
X1323000
X1329000
X1335000
X1341000
X1347000
X1353000
X1402000
X1408000
X1414000
X1420000
X1426000
X1432000
X2625000Y945000
X2615000
X2605000
X2595000
X2585000
X1780000
X1760000
X1740000
X1720000
X1700000
X10000
X3575000
X892000Y947000
X886000
X880000
X516000Y948000
X528000
X540000
X552000
X564000
X1295000
X1301000
X1307000
X908000Y950000
X914000
X920000
X926000
X932000
X938000
X987000
X993000
X999000
X1005000
X1011000
X1017000
X1323000
X1329000
X1335000
X1341000
X1347000
X1353000
X1402000
X1408000
X1414000
X1420000
X1426000
X1432000
X2100000
X2120000
X2140000
X2160000
X2180000
X2510000
X1034000Y952000
X1040000
X1046000
X1449000
X1455000
X1461000
X2625000Y955000
X2615000
X2605000
X2595000
X2585000
X1770000
X1750000
X1730000
X1710000
X1690000
X880000Y956000
X886000
X892000
X908000
X914000
X920000
X926000
X932000
X938000
X987000
X993000
X999000
X1005000
X1011000
X1017000
X1323000
X1329000
X1335000
X1341000
X1347000
X1353000
X1402000
X1408000
X1414000
X1420000
X1426000
X1432000
X1307000Y957000
X1301000
X1295000
X516000Y960000
X528000
X540000
X552000
X564000
X2090000
X2110000
X2130000
X2150000
X2170000
X2185000
X2520000
X908000Y962000
X914000
X920000
X926000
X932000
X938000
X987000
X993000
X999000
X1005000
X1011000
X1017000
X1323000
X1329000
X1335000
X1341000
X1347000
X1353000
X1402000
X1408000
X1414000
X1420000
X1426000
X1432000
X2625000Y965000
X2615000
X2605000
X2595000
X2585000
X1780000
X1760000
X1740000
X1720000
X1700000
X20000
X880000Y966000
X886000
X892000
X3405000Y965000
X1307000Y967000
X1301000
X1295000
X908000Y968000
X914000
X920000
X926000
X932000
X938000
X987000
X993000
X999000
X1005000
X1011000
X1017000
X1323000
X1329000
X1335000
X1341000
X1347000
X1353000
X1402000
X1408000
X1414000
X1420000
X1426000
X1432000
X2100000Y970000
X2120000
X2140000
X2160000
X2180000
X3590000
X516000Y972000
X528000
X540000
X552000
X564000
X2625000Y975000
X2615000
X2605000
X2595000
X2585000
X1770000
X1750000
X1730000
X1710000
X1690000
X10000
X3580000
X905000Y980000
X915000
X925000
X980000
X990000
X1000000
X1320000
X1330000
X1340000
X1390000
X1400000
X1410000
X2090000
X2110000
X2130000
X2150000
X2170000
X2185000
X3395000
X2510000
X516000Y984000
X528000
X540000
X552000
X564000
X2625000Y985000
X2615000
X2605000
X2595000
X2585000
X1780000
X1760000
X1740000
X1720000
X1700000
X905000Y990000
X915000
X925000
X980000
X990000
X1000000
X1320000
X1330000
X1340000
X1390000
X1400000
X1410000
X2100000
X2120000
X2140000
X2160000
X2180000
X2520000
X1770000Y995000
X1750000
X1730000
X1710000
X1690000
X20000
X3405000
X905000Y1000000
X915000
X925000
X980000
X990000
X1000000
X1320000
X1330000
X1340000
X1390000
X1400000
X1410000
X2090000
X2110000
X2130000
X2150000
X2170000
X2185000
X3590000
X1780000Y1005000
X1760000
X1740000
X1720000
X1700000
X10000
X3580000
X2100000Y1010000
X2120000
X2140000
X2160000
X2180000
X2510000
X1770000Y1015000
X1750000
X1730000
X1710000
X1690000
X3395000
X2090000Y1020000
X2110000
X2130000
X2150000
X2170000
X2185000
X2520000
X1432000Y1023000
X1426000
X1420000
X1414000
X1408000
X1402000
X1396000
X1358000
X1352000
X1346000
X1340000
X1334000
X1328000
X1322000
X1017000
X1011000
X1005000
X999000
X993000
X987000
X981000
X943000
X937000
X931000
X925000
X919000
X913000
X907000
X1780000Y1025000
X1760000
X1740000
X1720000
X1700000
X20000
X3405000
X1432000Y1029000
X1426000
X1420000
X1414000
X1408000
X1402000
X1396000
X1358000
X1352000
X1346000
X1340000
X1334000
X1328000
X1322000
X1017000
X1011000
X1005000
X999000
X993000
X987000
X981000
X943000
X937000
X931000
X925000
X919000
X913000
X907000
X3590000Y1030000
X2600000Y1035000
X2585000
X2185000
X2170000
X2150000
X2130000
X2110000
X2090000
X1770000
X1750000
X1730000
X1710000
X1690000
X1432000
X1426000
X1420000
X1414000
X1408000
X1402000
X1396000
X1358000
X1352000
X1346000
X1340000
X1334000
X1328000
X1322000
X1017000
X1011000
X1005000
X999000
X993000
X987000
X981000
X943000
X937000
X931000
X925000
X919000
X913000
X907000
X10000
X3580000
X2510000Y1040000
X1432000Y1041000
X1426000
X1420000
X1414000
X1408000
X1402000
X1396000
X1358000
X1352000
X1346000
X1340000
X1334000
X1328000
X1322000
X1017000
X1011000
X1005000
X999000
X993000
X987000
X981000
X943000
X937000
X931000
X925000
X919000
X913000
X907000
X2600000Y1045000
X2585000
X2180000
X2160000
X2140000
X2120000
X2100000
X1780000
X1760000
X1740000
X1720000
X1700000
X3395000
X1432000Y1047000
X1426000
X1420000
X1414000
X1408000
X1402000
X1396000
X1358000
X1352000
X1346000
X1340000
X1334000
X1328000
X1322000
X1017000
X1011000
X1005000
X999000
X993000
X987000
X981000
X943000
X937000
X931000
X925000
X919000
X913000
X907000
X2520000Y1050000
X1432000Y1053000
X1426000
X1420000
X1414000
X1408000
X1402000
X1396000
X1358000
X1352000
X1346000
X1340000
X1334000
X1328000
X1322000
X1017000
X1011000
X1005000
X999000
X993000
X987000
X981000
X943000
X937000
X931000
X925000
X919000
X913000
X907000
X2600000Y1055000
X2585000
X2185000
X2170000
X2150000
X2130000
X2110000
X2090000
X1770000
X1750000
X1730000
X1710000
X1690000
X20000
X3405000
X3590000Y1060000
X2600000Y1065000
X2585000
X2180000
X2160000
X2140000
X2120000
X2100000
X1780000
X1760000
X1740000
X1720000
X1700000
X10000
X3580000
X2510000Y1070000
X2600000Y1075000
X2585000
X2185000
X2170000
X2150000
X2130000
X2110000
X2090000
X1770000
X1750000
X1730000
X1710000
X1690000
X3395000
X2520000Y1080000
X2600000Y1085000
X2585000
X2180000
X2160000
X2140000
X2120000
X2100000
X1780000
X1760000
X1740000
X1720000
X1700000
X20000
X3405000
X3590000Y1090000
X2600000Y1095000
X2585000
X2185000
X2170000
X2150000
X2130000
X2110000
X2090000
X1770000
X1750000
X1730000
X1710000
X1690000
X10000
X3580000
X2510000Y1100000
X2600000Y1105000
X2585000
X2180000
X2160000
X2140000
X2120000
X2100000
X1780000
X1760000
X1740000
X1720000
X1700000
X3395000
X2520000Y1110000
X2600000Y1115000
X2585000
X2185000
X2170000
X2150000
X2130000
X2110000
X2090000
X1770000
X1750000
X1730000
X1710000
X1690000
X20000
X3405000
X3590000Y1120000
X2600000Y1125000
X2585000
X2180000
X2160000
X2140000
X2120000
X2100000
X1780000
X1760000
X1740000
X1720000
X1700000
X10000
X2515000
X2530000
X3580000
X3395000Y1130000
X1690000Y1140000
X1710000
X1730000
X1750000
X1770000
X2090000
X2110000
X2130000
X2150000
X2170000
X2185000
X2545000
X20000Y1145000
X2530000
X3405000
X1700000Y1150000
X1720000
X1740000
X1760000
X1780000
X2100000
X2120000
X2140000
X2160000
X2180000
X3590000
X1260000Y1155000
X1250000
X1240000
X1230000
X1220000
X1120000
X1110000
X1100000
X1090000
X1080000
X10000
X3580000
X1690000Y1160000
X1710000
X1730000
X1750000
X1770000
X2090000
X2110000
X2130000
X2150000
X2170000
X2185000
X3390000
X2565000
X1260000Y1165000
X1250000
X1240000
X1230000
X1220000
X1120000
X1110000
X1100000
X1090000
X1080000
X2550000
X1700000Y1170000
X1720000
X1740000
X1760000
X1780000
X2100000
X2120000
X2140000
X2160000
X2180000
X1260000Y1175000
X1250000
X1240000
X1230000
X1220000
X1120000
X1110000
X1100000
X1090000
X1080000
X20000
X3380000
X3405000
X1690000Y1180000
X1710000
X1730000
X1750000
X1770000
X2090000
X2110000
X2130000
X2150000
X2170000
X2185000
X3590000
X2590000
X1260000Y1185000
X1250000
X1240000
X1230000
X1220000
X1120000
X1110000
X1100000
X1090000
X1080000
X10000
X2570000
X2610000
X2640000
X2670000
X2700000
X2730000
X2760000
X2790000
X2820000
X2850000
X2880000
X2910000
X2940000
X2970000
X3000000
X3030000
X3060000
X3090000
X3120000
X3150000
X3180000
X3210000
X3240000
X3270000
X3300000
X3330000
X3360000
X3580000
X1700000Y1190000
X1720000
X1740000
X1760000
X1780000
X2100000
X2120000
X2140000
X2160000
X2180000
X3390000
X1260000Y1195000
X1250000
X1240000
X1230000
X1220000
X1120000
X1110000
X1100000
X1090000
X1080000
X2590000
X2620000
X2650000
X2680000
X2710000
X2740000
X2770000
X2800000
X2830000
X2860000
X2890000
X2920000
X2950000
X2980000
X3010000
X3040000
X3070000
X3100000
X3130000
X3160000
X3190000
X3220000
X3250000
X3280000
X3310000
X3340000
X3370000
X1690000Y1200000
X1710000
X1730000
X1750000
X1770000
X2090000
X2110000
X2130000
X2150000
X2170000
X2185000
X20000Y1205000
X1700000Y1210000
X1720000
X1740000
X1760000
X1780000
X2100000
X2120000
X2140000
X2160000
X2180000
X3590000
X1470000Y1215000
X1460000
X1450000
X10000
X885000
X895000
X905000
X3580000
X1160000Y1220000
X1170000
X1180000
X1190000
X1200000
X1210000
X1220000
X1690000
X1710000
X1730000
X1750000
X1770000
X2090000
X2110000
X2130000
X2150000
X2170000
X2185000
X925000Y1230000
X940000
X955000
X985000
X1000000
X1015000
X1160000
X1170000
X1180000
X1190000
X1200000
X1210000
X1220000
X1325000
X1340000
X1355000
X1385000
X1400000
X1415000
X1700000
X1720000
X1740000
X1760000
X1780000
X2100000
X2120000
X2140000
X2160000
X2180000
X3590000
X20000
X985000Y1240000
X1000000
X1015000
X1160000
X1170000
X1180000
X1190000
X1200000
X1210000
X1220000
X1690000
X1710000
X1730000
X1750000
X1770000
X2090000
X2110000
X2130000
X2150000
X2170000
X2185000
X1415000
X1400000
X1385000
X1355000
X1340000
X1325000
X955000
X940000
X925000
X3580000Y1245000
X1160000Y1250000
X1170000
X1180000
X1190000
X1200000
X1210000
X1220000
X1700000
X1720000
X1740000
X1760000
X1780000
X1410000
X1400000
X1385000
X1350000
X1340000
X1325000
X1010000
X1000000
X985000
X950000
X940000
X925000
X10000Y1255000
X3590000Y1260000
X20000Y1265000
X1160000Y1270000
X1170000
X1180000
X1190000
X1200000
X1210000
X1220000
X3580000Y1275000
X1160000Y1280000
X1170000
X1180000
X1190000
X1200000
X1210000
X1220000
X10000Y1285000
X1160000Y1290000
X1170000
X1180000
X1190000
X1200000
X1210000
X1220000
X3590000
X20000Y1295000
X3580000Y1305000
X10000Y1315000
X3590000Y1320000
X20000Y1325000
X1265000Y1335000
X1250000
X1235000
X1220000
X1205000
X1135000
X1120000
X1105000
X1090000
X1075000
X3580000
X1265000Y1345000
X1250000
X1235000
X1220000
X1205000
X1135000
X1120000
X1105000
X1090000
X1075000
X10000
X3590000Y1350000
X1265000Y1355000
X1250000
X1235000
X1220000
X1205000
X1135000
X1120000
X1105000
X1090000
X1075000
X20000
X1265000Y1365000
X1250000
X1235000
X1220000
X1205000
X1135000
X1120000
X1105000
X1090000
X1075000
X3580000
X1265000Y1375000
X1250000
X1235000
X1220000
X1205000
X1135000
X1120000
X1105000
X1090000
X1075000
X10000
X3590000Y1380000
X20000Y1385000
X3580000Y1395000
X10000Y1405000
X3590000Y1410000
X20000Y1415000
X3580000Y1425000
X1600000Y1435000
X1585000
X1570000
X1555000
X1540000
X1525000
X1510000
X1495000
X1480000
X1465000
X1450000
X1435000
X1420000
X1405000
X1390000
X1375000
X1360000
X1345000
X1330000
X1315000
X1300000
X1285000
X1270000
X1255000
X1240000
X1225000
X1210000
X1195000
X1180000
X1165000
X1150000
X1135000
X1120000
X1105000
X1090000
X1075000
X1060000
X1045000
X1030000
X1015000
X1000000
X10000
X985000
X3590000Y1440000
X1605000Y1480000
X1575000
X1545000
X1515000
X1485000
X1455000
X1425000
X1395000
X1365000
X1335000
X1305000
X1275000
X1245000
X1215000
X1185000
X1155000
X1125000
X1095000
X1065000
X1035000
X1005000
X975000
X75000Y1505000
X105000
X135000
X165000
X195000
X225000
X255000
X285000
X315000
X345000
X375000
X405000
X435000
X465000
X495000
X525000
X555000
X585000
X615000
X645000
X675000
X705000
X735000
X765000
X795000
X825000
X855000
X945000
X975000
X1005000
X1035000
X1065000
X1095000
X1125000
X1155000
X1185000
X1215000
X1245000
X1275000
X1305000
X1335000
X1365000
X1395000
X1425000
X1455000
X1485000
X1515000
X1545000
X1575000
X1605000
X1635000
X1725000
X1755000
X1785000
X1815000
X1845000
X1875000
X1905000
X1935000
X1965000
X1995000
X2025000
X2055000
X2085000
X2115000
X2145000
X2175000
X2205000
X2235000
X2265000
X2295000
X2325000
X2355000
X2385000
X2415000
X2445000
X2475000
X2505000
X2535000
X2565000
X2595000
X2625000
X2655000
X2685000
X2715000
X2745000
X2775000
X2805000
X2835000
X2865000
X2895000
X2925000
X2955000
X2985000
X3015000
X3045000
X3075000
X3105000
X3135000
X3165000
X3195000
X3225000
X3255000
X3285000
X3315000
X3345000
X3375000
X3405000
X3435000
X3465000
X3495000
X3525000
X3590000
X115000Y1515000
X145000
X535000
X565000
X955000
X985000
X1375000
X1405000
X1795000
X1825000
X2215000
X2245000
X2635000
X2665000
X3055000
X3085000
X3475000
X3505000
X3565000Y1520000
X3535000
X3445000
X3415000
X3385000
X3355000
X3325000
X3295000
X3265000
X3235000
X3205000
X3175000
X3145000
X3115000
X3025000
X2995000
X2965000
X2935000
X2905000
X2875000
X2845000
X2815000
X2785000
X2755000
X2725000
X2695000
X2605000
X2575000
X2545000
X2515000
X2485000
X2455000
X2425000
X2395000
X2365000
X2335000
X2305000
X2275000
X2185000
X2155000
X2125000
X2095000
X2065000
X2035000
X2005000
X1975000
X1945000
X1915000
X1885000
X1855000
X1765000
X1735000
X1705000
X1675000
X1645000
X1615000
X1585000
X1555000
X1525000
X1495000
X1465000
X1435000
X1345000
X1315000
X1285000
X1255000
X1225000
X1195000
X1165000
X1135000
X1105000
X1075000
X1045000
X1015000
X925000
X895000
X865000
X835000
X805000
X775000
X745000
X715000
X685000
X655000
X625000
X595000
X505000
X475000
X445000
X415000
X385000
X355000
X325000
X295000
X265000
X235000
X205000
X175000
X85000
X55000
X25000
T05
X3135000Y270000
X3150000
X3135000Y290000
X3150000
X3135000Y310000
X3150000
X3135000Y330000
X3150000
X3135000Y350000
X3150000
X3135000Y370000
X3150000
X3165000
X3180000
X3510000Y1012500
X3490000
X3470000
X140000
X120000
X100000
Y1037900
X120000
X140000
X3470000
X3490000
X3510000
X100000Y1063300
X120000
X140000
X3470000
X3490000
X3510000
Y1088700
X3490000
X3470000
X140000
X120000
X100000
X3508000Y1116700
X3484000
X138000
X114000
X102000Y1131700
X126000
X3472000
X3496000
X3508000Y1146700
X3484000
X138000
X114000
X102000Y1161700
X126000
X3472000
X3496000
X3508000Y1176700
X3484000
X138000
X114000
X102000Y1191700
X126000
X3472000
X3496000
X3508000Y1206700
X3484000
X138000
X114000
X102000Y1221700
X126000
X3472000
X3496000
X3508000Y1236700
X3484000
X138000
X114000
X102000Y1251700
X126000
X3472000
X3496000
X3508000Y1266700
X3484000
X138000
X114000
X102000Y1281700
X126000
X3472000
X3496000
X3508000Y1296700
X3484000
X138000
X114000
X102000Y1311700
X126000
X3472000
X3496000
X3508000Y1326700
X3484000
X138000
X114000
X102000Y1341700
X126000
X3472000
X3496000
T02
X475000Y200000
X425000
X1620000Y265000
X345000Y290000
X295000
X1620000Y315000
Y395000
X215000Y405000
X165000
X1620000Y445000
X320000Y1215000
Y1265000
X3030000Y1330000
X2320000
X320000Y1345000
X3030000Y1380000
X2320000
X320000Y1395000
T03
X3185000Y530000
X3335000
Y625000
X3185000
T08
X3256250Y69100
X3383750
Y94500
X3256250
Y119900
X3383750
X3256250Y189100
X3383750
Y214500
X3256250
Y239900
X3383750
T01
X3054000Y133500
X2515000Y148500
X1665000
X900000
X3545000Y160000
Y260000
X75000Y302500
X2525000Y502500
X3545000Y556500
X1610000Y563500
X460000Y602500
X2605000Y687500
X55000Y748500
X3560000Y1474500
X3115000
X2235000
X1672000Y1474453
X910000Y1474500
X40000
T07
X3320000Y94500
Y214500
T00
M30
