; Version : LOCAL
; Job     : V:\2023\17_KDDI_3.7G_4.0G_32T32R_200W_PWR_PP3235-77A\PCS01B\06_Working\PCB\PP3235-77A.pcb
; User    : JIAXIN-ZHANG01:jiaxin.zhang
; Date    : Tue Jan 09 13:22:22 2024
; Format  : 2.4 / Absolute / MM / Leading
; Contents: Thru / Drill / Non-Plated
M48
METRIC,TZ
FMAT,2
ICI,OFF
T12C0.8000
T13C2.1000
%
M71
G90
G93X0Y0
T12
X2994003Y72500
X2979003
X2964003
X2744003
X2729003
X2714003
X2444003
X2429003
X2414003
X1941003
X1926003
X1911003
X1391003
X1376003
X1361003
X1121003
X1106003
X1091003
X841003
X826003
X811003
X571003
X556003
X541003
X291000
X276000
X261000
X36000Y191000
X51000
X114034Y1537500
X129034
X144034
X534032
X549032
X564032
X984030
X999030
X1014030
X1249027
X1264027
X1279027
X1519027
X1534027
X1549027
X2069000
X2084000
X2099000
X2339000
X2354000
X2369000
X2604018
X2619018
X2634018
X3054014
X3069014
X3084014
X3474007
X3489007
X3504007
T13
X3500000Y992000
X130000
Y1365200
X3500000
T00
M30
